<svg width="367" height="53" viewBox="0 0 367 53" fill="none" xmlns="http://www.w3.org/2000/svg">
<path d="M19.75 17.6964C19.4792 17.6964 19.233 17.6317 19.0114 17.5025C18.7898 17.3701 18.6128 17.1932 18.4805 16.9716C18.3512 16.7469 18.2866 16.5007 18.2866 16.233C18.2866 15.9621 18.3512 15.7159 18.4805 15.4943C18.6128 15.2727 18.7898 15.0973 19.0114 14.968C19.233 14.8357 19.4792 14.7695 19.75 14.7695C20.0178 14.7695 20.2624 14.8357 20.484 14.968C20.7087 15.0973 20.8872 15.2727 21.0195 15.4943C21.1519 15.7159 21.2165 15.9621 21.2134 16.233C21.2134 16.5007 21.1473 16.7469 21.0149 16.9716C20.8826 17.1932 20.7056 17.3701 20.484 17.5025C20.2624 17.6317 20.0178 17.6964 19.75 17.6964ZM37.4911 13.5C37.4203 13.1799 37.3003 12.8706 37.131 12.5721C36.9618 12.2705 36.7448 11.9996 36.4801 11.7596C36.2185 11.5165 35.9107 11.3241 35.5568 11.1825C35.206 11.041 34.812 10.9702 34.375 10.9702C33.7071 10.9702 33.1147 11.1456 32.5977 11.4964C32.0837 11.8442 31.6805 12.3413 31.3881 12.9876C31.0988 13.6308 30.9542 14.3925 30.9542 15.2727C30.9542 16.1437 31.0988 16.9023 31.3881 17.5487C31.6774 18.195 32.0821 18.6951 32.6023 19.049C33.1255 19.3999 33.7333 19.5753 34.4258 19.5753C35.0444 19.5753 35.5922 19.4322 36.0692 19.146C36.5494 18.8597 36.9233 18.4504 37.1911 17.918C37.4588 17.3855 37.5896 16.7485 37.5835 16.0067L37.7866 16.1037H34.5735V15.5682H38.1467V16.1037C38.1467 16.9377 37.9866 17.6564 37.6665 18.2596C37.3496 18.8597 36.9094 19.3214 36.3462 19.6445C35.7861 19.9677 35.146 20.1293 34.4258 20.1293C33.6133 20.1293 32.9039 19.9277 32.2976 19.5245C31.6913 19.1213 31.2204 18.5566 30.8849 17.8303C30.5526 17.1009 30.3864 16.2483 30.3864 15.2727C30.3864 14.5402 30.4818 13.8755 30.6726 13.2784C30.8634 12.6813 31.1358 12.1705 31.4897 11.7457C31.8436 11.3179 32.2653 10.9902 32.7546 10.7624C33.244 10.5316 33.7841 10.4162 34.375 10.4162C34.9105 10.4162 35.3922 10.5054 35.82 10.6839C36.2478 10.8594 36.6171 11.0964 36.9279 11.3949C37.2418 11.6903 37.4957 12.0212 37.6896 12.3874C37.8835 12.7506 38.0143 13.1214 38.082 13.5H37.4911ZM42.537 20.1477C41.9523 20.1477 41.4321 19.9908 40.9767 19.6768C40.5212 19.3598 40.1626 18.9244 39.901 18.3704C39.6394 17.8164 39.5086 17.1855 39.5086 16.4776C39.5086 15.7667 39.6394 15.1358 39.901 14.5849C40.1626 14.0309 40.5212 13.5954 40.9767 13.2784C41.4321 12.9614 41.9523 12.8029 42.537 12.8029C43.1218 12.8029 43.6419 12.9614 44.0974 13.2784C44.5529 13.5954 44.9114 14.0309 45.173 14.5849C45.4346 15.1388 45.5654 15.7698 45.5654 16.4776C45.5654 17.1855 45.4346 17.8164 45.173 18.3704C44.9114 18.9244 44.5529 19.3598 44.0974 19.6768C43.6419 19.9908 43.1218 20.1477 42.537 20.1477ZM42.537 19.6261C43.0325 19.6261 43.4649 19.486 43.8343 19.206C44.2067 18.9259 44.4944 18.5473 44.6975 18.0703C44.9037 17.5933 45.0068 17.0624 45.0068 16.4776C45.0068 15.8929 44.9037 15.3635 44.6975 14.8896C44.4913 14.4125 44.2036 14.034 43.8343 13.7539C43.4649 13.4708 43.0325 13.3292 42.537 13.3292C42.0415 13.3292 41.6091 13.4708 41.2398 13.7539C40.8705 14.034 40.5827 14.4125 40.3765 14.8896C40.1703 15.3635 40.0672 15.8929 40.0672 16.4776C40.0672 17.0624 40.1688 17.5933 40.3719 18.0703C40.5781 18.5473 40.8659 18.9259 41.2352 19.206C41.6076 19.486 42.0415 19.6261 42.537 19.6261ZM49.7515 20.1477C49.1668 20.1477 48.6466 19.9908 48.1911 19.6768C47.7357 19.3598 47.3771 18.9244 47.1155 18.3704C46.8539 17.8164 46.7231 17.1855 46.7231 16.4776C46.7231 15.7667 46.8539 15.1358 47.1155 14.5849C47.3771 14.0309 47.7357 13.5954 48.1911 13.2784C48.6466 12.9614 49.1668 12.8029 49.7515 12.8029C50.3363 12.8029 50.8564 12.9614 51.3119 13.2784C51.7674 13.5954 52.1259 14.0309 52.3875 14.5849C52.6491 15.1388 52.7799 15.7698 52.7799 16.4776C52.7799 17.1855 52.6491 17.8164 52.3875 18.3704C52.1259 18.9244 51.7674 19.3598 51.3119 19.6768C50.8564 19.9908 50.3363 20.1477 49.7515 20.1477ZM49.7515 19.6261C50.247 19.6261 50.6794 19.486 51.0487 19.206C51.4211 18.9259 51.7089 18.5473 51.912 18.0703C52.1182 17.5933 52.2213 17.0624 52.2213 16.4776C52.2213 15.8929 52.1182 15.3635 51.912 14.8896C51.7058 14.4125 51.4181 14.034 51.0487 13.7539C50.6794 13.4708 50.247 13.3292 49.7515 13.3292C49.256 13.3292 48.8236 13.4708 48.4543 13.7539C48.085 14.034 47.7972 14.4125 47.591 14.8896C47.3848 15.3635 47.2817 15.8929 47.2817 16.4776C47.2817 17.0624 47.3833 17.5933 47.5864 18.0703C47.7926 18.5473 48.0804 18.9259 48.4497 19.206C48.8221 19.486 49.256 19.6261 49.7515 19.6261ZM56.8875 22.8068C56.4474 22.8068 56.0519 22.7483 55.7011 22.6314C55.3502 22.5175 55.0517 22.3544 54.8055 22.142C54.5624 21.9297 54.3762 21.6773 54.2469 21.3849L54.7178 21.108C54.8224 21.3357 54.9717 21.5388 55.1656 21.7173C55.3595 21.8958 55.5995 22.0359 55.8858 22.1374C56.1751 22.239 56.509 22.2898 56.8875 22.2898C57.5708 22.2898 58.1109 22.1128 58.5079 21.7589C58.908 21.408 59.1081 20.8694 59.1081 20.1431V18.3796H59.0527C58.9449 18.6874 58.7849 18.9613 58.5725 19.2013C58.3633 19.4383 58.1063 19.6245 57.8016 19.7599C57.4969 19.8954 57.1507 19.9631 56.7629 19.9631C56.2028 19.9631 55.7103 19.8184 55.2856 19.5291C54.8609 19.2398 54.53 18.8336 54.2931 18.3104C54.0561 17.7841 53.9376 17.1655 53.9376 16.4545C53.9376 15.7436 54.053 15.1142 54.2838 14.5664C54.5177 14.0155 54.847 13.5846 55.2718 13.2738C55.6965 12.9599 56.1951 12.8029 56.7675 12.8029C57.1768 12.8029 57.5308 12.8814 57.8293 13.0384C58.1309 13.1922 58.3833 13.3969 58.5864 13.6523C58.7895 13.9078 58.9465 14.1879 59.0573 14.4925H59.1219V12.9091H59.6666V20.1662C59.6666 20.7571 59.5497 21.248 59.3158 21.6388C59.085 22.0297 58.7603 22.3221 58.3417 22.516C57.9262 22.7099 57.4415 22.8068 56.8875 22.8068ZM56.8137 19.4414C57.2876 19.4414 57.6954 19.3214 58.037 19.0813C58.3817 18.8382 58.6464 18.4935 58.8311 18.0472C59.0188 17.5979 59.1127 17.0655 59.1127 16.4499C59.1127 15.8529 59.0219 15.3189 58.8403 14.848C58.6587 14.3771 58.3956 14.0063 58.0509 13.7354C57.7062 13.4646 57.2938 13.3292 56.8137 13.3292C56.3243 13.3292 55.9073 13.4677 55.5626 13.7447C55.2179 14.0186 54.9532 14.391 54.7686 14.8619C54.587 15.3327 54.4962 15.8621 54.4962 16.4499C54.4962 17.0408 54.5885 17.561 54.7732 18.0103C54.9578 18.4566 55.2225 18.8074 55.5672 19.0629C55.9119 19.3152 56.3274 19.4414 56.8137 19.4414ZM62.2093 10.5455V20H61.6461V10.5455H62.2093ZM66.9159 20.1477C66.2757 20.1477 65.7186 19.9892 65.2447 19.6722C64.7707 19.3552 64.4045 18.9213 64.146 18.3704C63.8874 17.8195 63.7582 17.1916 63.7582 16.4869C63.7582 15.779 63.8874 15.1481 64.146 14.5941C64.4076 14.0401 64.7661 13.6031 65.2216 13.283C65.6771 12.9629 66.1972 12.8029 66.782 12.8029C67.179 12.8029 67.5545 12.8829 67.9084 13.043C68.2654 13.1999 68.5793 13.4277 68.8502 13.7262C69.1241 14.0247 69.338 14.3848 69.4918 14.8065C69.6488 15.2281 69.7273 15.7021 69.7273 16.2283V16.5792H64.1137V16.0668H69.1641C69.1641 15.5528 69.0594 15.0896 68.8502 14.6772C68.6409 14.2648 68.3562 13.937 67.9961 13.6939C67.636 13.4508 67.2313 13.3292 66.782 13.3292C66.3111 13.3292 65.891 13.4615 65.5217 13.7262C65.1554 13.9878 64.8646 14.3417 64.6492 14.788C64.4368 15.2343 64.326 15.7328 64.3168 16.2837V16.5146C64.3168 17.1055 64.4199 17.6364 64.6261 18.1072C64.8354 18.575 65.1339 18.9459 65.5217 19.2198C65.9095 19.4906 66.3742 19.6261 66.9159 19.6261C67.3036 19.6261 67.6345 19.5614 67.9084 19.4322C68.1854 19.2998 68.4116 19.1398 68.587 18.9521C68.7624 18.7643 68.8948 18.5827 68.984 18.4073L69.4965 18.6151C69.3887 18.852 69.221 19.089 68.9933 19.326C68.7686 19.5599 68.4824 19.7553 68.1346 19.9123C67.7899 20.0692 67.3837 20.1477 66.9159 20.1477ZM81.9427 13.5H81.3518C81.2902 13.1799 81.1748 12.8706 81.0055 12.5721C80.8363 12.2705 80.6177 11.9996 80.35 11.7596C80.0853 11.5165 79.7775 11.3241 79.4267 11.1825C79.0758 11.041 78.6881 10.9702 78.2633 10.9702C77.6417 10.9702 77.0692 11.1364 76.546 11.4688C76.0259 11.7981 75.6089 12.2828 75.2949 12.9229C74.9841 13.5631 74.8287 14.3464 74.8287 15.2727C74.8287 16.2053 74.9841 16.9916 75.2949 17.6317C75.6089 18.2719 76.0259 18.7566 76.546 19.0859C77.0692 19.4122 77.6417 19.5753 78.2633 19.5753C78.6881 19.5753 79.0758 19.506 79.4267 19.3675C79.7775 19.226 80.0853 19.0352 80.35 18.7951C80.6177 18.552 80.8363 18.2796 81.0055 17.978C81.1748 17.6764 81.2902 17.3655 81.3518 17.0455H81.9427C81.875 17.4271 81.7442 17.801 81.5503 18.1673C81.3595 18.5335 81.1071 18.8659 80.7932 19.1644C80.4823 19.4599 80.1145 19.6953 79.6898 19.8707C79.2682 20.0431 78.7927 20.1293 78.2633 20.1293C77.4755 20.1293 76.7815 19.9292 76.1813 19.5291C75.5812 19.1259 75.1103 18.5597 74.7687 17.8303C74.4301 17.1009 74.2609 16.2483 74.2609 15.2727C74.2609 14.2971 74.4301 13.4446 74.7687 12.7152C75.1103 11.9858 75.5812 11.421 76.1813 11.021C76.7815 10.6178 77.4755 10.4162 78.2633 10.4162C78.7927 10.4162 79.2682 10.5039 79.6898 10.6793C80.1145 10.8517 80.4823 11.0856 80.7932 11.381C81.1071 11.6734 81.3595 12.0027 81.5503 12.369C81.7442 12.7352 81.875 13.1122 81.9427 13.5ZM85.4513 20.1523C85.042 20.1523 84.6665 20.0708 84.3249 19.9077C83.9863 19.7446 83.714 19.506 83.5077 19.1921C83.3046 18.8782 83.2031 18.4966 83.2031 18.0472C83.2031 17.7518 83.2554 17.4917 83.36 17.267C83.4647 17.0424 83.6262 16.8485 83.8448 16.6854C84.0633 16.5223 84.3433 16.3884 84.685 16.2837C85.0266 16.176 85.4344 16.0929 85.9083 16.0344C86.2684 15.9914 86.59 15.9498 86.8732 15.9098C87.1563 15.8667 87.3779 15.8005 87.5379 15.7113C87.701 15.622 87.7826 15.4866 87.7826 15.305V15.0096C87.7826 14.4925 87.6195 14.0817 87.2933 13.777C86.967 13.4723 86.5177 13.32 85.9452 13.32C85.4374 13.32 85.0096 13.4323 84.6619 13.657C84.3172 13.8786 84.0756 14.1648 83.9371 14.5156L83.4062 14.3171C83.5416 13.9786 83.737 13.697 83.9925 13.4723C84.251 13.2476 84.5465 13.0799 84.8788 12.9691C85.2143 12.8583 85.5652 12.8029 85.9314 12.8029C86.2484 12.8029 86.55 12.8475 86.8362 12.9368C87.1255 13.026 87.3825 13.1615 87.6072 13.343C87.8349 13.5246 88.015 13.757 88.1473 14.0401C88.2796 14.3202 88.3458 14.6557 88.3458 15.0465V20H87.7826V18.7212H87.7411C87.618 18.9859 87.4487 19.2275 87.2332 19.446C87.0209 19.6615 86.7639 19.8338 86.4623 19.9631C86.1638 20.0893 85.8268 20.1523 85.4513 20.1523ZM85.5067 19.6307C85.9499 19.6307 86.3423 19.523 86.6839 19.3075C87.0286 19.089 87.2979 18.7905 87.4918 18.4119C87.6857 18.0334 87.7826 17.604 87.7826 17.1239V16.0806C87.7118 16.1422 87.6087 16.1976 87.4733 16.2468C87.341 16.293 87.1902 16.3345 87.0209 16.3714C86.8547 16.4053 86.6793 16.4361 86.4946 16.4638C86.313 16.4884 86.1361 16.5115 85.9637 16.533C85.4467 16.5946 85.025 16.69 84.6988 16.8192C84.3756 16.9454 84.1387 17.1116 83.9879 17.3178C83.8401 17.524 83.7663 17.7733 83.7663 18.0657C83.7663 18.5489 83.9325 18.9305 84.2649 19.2106C84.5972 19.4906 85.0112 19.6307 85.5067 19.6307ZM90.8804 10.5455V20H90.3171V10.5455H90.8804ZM95.5869 20.1477C94.9468 20.1477 94.3897 19.9892 93.9158 19.6722C93.4418 19.3552 93.0756 18.9213 92.8171 18.3704C92.5585 17.8195 92.4293 17.1916 92.4293 16.4869C92.4293 15.779 92.5585 15.1481 92.8171 14.5941C93.0787 14.0401 93.4372 13.6031 93.8927 13.283C94.3482 12.9629 94.8683 12.8029 95.4531 12.8029C95.8501 12.8029 96.2256 12.8829 96.5795 13.043C96.9365 13.1999 97.2504 13.4277 97.5213 13.7262C97.7952 14.0247 98.0091 14.3848 98.1629 14.8065C98.3199 15.2281 98.3984 15.7021 98.3984 16.2283V16.5792H92.7847V16.0668H97.8352C97.8352 15.5528 97.7305 15.0896 97.5213 14.6772C97.312 14.2648 97.0273 13.937 96.6672 13.6939C96.3071 13.4508 95.9024 13.3292 95.4531 13.3292C94.9822 13.3292 94.5621 13.4615 94.1928 13.7262C93.8265 13.9878 93.5357 14.3417 93.3203 14.788C93.1079 15.2343 92.9971 15.7328 92.9879 16.2837V16.5146C92.9879 17.1055 93.091 17.6364 93.2972 18.1072C93.5065 18.575 93.805 18.9459 94.1928 19.2198C94.5806 19.4906 95.0453 19.6261 95.5869 19.6261C95.9747 19.6261 96.3056 19.5614 96.5795 19.4322C96.8565 19.2998 97.0827 19.1398 97.2581 18.9521C97.4335 18.7643 97.5659 18.5827 97.6551 18.4073L98.1676 18.6151C98.0598 18.852 97.8921 19.089 97.6644 19.326C97.4397 19.5599 97.1535 19.7553 96.8057 19.9123C96.461 20.0692 96.0548 20.1477 95.5869 20.1477ZM100.511 15.402V20H99.9473V12.9091H100.497V14.0309H100.552C100.718 13.6647 100.984 13.3707 101.351 13.1491C101.717 12.9276 102.152 12.8168 102.657 12.8168C103.134 12.8168 103.553 12.9183 103.913 13.1214C104.276 13.3246 104.559 13.6139 104.762 13.9893C104.968 14.3617 105.072 14.8065 105.072 15.3235V20H104.508V15.3466C104.508 14.7434 104.328 14.2586 103.968 13.8924C103.611 13.5231 103.139 13.3384 102.551 13.3384C102.157 13.3384 101.806 13.4246 101.498 13.5969C101.191 13.7693 100.949 14.0109 100.774 14.3217C100.598 14.6295 100.511 14.9896 100.511 15.402ZM109.455 20.1477C108.886 20.1477 108.389 19.9908 107.964 19.6768C107.539 19.3629 107.21 18.9305 106.976 18.3796C106.745 17.8256 106.63 17.1901 106.63 16.473C106.63 15.7621 106.747 15.1312 106.981 14.5803C107.218 14.0263 107.548 13.5923 107.973 13.2784C108.398 12.9614 108.893 12.8029 109.46 12.8029C109.866 12.8029 110.218 12.8814 110.517 13.0384C110.818 13.1922 111.071 13.3969 111.274 13.6523C111.48 13.9078 111.637 14.1879 111.745 14.4925H111.8V10.5455H112.359V20H111.814V18.4535H111.745C111.631 18.7582 111.472 19.0398 111.269 19.2983C111.066 19.5537 110.814 19.7599 110.512 19.9169C110.211 20.0708 109.858 20.1477 109.455 20.1477ZM109.506 19.6261C109.986 19.6261 110.397 19.4891 110.738 19.2152C111.083 18.9382 111.346 18.5627 111.528 18.0888C111.712 17.6117 111.805 17.0716 111.805 16.4684C111.805 15.8652 111.712 15.3281 111.528 14.8572C111.346 14.3833 111.083 14.0109 110.738 13.7401C110.397 13.4661 109.986 13.3292 109.506 13.3292C109.02 13.3292 108.603 13.4677 108.255 13.7447C107.91 14.0186 107.645 14.3925 107.461 14.8665C107.279 15.3404 107.188 15.8744 107.188 16.4684C107.188 17.0624 107.279 17.5979 107.461 18.0749C107.645 18.552 107.91 18.9305 108.255 19.2106C108.603 19.4876 109.02 19.6261 109.506 19.6261ZM116.382 20.1523C115.973 20.1523 115.597 20.0708 115.256 19.9077C114.917 19.7446 114.645 19.506 114.439 19.1921C114.235 18.8782 114.134 18.4966 114.134 18.0472C114.134 17.7518 114.186 17.4917 114.291 17.267C114.396 17.0424 114.557 16.8485 114.776 16.6854C114.994 16.5223 115.274 16.3884 115.616 16.2837C115.957 16.176 116.365 16.0929 116.839 16.0344C117.199 15.9914 117.521 15.9498 117.804 15.9098C118.087 15.8667 118.309 15.8005 118.469 15.7113C118.632 15.622 118.713 15.4866 118.713 15.305V15.0096C118.713 14.4925 118.55 14.0817 118.224 13.777C117.898 13.4723 117.449 13.32 116.876 13.32C116.368 13.32 115.941 13.4323 115.593 13.657C115.248 13.8786 115.006 14.1648 114.868 14.5156L114.337 14.3171C114.472 13.9786 114.668 13.697 114.923 13.4723C115.182 13.2476 115.477 13.0799 115.81 12.9691C116.145 12.8583 116.496 12.8029 116.862 12.8029C117.179 12.8029 117.481 12.8475 117.767 12.9368C118.056 13.026 118.313 13.1615 118.538 13.343C118.766 13.5246 118.946 13.757 119.078 14.0401C119.211 14.3202 119.277 14.6557 119.277 15.0465V20H118.713V18.7212H118.672C118.549 18.9859 118.38 19.2275 118.164 19.446C117.952 19.6615 117.695 19.8338 117.393 19.9631C117.095 20.0893 116.758 20.1523 116.382 20.1523ZM116.438 19.6307C116.881 19.6307 117.273 19.523 117.615 19.3075C117.959 19.089 118.229 18.7905 118.423 18.4119C118.617 18.0334 118.713 17.604 118.713 17.1239V16.0806C118.643 16.1422 118.54 16.1976 118.404 16.2468C118.272 16.293 118.121 16.3345 117.952 16.3714C117.786 16.4053 117.61 16.4361 117.425 16.4638C117.244 16.4884 117.067 16.5115 116.895 16.533C116.378 16.5946 115.956 16.69 115.63 16.8192C115.307 16.9454 115.07 17.1116 114.919 17.3178C114.771 17.524 114.697 17.7733 114.697 18.0657C114.697 18.5489 114.863 18.9305 115.196 19.2106C115.528 19.4906 115.942 19.6307 116.438 19.6307ZM121.248 20V12.9091H121.797V14.017H121.848C122.002 13.6539 122.262 13.363 122.628 13.1445C122.995 12.9229 123.412 12.8121 123.879 12.8121C123.929 12.8121 123.978 12.8121 124.027 12.8121C124.076 12.8121 124.123 12.8137 124.166 12.8168V13.3846C124.129 13.3815 124.084 13.3769 124.032 13.3707C123.983 13.3615 123.921 13.3569 123.847 13.3569C123.453 13.3569 123.102 13.4415 122.795 13.6108C122.49 13.7801 122.25 14.014 122.074 14.3125C121.899 14.608 121.811 14.9465 121.811 15.3281V20H121.248ZM131.339 9.678C131.928 9.678 132.448 9.79067 132.899 10.016C133.358 10.2327 133.718 10.536 133.978 10.926C134.238 11.316 134.368 11.771 134.368 12.291C134.368 12.8023 134.238 13.2573 133.978 13.656C133.718 14.046 133.358 14.3493 132.899 14.566C132.448 14.7827 131.928 14.891 131.339 14.891C130.758 14.891 130.238 14.7827 129.779 14.566C129.32 14.3493 128.956 14.046 128.687 13.656C128.427 13.2573 128.297 12.8023 128.297 12.291C128.297 11.771 128.427 11.316 128.687 10.926C128.956 10.536 129.32 10.2327 129.779 10.016C130.238 9.79067 130.758 9.678 131.339 9.678ZM131.339 10.575C130.958 10.575 130.615 10.6487 130.312 10.796C130.017 10.9347 129.783 11.134 129.61 11.394C129.437 11.654 129.35 11.953 129.35 12.291C129.35 12.629 129.437 12.928 129.61 13.188C129.783 13.4393 130.017 13.6387 130.312 13.786C130.615 13.9333 130.958 14.007 131.339 14.007C131.72 14.007 132.058 13.9333 132.353 13.786C132.656 13.6387 132.895 13.4393 133.068 13.188C133.241 12.928 133.328 12.629 133.328 12.291C133.328 11.953 133.241 11.654 133.068 11.394C132.895 11.134 132.656 10.9347 132.353 10.796C132.058 10.6487 131.72 10.575 131.339 10.575ZM136.591 9.249H137.67V15.268H136.591V9.249ZM130.065 15.853H137.67V18.7H131.144V20.468H130.104V17.894H136.604V16.711H130.065V15.853ZM130.104 19.987H138.073V20.858H130.104V19.987ZM145.885 12.304H148.524V13.201H145.885V12.304ZM148.199 9.249H149.278V16.256H148.199V9.249ZM145.404 16.62C146.219 16.62 146.916 16.7067 147.497 16.88C148.086 17.0533 148.537 17.3047 148.849 17.634C149.161 17.9547 149.317 18.349 149.317 18.817C149.317 19.5103 148.966 20.0477 148.264 20.429C147.571 20.8103 146.617 21.001 145.404 21.001C144.191 21.001 143.233 20.8103 142.531 20.429C141.838 20.0477 141.491 19.5103 141.491 18.817C141.491 18.349 141.647 17.9547 141.959 17.634C142.28 17.3047 142.73 17.0533 143.311 16.88C143.9 16.7067 144.598 16.62 145.404 16.62ZM145.404 17.465C144.815 17.465 144.308 17.517 143.883 17.621C143.458 17.725 143.129 17.8767 142.895 18.076C142.67 18.2753 142.557 18.5223 142.557 18.817C142.557 19.0943 142.67 19.3327 142.895 19.532C143.129 19.7313 143.458 19.8873 143.883 20C144.308 20.104 144.815 20.156 145.404 20.156C146.002 20.156 146.509 20.104 146.925 20C147.35 19.8873 147.675 19.7313 147.9 19.532C148.134 19.3327 148.251 19.0943 148.251 18.817C148.251 18.5223 148.134 18.2753 147.9 18.076C147.675 17.8767 147.35 17.725 146.925 17.621C146.509 17.517 146.002 17.465 145.404 17.465ZM142.596 10.445H143.48V11.394C143.48 12.1133 143.341 12.7893 143.064 13.422C142.795 14.046 142.414 14.5963 141.92 15.073C141.426 15.541 140.854 15.9007 140.204 16.152L139.645 15.294C140.087 15.138 140.486 14.9257 140.841 14.657C141.205 14.3883 141.517 14.0807 141.777 13.734C142.046 13.3873 142.249 13.0147 142.388 12.616C142.527 12.2173 142.596 11.81 142.596 11.394V10.445ZM142.804 10.445H143.688V11.381C143.688 11.8837 143.805 12.3733 144.039 12.85C144.273 13.3267 144.607 13.747 145.04 14.111C145.473 14.475 145.972 14.761 146.535 14.969L145.989 15.827C145.348 15.593 144.789 15.255 144.312 14.813C143.835 14.3623 143.463 13.8423 143.194 13.253C142.934 12.6637 142.804 12.0397 142.804 11.381V10.445ZM139.983 10.107H146.262V10.991H139.983V10.107ZM151.708 10.536H157.012V11.42H151.708V10.536ZM153.541 13.903H154.607V17.881H153.541V13.903ZM156.57 10.536H157.636V11.173C157.636 11.6497 157.619 12.2737 157.584 13.045C157.558 13.8163 157.463 14.748 157.298 15.84L156.232 15.749C156.405 14.683 156.505 13.773 156.531 13.019C156.557 12.265 156.57 11.6497 156.57 11.173V10.536ZM159.105 9.249H160.184V21.014H159.105V9.249ZM159.885 14.163H162.056V15.086H159.885V14.163ZM151.188 18.44L151.058 17.543C151.76 17.5343 152.527 17.5257 153.359 17.517C154.2 17.4997 155.049 17.465 155.907 17.413C156.774 17.361 157.601 17.2873 158.39 17.192L158.455 17.998C157.64 18.128 156.804 18.2233 155.946 18.284C155.097 18.3447 154.265 18.388 153.45 18.414C152.635 18.4313 151.881 18.44 151.188 18.44ZM174.603 9.262H175.682V18.232H174.603V9.262ZM172.614 12.382H175.045V13.266H172.614V12.382ZM172.614 14.852H175.045V15.723H172.614V14.852ZM166.023 10.692H172.614V11.563H166.023V10.692ZM169.351 12.2C169.88 12.2 170.343 12.2953 170.742 12.486C171.141 12.6767 171.453 12.941 171.678 13.279C171.903 13.617 172.016 14.007 172.016 14.449C172.016 14.891 171.903 15.2853 171.678 15.632C171.453 15.97 171.141 16.2343 170.742 16.425C170.343 16.607 169.88 16.698 169.351 16.698C168.831 16.698 168.372 16.607 167.973 16.425C167.574 16.2343 167.262 15.97 167.037 15.632C166.812 15.2853 166.699 14.891 166.699 14.449C166.699 14.007 166.812 13.617 167.037 13.279C167.262 12.941 167.574 12.6767 167.973 12.486C168.372 12.2953 168.831 12.2 169.351 12.2ZM169.351 13.058C168.866 13.058 168.471 13.188 168.168 13.448C167.865 13.6993 167.713 14.033 167.713 14.449C167.713 14.8737 167.865 15.216 168.168 15.476C168.471 15.7273 168.866 15.853 169.351 15.853C169.836 15.853 170.231 15.7273 170.534 15.476C170.846 15.216 171.002 14.8737 171.002 14.449C171.002 14.033 170.846 13.6993 170.534 13.448C170.231 13.188 169.836 13.058 169.351 13.058ZM168.831 9.249H169.897V11.238H168.831V9.249ZM168.129 19.87H175.955V20.754H168.129V19.87ZM168.129 17.452H169.208V20.286H168.129V17.452ZM186.562 9.249H187.602V21.014H186.562V9.249ZM184.703 13.994H186.965V14.904H184.703V13.994ZM184.001 9.496H185.028V20.416H184.001V9.496ZM180.01 11.069H180.842V12.434C180.842 13.1273 180.786 13.7903 180.673 14.423C180.56 15.0557 180.387 15.6363 180.153 16.165C179.928 16.6937 179.646 17.166 179.308 17.582C178.97 17.9893 178.576 18.3273 178.125 18.596L177.449 17.764C178.021 17.452 178.493 17.0317 178.866 16.503C179.239 15.9657 179.52 15.3503 179.711 14.657C179.91 13.9637 180.01 13.2227 180.01 12.434V11.069ZM180.205 11.069H181.05V12.434C181.05 13.1447 181.145 13.8207 181.336 14.462C181.527 15.1033 181.808 15.6753 182.181 16.178C182.554 16.672 183.017 17.062 183.572 17.348L182.935 18.18C182.337 17.842 181.834 17.387 181.427 16.815C181.02 16.243 180.712 15.5843 180.504 14.839C180.305 14.0937 180.205 13.292 180.205 12.434V11.069ZM177.735 10.64H183.182V11.524H177.735V10.64ZM196.249 9.808C196.839 9.808 197.359 9.912 197.809 10.12C198.26 10.3193 198.611 10.601 198.862 10.965C199.122 11.3203 199.252 11.7407 199.252 12.226C199.252 12.694 199.122 13.1143 198.862 13.487C198.611 13.851 198.26 14.137 197.809 14.345C197.359 14.5443 196.839 14.644 196.249 14.644C195.677 14.644 195.166 14.5443 194.715 14.345C194.265 14.137 193.909 13.851 193.649 13.487C193.389 13.1143 193.259 12.694 193.259 12.226C193.259 11.7407 193.389 11.3203 193.649 10.965C193.909 10.601 194.265 10.3193 194.715 10.12C195.166 9.912 195.677 9.808 196.249 9.808ZM196.249 10.692C195.877 10.692 195.543 10.757 195.248 10.887C194.954 11.017 194.72 11.199 194.546 11.433C194.382 11.6583 194.299 11.9227 194.299 12.226C194.299 12.5207 194.382 12.785 194.546 13.019C194.72 13.2443 194.954 13.422 195.248 13.552C195.543 13.682 195.877 13.747 196.249 13.747C196.639 13.747 196.982 13.682 197.276 13.552C197.571 13.422 197.801 13.2443 197.965 13.019C198.139 12.785 198.225 12.5207 198.225 12.226C198.225 11.9227 198.139 11.6583 197.965 11.433C197.801 11.199 197.571 11.017 197.276 10.887C196.982 10.757 196.639 10.692 196.249 10.692ZM195.781 15.957H196.86V20.65H195.781V15.957ZM200.981 9.262H202.047V21.014H200.981V9.262ZM192.531 16.542L192.388 15.632C193.116 15.632 193.914 15.6233 194.78 15.606C195.656 15.5887 196.553 15.5497 197.471 15.489C198.399 15.4283 199.287 15.333 200.136 15.203L200.214 16.009C199.339 16.1737 198.446 16.295 197.536 16.373C196.626 16.4423 195.742 16.4857 194.884 16.503C194.035 16.5203 193.251 16.5333 192.531 16.542ZM212.524 9.249H213.616V21.014H212.524V9.249ZM207.246 12.044H208.117V13.058C208.117 13.682 208.035 14.2887 207.87 14.878C207.706 15.4587 207.472 16.0003 207.168 16.503C206.874 17.0057 206.523 17.4477 206.115 17.829C205.717 18.2103 205.279 18.5137 204.802 18.739L204.204 17.907C204.638 17.7077 205.036 17.439 205.4 17.101C205.773 16.763 206.094 16.3817 206.362 15.957C206.64 15.5237 206.856 15.06 207.012 14.566C207.168 14.072 207.246 13.5693 207.246 13.058V12.044ZM207.441 12.044H208.312V13.058C208.312 13.5433 208.39 14.0243 208.546 14.501C208.702 14.969 208.919 15.411 209.196 15.827C209.474 16.2343 209.799 16.5983 210.171 16.919C210.544 17.2397 210.951 17.4997 211.393 17.699L210.795 18.531C210.319 18.3143 209.877 18.024 209.469 17.66C209.062 17.2873 208.707 16.8627 208.403 16.386C208.1 15.9007 207.862 15.3763 207.688 14.813C207.524 14.2497 207.441 13.6647 207.441 13.058V12.044ZM204.516 11.29H210.99V12.161H204.516V11.29ZM207.233 9.47H208.312V11.771H207.233V9.47ZM219.361 10.107C219.977 10.107 220.518 10.224 220.986 10.458C221.463 10.6833 221.836 11.004 222.104 11.42C222.373 11.836 222.507 12.3213 222.507 12.876C222.507 13.422 222.373 13.9073 222.104 14.332C221.836 14.748 221.463 15.073 220.986 15.307C220.518 15.5323 219.977 15.645 219.361 15.645C218.755 15.645 218.213 15.5323 217.736 15.307C217.26 15.073 216.883 14.748 216.605 14.332C216.337 13.9073 216.202 13.422 216.202 12.876C216.202 12.3213 216.337 11.836 216.605 11.42C216.883 11.004 217.26 10.6833 217.736 10.458C218.213 10.224 218.755 10.107 219.361 10.107ZM219.361 11.043C218.963 11.043 218.603 11.121 218.282 11.277C217.97 11.4243 217.723 11.6367 217.541 11.914C217.359 12.1913 217.268 12.512 217.268 12.876C217.268 13.24 217.359 13.5607 217.541 13.838C217.723 14.1153 217.97 14.332 218.282 14.488C218.603 14.6353 218.963 14.709 219.361 14.709C219.769 14.709 220.128 14.6353 220.44 14.488C220.752 14.332 220.999 14.1153 221.181 13.838C221.363 13.5607 221.454 13.24 221.454 12.876C221.454 12.512 221.363 12.1913 221.181 11.914C220.999 11.6367 220.752 11.4243 220.44 11.277C220.128 11.121 219.769 11.043 219.361 11.043ZM224.054 9.249H225.133V21.027H224.054V9.249ZM215.76 18.453L215.617 17.543C216.337 17.543 217.125 17.5387 217.983 17.53C218.841 17.5127 219.725 17.478 220.635 17.426C221.554 17.3653 222.438 17.27 223.287 17.14L223.378 17.933C222.494 18.0977 221.597 18.219 220.687 18.297C219.786 18.3663 218.915 18.4097 218.074 18.427C217.234 18.4443 216.462 18.453 215.76 18.453ZM238.435 9.249H239.514V15.177H238.435V9.249ZM239.215 11.68H241.243V12.59H239.215V11.68ZM230.947 9.769H232.026V14.28H230.947V9.769ZM230.947 13.708H231.883C232.723 13.708 233.586 13.6733 234.47 13.604C235.354 13.526 236.272 13.3917 237.226 13.201L237.356 14.098C236.368 14.2973 235.427 14.436 234.535 14.514C233.642 14.5833 232.758 14.618 231.883 14.618H230.947V13.708ZM232.039 15.749H239.514V18.635H233.144V20.416H232.078V17.803H238.435V16.607H232.039V15.749ZM232.078 19.974H239.93V20.858H232.078V19.974ZM250.654 9.249H251.733V21.014H250.654V9.249ZM243.634 10.289H244.427V12.928C244.427 13.396 244.392 13.8857 244.323 14.397C244.262 14.9083 244.158 15.411 244.011 15.905C243.872 16.3903 243.677 16.8453 243.426 17.27C243.183 17.686 242.871 18.0327 242.49 18.31L241.801 17.543C242.156 17.283 242.451 16.971 242.685 16.607C242.927 16.2343 243.114 15.84 243.244 15.424C243.382 14.9993 243.482 14.5747 243.543 14.15C243.603 13.7167 243.634 13.3093 243.634 12.928V10.289ZM243.855 10.289H244.648V12.928C244.648 13.2833 244.669 13.6733 244.713 14.098C244.765 14.5227 244.851 14.956 244.973 15.398C245.103 15.8313 245.28 16.243 245.506 16.633C245.74 17.023 246.039 17.3567 246.403 17.634L245.805 18.44C245.406 18.154 245.077 17.79 244.817 17.348C244.565 16.906 244.37 16.4293 244.232 15.918C244.093 15.398 243.993 14.8823 243.933 14.371C243.881 13.851 243.855 13.37 243.855 12.928V10.289ZM246.949 10.289H247.742V12.928C247.742 13.3873 247.711 13.877 247.651 14.397C247.599 14.917 247.503 15.4327 247.365 15.944C247.226 16.4553 247.027 16.9277 246.767 17.361C246.515 17.7943 246.195 18.154 245.805 18.44L245.194 17.634C245.558 17.3567 245.852 17.0317 246.078 16.659C246.312 16.2777 246.489 15.8703 246.611 15.437C246.741 15.0037 246.827 14.5747 246.871 14.15C246.923 13.7167 246.949 13.3093 246.949 12.928V10.289ZM247.183 10.289H247.989V12.928C247.989 13.318 248.015 13.7297 248.067 14.163C248.127 14.5963 248.227 15.0253 248.366 15.45C248.504 15.866 248.691 16.256 248.925 16.62C249.159 16.984 249.458 17.2917 249.822 17.543L249.159 18.349C248.777 18.0717 248.457 17.725 248.197 17.309C247.937 16.893 247.733 16.438 247.586 15.944C247.447 15.45 247.343 14.9473 247.274 14.436C247.213 13.916 247.183 13.4133 247.183 12.928V10.289ZM263.071 12.304H265.71V13.201H263.071V12.304ZM265.385 9.249H266.464V16.256H265.385V9.249ZM262.59 16.62C263.404 16.62 264.102 16.7067 264.683 16.88C265.272 17.0533 265.723 17.3047 266.035 17.634C266.347 17.9547 266.503 18.349 266.503 18.817C266.503 19.5103 266.152 20.0477 265.45 20.429C264.756 20.8103 263.803 21.001 262.59 21.001C261.376 21.001 260.419 20.8103 259.717 20.429C259.023 20.0477 258.677 19.5103 258.677 18.817C258.677 18.349 258.833 17.9547 259.145 17.634C259.465 17.3047 259.916 17.0533 260.497 16.88C261.086 16.7067 261.784 16.62 262.59 16.62ZM262.59 17.465C262 17.465 261.493 17.517 261.069 17.621C260.644 17.725 260.315 17.8767 260.081 18.076C259.855 18.2753 259.743 18.5223 259.743 18.817C259.743 19.0943 259.855 19.3327 260.081 19.532C260.315 19.7313 260.644 19.8873 261.069 20C261.493 20.104 262 20.156 262.59 20.156C263.188 20.156 263.695 20.104 264.111 20C264.535 19.8873 264.86 19.7313 265.086 19.532C265.32 19.3327 265.437 19.0943 265.437 18.817C265.437 18.5223 265.32 18.2753 265.086 18.076C264.86 17.8767 264.535 17.725 264.111 17.621C263.695 17.517 263.188 17.465 262.59 17.465ZM259.782 10.445H260.666V11.394C260.666 12.1133 260.527 12.7893 260.25 13.422C259.981 14.046 259.6 14.5963 259.106 15.073C258.612 15.541 258.04 15.9007 257.39 16.152L256.831 15.294C257.273 15.138 257.671 14.9257 258.027 14.657C258.391 14.3883 258.703 14.0807 258.963 13.734C259.231 13.3873 259.435 13.0147 259.574 12.616C259.712 12.2173 259.782 11.81 259.782 11.394V10.445ZM259.99 10.445H260.874V11.381C260.874 11.8837 260.991 12.3733 261.225 12.85C261.459 13.3267 261.792 13.747 262.226 14.111C262.659 14.475 263.157 14.761 263.721 14.969L263.175 15.827C262.533 15.593 261.974 15.255 261.498 14.813C261.021 14.3623 260.648 13.8423 260.38 13.253C260.12 12.6637 259.99 12.0397 259.99 11.381V10.445ZM257.169 10.107H263.448V10.991H257.169V10.107ZM268.361 18.622H279.021V19.519H268.361V18.622ZM273.132 15.801H274.198V18.882H273.132V15.801ZM269.609 10.081H270.688V12.174H276.668V10.081H277.734V16.1H269.609V10.081ZM270.688 13.058V15.216H276.668V13.058H270.688ZM279.917 14.709H290.577V15.541H279.917V14.709ZM281.191 16.477H289.251V18.986H282.283V20.364H281.217V18.245H288.185V17.257H281.191V16.477ZM281.217 20.078H289.628V20.858H281.217V20.078ZM281.269 9.6H289.212V12.044H282.361V13.318H281.295V11.316H288.146V10.367H281.269V9.6ZM281.295 13.058H289.42V13.838H281.295V13.058ZM297.638 10.263H298.522V12.369C298.522 13.019 298.44 13.656 298.275 14.28C298.119 14.904 297.894 15.489 297.599 16.035C297.304 16.581 296.958 17.0663 296.559 17.491C296.16 17.9157 295.727 18.2537 295.259 18.505L294.596 17.634C295.029 17.4173 295.428 17.127 295.792 16.763C296.165 16.3903 296.49 15.9657 296.767 15.489C297.044 15.0123 297.257 14.5097 297.404 13.981C297.56 13.4437 297.638 12.9063 297.638 12.369V10.263ZM297.833 10.263H298.704V12.369C298.704 12.889 298.778 13.4047 298.925 13.916C299.081 14.4273 299.298 14.9083 299.575 15.359C299.852 15.8097 300.169 16.2127 300.524 16.568C300.888 16.9233 301.278 17.205 301.694 17.413L301.031 18.271C300.572 18.037 300.147 17.7163 299.757 17.309C299.376 16.9017 299.038 16.438 298.743 15.918C298.457 15.3893 298.232 14.826 298.067 14.228C297.911 13.6213 297.833 13.0017 297.833 12.369V10.263ZM302.721 9.249H303.8V21.014H302.721V9.249ZM303.553 14.007H305.724V14.93H303.553V14.007ZM308.947 13.24H310.026V15.45H308.947V13.24ZM313.263 13.24H314.329V15.45H313.263V13.24ZM306.334 15.06H316.955V15.931H306.334V15.06ZM311.638 16.828C312.895 16.828 313.878 17.0057 314.589 17.361C315.3 17.7163 315.655 18.2277 315.655 18.895C315.655 19.571 315.3 20.0867 314.589 20.442C313.878 20.806 312.895 20.988 311.638 20.988C310.381 20.988 309.393 20.806 308.674 20.442C307.963 20.0867 307.608 19.571 307.608 18.895C307.608 18.2277 307.963 17.7163 308.674 17.361C309.393 17.0057 310.381 16.828 311.638 16.828ZM311.638 17.66C311.023 17.66 310.494 17.7077 310.052 17.803C309.619 17.8983 309.285 18.0413 309.051 18.232C308.817 18.414 308.7 18.635 308.7 18.895C308.7 19.1723 308.817 19.4063 309.051 19.597C309.285 19.779 309.619 19.9177 310.052 20.013C310.494 20.1083 311.023 20.156 311.638 20.156C312.253 20.156 312.778 20.1083 313.211 20.013C313.653 19.9177 313.991 19.779 314.225 19.597C314.459 19.4063 314.576 19.1723 314.576 18.895C314.576 18.635 314.459 18.414 314.225 18.232C313.991 18.0413 313.653 17.8983 313.211 17.803C312.778 17.7077 312.253 17.66 311.638 17.66ZM311.638 9.47C312.487 9.47 313.22 9.55667 313.835 9.73C314.459 9.90333 314.936 10.1547 315.265 10.484C315.603 10.8047 315.772 11.1947 315.772 11.654C315.772 12.1047 315.603 12.4947 315.265 12.824C314.936 13.1533 314.459 13.4047 313.835 13.578C313.22 13.7427 312.487 13.825 311.638 13.825C310.789 13.825 310.052 13.7427 309.428 13.578C308.813 13.4047 308.336 13.1533 307.998 12.824C307.669 12.4947 307.504 12.1047 307.504 11.654C307.504 11.1947 307.669 10.8047 307.998 10.484C308.336 10.1547 308.813 9.90333 309.428 9.73C310.052 9.55667 310.789 9.47 311.638 9.47ZM311.638 10.315C311.023 10.315 310.485 10.367 310.026 10.471C309.575 10.575 309.224 10.7267 308.973 10.926C308.73 11.1253 308.609 11.368 308.609 11.654C308.609 11.9313 308.73 12.174 308.973 12.382C309.224 12.5813 309.575 12.733 310.026 12.837C310.485 12.941 311.023 12.993 311.638 12.993C312.271 12.993 312.812 12.941 313.263 12.837C313.714 12.733 314.06 12.5813 314.303 12.382C314.546 12.174 314.667 11.9313 314.667 11.654C314.667 11.368 314.546 11.1253 314.303 10.926C314.06 10.7267 313.714 10.575 313.263 10.471C312.812 10.367 312.271 10.315 311.638 10.315ZM325.95 9.249H327.029V16.087H325.95V9.249ZM326.561 12.252H328.758V13.162H326.561V12.252ZM319.632 16.607H320.698V17.842H325.95V16.607H327.029V20.858H319.632V16.607ZM320.698 18.687V19.987H325.95V18.687H320.698ZM317.929 10.458H324.871V11.329H317.929V10.458ZM321.4 11.875C321.963 11.875 322.453 11.9617 322.869 12.135C323.294 12.2997 323.623 12.538 323.857 12.85C324.091 13.1533 324.208 13.513 324.208 13.929C324.208 14.345 324.091 14.709 323.857 15.021C323.623 15.333 323.294 15.5757 322.869 15.749C322.453 15.9137 321.963 15.996 321.4 15.996C320.837 15.996 320.343 15.9137 319.918 15.749C319.502 15.5757 319.173 15.333 318.93 15.021C318.696 14.709 318.579 14.345 318.579 13.929C318.579 13.513 318.696 13.1533 318.93 12.85C319.173 12.538 319.502 12.2997 319.918 12.135C320.343 11.9617 320.837 11.875 321.4 11.875ZM321.4 12.694C320.863 12.694 320.429 12.8067 320.1 13.032C319.779 13.2573 319.619 13.5563 319.619 13.929C319.619 14.3103 319.779 14.6137 320.1 14.839C320.429 15.0643 320.863 15.177 321.4 15.177C321.929 15.177 322.358 15.0643 322.687 14.839C323.016 14.6137 323.181 14.3103 323.181 13.929C323.181 13.5563 323.016 13.2573 322.687 13.032C322.366 12.8067 321.937 12.694 321.4 12.694ZM320.867 9.145H321.946V10.926H320.867V9.145ZM338.026 9.249H339.092V21.014H338.026V9.249ZM330.213 10.406H331.279V17.686H330.213V10.406ZM330.213 17.049H331.175C332.076 17.049 332.991 17.01 333.918 16.932C334.854 16.8453 335.816 16.7023 336.804 16.503L336.947 17.413C335.924 17.6297 334.941 17.7813 333.996 17.868C333.051 17.946 332.111 17.985 331.175 17.985H330.213V17.049ZM348.997 9.249H350.076V21.027H348.997V9.249ZM349.829 13.89H352V14.787H349.829V13.89ZM341.548 17.179H342.471C343.19 17.179 343.849 17.1703 344.447 17.153C345.054 17.127 345.634 17.0837 346.189 17.023C346.752 16.9623 347.324 16.88 347.905 16.776L348.035 17.699C347.428 17.803 346.839 17.8853 346.267 17.946C345.704 18.0067 345.114 18.0457 344.499 18.063C343.884 18.0803 343.208 18.089 342.471 18.089H341.548V17.179ZM341.548 10.393H346.995V11.277H342.614V17.595H341.548V10.393ZM353.654 20.06C353.516 20.06 353.397 20.0123 353.299 19.9169C353.203 19.8184 353.156 19.6999 353.156 19.5614C353.156 19.426 353.203 19.3091 353.299 19.2106C353.397 19.1121 353.516 19.0629 353.654 19.0629C353.79 19.0629 353.907 19.1121 354.005 19.2106C354.104 19.3091 354.153 19.426 354.153 19.5614C354.153 19.6538 354.13 19.7384 354.084 19.8153C354.04 19.8892 353.98 19.9492 353.903 19.9954C353.83 20.0385 353.747 20.06 353.654 20.06ZM19.75 39.6964C19.4792 39.6964 19.233 39.6317 19.0114 39.5025C18.7898 39.3701 18.6128 39.1932 18.4805 38.9716C18.3512 38.7469 18.2866 38.5007 18.2866 38.233C18.2866 37.9621 18.3512 37.7159 18.4805 37.4943C18.6128 37.2727 18.7898 37.0973 19.0114 36.968C19.233 36.8357 19.4792 36.7695 19.75 36.7695C20.0178 36.7695 20.2624 36.8357 20.484 36.968C20.7087 37.0973 20.8872 37.2727 21.0195 37.4943C21.1519 37.7159 21.2165 37.9621 21.2134 38.233C21.2134 38.5007 21.1473 38.7469 21.0149 38.9716C20.8826 39.1932 20.7056 39.3701 20.484 39.5025C20.2624 39.6317 20.0178 39.6964 19.75 39.6964ZM36.429 34.304H39.068V35.201H36.429V34.304ZM38.743 31.249H39.822V38.256H38.743V31.249ZM35.948 38.62C36.7627 38.62 37.4603 38.7067 38.041 38.88C38.6303 39.0533 39.081 39.3047 39.393 39.634C39.705 39.9547 39.861 40.349 39.861 40.817C39.861 41.5103 39.51 42.0477 38.808 42.429C38.1147 42.8103 37.1613 43.001 35.948 43.001C34.7347 43.001 33.777 42.8103 33.075 42.429C32.3817 42.0477 32.035 41.5103 32.035 40.817C32.035 40.349 32.191 39.9547 32.503 39.634C32.8237 39.3047 33.2743 39.0533 33.855 38.88C34.4443 38.7067 35.142 38.62 35.948 38.62ZM35.948 39.465C35.3587 39.465 34.8517 39.517 34.427 39.621C34.0023 39.725 33.673 39.8767 33.439 40.076C33.2137 40.2753 33.101 40.5223 33.101 40.817C33.101 41.0943 33.2137 41.3327 33.439 41.532C33.673 41.7313 34.0023 41.8873 34.427 42C34.8517 42.104 35.3587 42.156 35.948 42.156C36.546 42.156 37.053 42.104 37.469 42C37.8937 41.8873 38.2187 41.7313 38.444 41.532C38.678 41.3327 38.795 41.0943 38.795 40.817C38.795 40.5223 38.678 40.2753 38.444 40.076C38.2187 39.8767 37.8937 39.725 37.469 39.621C37.053 39.517 36.546 39.465 35.948 39.465ZM33.14 32.445H34.024V33.394C34.024 34.1133 33.8853 34.7893 33.608 35.422C33.3393 36.046 32.958 36.5963 32.464 37.073C31.97 37.541 31.398 37.9007 30.748 38.152L30.189 37.294C30.631 37.138 31.0297 36.9257 31.385 36.657C31.749 36.3883 32.061 36.0807 32.321 35.734C32.5897 35.3873 32.7933 35.0147 32.932 34.616C33.0707 34.2173 33.14 33.81 33.14 33.394V32.445ZM33.348 32.445H34.232V33.381C34.232 33.8837 34.349 34.3733 34.583 34.85C34.817 35.3267 35.1507 35.747 35.584 36.111C36.0173 36.475 36.5157 36.761 37.079 36.969L36.533 37.827C35.8917 37.593 35.3327 37.255 34.856 36.813C34.3793 36.3623 34.0067 35.8423 33.738 35.253C33.478 34.6637 33.348 34.0397 33.348 33.381V32.445ZM30.527 32.107H36.806V32.991H30.527V32.107ZM41.719 40.622H52.379V41.519H41.719V40.622ZM46.49 37.801H47.556V40.882H46.49V37.801ZM42.967 32.081H44.046V34.174H50.026V32.081H51.092V38.1H42.967V32.081ZM44.046 35.058V37.216H50.026V35.058H44.046ZM54.718 34.785H62.713V35.656H54.718V34.785ZM53.275 37.229H63.935V38.113H53.275V37.229ZM54.718 31.678H55.784V35.227H54.718V31.678ZM54.64 41.844H62.778V42.728H54.64V41.844ZM54.64 39.296H55.719V42.078H54.64V39.296ZM76.7162 31.249H77.7952V43.027H76.7162V31.249ZM74.1942 35.526H77.0282V36.41H74.1942V35.526ZM71.1002 32.926H71.9712V34.694C71.9712 35.3267 71.8845 35.9507 71.7112 36.566C71.5465 37.1727 71.3125 37.7447 71.0092 38.282C70.7145 38.8193 70.3635 39.296 69.9562 39.712C69.5575 40.128 69.1285 40.4573 68.6692 40.7L68.0192 39.842C68.4439 39.634 68.8425 39.348 69.2152 38.984C69.5879 38.62 69.9129 38.2083 70.1902 37.749C70.4762 37.281 70.6972 36.787 70.8532 36.267C71.0179 35.7383 71.1002 35.214 71.1002 34.694V32.926ZM71.3342 32.926H72.1922V34.694C72.1922 35.1793 72.2702 35.6733 72.4262 36.176C72.5822 36.67 72.7989 37.138 73.0762 37.58C73.3622 38.022 73.6915 38.4207 74.0642 38.776C74.4369 39.1227 74.8355 39.3957 75.2602 39.595L74.6232 40.453C74.1552 40.219 73.7219 39.9027 73.3232 39.504C72.9245 39.1053 72.5735 38.6503 72.2702 38.139C71.9755 37.619 71.7459 37.0643 71.5812 36.475C71.4165 35.8857 71.3342 35.292 71.3342 34.694V32.926ZM68.4612 32.458H74.8442V33.342H68.4612V32.458ZM82.5912 32.51H83.4752V33.459C83.4752 34.187 83.3365 34.8587 83.0592 35.474C82.7905 36.0893 82.4092 36.6267 81.9152 37.086C81.4299 37.5453 80.8535 37.8963 80.1862 38.139L79.6402 37.281C80.2295 37.073 80.7452 36.7783 81.1872 36.397C81.6292 36.007 81.9715 35.5607 82.2142 35.058C82.4655 34.5553 82.5912 34.0223 82.5912 33.459V32.51ZM82.7862 32.51H83.6702V33.459C83.6702 33.9703 83.7872 34.4557 84.0212 34.915C84.2552 35.3743 84.5845 35.7773 85.0092 36.124C85.4339 36.4707 85.9322 36.7437 86.5042 36.943L85.9972 37.788C85.3385 37.5627 84.7709 37.2377 84.2942 36.813C83.8175 36.3883 83.4449 35.89 83.1762 35.318C82.9162 34.7373 82.7862 34.1177 82.7862 33.459V32.51ZM79.9652 32.12H86.2572V33.004H79.9652V32.12ZM87.7392 31.249H88.8182V38.334H87.7392V31.249ZM88.5192 34.239H90.5472V35.136H88.5192V34.239ZM85.0742 38.659C85.8715 38.659 86.5562 38.7457 87.1282 38.919C87.7089 39.0837 88.1552 39.3263 88.4672 39.647C88.7792 39.9677 88.9352 40.3577 88.9352 40.817C88.9352 41.2763 88.7792 41.6663 88.4672 41.987C88.1552 42.3077 87.7089 42.5547 87.1282 42.728C86.5562 42.9013 85.8715 42.988 85.0742 42.988C84.2769 42.988 83.5879 42.9013 83.0072 42.728C82.4265 42.5547 81.9802 42.3077 81.6682 41.987C81.3562 41.6663 81.2002 41.2763 81.2002 40.817C81.2002 40.3577 81.3562 39.9677 81.6682 39.647C81.9802 39.3263 82.4265 39.0837 83.0072 38.919C83.5879 38.7457 84.2769 38.659 85.0742 38.659ZM85.0742 39.517C84.4935 39.517 83.9909 39.569 83.5662 39.673C83.1502 39.777 82.8295 39.9243 82.6042 40.115C82.3789 40.3057 82.2662 40.5397 82.2662 40.817C82.2662 41.0943 82.3789 41.3327 82.6042 41.532C82.8295 41.7227 83.1502 41.87 83.5662 41.974C83.9909 42.078 84.4935 42.13 85.0742 42.13C85.6549 42.13 86.1532 42.078 86.5692 41.974C86.9852 41.87 87.3059 41.7227 87.5312 41.532C87.7565 41.3327 87.8692 41.0943 87.8692 40.817C87.8692 40.5397 87.7565 40.3057 87.5312 40.115C87.3059 39.9243 86.9852 39.777 86.5692 39.673C86.1532 39.569 85.6549 39.517 85.0742 39.517ZM92.1972 36.319H98.2032V37.203H92.1972V36.319ZM94.6022 37.021H95.6812V39.725H94.6022V37.021ZM92.1972 32.367H98.1512V33.238H93.2632V36.631H92.1972V32.367ZM99.7632 31.249H100.842V43.027H99.7632V31.249ZM91.4692 40.479L91.3262 39.569C92.0975 39.569 92.9165 39.5647 93.7832 39.556C94.6498 39.5387 95.5295 39.5083 96.4222 39.465C97.3148 39.413 98.1728 39.3393 98.9962 39.244L99.0872 40.037C98.2292 40.167 97.3538 40.2667 96.4612 40.336C95.5772 40.3967 94.7105 40.4357 93.8612 40.453C93.0205 40.4703 92.2232 40.479 91.4692 40.479ZM105.937 32.939H106.821V34.837C106.821 35.461 106.734 36.0763 106.561 36.683C106.388 37.281 106.145 37.8487 105.833 38.386C105.53 38.9147 105.174 39.3827 104.767 39.79C104.36 40.1973 103.922 40.518 103.454 40.752L102.83 39.894C103.255 39.686 103.653 39.4043 104.026 39.049C104.407 38.6937 104.741 38.2863 105.027 37.827C105.313 37.3677 105.534 36.8823 105.69 36.371C105.855 35.8597 105.937 35.3483 105.937 34.837V32.939ZM106.158 32.939H107.029V34.837C107.029 35.331 107.107 35.825 107.263 36.319C107.428 36.8043 107.653 37.2637 107.939 37.697C108.234 38.1217 108.567 38.4987 108.94 38.828C109.321 39.1573 109.729 39.4173 110.162 39.608L109.564 40.466C109.087 40.2407 108.641 39.9373 108.225 39.556C107.809 39.1747 107.445 38.737 107.133 38.243C106.83 37.7403 106.591 37.203 106.418 36.631C106.245 36.0503 106.158 35.4523 106.158 34.837V32.939ZM103.207 32.458H109.772V33.355H103.207V32.458ZM111.371 31.249H112.45V43.014H111.371V31.249ZM120.915 31.912C121.496 31.912 122.016 32.029 122.475 32.263C122.935 32.497 123.294 32.8177 123.554 33.225C123.814 33.6323 123.944 34.1003 123.944 34.629C123.944 35.1577 123.814 35.63 123.554 36.046C123.294 36.4533 122.935 36.774 122.475 37.008C122.016 37.2333 121.496 37.346 120.915 37.346C120.335 37.346 119.815 37.2333 119.355 37.008C118.896 36.774 118.532 36.4533 118.263 36.046C118.003 35.63 117.873 35.1577 117.873 34.629C117.873 34.1003 118.003 33.6323 118.263 33.225C118.532 32.8177 118.896 32.497 119.355 32.263C119.815 32.029 120.335 31.912 120.915 31.912ZM120.915 32.809C120.543 32.809 120.205 32.887 119.901 33.043C119.598 33.199 119.36 33.4157 119.186 33.693C119.013 33.9617 118.926 34.2737 118.926 34.629C118.926 34.9843 119.013 35.3007 119.186 35.578C119.36 35.8553 119.598 36.072 119.901 36.228C120.205 36.384 120.543 36.462 120.915 36.462C121.297 36.462 121.635 36.384 121.929 36.228C122.233 36.072 122.471 35.8553 122.644 35.578C122.818 35.3007 122.904 34.9843 122.904 34.629C122.904 34.2737 122.818 33.9617 122.644 33.693C122.471 33.4157 122.233 33.199 121.929 33.043C121.635 32.887 121.297 32.809 120.915 32.809ZM125.712 31.249H126.791V37.112H125.712V31.249ZM126.323 33.888H128.52V34.785H126.323V33.888ZM118.887 41.818H119.459C119.693 41.818 119.966 41.8093 120.278 41.792C120.59 41.766 120.92 41.727 121.266 41.675C121.613 41.6143 121.955 41.5277 122.293 41.415L122.462 42.273C122.09 42.3943 121.721 42.4853 121.357 42.546C121.002 42.6067 120.664 42.6457 120.343 42.663C120.023 42.689 119.728 42.702 119.459 42.702H118.887V41.818ZM118.887 38.386H119.94V42.13H118.887V38.386ZM122.046 38.451H127.935V39.27H122.046V38.451ZM124.997 39.673C125.639 39.673 126.159 39.8247 126.557 40.128C126.965 40.4227 127.168 40.8257 127.168 41.337C127.168 41.8483 126.965 42.2513 126.557 42.546C126.159 42.8407 125.639 42.988 124.997 42.988C124.356 42.988 123.832 42.8407 123.424 42.546C123.017 42.2513 122.813 41.8483 122.813 41.337C122.813 40.8257 123.017 40.4227 123.424 40.128C123.832 39.8247 124.356 39.673 124.997 39.673ZM124.997 40.453C124.642 40.453 124.347 40.5353 124.113 40.7C123.888 40.856 123.775 41.0683 123.775 41.337C123.775 41.6057 123.888 41.8223 124.113 41.987C124.347 42.143 124.642 42.221 124.997 42.221C125.353 42.221 125.643 42.143 125.868 41.987C126.094 41.8223 126.206 41.6057 126.206 41.337C126.206 41.0683 126.094 40.856 125.868 40.7C125.643 40.5353 125.353 40.453 124.997 40.453ZM124.477 37.411H125.53V39.088H124.477V37.411ZM134.538 32.003C135.362 32.003 136.094 32.1373 136.735 32.406C137.377 32.6747 137.884 33.0517 138.256 33.537C138.629 34.0223 138.815 34.59 138.815 35.24C138.815 35.8987 138.629 36.4707 138.256 36.956C137.884 37.4413 137.377 37.8183 136.735 38.087C136.094 38.3557 135.362 38.49 134.538 38.49C133.732 38.49 133.004 38.3557 132.354 38.087C131.713 37.8183 131.206 37.4413 130.833 36.956C130.461 36.4707 130.274 35.8987 130.274 35.24C130.274 34.59 130.461 34.0223 130.833 33.537C131.206 33.0517 131.713 32.6747 132.354 32.406C133.004 32.1373 133.732 32.003 134.538 32.003ZM134.538 32.874C133.923 32.874 133.373 32.9737 132.887 33.173C132.402 33.3723 132.016 33.6497 131.73 34.005C131.444 34.3517 131.301 34.7633 131.301 35.24C131.301 35.708 131.444 36.1197 131.73 36.475C132.016 36.8303 132.402 37.1077 132.887 37.307C133.373 37.5063 133.923 37.606 134.538 37.606C135.162 37.606 135.717 37.5063 136.202 37.307C136.688 37.1077 137.069 36.8303 137.346 36.475C137.632 36.1197 137.775 35.708 137.775 35.24C137.775 34.7633 137.632 34.3517 137.346 34.005C137.069 33.6497 136.688 33.3723 136.202 33.173C135.717 32.9737 135.162 32.874 134.538 32.874ZM129.234 40.557H139.894V41.454H129.234V40.557ZM146.198 34.07H149.825V34.954H146.198V34.07ZM146.198 37.307H149.825V38.191H146.198V37.307ZM141.271 32.406H146.614V40.037H141.271V32.406ZM145.561 33.277H142.337V39.179H145.561V33.277ZM149.409 31.249H150.475V43.027H149.409V31.249ZM158.941 31.678C159.53 31.678 160.05 31.7907 160.501 32.016C160.96 32.2327 161.32 32.536 161.58 32.926C161.84 33.316 161.97 33.771 161.97 34.291C161.97 34.8023 161.84 35.2573 161.58 35.656C161.32 36.046 160.96 36.3493 160.501 36.566C160.05 36.7827 159.53 36.891 158.941 36.891C158.36 36.891 157.84 36.7827 157.381 36.566C156.921 36.3493 156.557 36.046 156.289 35.656C156.029 35.2573 155.899 34.8023 155.899 34.291C155.899 33.771 156.029 33.316 156.289 32.926C156.557 32.536 156.921 32.2327 157.381 32.016C157.84 31.7907 158.36 31.678 158.941 31.678ZM158.941 32.575C158.559 32.575 158.217 32.6487 157.914 32.796C157.619 32.9347 157.385 33.134 157.212 33.394C157.038 33.654 156.952 33.953 156.952 34.291C156.952 34.629 157.038 34.928 157.212 35.188C157.385 35.4393 157.619 35.6387 157.914 35.786C158.217 35.9333 158.559 36.007 158.941 36.007C159.322 36.007 159.66 35.9333 159.955 35.786C160.258 35.6387 160.496 35.4393 160.67 35.188C160.843 34.928 160.93 34.629 160.93 34.291C160.93 33.953 160.843 33.654 160.67 33.394C160.496 33.134 160.258 32.9347 159.955 32.796C159.66 32.6487 159.322 32.575 158.941 32.575ZM164.193 31.249H165.272V37.268H164.193V31.249ZM157.667 37.853H165.272V40.7H158.746V42.468H157.706V39.894H164.206V38.711H157.667V37.853ZM157.706 41.987H165.675V42.858H157.706V41.987ZM173.487 34.304H176.126V35.201H173.487V34.304ZM175.801 31.249H176.88V38.256H175.801V31.249ZM173.006 38.62C173.82 38.62 174.518 38.7067 175.099 38.88C175.688 39.0533 176.139 39.3047 176.451 39.634C176.763 39.9547 176.919 40.349 176.919 40.817C176.919 41.5103 176.568 42.0477 175.866 42.429C175.172 42.8103 174.219 43.001 173.006 43.001C171.792 43.001 170.835 42.8103 170.133 42.429C169.439 42.0477 169.093 41.5103 169.093 40.817C169.093 40.349 169.249 39.9547 169.561 39.634C169.881 39.3047 170.332 39.0533 170.913 38.88C171.502 38.7067 172.2 38.62 173.006 38.62ZM173.006 39.465C172.416 39.465 171.909 39.517 171.485 39.621C171.06 39.725 170.731 39.8767 170.497 40.076C170.271 40.2753 170.159 40.5223 170.159 40.817C170.159 41.0943 170.271 41.3327 170.497 41.532C170.731 41.7313 171.06 41.8873 171.485 42C171.909 42.104 172.416 42.156 173.006 42.156C173.604 42.156 174.111 42.104 174.527 42C174.951 41.8873 175.276 41.7313 175.502 41.532C175.736 41.3327 175.853 41.0943 175.853 40.817C175.853 40.5223 175.736 40.2753 175.502 40.076C175.276 39.8767 174.951 39.725 174.527 39.621C174.111 39.517 173.604 39.465 173.006 39.465ZM170.198 32.445H171.082V33.394C171.082 34.1133 170.943 34.7893 170.666 35.422C170.397 36.046 170.016 36.5963 169.522 37.073C169.028 37.541 168.456 37.9007 167.806 38.152L167.247 37.294C167.689 37.138 168.087 36.9257 168.443 36.657C168.807 36.3883 169.119 36.0807 169.379 35.734C169.647 35.3873 169.851 35.0147 169.99 34.616C170.128 34.2173 170.198 33.81 170.198 33.394V32.445ZM170.406 32.445H171.29V33.381C171.29 33.8837 171.407 34.3733 171.641 34.85C171.875 35.3267 172.208 35.747 172.642 36.111C173.075 36.475 173.573 36.761 174.137 36.969L173.591 37.827C172.949 37.593 172.39 37.255 171.914 36.813C171.437 36.3623 171.064 35.8423 170.796 35.253C170.536 34.6637 170.406 34.0397 170.406 33.381V32.445ZM167.585 32.107H173.864V32.991H167.585V32.107ZM186.814 38.724H187.88V43.027H186.814V38.724ZM182.043 38.36H192.664V39.257H182.043V38.36ZM186.814 33.277H187.763V33.576C187.763 33.9747 187.68 34.356 187.516 34.72C187.351 35.0753 187.121 35.4047 186.827 35.708C186.532 36.0113 186.185 36.2843 185.787 36.527C185.397 36.761 184.972 36.9603 184.513 37.125C184.062 37.281 183.59 37.3937 183.096 37.463L182.706 36.605C183.13 36.5443 183.542 36.449 183.941 36.319C184.348 36.189 184.721 36.0287 185.059 35.838C185.405 35.6473 185.709 35.435 185.969 35.201C186.237 34.9583 186.445 34.7027 186.593 34.434C186.74 34.1567 186.814 33.8707 186.814 33.576V33.277ZM186.944 33.277H187.893V33.576C187.893 33.862 187.966 34.1437 188.114 34.421C188.261 34.6897 188.465 34.9453 188.725 35.188C188.985 35.422 189.284 35.6387 189.622 35.838C189.968 36.0287 190.341 36.189 190.74 36.319C191.147 36.449 191.563 36.5443 191.988 36.605L191.598 37.463C191.104 37.3937 190.627 37.281 190.168 37.125C189.717 36.9603 189.292 36.761 188.894 36.527C188.504 36.2843 188.161 36.0113 187.867 35.708C187.581 35.4047 187.355 35.0753 187.191 34.72C187.026 34.356 186.944 33.9747 186.944 33.576V33.277ZM183.07 32.705H191.637V33.576H183.07V32.705ZM186.814 31.249H187.88V33.004H186.814V31.249ZM196.55 33.472H197.434V34.057C197.434 34.759 197.299 35.4133 197.031 36.02C196.762 36.618 196.381 37.138 195.887 37.58C195.401 38.022 194.829 38.36 194.171 38.594L193.638 37.749C194.218 37.5583 194.725 37.2767 195.159 36.904C195.601 36.5313 195.943 36.1023 196.186 35.617C196.428 35.123 196.55 34.603 196.55 34.057V33.472ZM196.732 33.472H197.616V34.057C197.616 34.5683 197.737 35.058 197.98 35.526C198.231 35.9853 198.578 36.3883 199.02 36.735C199.462 37.0817 199.973 37.3503 200.554 37.541L200.021 38.386C199.371 38.1693 198.799 37.853 198.305 37.437C197.811 37.0123 197.425 36.514 197.148 35.942C196.87 35.3613 196.732 34.733 196.732 34.057V33.472ZM193.937 32.822H200.216V33.693H193.937V32.822ZM196.55 31.327H197.629V33.147H196.55V31.327ZM199.813 34.863H202.777V35.773H199.813V34.863ZM202.205 31.262H203.284V40.037H202.205V31.262ZM195.783 41.87H203.609V42.754H195.783V41.87ZM195.783 39.257H196.849V42.338H195.783V39.257ZM209.952 35.825H212.162V36.709H209.952V35.825ZM214.138 31.249H215.178V43.014H214.138V31.249ZM211.798 31.496H212.825V42.416H211.798V31.496ZM207.82 32.237C208.331 32.237 208.773 32.4017 209.146 32.731C209.527 33.0603 209.822 33.5327 210.03 34.148C210.238 34.7633 210.342 35.487 210.342 36.319C210.342 37.1597 210.238 37.8877 210.03 38.503C209.822 39.1183 209.527 39.595 209.146 39.933C208.773 40.2623 208.331 40.427 207.82 40.427C207.326 40.427 206.888 40.2623 206.507 39.933C206.134 39.595 205.844 39.1183 205.636 38.503C205.428 37.8877 205.324 37.1597 205.324 36.319C205.324 35.487 205.428 34.7633 205.636 34.148C205.844 33.5327 206.134 33.0603 206.507 32.731C206.888 32.4017 207.326 32.237 207.82 32.237ZM207.82 33.238C207.516 33.238 207.252 33.3637 207.027 33.615C206.801 33.8663 206.628 34.2217 206.507 34.681C206.385 35.1403 206.325 35.6863 206.325 36.319C206.325 36.9517 206.385 37.502 206.507 37.97C206.628 38.4293 206.801 38.7847 207.027 39.036C207.252 39.2873 207.516 39.413 207.82 39.413C208.132 39.413 208.4 39.2873 208.626 39.036C208.86 38.7847 209.037 38.4293 209.159 37.97C209.28 37.502 209.341 36.9517 209.341 36.319C209.341 35.6863 209.28 35.1403 209.159 34.681C209.037 34.2217 208.86 33.8663 208.626 33.615C208.4 33.3637 208.132 33.238 207.82 33.238ZM217.231 32.315H222.639V37.749H217.231V32.315ZM221.586 33.186H218.284V36.878H221.586V33.186ZM224.797 31.249H225.876V39.868H224.797V31.249ZM225.538 34.824H227.605V35.721H225.538V34.824ZM218.557 41.87H226.396V42.754H218.557V41.87ZM218.557 39.049H219.623V42.247H218.557V39.049ZM239.619 31.249H240.698V38.191H239.619V31.249ZM240.243 34.252H242.414V35.162H240.243V34.252ZM233.08 38.724H240.698V41.103H234.172V42.338H233.106V40.388H239.632V39.478H233.08V38.724ZM233.106 42.117H241.14V42.884H233.106V42.117ZM234.666 36.072H235.732V37.567H234.666V36.072ZM231.65 37.918L231.52 37.125C232.213 37.125 232.98 37.1207 233.821 37.112C234.662 37.0947 235.52 37.0643 236.395 37.021C237.27 36.969 238.111 36.8867 238.917 36.774L238.995 37.476C238.163 37.6147 237.309 37.7187 236.434 37.788C235.567 37.8487 234.722 37.8877 233.899 37.905C233.084 37.9137 232.335 37.918 231.65 37.918ZM231.819 32.146H238.566V32.913H231.819V32.146ZM235.186 33.29C236.018 33.29 236.681 33.4243 237.175 33.693C237.678 33.9617 237.929 34.3387 237.929 34.824C237.929 35.318 237.678 35.7037 237.175 35.981C236.681 36.2497 236.018 36.384 235.186 36.384C234.354 36.384 233.687 36.2497 233.184 35.981C232.69 35.7037 232.443 35.318 232.443 34.824C232.443 34.3387 232.69 33.9617 233.184 33.693C233.687 33.4243 234.354 33.29 235.186 33.29ZM235.186 34.005C234.657 34.005 234.237 34.0787 233.925 34.226C233.622 34.3733 233.47 34.5727 233.47 34.824C233.47 35.084 233.622 35.292 233.925 35.448C234.237 35.5953 234.657 35.669 235.186 35.669C235.715 35.669 236.131 35.5953 236.434 35.448C236.746 35.292 236.902 35.084 236.902 34.824C236.902 34.5727 236.746 34.3733 236.434 34.226C236.131 34.0787 235.715 34.005 235.186 34.005ZM234.666 31.145H235.732V32.549H234.666V31.145ZM245.767 35.24H246.846V37.45H245.767V35.24ZM250.083 35.24H251.149V37.45H250.083V35.24ZM243.154 37.06H253.775V37.931H243.154V37.06ZM248.458 38.828C249.715 38.828 250.698 39.0057 251.409 39.361C252.12 39.7163 252.475 40.2277 252.475 40.895C252.475 41.571 252.12 42.0867 251.409 42.442C250.698 42.806 249.715 42.988 248.458 42.988C247.201 42.988 246.213 42.806 245.494 42.442C244.783 42.0867 244.428 41.571 244.428 40.895C244.428 40.2277 244.783 39.7163 245.494 39.361C246.213 39.0057 247.201 38.828 248.458 38.828ZM248.458 39.66C247.843 39.66 247.314 39.7077 246.872 39.803C246.439 39.8983 246.105 40.0413 245.871 40.232C245.637 40.414 245.52 40.635 245.52 40.895C245.52 41.1723 245.637 41.4063 245.871 41.597C246.105 41.779 246.439 41.9177 246.872 42.013C247.314 42.1083 247.843 42.156 248.458 42.156C249.073 42.156 249.598 42.1083 250.031 42.013C250.473 41.9177 250.811 41.779 251.045 41.597C251.279 41.4063 251.396 41.1723 251.396 40.895C251.396 40.635 251.279 40.414 251.045 40.232C250.811 40.0413 250.473 39.8983 250.031 39.803C249.598 39.7077 249.073 39.66 248.458 39.66ZM248.458 31.47C249.307 31.47 250.04 31.5567 250.655 31.73C251.279 31.9033 251.756 32.1547 252.085 32.484C252.423 32.8047 252.592 33.1947 252.592 33.654C252.592 34.1047 252.423 34.4947 252.085 34.824C251.756 35.1533 251.279 35.4047 250.655 35.578C250.04 35.7427 249.307 35.825 248.458 35.825C247.609 35.825 246.872 35.7427 246.248 35.578C245.633 35.4047 245.156 35.1533 244.818 34.824C244.489 34.4947 244.324 34.1047 244.324 33.654C244.324 33.1947 244.489 32.8047 244.818 32.484C245.156 32.1547 245.633 31.9033 246.248 31.73C246.872 31.5567 247.609 31.47 248.458 31.47ZM248.458 32.315C247.843 32.315 247.305 32.367 246.846 32.471C246.395 32.575 246.044 32.7267 245.793 32.926C245.55 33.1253 245.429 33.368 245.429 33.654C245.429 33.9313 245.55 34.174 245.793 34.382C246.044 34.5813 246.395 34.733 246.846 34.837C247.305 34.941 247.843 34.993 248.458 34.993C249.091 34.993 249.632 34.941 250.083 34.837C250.534 34.733 250.88 34.5813 251.123 34.382C251.366 34.174 251.487 33.9313 251.487 33.654C251.487 33.368 251.366 33.1253 251.123 32.926C250.88 32.7267 250.534 32.575 250.083 32.471C249.632 32.367 249.091 32.315 248.458 32.315ZM258.077 35.24H259.156V37.177H258.077V35.24ZM263.277 31.262H264.356V38.022H263.277V31.262ZM254.918 37.749L254.762 36.865C255.481 36.865 256.266 36.8607 257.115 36.852C257.973 36.8347 258.848 36.8 259.741 36.748C260.642 36.6873 261.505 36.6007 262.328 36.488L262.393 37.255C261.544 37.4023 260.677 37.5107 259.793 37.58C258.909 37.6493 258.051 37.6927 257.219 37.71C256.387 37.7273 255.62 37.7403 254.918 37.749ZM255.815 34.694H261.457V35.552H255.815V34.694ZM255.815 31.834H261.353V32.718H256.894V35.019H255.815V31.834ZM256.66 38.555H257.726V39.79H263.303V38.555H264.356V42.858H256.66V38.555ZM257.726 40.622V41.974H263.303V40.622H257.726ZM274.846 31.249H275.912V43.014H274.846V31.249ZM267.033 32.406H268.099V39.686H267.033V32.406ZM267.033 39.049H267.995C268.896 39.049 269.811 39.01 270.738 38.932C271.674 38.8453 272.636 38.7023 273.624 38.503L273.767 39.413C272.744 39.6297 271.761 39.7813 270.816 39.868C269.871 39.946 268.931 39.985 267.995 39.985H267.033V39.049ZM285.817 31.249H286.896V43.027H285.817V31.249ZM286.649 35.89H288.82V36.787H286.649V35.89ZM278.368 39.179H279.291C280.01 39.179 280.669 39.1703 281.267 39.153C281.874 39.127 282.454 39.0837 283.009 39.023C283.572 38.9623 284.144 38.88 284.725 38.776L284.855 39.699C284.248 39.803 283.659 39.8853 283.087 39.946C282.524 40.0067 281.934 40.0457 281.319 40.063C280.704 40.0803 280.028 40.089 279.291 40.089H278.368V39.179ZM278.368 32.393H283.815V33.277H279.434V39.595H278.368V32.393ZM290.474 42.06C290.336 42.06 290.217 42.0123 290.119 41.9169C290.023 41.8184 289.976 41.6999 289.976 41.5614C289.976 41.426 290.023 41.3091 290.119 41.2106C290.217 41.1121 290.336 41.0629 290.474 41.0629C290.61 41.0629 290.727 41.1121 290.825 41.2106C290.923 41.3091 290.973 41.426 290.973 41.5614C290.973 41.6538 290.95 41.7384 290.903 41.8153C290.86 41.8892 290.8 41.9492 290.723 41.9954C290.65 42.0385 290.566 42.06 290.474 42.06Z" fill="#465054"/>
</svg>
