<svg width="93" height="29" viewBox="0 0 93 29" fill="none" xmlns="http://www.w3.org/2000/svg">
<path d="M0.611836 22.37H25.7818V25.61H0.611836V22.37ZM11.1718 17.09H15.1318V23.66H11.1718V17.09ZM3.46184 2.66H22.9318V11.93H7.45184V16.58H3.49184V8.81H18.9718V5.84H3.46184V2.66ZM3.49184 15.02H23.5618V18.2H3.49184V15.02ZM48.7895 0.859998H52.7795V17.45H48.7895V0.859998ZM31.2695 12.62H33.6695C35.7095 12.62 37.4695 12.6 38.9495 12.56C40.4495 12.52 41.7995 12.44 42.9995 12.32C44.2195 12.18 45.4295 11.99 46.6295 11.75L47.0195 14.93C45.7995 15.17 44.5595 15.36 43.2995 15.5C42.0395 15.62 40.6395 15.7 39.0995 15.74C37.5795 15.78 35.7695 15.8 33.6695 15.8H31.2695V12.62ZM31.2695 2.93H44.4395V6.14H35.2295V14.42H31.2695V2.93ZM43.3895 17.75C45.3495 17.75 47.0295 17.97 48.4295 18.41C49.8495 18.83 50.9495 19.45 51.7295 20.27C52.5095 21.09 52.8995 22.07 52.8995 23.21C52.8995 24.35 52.5095 25.33 51.7295 26.15C50.9495 26.99 49.8495 27.62 48.4295 28.04C47.0295 28.48 45.3495 28.7 43.3895 28.7C41.4495 28.7 39.7595 28.48 38.3195 28.04C36.8995 27.62 35.7995 26.99 35.0195 26.15C34.2595 25.33 33.8795 24.35 33.8795 23.21C33.8795 22.07 34.2595 21.09 35.0195 20.27C35.7995 19.45 36.8995 18.83 38.3195 18.41C39.7595 17.97 41.4495 17.75 43.3895 17.75ZM43.3895 20.84C42.1895 20.84 41.1695 20.93 40.3295 21.11C39.5095 21.27 38.8895 21.53 38.4695 21.89C38.0695 22.23 37.8695 22.67 37.8695 23.21C37.8695 23.75 38.0695 24.2 38.4695 24.56C38.8895 24.92 39.5095 25.19 40.3295 25.37C41.1695 25.53 42.1895 25.61 43.3895 25.61C44.5895 25.61 45.5995 25.53 46.4195 25.37C47.2395 25.19 47.8595 24.92 48.2795 24.56C48.6995 24.2 48.9095 23.75 48.9095 23.21C48.9095 22.67 48.6995 22.23 48.2795 21.89C47.8595 21.53 47.2395 21.27 46.4195 21.11C45.5995 20.93 44.5895 20.84 43.3895 20.84ZM77.8105 14.84H81.7705V19.73H77.8105V14.84ZM67.2205 13.49H92.3605V16.67H67.2205V13.49ZM79.7305 18.62C82.7305 18.62 85.0905 19.06 86.8105 19.94C88.5305 20.8 89.3905 22.04 89.3905 23.66C89.3905 25.24 88.5305 26.47 86.8105 27.35C85.0905 28.23 82.7305 28.67 79.7305 28.67C76.7305 28.67 74.3705 28.23 72.6505 27.35C70.9505 26.47 70.1005 25.24 70.1005 23.66C70.1005 22.04 70.9505 20.8 72.6505 19.94C74.3705 19.06 76.7305 18.62 79.7305 18.62ZM79.7305 21.65C78.4905 21.65 77.4505 21.72 76.6105 21.86C75.7905 22 75.1705 22.22 74.7505 22.52C74.3305 22.8 74.1205 23.18 74.1205 23.66C74.1205 24.1 74.3305 24.47 74.7505 24.77C75.1705 25.07 75.7905 25.29 76.6105 25.43C77.4505 25.57 78.4905 25.64 79.7305 25.64C80.9705 25.64 82.0005 25.57 82.8205 25.43C83.6605 25.29 84.2905 25.07 84.7105 24.77C85.1305 24.47 85.3405 24.1 85.3405 23.66C85.3405 23.18 85.1305 22.8 84.7105 22.52C84.2905 22.22 83.6605 22 82.8205 21.86C82.0005 21.72 80.9705 21.65 79.7305 21.65ZM77.0605 3.5H80.6005V4.16C80.6005 5 80.4505 5.8 80.1505 6.56C79.8505 7.32 79.4005 8.03 78.8005 8.69C78.2205 9.33 77.4905 9.91 76.6105 10.43C75.7305 10.95 74.7105 11.38 73.5505 11.72C72.3905 12.06 71.1005 12.3 69.6805 12.44L68.3005 9.29C69.5205 9.19 70.6005 9.02 71.5405 8.78C72.5005 8.54 73.3205 8.25 74.0005 7.91C74.7005 7.55 75.2705 7.17 75.7105 6.77C76.1705 6.35 76.5105 5.92 76.7305 5.48C76.9505 5.04 77.0605 4.6 77.0605 4.16V3.5ZM79.0105 3.5H82.5205V4.16C82.5205 4.6 82.6305 5.05 82.8505 5.51C83.0705 5.95 83.4005 6.37 83.8405 6.77C84.3005 7.17 84.8705 7.55 85.5505 7.91C86.2505 8.25 87.0705 8.54 88.0105 8.78C88.9705 9.02 90.0605 9.19 91.2805 9.29L89.9005 12.44C88.4805 12.3 87.1905 12.06 86.0305 11.72C84.8705 11.38 83.8505 10.96 82.9705 10.46C82.1105 9.94 81.3805 9.36 80.7805 8.72C80.2005 8.06 79.7605 7.35 79.4605 6.59C79.1605 5.81 79.0105 5 79.0105 4.16V3.5ZM69.5305 2.03H90.1105V5.18H69.5305V2.03Z" fill="#454545"/>
</svg>
