<svg width="367" height="40" viewBox="0 0 367 40" fill="none" xmlns="http://www.w3.org/2000/svg">
<path d="M51.7602 18C51.684 17.6553 51.5547 17.3222 51.3724 17.0007C51.1901 16.6759 50.9565 16.3842 50.6714 16.1257C50.3897 15.8639 50.0583 15.6567 49.6771 15.5043C49.2993 15.3518 48.875 15.2756 48.4044 15.2756C47.6851 15.2756 47.0471 15.4645 46.4903 15.8423C45.9368 16.2169 45.5026 16.7521 45.1878 17.4482C44.8762 18.1409 44.7204 18.9612 44.7204 19.9091C44.7204 20.8471 44.8762 21.6641 45.1878 22.3601C45.4993 23.0561 45.9351 23.5947 46.4953 23.9759C47.0587 24.3537 47.7133 24.5426 48.4591 24.5426C49.1253 24.5426 49.7152 24.3885 50.2289 24.0803C50.746 23.772 51.1487 23.3312 51.437 22.7578C51.7254 22.1844 51.8663 21.4983 51.8596 20.6996L52.0784 20.804H48.6182V20.2273H52.4662V20.804C52.4662 21.7022 52.2938 22.4761 51.9491 23.1257C51.6077 23.772 51.1338 24.2692 50.5272 24.6172C49.924 24.9652 49.2346 25.1392 48.4591 25.1392C47.5841 25.1392 46.8201 24.9221 46.1672 24.4879C45.5142 24.0537 45.0071 23.4455 44.6459 22.6634C44.2879 21.8778 44.1089 20.9598 44.1089 19.9091C44.1089 19.1203 44.2117 18.4044 44.4172 17.7614C44.6226 17.1184 44.916 16.5682 45.2971 16.1108C45.6783 15.6501 46.1324 15.2971 46.6593 15.0518C47.1863 14.8033 47.768 14.679 48.4044 14.679C48.9811 14.679 49.4998 14.7751 49.9605 14.9673C50.4212 15.1562 50.8189 15.4115 51.1537 15.733C51.4917 16.0511 51.7652 16.4074 51.974 16.8018C52.1828 17.1929 52.3236 17.5923 52.3966 18H51.7602ZM57.3342 25.1591C56.7045 25.1591 56.1444 24.9901 55.6538 24.652C55.1633 24.3106 54.7772 23.8416 54.4955 23.245C54.2137 22.6484 54.0729 21.969 54.0729 21.2067C54.0729 20.4411 54.2137 19.7616 54.4955 19.1683C54.7772 18.5717 55.1633 18.1027 55.6538 17.7614C56.1444 17.42 56.7045 17.2493 57.3342 17.2493C57.964 17.2493 58.5241 17.42 59.0146 17.7614C59.5052 18.1027 59.8913 18.5717 60.173 19.1683C60.4547 19.7649 60.5956 20.4444 60.5956 21.2067C60.5956 21.969 60.4547 22.6484 60.173 23.245C59.8913 23.8416 59.5052 24.3106 59.0146 24.652C58.5241 24.9901 57.964 25.1591 57.3342 25.1591ZM57.3342 24.5973C57.8679 24.5973 58.3335 24.4465 58.7313 24.1449C59.1323 23.8433 59.4422 23.4356 59.661 22.9219C59.883 22.4081 59.994 21.8364 59.994 21.2067C59.994 20.5769 59.883 20.0069 59.661 19.4964C59.4389 18.9827 59.129 18.575 58.7313 18.2734C58.3335 17.9685 57.8679 17.8161 57.3342 17.8161C56.8006 17.8161 56.335 17.9685 55.9372 18.2734C55.5395 18.575 55.2296 18.9827 55.0075 19.4964C54.7855 20.0069 54.6744 20.5769 54.6744 21.2067C54.6744 21.8364 54.7838 22.4081 55.0026 22.9219C55.2246 23.4356 55.5345 23.8433 55.9323 24.1449C56.3333 24.4465 56.8006 24.5973 57.3342 24.5973ZM65.2437 25.1591C64.614 25.1591 64.0538 24.9901 63.5633 24.652C63.0728 24.3106 62.6866 23.8416 62.4049 23.245C62.1232 22.6484 61.9823 21.969 61.9823 21.2067C61.9823 20.4411 62.1232 19.7616 62.4049 19.1683C62.6866 18.5717 63.0728 18.1027 63.5633 17.7614C64.0538 17.42 64.614 17.2493 65.2437 17.2493C65.8734 17.2493 66.4336 17.42 66.9241 17.7614C67.4146 18.1027 67.8008 18.5717 68.0825 19.1683C68.3642 19.7649 68.5051 20.4444 68.5051 21.2067C68.5051 21.969 68.3642 22.6484 68.0825 23.245C67.8008 23.8416 67.4146 24.3106 66.9241 24.652C66.4336 24.9901 65.8734 25.1591 65.2437 25.1591ZM65.2437 24.5973C65.7773 24.5973 66.243 24.4465 66.6407 24.1449C67.0418 23.8433 67.3517 23.4356 67.5704 22.9219C67.7925 22.4081 67.9035 21.8364 67.9035 21.2067C67.9035 20.5769 67.7925 20.0069 67.5704 19.4964C67.3483 18.9827 67.0384 18.575 66.6407 18.2734C66.243 17.9685 65.7773 17.8161 65.2437 17.8161C64.7101 17.8161 64.2444 17.9685 63.8467 18.2734C63.449 18.575 63.1391 18.9827 62.917 19.4964C62.6949 20.0069 62.5839 20.5769 62.5839 21.2067C62.5839 21.8364 62.6933 22.4081 62.912 22.9219C63.1341 23.4356 63.444 23.8433 63.8417 24.1449C64.2428 24.4465 64.7101 24.5973 65.2437 24.5973ZM73.0686 28.0227C72.5947 28.0227 72.1688 27.9598 71.7909 27.8338C71.4131 27.7112 71.0916 27.5355 70.8264 27.3068C70.5646 27.0781 70.3641 26.8063 70.2249 26.4915L70.732 26.1932C70.8447 26.4384 71.0054 26.6572 71.2142 26.8494C71.423 27.0417 71.6816 27.1925 71.9898 27.3018C72.3014 27.4112 72.661 27.4659 73.0686 27.4659C73.8044 27.4659 74.3861 27.2753 74.8137 26.8942C75.2445 26.5163 75.46 25.9363 75.46 25.1541V23.255H75.4003C75.2843 23.5864 75.112 23.8814 74.8833 24.1399C74.6579 24.3951 74.3811 24.5956 74.053 24.7415C73.7249 24.8873 73.352 24.9602 72.9344 24.9602C72.3312 24.9602 71.8009 24.8045 71.3435 24.4929C70.8861 24.1813 70.5298 23.7438 70.2746 23.1804C70.0194 22.6136 69.8918 21.9474 69.8918 21.1818C69.8918 20.4162 70.0161 19.7384 70.2647 19.1484C70.5166 18.5552 70.8712 18.0911 71.3286 17.7564C71.786 17.4183 72.3229 17.2493 72.9394 17.2493C73.3802 17.2493 73.7613 17.3338 74.0828 17.5028C74.4076 17.6686 74.6794 17.889 74.8982 18.1641C75.1169 18.4392 75.286 18.7408 75.4053 19.0689H75.4749V17.3636H76.0615V25.179C76.0615 25.8153 75.9356 26.344 75.6837 26.7649C75.4351 27.1858 75.0854 27.5007 74.6347 27.7095C74.1872 27.9183 73.6652 28.0227 73.0686 28.0227ZM72.9891 24.3984C73.4995 24.3984 73.9387 24.2692 74.3066 24.0107C74.6778 23.7488 74.9628 23.3776 75.1617 22.897C75.3639 22.4131 75.4649 21.8397 75.4649 21.1768C75.4649 20.5339 75.3672 19.9588 75.1716 19.4517C74.9761 18.9446 74.6927 18.5452 74.3215 18.2536C73.9503 17.9619 73.5061 17.8161 72.9891 17.8161C72.4621 17.8161 72.013 17.9652 71.6418 18.2635C71.2706 18.5585 70.9855 18.9595 70.7867 19.4666C70.5911 19.9737 70.4934 20.5438 70.4934 21.1768C70.4934 21.8132 70.5928 22.3733 70.7916 22.8572C70.9905 23.3378 71.2755 23.7157 71.6468 23.9908C72.018 24.2625 72.4654 24.3984 72.9891 24.3984ZM78.9397 14.8182V25H78.3332V14.8182H78.9397ZM84.1484 25.1591C83.459 25.1591 82.8591 24.9884 82.3487 24.647C81.8382 24.3056 81.4438 23.8383 81.1654 23.245C80.887 22.6518 80.7478 21.9756 80.7478 21.2166C80.7478 20.4543 80.887 19.7749 81.1654 19.1783C81.4471 18.5817 81.8333 18.111 82.3238 17.7663C82.8143 17.4216 83.3745 17.2493 84.0042 17.2493C84.4318 17.2493 84.8361 17.3355 85.2173 17.5078C85.6017 17.6768 85.9398 17.9221 86.2315 18.2436C86.5264 18.5651 86.7568 18.9529 86.9225 19.407C87.0916 19.861 87.1761 20.3714 87.1761 20.9382V21.3161H81.1306V20.7642H86.5695C86.5695 20.2107 86.4568 19.7119 86.2315 19.2678C86.0061 18.8236 85.6995 18.4706 85.3117 18.2088C84.9239 17.947 84.4881 17.8161 84.0042 17.8161C83.4971 17.8161 83.0447 17.9586 82.6469 18.2436C82.2525 18.5253 81.9393 18.9065 81.7073 19.3871C81.4786 19.8677 81.3593 20.4046 81.3494 20.9979V21.2464C81.3494 21.8828 81.4604 22.4545 81.6825 22.9616C81.9078 23.4654 82.2293 23.8648 82.6469 24.1598C83.0646 24.4515 83.565 24.5973 84.1484 24.5973C84.566 24.5973 84.9223 24.5277 85.2173 24.3885C85.5156 24.246 85.7592 24.0736 85.9481 23.8714C86.137 23.6693 86.2795 23.4737 86.3756 23.2848L86.9275 23.5085C86.8115 23.7637 86.6309 24.0189 86.3856 24.2741C86.1436 24.526 85.8354 24.7365 85.4609 24.9055C85.0897 25.0746 84.6522 25.1591 84.1484 25.1591ZM96.5778 14.136H97.6978C97.6978 15.1347 97.5205 16.0447 97.1658 16.866C96.8205 17.678 96.2838 18.4013 95.5558 19.036C94.8278 19.6613 93.8992 20.1887 92.7698 20.618L92.2518 19.778C93.2505 19.4047 94.0672 18.9567 94.7018 18.434C95.3458 17.9113 95.8172 17.3233 96.1158 16.67C96.4238 16.0073 96.5778 15.2887 96.5778 14.514V14.136ZM92.7698 14.136H96.9558V15.088H92.7698V14.136ZM96.4518 16.348V17.146L92.3638 17.58L92.1818 16.628L96.4518 16.348ZM101.646 13.436H102.752V20.072H101.646V13.436ZM99.6298 16.334H102.024V17.286H99.6298V16.334ZM98.8738 13.674H99.9798V19.988H98.8738V13.674ZM94.3938 20.66H102.752V23.642H95.5698V25.518H94.4218V22.774H101.618V21.584H94.3938V20.66ZM94.4218 25H103.242V25.924H94.4218V25ZM113.895 13.436H115.057V22.76H113.895V13.436ZM106.797 24.86H115.407V25.812H106.797V24.86ZM106.797 22.032H107.959V25.336H106.797V22.032ZM105.341 20.002H106.363C107.165 20.002 107.898 19.9927 108.561 19.974C109.223 19.9553 109.863 19.9133 110.479 19.848C111.095 19.7827 111.729 19.694 112.383 19.582L112.509 20.534C111.837 20.646 111.183 20.7347 110.549 20.8C109.923 20.856 109.27 20.898 108.589 20.926C107.917 20.9447 107.175 20.954 106.363 20.954H105.341V20.002ZM105.313 14.332H111.053V18H106.475V20.296H105.341V17.104H109.919V15.27H105.313V14.332ZM117.912 22.004H118.878C119.671 22.004 120.38 21.9947 121.006 21.976C121.631 21.948 122.224 21.906 122.784 21.85C123.353 21.794 123.927 21.71 124.506 21.598L124.646 22.55C124.039 22.6713 123.446 22.76 122.868 22.816C122.289 22.872 121.682 22.914 121.048 22.942C120.413 22.97 119.69 22.984 118.878 22.984H117.912V22.004ZM117.912 14.626H123.666V15.592H119.074V22.354H117.912V14.626ZM126.55 13.422H127.712V26.106H126.55V13.422ZM122.924 18.014H127.04V18.98H122.924V18.014ZM133.087 19.82H134.249V22.83H133.087V19.82ZM133.661 14.248C134.305 14.248 134.879 14.374 135.383 14.626C135.887 14.8687 136.283 15.214 136.573 15.662C136.862 16.11 137.007 16.6327 137.007 17.23C137.007 17.8087 136.862 18.3267 136.573 18.784C136.283 19.232 135.887 19.582 135.383 19.834C134.879 20.0767 134.305 20.198 133.661 20.198C133.007 20.198 132.429 20.0767 131.925 19.834C131.421 19.582 131.024 19.232 130.735 18.784C130.445 18.3267 130.301 17.8087 130.301 17.23C130.301 16.6327 130.445 16.11 130.735 15.662C131.024 15.214 131.421 14.8687 131.925 14.626C132.429 14.374 133.007 14.248 133.661 14.248ZM133.661 15.242C133.231 15.242 132.849 15.326 132.513 15.494C132.177 15.6527 131.911 15.8813 131.715 16.18C131.528 16.4787 131.435 16.8287 131.435 17.23C131.435 17.622 131.528 17.9673 131.715 18.266C131.911 18.5647 132.177 18.798 132.513 18.966C132.849 19.134 133.231 19.218 133.661 19.218C134.09 19.218 134.468 19.134 134.795 18.966C135.131 18.798 135.392 18.5647 135.579 18.266C135.775 17.9673 135.873 17.622 135.873 17.23C135.873 16.8287 135.775 16.4787 135.579 16.18C135.392 15.8813 135.131 15.6527 134.795 15.494C134.468 15.326 134.09 15.242 133.661 15.242ZM138.449 13.422H139.597V26.092H138.449V13.422ZM139.275 18.644H141.613V19.624H139.275V18.644ZM129.909 23.348L129.727 22.382C130.492 22.3727 131.323 22.3633 132.219 22.354C133.124 22.3447 134.039 22.312 134.963 22.256C135.896 22.2 136.792 22.116 137.651 22.004L137.735 22.872C136.848 23.0213 135.943 23.1333 135.019 23.208C134.095 23.2733 133.194 23.3153 132.317 23.334C131.449 23.3433 130.646 23.348 129.909 23.348ZM154.803 13.422H155.965V19.806H154.803V13.422ZM155.643 16.04H157.827V17.02H155.643V16.04ZM146.739 13.982H147.901V18.84H146.739V13.982ZM146.739 18.224H147.747C148.652 18.224 149.581 18.1867 150.533 18.112C151.485 18.028 152.474 17.8833 153.501 17.678L153.641 18.644C152.577 18.8587 151.564 19.008 150.603 19.092C149.642 19.1667 148.69 19.204 147.747 19.204H146.739V18.224ZM147.915 20.422H155.965V23.53H149.105V25.448H147.957V22.634H154.803V21.346H147.915V20.422ZM147.957 24.972H156.413V25.924H147.957V24.972ZM168.102 13.422H169.264V26.092H168.102V13.422ZM160.542 14.542H161.396V17.384C161.396 17.888 161.359 18.4153 161.284 18.966C161.219 19.5167 161.107 20.058 160.948 20.59C160.799 21.1127 160.589 21.6027 160.318 22.06C160.057 22.508 159.721 22.8813 159.31 23.18L158.568 22.354C158.951 22.074 159.268 21.738 159.52 21.346C159.781 20.9447 159.982 20.52 160.122 20.072C160.271 19.6147 160.379 19.1573 160.444 18.7C160.509 18.2333 160.542 17.7947 160.542 17.384V14.542ZM160.78 14.542H161.634V17.384C161.634 17.7667 161.657 18.1867 161.704 18.644C161.76 19.1013 161.853 19.568 161.984 20.044C162.124 20.5107 162.315 20.954 162.558 21.374C162.81 21.794 163.132 22.1533 163.524 22.452L162.88 23.32C162.451 23.012 162.096 22.62 161.816 22.144C161.545 21.668 161.335 21.1547 161.186 20.604C161.037 20.044 160.929 19.4887 160.864 18.938C160.808 18.378 160.78 17.86 160.78 17.384V14.542ZM164.112 14.542H164.966V17.384C164.966 17.8787 164.933 18.406 164.868 18.966C164.812 19.526 164.709 20.0813 164.56 20.632C164.411 21.1827 164.196 21.6913 163.916 22.158C163.645 22.6247 163.3 23.012 162.88 23.32L162.222 22.452C162.614 22.1533 162.931 21.8033 163.174 21.402C163.426 20.9913 163.617 20.5527 163.748 20.086C163.888 19.6193 163.981 19.1573 164.028 18.7C164.084 18.2333 164.112 17.7947 164.112 17.384V14.542ZM164.364 14.542H165.232V17.384C165.232 17.804 165.26 18.2473 165.316 18.714C165.381 19.1807 165.489 19.6427 165.638 20.1C165.787 20.548 165.988 20.968 166.24 21.36C166.492 21.752 166.814 22.0833 167.206 22.354L166.492 23.222C166.081 22.9233 165.736 22.55 165.456 22.102C165.176 21.654 164.957 21.164 164.798 20.632C164.649 20.1 164.537 19.5587 164.462 19.008C164.397 18.448 164.364 17.9067 164.364 17.384V14.542ZM181.754 16.712H184.596V17.678H181.754V16.712ZM184.246 13.422H185.408V20.968H184.246V13.422ZM181.236 21.36C182.114 21.36 182.865 21.4533 183.49 21.64C184.125 21.8267 184.61 22.0973 184.946 22.452C185.282 22.7973 185.45 23.222 185.45 23.726C185.45 24.4727 185.072 25.0513 184.316 25.462C183.57 25.8727 182.543 26.078 181.236 26.078C179.93 26.078 178.898 25.8727 178.142 25.462C177.396 25.0513 177.022 24.4727 177.022 23.726C177.022 23.222 177.19 22.7973 177.526 22.452C177.872 22.0973 178.357 21.8267 178.982 21.64C179.617 21.4533 180.368 21.36 181.236 21.36ZM181.236 22.27C180.602 22.27 180.056 22.326 179.598 22.438C179.141 22.55 178.786 22.7133 178.534 22.928C178.292 23.1427 178.17 23.4087 178.17 23.726C178.17 24.0247 178.292 24.2813 178.534 24.496C178.786 24.7107 179.141 24.8787 179.598 25C180.056 25.112 180.602 25.168 181.236 25.168C181.88 25.168 182.426 25.112 182.874 25C183.332 24.8787 183.682 24.7107 183.924 24.496C184.176 24.2813 184.302 24.0247 184.302 23.726C184.302 23.4087 184.176 23.1427 183.924 22.928C183.682 22.7133 183.332 22.55 182.874 22.438C182.426 22.326 181.88 22.27 181.236 22.27ZM178.212 14.71H179.164V15.732C179.164 16.5067 179.015 17.2347 178.716 17.916C178.427 18.588 178.016 19.1807 177.484 19.694C176.952 20.198 176.336 20.5853 175.636 20.856L175.034 19.932C175.51 19.764 175.94 19.5353 176.322 19.246C176.714 18.9567 177.05 18.6253 177.33 18.252C177.62 17.8787 177.839 17.4773 177.988 17.048C178.138 16.6187 178.212 16.18 178.212 15.732V14.71ZM178.436 14.71H179.388V15.718C179.388 16.2593 179.514 16.7867 179.766 17.3C180.018 17.8133 180.378 18.266 180.844 18.658C181.311 19.05 181.848 19.358 182.454 19.582L181.866 20.506C181.176 20.254 180.574 19.89 180.06 19.414C179.547 18.9287 179.146 18.3687 178.856 17.734C178.576 17.0993 178.436 16.4273 178.436 15.718V14.71ZM175.398 14.346H182.16V15.298H175.398V14.346ZM187.591 23.516H199.071V24.482H187.591V23.516ZM192.729 20.478H193.877V23.796H192.729V20.478ZM188.935 14.318H190.097V16.572H196.537V14.318H197.685V20.8H188.935V14.318ZM190.097 17.524V19.848H196.537V17.524H190.097ZM200.176 19.302H211.656V20.198H200.176V19.302ZM201.548 21.206H210.228V23.908H202.724V25.392H201.576V23.11H209.08V22.046H201.548V21.206ZM201.576 25.084H210.634V25.924H201.576V25.084ZM201.632 13.8H210.186V16.432H202.808V17.804H201.66V15.648H209.038V14.626H201.632V13.8ZM201.66 17.524H210.41V18.364H201.66V17.524ZM221.57 19.498H222.732V21.444H221.57V19.498ZM217.958 13.618H219.106V14.808H225.238V13.618H226.386V17.804H217.958V13.618ZM219.106 15.69V16.894H225.238V15.69H219.106ZM216.446 18.826H227.884V19.778H216.446V18.826ZM217.832 20.996H226.414V23.824H218.994V25.378H217.86V22.984H225.28V21.878H217.832V20.996ZM217.86 25.042H226.792V25.952H217.86V25.042ZM238.299 13.422H239.447V26.106H238.299V13.422ZM235.891 18.28H238.579V19.246H235.891V18.28ZM229.521 22.088H230.487C231.234 22.088 231.92 22.0787 232.545 22.06C233.171 22.0413 233.777 22.004 234.365 21.948C234.953 21.892 235.555 21.8033 236.171 21.682L236.269 22.648C235.635 22.76 235.019 22.8487 234.421 22.914C233.833 22.97 233.217 23.012 232.573 23.04C231.939 23.0587 231.243 23.068 230.487 23.068H229.521V22.088ZM229.479 14.598H235.135V19.036H230.669V22.396H229.521V18.084H234.001V15.55H229.479V14.598ZM246.782 20.576H247.93V23.726H246.782V20.576ZM247.356 14.248C248.252 14.248 249.046 14.388 249.736 14.668C250.427 14.9387 250.968 15.3213 251.36 15.816C251.762 16.3107 251.962 16.894 251.962 17.566C251.962 18.238 251.762 18.826 251.36 19.33C250.968 19.8247 250.427 20.2073 249.736 20.478C249.046 20.7487 248.252 20.884 247.356 20.884C246.47 20.884 245.676 20.7487 244.976 20.478C244.286 20.2073 243.744 19.8247 243.352 19.33C242.96 18.826 242.764 18.238 242.764 17.566C242.764 16.894 242.96 16.3107 243.352 15.816C243.744 15.3213 244.286 14.9387 244.976 14.668C245.676 14.388 246.47 14.248 247.356 14.248ZM247.356 15.186C246.684 15.186 246.087 15.284 245.564 15.48C245.042 15.676 244.631 15.956 244.332 16.32C244.034 16.6747 243.884 17.09 243.884 17.566C243.884 18.042 244.034 18.462 244.332 18.826C244.631 19.19 245.042 19.47 245.564 19.666C246.087 19.862 246.684 19.96 247.356 19.96C248.028 19.96 248.626 19.862 249.148 19.666C249.671 19.47 250.082 19.19 250.38 18.826C250.688 18.462 250.842 18.042 250.842 17.566C250.842 17.09 250.688 16.6747 250.38 16.32C250.082 15.956 249.671 15.676 249.148 15.48C248.626 15.284 248.028 15.186 247.356 15.186ZM241.644 23.502H253.124V24.468H241.644V23.502ZM255.783 17.23H264.393V18.168H255.783V17.23ZM254.229 19.862H265.709V20.814H254.229V19.862ZM255.783 13.884H256.931V17.706H255.783V13.884ZM255.699 24.832H264.463V25.784H255.699V24.832ZM255.699 22.088H256.861V25.084H255.699V22.088ZM275.638 19.75H276.786V21.962H275.638V19.75ZM270.5 19.344H281.938V20.296H270.5V19.344ZM276.212 21.612C277.565 21.612 278.624 21.8033 279.39 22.186C280.155 22.5687 280.538 23.1193 280.538 23.838C280.538 24.5473 280.155 25.0933 279.39 25.476C278.624 25.868 277.565 26.064 276.212 26.064C274.858 26.064 273.794 25.868 273.02 25.476C272.254 25.0933 271.872 24.5473 271.872 23.838C271.872 23.1193 272.254 22.5687 273.02 22.186C273.794 21.8033 274.858 21.612 276.212 21.612ZM276.212 22.522C275.549 22.522 274.98 22.5733 274.504 22.676C274.037 22.7787 273.678 22.928 273.426 23.124C273.174 23.32 273.048 23.558 273.048 23.838C273.048 24.118 273.174 24.356 273.426 24.552C273.678 24.748 274.037 24.8973 274.504 25C274.98 25.112 275.549 25.168 276.212 25.168C276.874 25.168 277.439 25.112 277.906 25C278.382 24.8973 278.746 24.748 278.998 24.552C279.25 24.356 279.376 24.118 279.376 23.838C279.376 23.558 279.25 23.32 278.998 23.124C278.746 22.928 278.382 22.7787 277.906 22.676C277.439 22.5733 276.874 22.522 276.212 22.522ZM275.47 14.472H276.492V14.85C276.492 15.2607 276.403 15.6387 276.226 15.984C276.058 16.3293 275.82 16.6513 275.512 16.95C275.204 17.2393 274.84 17.496 274.42 17.72C274.009 17.944 273.561 18.1307 273.076 18.28C272.59 18.42 272.082 18.5227 271.55 18.588L271.13 17.664C271.587 17.6173 272.026 17.538 272.446 17.426C272.875 17.3047 273.272 17.16 273.636 16.992C274.009 16.8147 274.331 16.614 274.602 16.39C274.872 16.166 275.082 15.9233 275.232 15.662C275.39 15.4007 275.47 15.13 275.47 14.85V14.472ZM275.946 14.472H276.968V14.85C276.968 15.1393 277.042 15.4147 277.192 15.676C277.35 15.928 277.565 16.166 277.836 16.39C278.106 16.6047 278.424 16.8007 278.788 16.978C279.161 17.146 279.558 17.2907 279.978 17.412C280.407 17.5333 280.85 17.6173 281.308 17.664L280.888 18.588C280.356 18.5227 279.847 18.42 279.362 18.28C278.876 18.1307 278.424 17.944 278.004 17.72C277.593 17.496 277.234 17.2393 276.926 16.95C276.618 16.6607 276.375 16.3387 276.198 15.984C276.03 15.6293 275.946 15.2513 275.946 14.85V14.472ZM271.55 14.01H280.902V14.948H271.55V14.01ZM292.31 13.422H293.472V20.226H292.31V13.422ZM285.324 20.856H286.458V22.382H292.324V20.856H293.472V25.924H285.324V20.856ZM286.458 23.306V24.972H292.324V23.306H286.458ZM286.682 14.024C287.326 14.024 287.896 14.15 288.39 14.402C288.885 14.6447 289.272 14.9853 289.552 15.424C289.842 15.8627 289.986 16.3713 289.986 16.95C289.986 17.5193 289.842 18.028 289.552 18.476C289.272 18.9147 288.885 19.2553 288.39 19.498C287.896 19.7407 287.326 19.862 286.682 19.862C286.048 19.862 285.478 19.7407 284.974 19.498C284.48 19.2553 284.088 18.9147 283.798 18.476C283.518 18.028 283.378 17.5193 283.378 16.95C283.378 16.3713 283.518 15.8627 283.798 15.424C284.088 14.9853 284.48 14.6447 284.974 14.402C285.478 14.15 286.048 14.024 286.682 14.024ZM286.682 15.004C286.262 15.004 285.889 15.088 285.562 15.256C285.236 15.4147 284.979 15.6433 284.792 15.942C284.606 16.2313 284.512 16.5673 284.512 16.95C284.512 17.3233 284.606 17.6593 284.792 17.958C284.979 18.2473 285.236 18.476 285.562 18.644C285.889 18.812 286.262 18.896 286.682 18.896C287.102 18.896 287.476 18.812 287.802 18.644C288.129 18.476 288.386 18.2473 288.572 17.958C288.759 17.6593 288.852 17.3233 288.852 16.95C288.852 16.5673 288.759 16.2313 288.572 15.942C288.386 15.6433 288.129 15.4147 287.802 15.256C287.476 15.088 287.102 15.004 286.682 15.004ZM304.909 13.422H306.057V26.092H304.909V13.422ZM296.495 14.668H297.643V22.508H296.495V14.668ZM296.495 21.822H297.531C298.502 21.822 299.487 21.78 300.485 21.696C301.493 21.6027 302.529 21.4487 303.593 21.234L303.747 22.214C302.646 22.4473 301.587 22.6107 300.569 22.704C299.552 22.788 298.539 22.83 297.531 22.83H296.495V21.822ZM316.864 13.422H318.026V26.106H316.864V13.422ZM317.76 18.42H320.098V19.386H317.76V18.42ZM308.842 21.962H309.836C310.611 21.962 311.32 21.9527 311.964 21.934C312.618 21.906 313.243 21.8593 313.84 21.794C314.447 21.7287 315.063 21.64 315.688 21.528L315.828 22.522C315.175 22.634 314.54 22.7227 313.924 22.788C313.318 22.8533 312.683 22.8953 312.02 22.914C311.358 22.9327 310.63 22.942 309.836 22.942H308.842V21.962ZM308.842 14.654H314.708V15.606H309.99V22.41H308.842V14.654ZM322.02 25.0646C321.871 25.0646 321.743 25.0133 321.637 24.9105C321.534 24.8045 321.483 24.6768 321.483 24.5277C321.483 24.3819 321.534 24.2559 321.637 24.1499C321.743 24.0438 321.871 23.9908 322.02 23.9908C322.166 23.9908 322.292 24.0438 322.398 24.1499C322.504 24.2559 322.557 24.3819 322.557 24.5277C322.557 24.6271 322.532 24.7183 322.482 24.8011C322.436 24.8807 322.371 24.9453 322.288 24.995C322.209 25.0414 322.119 25.0646 322.02 25.0646Z" fill="#465054"/>
</svg>
