<svg width="151" height="29" viewBox="0 0 151 29" fill="none" xmlns="http://www.w3.org/2000/svg">
<path d="M18.5481 0.859998H22.5381V22.58H18.5481V0.859998ZM21.1581 9.95H26.0481V13.22H21.1581V9.95ZM4.02809 24.98H23.4981V28.19H4.02809V24.98ZM4.02809 21.2H8.01809V25.91H4.02809V21.2ZM6.78809 14.21H10.7781V18.29H6.78809V14.21ZM0.638086 19.88L0.188086 16.82C1.78809 16.82 3.55809 16.8 5.49809 16.76C7.45809 16.72 9.44809 16.64 11.4681 16.52C13.5081 16.38 15.4681 16.17 17.3481 15.89L17.6481 18.62C15.7081 18.98 13.7281 19.25 11.7081 19.43C9.68809 19.61 7.72809 19.73 5.82809 19.79C3.94809 19.83 2.21809 19.86 0.638086 19.88ZM0.878086 3.11H16.6581V5.96H0.878086V3.11ZM8.76809 6.71C10.8281 6.71 12.4681 7.1 13.6881 7.88C14.9281 8.64 15.5481 9.68 15.5481 11C15.5481 12.34 14.9281 13.39 13.6881 14.15C12.4681 14.91 10.8281 15.29 8.76809 15.29C6.72809 15.29 5.08809 14.91 3.84809 14.15C2.62809 13.39 2.01809 12.34 2.01809 11C2.01809 9.68 2.62809 8.64 3.84809 7.88C5.08809 7.1 6.72809 6.71 8.76809 6.71ZM8.76809 9.38C7.82809 9.38 7.09809 9.52 6.57809 9.8C6.05809 10.06 5.79809 10.46 5.79809 11C5.79809 11.52 6.05809 11.92 6.57809 12.2C7.09809 12.46 7.82809 12.59 8.76809 12.59C9.70809 12.59 10.4381 12.46 10.9581 12.2C11.4981 11.92 11.7681 11.52 11.7681 11C11.7681 10.46 11.4981 10.06 10.9581 9.8C10.4381 9.52 9.70809 9.38 8.76809 9.38ZM6.78809 0.739998H10.7781V4.31H6.78809V0.739998ZM41.8857 4.49H50.1057V7.7H41.8857V4.49ZM41.8857 10.67H50.1057V13.85H41.8857V10.67ZM37.2657 2.36C38.6657 2.36 39.9157 2.66 41.0157 3.26C42.1157 3.84 42.9857 4.64 43.6257 5.66C44.2857 6.68 44.6157 7.85 44.6157 9.17C44.6157 10.47 44.2857 11.63 43.6257 12.65C42.9857 13.67 42.1157 14.48 41.0157 15.08C39.9157 15.66 38.6657 15.95 37.2657 15.95C35.9057 15.95 34.6657 15.66 33.5457 15.08C32.4457 14.48 31.5657 13.67 30.9057 12.65C30.2657 11.63 29.9457 10.47 29.9457 9.17C29.9457 7.85 30.2657 6.68 30.9057 5.66C31.5657 4.64 32.4457 3.84 33.5457 3.26C34.6657 2.66 35.9057 2.36 37.2657 2.36ZM37.2657 5.72C36.6057 5.72 36.0057 5.86 35.4657 6.14C34.9257 6.4 34.4957 6.79 34.1757 7.31C33.8757 7.81 33.7257 8.43 33.7257 9.17C33.7257 9.87 33.8757 10.48 34.1757 11C34.4957 11.52 34.9257 11.92 35.4657 12.2C36.0057 12.46 36.6057 12.59 37.2657 12.59C37.9657 12.59 38.5757 12.46 39.0957 12.2C39.6357 11.92 40.0557 11.52 40.3557 11C40.6557 10.48 40.8057 9.87 40.8057 9.17C40.8057 8.43 40.6557 7.81 40.3557 7.31C40.0557 6.79 39.6357 6.4 39.0957 6.14C38.5757 5.86 37.9657 5.72 37.2657 5.72ZM48.8457 0.89H52.8657V17.15H48.8457V0.89ZM43.4457 17.72C45.4057 17.72 47.0857 17.94 48.4857 18.38C49.9057 18.8 51.0057 19.42 51.7857 20.24C52.5657 21.06 52.9557 22.04 52.9557 23.18C52.9557 24.32 52.5657 25.3 51.7857 26.12C51.0057 26.96 49.9057 27.59 48.4857 28.01C47.0857 28.45 45.4057 28.67 43.4457 28.67C41.4857 28.67 39.7957 28.45 38.3757 28.01C36.9557 27.59 35.8557 26.96 35.0757 26.12C34.3157 25.3 33.9357 24.32 33.9357 23.18C33.9357 22.04 34.3157 21.06 35.0757 20.24C35.8557 19.42 36.9557 18.8 38.3757 18.38C39.7957 17.94 41.4857 17.72 43.4457 17.72ZM43.4457 20.78C42.2457 20.78 41.2257 20.87 40.3857 21.05C39.5457 21.23 38.9157 21.5 38.4957 21.86C38.0757 22.2 37.8657 22.64 37.8657 23.18C37.8657 23.72 38.0757 24.17 38.4957 24.53C38.9157 24.89 39.5457 25.16 40.3857 25.34C41.2257 25.5 42.2457 25.58 43.4457 25.58C44.6657 25.58 45.6857 25.5 46.5057 25.34C47.3457 25.16 47.9757 24.89 48.3957 24.53C48.8157 24.17 49.0257 23.72 49.0257 23.18C49.0257 22.64 48.8157 22.2 48.3957 21.86C47.9757 21.5 47.3457 21.23 46.5057 21.05C45.6857 20.87 44.6657 20.78 43.4457 20.78ZM76.5634 0.89H80.5534V17.15H76.5634V0.89ZM78.9934 7.55H84.2434V10.82H78.9934V7.55ZM62.4934 18.23H66.4534V20.3H76.6234V18.23H80.5534V28.37H62.4934V18.23ZM66.4534 23.3V25.25H76.6234V23.3H66.4534ZM58.7134 3.29H75.0334V6.44H58.7134V3.29ZM66.8734 7.16C68.2334 7.16 69.4234 7.37 70.4434 7.79C71.4634 8.19 72.2634 8.76 72.8434 9.5C73.4234 10.24 73.7134 11.1 73.7134 12.08C73.7134 13.06 73.4234 13.92 72.8434 14.66C72.2634 15.4 71.4634 15.98 70.4434 16.4C69.4234 16.8 68.2334 17 66.8734 17C65.5334 17 64.3434 16.8 63.3034 16.4C62.2834 15.98 61.4834 15.4 60.9034 14.66C60.3234 13.92 60.0334 13.06 60.0334 12.08C60.0334 11.1 60.3234 10.24 60.9034 9.5C61.4834 8.76 62.2834 8.19 63.3034 7.79C64.3434 7.37 65.5334 7.16 66.8734 7.16ZM66.8734 10.07C65.9934 10.07 65.2734 10.25 64.7134 10.61C64.1534 10.95 63.8734 11.44 63.8734 12.08C63.8734 12.74 64.1534 13.25 64.7134 13.61C65.2734 13.95 65.9934 14.12 66.8734 14.12C67.7734 14.12 68.4934 13.95 69.0334 13.61C69.5934 13.25 69.8734 12.74 69.8734 12.08C69.8734 11.44 69.5934 10.95 69.0334 10.61C68.4934 10.25 67.7734 10.07 66.8734 10.07ZM64.8934 0.649999H68.8534V5.03H64.8934V0.649999ZM107.041 0.859998H111.001V28.64H107.041V0.859998ZM89.2511 3.5H93.2411V20.78H89.2511V3.5ZM89.2511 18.41H91.7111C93.7511 18.41 95.8811 18.33 98.1011 18.17C100.321 17.99 102.581 17.67 104.881 17.21L105.301 20.54C102.941 21.04 100.611 21.38 98.3111 21.56C96.0311 21.72 93.8311 21.8 91.7111 21.8H89.2511V18.41ZM134.639 0.829999H138.659V28.7H134.639V0.829999ZM137.789 11.12H142.679V14.42H137.789V11.12ZM117.959 18.74H120.299C121.879 18.74 123.359 18.72 124.739 18.68C126.119 18.62 127.459 18.53 128.759 18.41C130.059 18.27 131.389 18.08 132.749 17.84L133.139 21.14C131.739 21.38 130.359 21.57 128.999 21.71C127.659 21.85 126.279 21.94 124.859 21.98C123.439 22.02 121.919 22.04 120.299 22.04H117.959V18.74ZM117.959 3.41H130.919V6.62H121.949V20.3H117.959V3.41ZM148.079 26.277C147.362 26.277 146.772 26.0284 146.31 25.5312C145.856 25.0341 145.65 24.4304 145.693 23.7202C145.742 23.017 146.037 22.424 146.577 21.9411C147.124 21.451 147.752 21.206 148.462 21.206C149.144 21.206 149.72 21.451 150.188 21.9411C150.657 22.4311 150.863 23.0241 150.806 23.7202C150.771 24.1889 150.618 24.6186 150.348 25.0092C150.085 25.3928 149.752 25.7017 149.347 25.9361C148.942 26.1634 148.519 26.277 148.079 26.277Z" fill="#454545"/>
</svg>
