<svg width="84" height="39" viewBox="0 0 84 39" fill="none" xmlns="http://www.w3.org/2000/svg">
<g filter="url(#filter0_d_141_98)">
<rect x="4" width="76" height="31" rx="15.5" fill="white"/>
<path d="M17.148 10.626H18.254V13.706H20.914V10.626H21.992V18.928H17.148V10.626ZM18.254 14.644V17.976H20.914V14.644H18.254ZM26.346 9.422H27.466V22.092H26.346V9.422ZM24.316 14.434H26.752V15.4H24.316V14.434ZM23.532 9.688H24.638V21.448H23.532V9.688ZM31.0349 15.498H39.7289V16.45H31.0349V15.498ZM29.5789 19.404H41.0589V20.37H29.5789V19.404ZM31.0349 10.598H39.6029V11.55H32.1829V15.918H31.0349V10.598ZM43.1158 10.528H49.0238V16.422H43.1158V10.528ZM47.8898 11.466H44.2498V15.484H47.8898V11.466ZM51.6698 9.436H52.8318V18.536H51.6698V9.436ZM44.6978 20.72H53.2238V21.672H44.6978V20.72ZM44.6978 17.668H45.8598V21.112H44.6978V17.668ZM62.1547 12.992H64.8147V13.93H62.1547V12.992ZM64.5907 9.436H65.7527V18.83H64.5907V9.436ZM57.6467 20.86H66.0887V21.812H57.6467V20.86ZM57.6467 18.032H58.8087V21.42H57.6467V18.032ZM55.9807 15.876H56.9047C57.7167 15.876 58.4214 15.8667 59.0187 15.848C59.6254 15.8293 60.1854 15.7967 60.6987 15.75C61.2214 15.7033 61.7534 15.6333 62.2947 15.54L62.4067 16.478C61.8467 16.5807 61.3007 16.66 60.7687 16.716C60.2461 16.7627 59.6767 16.7953 59.0607 16.814C58.4447 16.8327 57.7261 16.842 56.9047 16.842H55.9807V15.876ZM55.9807 10.416H61.6367V11.368H57.1287V16.03H55.9807V10.416ZM56.7507 13.09H61.2867V14.028H56.7507V13.09Z" fill="black"/>
</g>
<defs>
<filter id="filter0_d_141_98" x="0" y="0" width="84" height="39" filterUnits="userSpaceOnUse" color-interpolation-filters="sRGB">
<feFlood flood-opacity="0" result="BackgroundImageFix"/>
<feColorMatrix in="SourceAlpha" type="matrix" values="0 0 0 0 0 0 0 0 0 0 0 0 0 0 0 0 0 0 127 0" result="hardAlpha"/>
<feOffset dy="4"/>
<feGaussianBlur stdDeviation="2"/>
<feComposite in2="hardAlpha" operator="out"/>
<feColorMatrix type="matrix" values="0 0 0 0 0 0 0 0 0 0 0 0 0 0 0 0 0 0 0.25 0"/>
<feBlend mode="normal" in2="BackgroundImageFix" result="effect1_dropShadow_141_98"/>
<feBlend mode="normal" in="SourceGraphic" in2="effect1_dropShadow_141_98" result="shape"/>
</filter>
</defs>
</svg>
