<svg width="61" height="39" viewBox="0 0 61 39" fill="none" xmlns="http://www.w3.org/2000/svg">
<g filter="url(#filter0_d_141_110)">
<rect x="4" width="53" height="31" rx="15.5" fill="white"/>
<path d="M16.7 15.736H28.138V16.674H16.7V15.736ZM21.838 13.566H23V16.114H21.838V13.566ZM17.974 17.906H26.738V22.19H25.59V18.844H17.974V17.906ZM18.142 13.272H26.836V14.224H18.142V13.272ZM18.142 9.94H26.724V10.878H19.304V13.762H18.142V9.94ZM35.9069 13.72H39.4209V14.672H35.9069V13.72ZM32.8409 10.514H33.7929V12.782C33.7929 13.482 33.7042 14.1727 33.5269 14.854C33.3589 15.5353 33.1162 16.17 32.7989 16.758C32.4816 17.346 32.1082 17.8687 31.6789 18.326C31.2589 18.7833 30.7969 19.1473 30.2929 19.418L29.5649 18.48C30.0316 18.256 30.4609 17.9433 30.8529 17.542C31.2542 17.1407 31.6042 16.6833 31.9029 16.17C32.2016 15.6473 32.4302 15.1013 32.5889 14.532C32.7569 13.9533 32.8409 13.37 32.8409 12.782V10.514ZM33.0789 10.514H34.0169V12.782C34.0169 13.3513 34.0962 13.916 34.2549 14.476C34.4229 15.036 34.6562 15.5633 34.9549 16.058C35.2536 16.5433 35.5989 16.9773 35.9909 17.36C36.3922 17.7427 36.8216 18.0413 37.2789 18.256L36.5789 19.194C36.0749 18.9327 35.6082 18.5827 35.1789 18.144C34.7496 17.7053 34.3762 17.2013 34.0589 16.632C33.7509 16.0627 33.5082 15.4513 33.3309 14.798C33.1629 14.1447 33.0789 13.4727 33.0789 12.782V10.514ZM38.8469 9.422H39.9949V22.106H38.8469V9.422Z" fill="black"/>
</g>
<defs>
<filter id="filter0_d_141_110" x="0" y="0" width="61" height="39" filterUnits="userSpaceOnUse" color-interpolation-filters="sRGB">
<feFlood flood-opacity="0" result="BackgroundImageFix"/>
<feColorMatrix in="SourceAlpha" type="matrix" values="0 0 0 0 0 0 0 0 0 0 0 0 0 0 0 0 0 0 127 0" result="hardAlpha"/>
<feOffset dy="4"/>
<feGaussianBlur stdDeviation="2"/>
<feComposite in2="hardAlpha" operator="out"/>
<feColorMatrix type="matrix" values="0 0 0 0 0 0 0 0 0 0 0 0 0 0 0 0 0 0 0.25 0"/>
<feBlend mode="normal" in2="BackgroundImageFix" result="effect1_dropShadow_141_110"/>
<feBlend mode="normal" in="SourceGraphic" in2="effect1_dropShadow_141_110" result="shape"/>
</filter>
</defs>
</svg>
