<svg width="97" height="39" viewBox="0 0 97 39" fill="none" xmlns="http://www.w3.org/2000/svg">
<g filter="url(#filter0_d_108_1109)">
<rect x="4" width="89" height="31" rx="15.5" fill="white"/>
<path d="M18.1 18.312H26.738V21.924H18.1V18.312ZM25.604 19.194H19.234V21.028H25.604V19.194ZM17.302 10.472H27.48V11.382H17.302V10.472ZM22.412 11.886C23.728 11.886 24.736 12.04 25.436 12.348C26.1453 12.6467 26.5 13.09 26.5 13.678C26.5 14.266 26.1453 14.714 25.436 15.022C24.736 15.3207 23.728 15.47 22.412 15.47C21.1147 15.47 20.1067 15.3207 19.388 15.022C18.6787 14.714 18.324 14.266 18.324 13.678C18.324 13.09 18.6787 12.6467 19.388 12.348C20.1067 12.04 21.1147 11.886 22.412 11.886ZM22.412 12.698C21.5067 12.698 20.802 12.782 20.298 12.95C19.8033 13.118 19.556 13.3607 19.556 13.678C19.556 13.9953 19.8033 14.238 20.298 14.406C20.802 14.574 21.5067 14.658 22.412 14.658C23.3267 14.658 24.0313 14.574 24.526 14.406C25.0207 14.238 25.268 13.9953 25.268 13.678C25.268 13.3607 25.0207 13.118 24.526 12.95C24.0313 12.782 23.3267 12.698 22.412 12.698ZM21.838 9.24H23V11.06H21.838V9.24ZM16.7 16.422H28.138V17.346H16.7V16.422ZM21.838 15.176H23V16.94H21.838V15.176ZM31.0489 16.254H39.7429V17.192H31.0489V16.254ZM29.5789 19.488H41.0589V20.454H29.5789V19.488ZM31.0489 10.514H39.6169V11.466H32.2249V16.534H31.0489V10.514ZM31.8609 13.328H39.3369V14.266H31.8609V13.328ZM42.8778 18.004H43.7178C44.4831 18.004 45.2391 17.9853 45.9858 17.948C46.7418 17.9013 47.5538 17.8033 48.4218 17.654L48.5198 18.606C47.6331 18.7647 46.8071 18.8673 46.0418 18.914C45.2858 18.9513 44.5111 18.97 43.7178 18.97H42.8778V18.004ZM42.8498 10.822H47.3578V15.218H43.9978V18.41H42.8778V14.28H46.2378V11.774H42.8498V10.822ZM52.0898 9.422H53.1958V22.092H52.0898V9.422ZM47.9598 13.972H50.0178V14.938H47.9598V13.972ZM49.5278 9.73H50.6198V21.42H49.5278V9.73ZM64.5347 9.422H65.6967V22.106H64.5347V9.422ZM59.0187 10.402C59.6441 10.402 60.1947 10.584 60.6707 10.948C61.1561 11.3027 61.5341 11.8113 61.8047 12.474C62.0847 13.1367 62.2247 13.916 62.2247 14.812C62.2247 15.708 62.0847 16.4873 61.8047 17.15C61.5341 17.8127 61.1561 18.326 60.6707 18.69C60.1947 19.054 59.6441 19.236 59.0187 19.236C58.3934 19.236 57.8381 19.054 57.3527 18.69C56.8674 18.326 56.4847 17.8127 56.2047 17.15C55.9341 16.4873 55.7987 15.708 55.7987 14.812C55.7987 13.916 55.9341 13.1367 56.2047 12.474C56.4847 11.8113 56.8674 11.3027 57.3527 10.948C57.8381 10.584 58.3934 10.402 59.0187 10.402ZM59.0187 11.438C58.5987 11.438 58.2301 11.578 57.9127 11.858C57.6047 12.1287 57.3621 12.5207 57.1847 13.034C57.0074 13.538 56.9187 14.1307 56.9187 14.812C56.9187 15.4933 57.0074 16.0907 57.1847 16.604C57.3621 17.108 57.6047 17.5 57.9127 17.78C58.2301 18.06 58.5987 18.2 59.0187 18.2C59.4294 18.2 59.7887 18.06 60.0967 17.78C60.4141 17.5 60.6614 17.108 60.8387 16.604C61.0161 16.0907 61.1047 15.4933 61.1047 14.812C61.1047 14.1307 61.0161 13.538 60.8387 13.034C60.6614 12.5207 60.4141 12.1287 60.0967 11.858C59.7887 11.578 59.4294 11.438 59.0187 11.438ZM77.4136 9.422H78.5616V16.996H77.4136V9.422ZM68.9996 10.262H70.1616V15.484H68.9996V10.262ZM68.9996 14.924H70.0216C70.7683 14.924 71.473 14.91 72.1356 14.882C72.8076 14.8447 73.4656 14.784 74.1096 14.7C74.7536 14.616 75.407 14.504 76.0696 14.364L76.2236 15.33C75.533 15.4793 74.861 15.596 74.2076 15.68C73.5543 15.7547 72.8823 15.8107 72.1916 15.848C71.5103 15.8853 70.787 15.904 70.0216 15.904H68.9996V14.924ZM74.3756 17.094C75.2436 17.094 75.995 17.192 76.6296 17.388C77.2643 17.584 77.7543 17.8687 78.0996 18.242C78.445 18.606 78.6176 19.054 78.6176 19.586C78.6176 20.0993 78.445 20.5427 78.0996 20.916C77.7543 21.2893 77.2643 21.574 76.6296 21.77C75.995 21.966 75.2436 22.064 74.3756 22.064C73.4983 22.064 72.7423 21.966 72.1076 21.77C71.473 21.574 70.983 21.2893 70.6376 20.916C70.2923 20.5427 70.1196 20.0993 70.1196 19.586C70.1196 19.054 70.2923 18.606 70.6376 18.242C70.983 17.8687 71.473 17.584 72.1076 17.388C72.7423 17.192 73.4983 17.094 74.3756 17.094ZM74.3756 18.046C73.7316 18.046 73.1763 18.1067 72.7096 18.228C72.2523 18.3493 71.8976 18.522 71.6456 18.746C71.403 18.97 71.2816 19.25 71.2816 19.586C71.2816 19.9127 71.403 20.188 71.6456 20.412C71.8976 20.636 72.2523 20.8133 72.7096 20.944C73.1763 21.0653 73.7316 21.126 74.3756 21.126C75.0103 21.126 75.5563 21.0653 76.0136 20.944C76.4803 20.8133 76.835 20.636 77.0776 20.412C77.3296 20.188 77.4556 19.9127 77.4556 19.586C77.4556 19.25 77.3296 18.97 77.0776 18.746C76.835 18.522 76.4803 18.3493 76.0136 18.228C75.5563 18.1067 75.0103 18.046 74.3756 18.046Z" fill="black"/>
</g>
<defs>
<filter id="filter0_d_108_1109" x="0" y="0" width="97" height="39" filterUnits="userSpaceOnUse" color-interpolation-filters="sRGB">
<feFlood flood-opacity="0" result="BackgroundImageFix"/>
<feColorMatrix in="SourceAlpha" type="matrix" values="0 0 0 0 0 0 0 0 0 0 0 0 0 0 0 0 0 0 127 0" result="hardAlpha"/>
<feOffset dy="4"/>
<feGaussianBlur stdDeviation="2"/>
<feComposite in2="hardAlpha" operator="out"/>
<feColorMatrix type="matrix" values="0 0 0 0 0 0 0 0 0 0 0 0 0 0 0 0 0 0 0.25 0"/>
<feBlend mode="normal" in2="BackgroundImageFix" result="effect1_dropShadow_108_1109"/>
<feBlend mode="normal" in="SourceGraphic" in2="effect1_dropShadow_108_1109" result="shape"/>
</filter>
</defs>
</svg>
