<svg width="61" height="39" viewBox="0 0 61 39" fill="none" xmlns="http://www.w3.org/2000/svg">
<g filter="url(#filter0_d_108_1110)">
<rect x="4" width="53" height="31" rx="15.5" fill="white"/>
<path d="M21.824 9.87H22.846V10.584C22.846 11.0693 22.7527 11.5267 22.566 11.956C22.3793 12.376 22.1227 12.7633 21.796 13.118C21.4787 13.4727 21.1053 13.79 20.676 14.07C20.2467 14.35 19.78 14.5833 19.276 14.77C18.7813 14.9567 18.2727 15.092 17.75 15.176L17.274 14.238C17.7407 14.1727 18.1933 14.0607 18.632 13.902C19.08 13.7433 19.4953 13.552 19.878 13.328C20.2607 13.0947 20.5967 12.8333 20.886 12.544C21.1847 12.2547 21.4133 11.9467 21.572 11.62C21.74 11.284 21.824 10.9387 21.824 10.584V9.87ZM22.02 9.87H23.028V10.584C23.028 10.9387 23.112 11.2793 23.28 11.606C23.448 11.9327 23.6767 12.2407 23.966 12.53C24.2647 12.8193 24.6053 13.0807 24.988 13.314C25.3707 13.5473 25.7813 13.7433 26.22 13.902C26.668 14.0607 27.1207 14.1727 27.578 14.238L27.116 15.176C26.5933 15.092 26.0847 14.9567 25.59 14.77C25.0953 14.574 24.6287 14.336 24.19 14.056C23.7607 13.776 23.3827 13.4587 23.056 13.104C22.7387 12.7493 22.4867 12.362 22.3 11.942C22.1133 11.5127 22.02 11.06 22.02 10.584V9.87ZM21.824 17.276H22.972V22.092H21.824V17.276ZM16.7 16.548H28.138V17.514H16.7V16.548ZM35.3469 11.256H39.1969V12.194H35.3469V11.256ZM35.3469 14.168H39.1969V15.12H35.3469V14.168ZM33.0369 10.178C33.6529 10.178 34.2036 10.3087 34.6889 10.57C35.1836 10.822 35.5709 11.1767 35.8509 11.634C36.1402 12.082 36.2849 12.6 36.2849 13.188C36.2849 13.776 36.1402 14.2987 35.8509 14.756C35.5709 15.204 35.1836 15.5587 34.6889 15.82C34.2036 16.072 33.6529 16.198 33.0369 16.198C32.4116 16.198 31.8516 16.072 31.3569 15.82C30.8716 15.5587 30.4842 15.204 30.1949 14.756C29.9149 14.2987 29.7749 13.776 29.7749 13.188C29.7749 12.6 29.9149 12.082 30.1949 11.634C30.4842 11.1767 30.8716 10.822 31.3569 10.57C31.8516 10.3087 32.4116 10.178 33.0369 10.178ZM33.0369 11.172C32.6262 11.172 32.2576 11.256 31.9309 11.424C31.6042 11.592 31.3476 11.83 31.1609 12.138C30.9742 12.4367 30.8809 12.7867 30.8809 13.188C30.8809 13.58 30.9742 13.93 31.1609 14.238C31.3476 14.5367 31.6042 14.7747 31.9309 14.952C32.2576 15.12 32.6262 15.204 33.0369 15.204C33.4476 15.204 33.8116 15.12 34.1289 14.952C34.4556 14.7747 34.7122 14.5367 34.8989 14.238C35.0856 13.93 35.1789 13.58 35.1789 13.188C35.1789 12.7867 35.0856 12.4367 34.8989 12.138C34.7122 11.83 34.4556 11.592 34.1289 11.424C33.8116 11.256 33.4476 11.172 33.0369 11.172ZM38.8329 9.422H39.9949V16.912H38.8329V9.422ZM35.8229 17.22C36.7002 17.22 37.4516 17.318 38.0769 17.514C38.7022 17.7007 39.1829 17.976 39.5189 18.34C39.8642 18.6947 40.0369 19.1287 40.0369 19.642C40.0369 20.146 39.8642 20.58 39.5189 20.944C39.1829 21.308 38.7022 21.5833 38.0769 21.77C37.4516 21.966 36.7002 22.064 35.8229 22.064C34.9549 22.064 34.2036 21.966 33.5689 21.77C32.9436 21.5833 32.4582 21.308 32.1129 20.944C31.7769 20.58 31.6089 20.146 31.6089 19.642C31.6089 19.1287 31.7769 18.6947 32.1129 18.34C32.4582 17.976 32.9436 17.7007 33.5689 17.514C34.2036 17.318 34.9549 17.22 35.8229 17.22ZM35.8229 18.13C35.1882 18.13 34.6376 18.1907 34.1709 18.312C33.7136 18.4333 33.3589 18.606 33.1069 18.83C32.8642 19.054 32.7429 19.3247 32.7429 19.642C32.7429 19.95 32.8642 20.216 33.1069 20.44C33.3589 20.664 33.7136 20.8367 34.1709 20.958C34.6376 21.0793 35.1882 21.14 35.8229 21.14C36.4669 21.14 37.0176 21.0793 37.4749 20.958C37.9322 20.8367 38.2822 20.664 38.5249 20.44C38.7769 20.216 38.9029 19.95 38.9029 19.642C38.9029 19.3247 38.7769 19.054 38.5249 18.83C38.2822 18.606 37.9322 18.4333 37.4749 18.312C37.0176 18.1907 36.4669 18.13 35.8229 18.13Z" fill="black"/>
</g>
<defs>
<filter id="filter0_d_108_1110" x="0" y="0" width="61" height="39" filterUnits="userSpaceOnUse" color-interpolation-filters="sRGB">
<feFlood flood-opacity="0" result="BackgroundImageFix"/>
<feColorMatrix in="SourceAlpha" type="matrix" values="0 0 0 0 0 0 0 0 0 0 0 0 0 0 0 0 0 0 127 0" result="hardAlpha"/>
<feOffset dy="4"/>
<feGaussianBlur stdDeviation="2"/>
<feComposite in2="hardAlpha" operator="out"/>
<feColorMatrix type="matrix" values="0 0 0 0 0 0 0 0 0 0 0 0 0 0 0 0 0 0 0.25 0"/>
<feBlend mode="normal" in2="BackgroundImageFix" result="effect1_dropShadow_108_1110"/>
<feBlend mode="normal" in="SourceGraphic" in2="effect1_dropShadow_108_1110" result="shape"/>
</filter>
</defs>
</svg>
