<svg width="88" height="39" viewBox="0 0 88 39" fill="none" xmlns="http://www.w3.org/2000/svg">
<g filter="url(#filter0_d_141_114)">
<rect x="4" width="80" height="31" rx="15.5" fill="white"/>
<path d="M20.228 10.178C20.872 10.178 21.4413 10.3087 21.936 10.57C22.4307 10.822 22.818 11.172 23.098 11.62C23.3873 12.068 23.532 12.586 23.532 13.174C23.532 13.7713 23.3873 14.294 23.098 14.742C22.818 15.19 22.4307 15.54 21.936 15.792C21.4413 16.044 20.872 16.17 20.228 16.17C19.6027 16.17 19.038 16.044 18.534 15.792C18.0393 15.54 17.6473 15.19 17.358 14.742C17.0687 14.294 16.924 13.7713 16.924 13.174C16.924 12.586 17.0687 12.068 17.358 11.62C17.6473 11.172 18.0393 10.822 18.534 10.57C19.038 10.3087 19.6027 10.178 20.228 10.178ZM20.228 11.172C19.8173 11.172 19.4487 11.256 19.122 11.424C18.7953 11.592 18.534 11.83 18.338 12.138C18.1513 12.4367 18.058 12.782 18.058 13.174C18.058 13.5753 18.1513 13.93 18.338 14.238C18.534 14.5367 18.7953 14.77 19.122 14.938C19.4487 15.106 19.8173 15.19 20.228 15.19C20.648 15.19 21.0213 15.106 21.348 14.938C21.6747 14.77 21.9313 14.5367 22.118 14.238C22.314 13.93 22.412 13.5753 22.412 13.174C22.412 12.782 22.314 12.4367 22.118 12.138C21.9313 11.83 21.6747 11.592 21.348 11.424C21.0213 11.256 20.648 11.172 20.228 11.172ZM25.366 9.422H26.528V16.87H25.366V9.422ZM26.206 12.684H28.39V13.65H26.206V12.684ZM18.296 17.528H26.528V22.106H25.366V18.48H18.296V17.528ZM38.8049 9.422H39.9669V22.092H38.8049V9.422ZM35.0949 10.794H36.2429C36.2429 11.7087 36.1309 12.5907 35.9069 13.44C35.6922 14.2893 35.3516 15.0967 34.8849 15.862C34.4182 16.618 33.8116 17.3227 33.0649 17.976C32.3182 18.6293 31.4129 19.2127 30.3489 19.726L29.7329 18.788C30.9556 18.2 31.9636 17.514 32.7569 16.73C33.5502 15.946 34.1382 15.0733 34.5209 14.112C34.9036 13.1413 35.0949 12.096 35.0949 10.976V10.794ZM30.3209 10.794H35.5849V11.732H30.3209V10.794ZM52.2473 11.41H56.0553V12.362H52.2473V11.41ZM52.2473 14.434H56.0553V15.386H52.2473V14.434ZM55.6493 9.436H56.8113V18.788H55.6493V9.436ZM48.7333 20.86H57.1613V21.812H48.7333V20.86ZM48.7333 17.822H49.8813V21.266H48.7333V17.822ZM49.8533 10.234C50.4693 10.234 51.02 10.3693 51.5053 10.64C52 10.9107 52.3873 11.284 52.6673 11.76C52.9566 12.236 53.1013 12.782 53.1013 13.398C53.1013 14.0233 52.9566 14.574 52.6673 15.05C52.3873 15.526 52 15.8993 51.5053 16.17C51.02 16.4407 50.4693 16.576 49.8533 16.576C49.228 16.576 48.668 16.4407 48.1733 16.17C47.688 15.8993 47.3006 15.526 47.0113 15.05C46.7313 14.574 46.5913 14.0233 46.5913 13.398C46.5913 12.782 46.7313 12.236 47.0113 11.76C47.3006 11.284 47.688 10.9107 48.1733 10.64C48.668 10.3693 49.228 10.234 49.8533 10.234ZM49.8533 11.27C49.4426 11.27 49.074 11.3633 48.7473 11.55C48.4206 11.7273 48.164 11.9793 47.9773 12.306C47.7906 12.6233 47.6973 12.992 47.6973 13.412C47.6973 13.8227 47.7906 14.1913 47.9773 14.518C48.164 14.8447 48.4206 15.1013 48.7473 15.288C49.074 15.4653 49.4426 15.554 49.8533 15.554C50.2546 15.554 50.6186 15.4653 50.9453 15.288C51.272 15.1013 51.5286 14.8447 51.7153 14.518C51.902 14.1913 51.9953 13.8227 51.9953 13.412C51.9953 12.992 51.902 12.6233 51.7153 12.306C51.5286 11.9793 51.272 11.7273 50.9453 11.55C50.6186 11.3633 50.2546 11.27 49.8533 11.27ZM64.3422 10.682H65.3502V11.214C65.3502 11.662 65.2616 12.0867 65.0842 12.488C64.9069 12.8893 64.6596 13.2627 64.3422 13.608C64.0249 13.944 63.6562 14.2427 63.2362 14.504C62.8162 14.7653 62.3636 14.9893 61.8782 15.176C61.4022 15.3533 60.9076 15.484 60.3942 15.568L59.9462 14.644C60.3942 14.588 60.8282 14.4853 61.2482 14.336C61.6776 14.1773 62.0789 13.9907 62.4522 13.776C62.8256 13.5613 63.1522 13.3187 63.4322 13.048C63.7216 12.7773 63.9456 12.488 64.1042 12.18C64.2629 11.8627 64.3422 11.5407 64.3422 11.214V10.682ZM64.6362 10.682H65.6442V11.214C65.6442 11.5407 65.7236 11.8627 65.8822 12.18C66.0409 12.488 66.2602 12.7773 66.5402 13.048C66.8296 13.3187 67.1609 13.5613 67.5342 13.776C67.9076 13.9907 68.3042 14.1773 68.7242 14.336C69.1536 14.4853 69.5922 14.588 70.0402 14.644L69.6062 15.568C69.0929 15.484 68.5936 15.3533 68.1082 15.176C67.6229 14.9893 67.1702 14.7653 66.7502 14.504C66.3302 14.2427 65.9616 13.944 65.6442 13.608C65.3269 13.2627 65.0796 12.8893 64.9022 12.488C64.7249 12.0867 64.6362 11.662 64.6362 11.214V10.682ZM64.3982 17.262H65.5462V22.078H64.3982V17.262ZM59.2742 16.632H70.7122V17.584H59.2742V16.632ZM60.3522 10.206H69.6202V11.144H60.3522V10.206Z" fill="black"/>
</g>
<defs>
<filter id="filter0_d_141_114" x="0" y="0" width="88" height="39" filterUnits="userSpaceOnUse" color-interpolation-filters="sRGB">
<feFlood flood-opacity="0" result="BackgroundImageFix"/>
<feColorMatrix in="SourceAlpha" type="matrix" values="0 0 0 0 0 0 0 0 0 0 0 0 0 0 0 0 0 0 127 0" result="hardAlpha"/>
<feOffset dy="4"/>
<feGaussianBlur stdDeviation="2"/>
<feComposite in2="hardAlpha" operator="out"/>
<feColorMatrix type="matrix" values="0 0 0 0 0 0 0 0 0 0 0 0 0 0 0 0 0 0 0.25 0"/>
<feBlend mode="normal" in2="BackgroundImageFix" result="effect1_dropShadow_141_114"/>
<feBlend mode="normal" in="SourceGraphic" in2="effect1_dropShadow_141_114" result="shape"/>
</filter>
</defs>
</svg>
