<svg width="118" height="39" viewBox="0 0 118 39" fill="none" xmlns="http://www.w3.org/2000/svg">
<g filter="url(#filter0_d_141_90)">
<rect x="4" width="110" height="31" rx="15.5" fill="white"/>
<path d="M19.514 15.946H20.662V19.726H19.514V15.946ZM24.19 15.946H25.352V19.726H24.19V15.946ZM16.7 19.502H28.18V20.468H16.7V19.502ZM22.412 10.22C23.308 10.22 24.1013 10.3553 24.792 10.626C25.4827 10.8967 26.024 11.2747 26.416 11.76C26.8173 12.2453 27.018 12.8193 27.018 13.482C27.018 14.1353 26.8173 14.7093 26.416 15.204C26.024 15.6893 25.4827 16.0673 24.792 16.338C24.1013 16.5993 23.308 16.73 22.412 16.73C21.5253 16.73 20.732 16.5993 20.032 16.338C19.3413 16.0673 18.8 15.6893 18.408 15.204C18.016 14.7093 17.82 14.1353 17.82 13.482C17.82 12.8193 18.016 12.2453 18.408 11.76C18.8 11.2747 19.3413 10.8967 20.032 10.626C20.732 10.3553 21.5253 10.22 22.412 10.22ZM22.412 11.144C21.74 11.144 21.1427 11.242 20.62 11.438C20.0973 11.634 19.6867 11.9093 19.388 12.264C19.0893 12.6093 18.94 13.0153 18.94 13.482C18.94 13.9487 19.0893 14.3593 19.388 14.714C19.6867 15.0593 20.0973 15.33 20.62 15.526C21.1427 15.722 21.74 15.82 22.412 15.82C23.0933 15.82 23.6953 15.722 24.218 15.526C24.7407 15.33 25.1513 15.0593 25.45 14.714C25.7487 14.3593 25.898 13.9487 25.898 13.482C25.898 13.0153 25.7487 12.6093 25.45 12.264C25.1513 11.9093 24.7407 11.634 24.218 11.438C23.6953 11.242 23.0933 11.144 22.412 11.144ZM38.1469 9.422H39.3089V22.078H38.1469V9.422ZM39.0009 14.56H41.3249V15.526H39.0009V14.56ZM34.9129 10.78H36.0469C36.0469 11.984 35.8509 13.1367 35.4589 14.238C35.0669 15.33 34.4509 16.3427 33.6109 17.276C32.7709 18.2 31.6649 19.0027 30.2929 19.684L29.6489 18.788C30.8249 18.2 31.8002 17.514 32.5749 16.73C33.3589 15.9367 33.9422 15.0593 34.3249 14.098C34.7169 13.1273 34.9129 12.082 34.9129 10.962V10.78ZM30.2369 10.78H35.5009V11.746H30.2369V10.78ZM46.0334 10.3409L42.7521 22.5312H42.1705L45.4517 10.3409H46.0334ZM56.3596 9.422H57.5216V15.988H56.3596V9.422ZM49.2756 16.604H57.5216V19.642H50.4516V21.546H49.3036V18.788H56.3736V17.528H49.2756V16.604ZM49.3036 21.014H57.9836V21.952H49.3036V21.014ZM47.6936 10.29H54.4976V11.2H47.6936V10.29ZM47.4836 15.554L47.3436 14.602C48.0996 14.5927 48.9209 14.5787 49.8076 14.56C50.6943 14.5413 51.5903 14.5087 52.4956 14.462C53.4103 14.406 54.2783 14.3313 55.0996 14.238L55.1556 15.078C54.3249 15.2087 53.4569 15.3067 52.5516 15.372C51.6463 15.4373 50.7596 15.484 49.8916 15.512C49.0329 15.54 48.2303 15.554 47.4836 15.554ZM48.9396 10.71H50.0596V15.008H48.9396V10.71ZM52.1176 10.71H53.2516V15.008H52.1176V10.71ZM68.5945 9.422H69.7425V22.106H68.5945V9.422ZM69.4765 14.448H71.8145V15.428H69.4765V14.448ZM60.5305 18.074H61.5385C62.3225 18.074 63.0412 18.0647 63.6945 18.046C64.3572 18.018 64.9965 17.976 65.6125 17.92C66.2285 17.8547 66.8538 17.7613 67.4885 17.64L67.6005 18.592C66.9472 18.7133 66.3078 18.8067 65.6825 18.872C65.0665 18.9373 64.4225 18.984 63.7505 19.012C63.0785 19.04 62.3412 19.054 61.5385 19.054H60.5305V18.074ZM60.5025 10.598H66.2145V15.148H61.6785V18.466H60.5305V14.182H65.0665V11.55H60.5025V10.598ZM78.1554 14.224H80.5354V15.176H78.1554V14.224ZM73.3674 18.102H74.1654C74.8187 18.102 75.3974 18.0927 75.9014 18.074C76.4054 18.0553 76.8767 18.0227 77.3154 17.976C77.7634 17.9293 78.2161 17.8593 78.6734 17.766L78.7854 18.718C78.3094 18.8113 77.8427 18.8813 77.3854 18.928C76.9281 18.9747 76.4427 19.0073 75.9294 19.026C75.4161 19.0447 74.8281 19.054 74.1654 19.054H73.3674V18.102ZM73.3674 10.948H78.0574V11.886H74.4734V18.424H73.3674V10.948ZM74.1374 14.378H77.4694V15.288H74.1374V14.378ZM82.5234 9.422H83.6434V22.092H82.5234V9.422ZM79.9754 9.716H81.0674V21.434H79.9754V9.716ZM90.8383 10.29H91.8603V11.27C91.8603 11.8207 91.7623 12.3433 91.5663 12.838C91.3796 13.3327 91.1183 13.7947 90.7823 14.224C90.4556 14.644 90.073 15.022 89.6343 15.358C89.205 15.694 88.743 15.9787 88.2483 16.212C87.763 16.4453 87.2683 16.6227 86.7643 16.744L86.2463 15.778C86.685 15.6847 87.1236 15.54 87.5623 15.344C88.0103 15.148 88.4303 14.91 88.8223 14.63C89.2143 14.3407 89.5596 14.0187 89.8583 13.664C90.1663 13.3093 90.4043 12.9313 90.5723 12.53C90.7496 12.1193 90.8383 11.6993 90.8383 11.27V10.29ZM91.0623 10.29H92.0563V11.27C92.0563 11.6993 92.145 12.1193 92.3223 12.53C92.4996 12.9313 92.7376 13.3093 93.0363 13.664C93.3443 14.0187 93.6943 14.3407 94.0863 14.63C94.4783 14.91 94.8936 15.1527 95.3323 15.358C95.7803 15.554 96.2283 15.694 96.6763 15.778L96.1443 16.744C95.6403 16.6227 95.1456 16.4453 94.6603 16.212C94.175 15.9787 93.713 15.694 93.2743 15.358C92.845 15.022 92.4623 14.644 92.1263 14.224C91.7903 13.7947 91.529 13.3327 91.3423 12.838C91.1556 12.3433 91.0623 11.8207 91.0623 11.27V10.29ZM85.7703 19.418H97.2503V20.384H85.7703V19.418Z" fill="black"/>
</g>
<defs>
<filter id="filter0_d_141_90" x="0" y="0" width="118" height="39" filterUnits="userSpaceOnUse" color-interpolation-filters="sRGB">
<feFlood flood-opacity="0" result="BackgroundImageFix"/>
<feColorMatrix in="SourceAlpha" type="matrix" values="0 0 0 0 0 0 0 0 0 0 0 0 0 0 0 0 0 0 127 0" result="hardAlpha"/>
<feOffset dy="4"/>
<feGaussianBlur stdDeviation="2"/>
<feComposite in2="hardAlpha" operator="out"/>
<feColorMatrix type="matrix" values="0 0 0 0 0 0 0 0 0 0 0 0 0 0 0 0 0 0 0.25 0"/>
<feBlend mode="normal" in2="BackgroundImageFix" result="effect1_dropShadow_141_90"/>
<feBlend mode="normal" in="SourceGraphic" in2="effect1_dropShadow_141_90" result="shape"/>
</filter>
</defs>
</svg>
