<svg width="102" height="39" viewBox="0 0 102 39" fill="none" xmlns="http://www.w3.org/2000/svg">
<g filter="url(#filter0_d_141_94)">
<rect x="4" width="94" height="31" rx="15.5" fill="white"/>
<path d="M26.262 9.436H27.368V16.52H26.262V9.436ZM22.594 12.754H24.596V13.692H22.594V12.754ZM23.98 9.646H25.072V16.408H23.98V9.646ZM19.01 17.066H27.368V19.88H20.186V21.322H19.038V19.04H26.234V17.934H19.01V17.066ZM19.038 21.056H27.83V21.952H19.038V21.056ZM16.63 10.654H22.902V11.564H16.63V10.654ZM19.766 12.068C20.2887 12.068 20.7413 12.1567 21.124 12.334C21.516 12.502 21.824 12.7447 22.048 13.062C22.272 13.37 22.384 13.7387 22.384 14.168C22.384 14.588 22.272 14.9567 22.048 15.274C21.824 15.582 21.516 15.8247 21.124 16.002C20.7413 16.17 20.2887 16.254 19.766 16.254C19.2527 16.254 18.8 16.17 18.408 16.002C18.016 15.8247 17.708 15.582 17.484 15.274C17.26 14.9567 17.148 14.588 17.148 14.168C17.148 13.7387 17.26 13.37 17.484 13.062C17.708 12.7447 18.016 12.502 18.408 12.334C18.8 12.1567 19.2527 12.068 19.766 12.068ZM19.766 12.908C19.2993 12.908 18.9167 13.0247 18.618 13.258C18.3193 13.482 18.17 13.7853 18.17 14.168C18.17 14.5413 18.3193 14.8447 18.618 15.078C18.9167 15.3113 19.2993 15.428 19.766 15.428C20.242 15.428 20.6247 15.3113 20.914 15.078C21.2127 14.8447 21.362 14.5413 21.362 14.168C21.362 13.7853 21.2127 13.482 20.914 13.258C20.6247 13.0247 20.242 12.908 19.766 12.908ZM19.192 9.394H20.34V11.326H19.192V9.394ZM34.6469 10.29H35.6689V11.27C35.6689 11.8207 35.5709 12.3433 35.3749 12.838C35.1882 13.3327 34.9269 13.7947 34.5909 14.224C34.2642 14.644 33.8816 15.022 33.4429 15.358C33.0136 15.694 32.5516 15.9787 32.0569 16.212C31.5716 16.4453 31.0769 16.6227 30.5729 16.744L30.0549 15.778C30.4936 15.6847 30.9322 15.54 31.3709 15.344C31.8189 15.148 32.2389 14.91 32.6309 14.63C33.0229 14.3407 33.3682 14.0187 33.6669 13.664C33.9749 13.3093 34.2129 12.9313 34.3809 12.53C34.5582 12.1193 34.6469 11.6993 34.6469 11.27V10.29ZM34.8709 10.29H35.8649V11.27C35.8649 11.6993 35.9536 12.1193 36.1309 12.53C36.3082 12.9313 36.5462 13.3093 36.8449 13.664C37.1529 14.0187 37.5029 14.3407 37.8949 14.63C38.2869 14.91 38.7022 15.1527 39.1409 15.358C39.5889 15.554 40.0369 15.694 40.4849 15.778L39.9529 16.744C39.4489 16.6227 38.9542 16.4453 38.4689 16.212C37.9836 15.9787 37.5216 15.694 37.0829 15.358C36.6536 15.022 36.2709 14.644 35.9349 14.224C35.5989 13.7947 35.3376 13.3327 35.1509 12.838C34.9642 12.3433 34.8709 11.8207 34.8709 11.27V10.29ZM29.5789 19.418H41.0589V20.384H29.5789V19.418ZM45.5798 10.78H46.5318V11.802C46.5318 12.586 46.3825 13.3093 46.0838 13.972C45.7945 14.6347 45.3838 15.2133 44.8518 15.708C44.3291 16.2027 43.7085 16.5807 42.9898 16.842L42.4018 15.918C43.0365 15.694 43.5918 15.3767 44.0678 14.966C44.5438 14.546 44.9125 14.0653 45.1738 13.524C45.4445 12.9827 45.5798 12.4087 45.5798 11.802V10.78ZM45.7898 10.78H46.7418V11.802C46.7418 12.3527 46.8678 12.8753 47.1198 13.37C47.3718 13.8647 47.7265 14.2987 48.1838 14.672C48.6411 15.0453 49.1778 15.3393 49.7938 15.554L49.2478 16.464C48.5385 16.2213 47.9271 15.8713 47.4138 15.414C46.9005 14.9567 46.4991 14.42 46.2098 13.804C45.9298 13.1787 45.7898 12.5113 45.7898 11.802V10.78ZM42.7518 10.36H49.5278V11.312H42.7518V10.36ZM51.1238 9.422H52.2858V17.052H51.1238V9.422ZM51.9638 12.642H54.1478V13.608H51.9638V12.642ZM48.2538 17.402C49.1125 17.402 49.8498 17.4953 50.4658 17.682C51.0911 17.8593 51.5718 18.1207 51.9078 18.466C52.2438 18.8113 52.4118 19.2313 52.4118 19.726C52.4118 20.2207 52.2438 20.6407 51.9078 20.986C51.5718 21.3313 51.0911 21.5973 50.4658 21.784C49.8498 21.9707 49.1125 22.064 48.2538 22.064C47.3951 22.064 46.6531 21.9707 46.0278 21.784C45.4025 21.5973 44.9218 21.3313 44.5858 20.986C44.2498 20.6407 44.0818 20.2207 44.0818 19.726C44.0818 19.2313 44.2498 18.8113 44.5858 18.466C44.9218 18.1207 45.4025 17.8593 46.0278 17.682C46.6531 17.4953 47.3951 17.402 48.2538 17.402ZM48.2538 18.326C47.6285 18.326 47.0871 18.382 46.6298 18.494C46.1818 18.606 45.8365 18.7647 45.5938 18.97C45.3511 19.1753 45.2298 19.4273 45.2298 19.726C45.2298 20.0247 45.3511 20.2813 45.5938 20.496C45.8365 20.7013 46.1818 20.86 46.6298 20.972C47.0871 21.084 47.6285 21.14 48.2538 21.14C48.8791 21.14 49.4158 21.084 49.8638 20.972C50.3118 20.86 50.6571 20.7013 50.8998 20.496C51.1425 20.2813 51.2638 20.0247 51.2638 19.726C51.2638 19.4273 51.1425 19.1753 50.8998 18.97C50.6571 18.7647 50.3118 18.606 49.8638 18.494C49.4158 18.382 48.8791 18.326 48.2538 18.326ZM59.2602 15.848H70.7402V16.8H59.2602V15.848ZM64.5102 16.45H65.6862V19.362H64.5102V16.45ZM60.7302 20.846H69.4662V21.812H60.7302V20.846ZM60.7302 18.116H61.8922V21.112H60.7302V18.116ZM64.9862 9.744C65.8822 9.744 66.6616 9.84667 67.3242 10.052C67.9869 10.2573 68.5002 10.5513 68.8642 10.934C69.2376 11.3073 69.4242 11.76 69.4242 12.292C69.4242 12.8053 69.2376 13.2533 68.8642 13.636C68.5002 14.0187 67.9869 14.3127 67.3242 14.518C66.6616 14.7233 65.8822 14.826 64.9862 14.826C64.0996 14.826 63.3202 14.7233 62.6482 14.518C61.9856 14.3127 61.4676 14.0187 61.0942 13.636C60.7302 13.2533 60.5482 12.8053 60.5482 12.292C60.5482 11.76 60.7302 11.3073 61.0942 10.934C61.4676 10.5513 61.9856 10.2573 62.6482 10.052C63.3202 9.84667 64.0996 9.744 64.9862 9.744ZM64.9862 10.682C64.3516 10.682 63.7916 10.7473 63.3062 10.878C62.8209 11.0087 62.4429 11.1953 62.1722 11.438C61.9109 11.6713 61.7802 11.956 61.7802 12.292C61.7802 12.6187 61.9109 12.9033 62.1722 13.146C62.4429 13.3793 62.8209 13.5613 63.3062 13.692C63.7916 13.8133 64.3516 13.874 64.9862 13.874C65.6396 13.874 66.2042 13.8133 66.6802 13.692C67.1562 13.5613 67.5249 13.3793 67.7862 13.146C68.0569 12.9033 68.1922 12.6187 68.1922 12.292C68.1922 11.956 68.0569 11.6713 67.7862 11.438C67.5249 11.1953 67.1562 11.0087 66.6802 10.878C66.2042 10.7473 65.6396 10.682 64.9862 10.682ZM72.1531 15.666H83.6051V16.604H72.1531V15.666ZM77.3051 13.636H78.4391V16.058H77.3051V13.636ZM73.5951 13.272H82.2611V14.21H73.5951V13.272ZM73.5951 10.01H82.1771V10.934H74.7431V13.832H73.5951V10.01ZM77.8651 17.514C79.2185 17.514 80.2778 17.7147 81.0431 18.116C81.8085 18.508 82.1911 19.068 82.1911 19.796C82.1911 20.524 81.8085 21.084 81.0431 21.476C80.2778 21.8773 79.2185 22.078 77.8651 22.078C76.5118 22.078 75.4478 21.8773 74.6731 21.476C73.9078 21.084 73.5251 20.524 73.5251 19.796C73.5251 19.068 73.9078 18.508 74.6731 18.116C75.4478 17.7147 76.5118 17.514 77.8651 17.514ZM77.8511 18.424C77.1978 18.424 76.6331 18.48 76.1571 18.592C75.6905 18.6947 75.3311 18.8487 75.0791 19.054C74.8271 19.25 74.7011 19.4973 74.7011 19.796C74.7011 20.0853 74.8271 20.3327 75.0791 20.538C75.3311 20.7433 75.6905 20.8973 76.1571 21C76.6331 21.112 77.1978 21.168 77.8511 21.168C78.5231 21.168 79.0925 21.112 79.5591 21C80.0351 20.8973 80.3991 20.7433 80.6511 20.538C80.9031 20.3327 81.0291 20.0853 81.0291 19.796C81.0291 19.4973 80.9031 19.25 80.6511 19.054C80.3991 18.8487 80.0351 18.6947 79.5591 18.592C79.0925 18.48 78.5231 18.424 77.8511 18.424Z" fill="black"/>
</g>
<defs>
<filter id="filter0_d_141_94" x="0" y="0" width="102" height="39" filterUnits="userSpaceOnUse" color-interpolation-filters="sRGB">
<feFlood flood-opacity="0" result="BackgroundImageFix"/>
<feColorMatrix in="SourceAlpha" type="matrix" values="0 0 0 0 0 0 0 0 0 0 0 0 0 0 0 0 0 0 127 0" result="hardAlpha"/>
<feOffset dy="4"/>
<feGaussianBlur stdDeviation="2"/>
<feComposite in2="hardAlpha" operator="out"/>
<feColorMatrix type="matrix" values="0 0 0 0 0 0 0 0 0 0 0 0 0 0 0 0 0 0 0.25 0"/>
<feBlend mode="normal" in2="BackgroundImageFix" result="effect1_dropShadow_141_94"/>
<feBlend mode="normal" in="SourceGraphic" in2="effect1_dropShadow_141_94" result="shape"/>
</filter>
</defs>
</svg>
