<svg width="88" height="39" viewBox="0 0 88 39" fill="none" xmlns="http://www.w3.org/2000/svg">
<g filter="url(#filter0_d_141_102)">
<rect x="4" width="80" height="31" rx="15.5" fill="white"/>
<path d="M22.468 11.256H26.318V12.194H22.468V11.256ZM22.468 14.168H26.318V15.12H22.468V14.168ZM20.158 10.178C20.774 10.178 21.3247 10.3087 21.81 10.57C22.3047 10.822 22.692 11.1767 22.972 11.634C23.2613 12.082 23.406 12.6 23.406 13.188C23.406 13.776 23.2613 14.2987 22.972 14.756C22.692 15.204 22.3047 15.5587 21.81 15.82C21.3247 16.072 20.774 16.198 20.158 16.198C19.5327 16.198 18.9727 16.072 18.478 15.82C17.9927 15.5587 17.6053 15.204 17.316 14.756C17.036 14.2987 16.896 13.776 16.896 13.188C16.896 12.6 17.036 12.082 17.316 11.634C17.6053 11.1767 17.9927 10.822 18.478 10.57C18.9727 10.3087 19.5327 10.178 20.158 10.178ZM20.158 11.172C19.7473 11.172 19.3787 11.256 19.052 11.424C18.7253 11.592 18.4687 11.83 18.282 12.138C18.0953 12.4367 18.002 12.7867 18.002 13.188C18.002 13.58 18.0953 13.93 18.282 14.238C18.4687 14.5367 18.7253 14.7747 19.052 14.952C19.3787 15.12 19.7473 15.204 20.158 15.204C20.5687 15.204 20.9327 15.12 21.25 14.952C21.5767 14.7747 21.8333 14.5367 22.02 14.238C22.2067 13.93 22.3 13.58 22.3 13.188C22.3 12.7867 22.2067 12.4367 22.02 12.138C21.8333 11.83 21.5767 11.592 21.25 11.424C20.9327 11.256 20.5687 11.172 20.158 11.172ZM25.954 9.422H27.116V16.912H25.954V9.422ZM22.944 17.22C23.8213 17.22 24.5727 17.318 25.198 17.514C25.8233 17.7007 26.304 17.976 26.64 18.34C26.9853 18.6947 27.158 19.1287 27.158 19.642C27.158 20.146 26.9853 20.58 26.64 20.944C26.304 21.308 25.8233 21.5833 25.198 21.77C24.5727 21.966 23.8213 22.064 22.944 22.064C22.076 22.064 21.3247 21.966 20.69 21.77C20.0647 21.5833 19.5793 21.308 19.234 20.944C18.898 20.58 18.73 20.146 18.73 19.642C18.73 19.1287 18.898 18.6947 19.234 18.34C19.5793 17.976 20.0647 17.7007 20.69 17.514C21.3247 17.318 22.076 17.22 22.944 17.22ZM22.944 18.13C22.3093 18.13 21.7587 18.1907 21.292 18.312C20.8347 18.4333 20.48 18.606 20.228 18.83C19.9853 19.054 19.864 19.3247 19.864 19.642C19.864 19.95 19.9853 20.216 20.228 20.44C20.48 20.664 20.8347 20.8367 21.292 20.958C21.7587 21.0793 22.3093 21.14 22.944 21.14C23.588 21.14 24.1387 21.0793 24.596 20.958C25.0533 20.8367 25.4033 20.664 25.646 20.44C25.898 20.216 26.024 19.95 26.024 19.642C26.024 19.3247 25.898 19.054 25.646 18.83C25.4033 18.606 25.0533 18.4333 24.596 18.312C24.1387 18.1907 23.588 18.13 22.944 18.13ZM32.8549 16.968H34.0169V19.026H32.8549V16.968ZM38.1749 9.422H39.3369V22.092H38.1749V9.422ZM38.9729 14.798H41.3109V15.778H38.9729V14.798ZM29.6069 19.684L29.4249 18.704C30.1902 18.704 31.0209 18.6993 31.9169 18.69C32.8222 18.6713 33.7462 18.634 34.6889 18.578C35.6316 18.522 36.5416 18.4333 37.4189 18.312L37.5029 19.166C36.5976 19.3247 35.6736 19.4413 34.7309 19.516C33.7976 19.5907 32.8922 19.6373 32.0149 19.656C31.1469 19.6747 30.3442 19.684 29.6069 19.684ZM29.6489 10.962H37.2089V11.9H29.6489V10.962ZM33.4429 12.628C34.0309 12.628 34.5489 12.726 34.9969 12.922C35.4449 13.118 35.7949 13.3933 36.0469 13.748C36.2989 14.0933 36.4249 14.504 36.4249 14.98C36.4249 15.4467 36.2989 15.8573 36.0469 16.212C35.7949 16.5667 35.4449 16.842 34.9969 17.038C34.5489 17.2247 34.0309 17.318 33.4429 17.318C32.8549 17.318 32.3322 17.2247 31.8749 17.038C31.4269 16.842 31.0769 16.5667 30.8249 16.212C30.5822 15.8573 30.4609 15.4467 30.4609 14.98C30.4609 14.504 30.5822 14.0933 30.8249 13.748C31.0769 13.3933 31.4269 13.118 31.8749 12.922C32.3322 12.726 32.8549 12.628 33.4429 12.628ZM33.4429 13.538C32.8736 13.538 32.4162 13.6687 32.0709 13.93C31.7256 14.1913 31.5529 14.5413 31.5529 14.98C31.5529 15.4093 31.7256 15.7547 32.0709 16.016C32.4162 16.2773 32.8736 16.408 33.4429 16.408C34.0029 16.408 34.4556 16.2773 34.8009 16.016C35.1462 15.7547 35.3189 15.4093 35.3189 14.98C35.3189 14.5413 35.1462 14.1913 34.8009 13.93C34.4556 13.6687 34.0029 13.538 33.4429 13.538ZM32.8549 9.45H34.0169V11.578H32.8549V9.45ZM46.3953 19.516H57.8753V20.482H46.3953V19.516ZM51.5333 16.478H52.6813V19.796H51.5333V16.478ZM47.7393 10.318H48.9013V12.572H55.3413V10.318H56.4893V16.8H47.7393V10.318ZM48.9013 13.524V15.848H55.3413V13.524H48.9013ZM68.5002 9.422H69.6622V22.092H68.5002V9.422ZM64.7902 10.794H65.9382C65.9382 11.7087 65.8262 12.5907 65.6022 13.44C65.3876 14.2893 65.0469 15.0967 64.5802 15.862C64.1136 16.618 63.5069 17.3227 62.7602 17.976C62.0136 18.6293 61.1082 19.2127 60.0442 19.726L59.4282 18.788C60.6509 18.2 61.6589 17.514 62.4522 16.73C63.2456 15.946 63.8336 15.0733 64.2162 14.112C64.5989 13.1413 64.7902 12.096 64.7902 10.976V10.794ZM60.0162 10.794H65.2802V11.732H60.0162V10.794Z" fill="black"/>
</g>
<defs>
<filter id="filter0_d_141_102" x="0" y="0" width="88" height="39" filterUnits="userSpaceOnUse" color-interpolation-filters="sRGB">
<feFlood flood-opacity="0" result="BackgroundImageFix"/>
<feColorMatrix in="SourceAlpha" type="matrix" values="0 0 0 0 0 0 0 0 0 0 0 0 0 0 0 0 0 0 127 0" result="hardAlpha"/>
<feOffset dy="4"/>
<feGaussianBlur stdDeviation="2"/>
<feComposite in2="hardAlpha" operator="out"/>
<feColorMatrix type="matrix" values="0 0 0 0 0 0 0 0 0 0 0 0 0 0 0 0 0 0 0.25 0"/>
<feBlend mode="normal" in2="BackgroundImageFix" result="effect1_dropShadow_141_102"/>
<feBlend mode="normal" in="SourceGraphic" in2="effect1_dropShadow_141_102" result="shape"/>
</filter>
</defs>
</svg>
