<svg width="61" height="39" viewBox="0 0 61 39" fill="none" xmlns="http://www.w3.org/2000/svg">
<g filter="url(#filter0_d_108_1107)">
<rect x="4" width="53" height="31" rx="15.5" fill="white"/>
<path d="M25.954 9.422H27.102V22.106H25.954V9.422ZM23.546 14.28H26.234V15.246H23.546V14.28ZM17.176 18.088H18.142C18.8887 18.088 19.5747 18.0787 20.2 18.06C20.8253 18.0413 21.432 18.004 22.02 17.948C22.608 17.892 23.21 17.8033 23.826 17.682L23.924 18.648C23.2893 18.76 22.6733 18.8487 22.076 18.914C21.488 18.97 20.872 19.012 20.228 19.04C19.5933 19.0587 18.898 19.068 18.142 19.068H17.176V18.088ZM17.134 10.598H22.79V15.036H18.324V18.396H17.176V14.084H21.656V11.55H17.134V10.598ZM38.7769 9.422H39.9249V16.996H38.7769V9.422ZM30.3629 10.262H31.5249V15.484H30.3629V10.262ZM30.3629 14.924H31.3849C32.1316 14.924 32.8362 14.91 33.4989 14.882C34.1709 14.8447 34.8289 14.784 35.4729 14.7C36.1169 14.616 36.7702 14.504 37.4329 14.364L37.5869 15.33C36.8962 15.4793 36.2242 15.596 35.5709 15.68C34.9176 15.7547 34.2456 15.8107 33.5549 15.848C32.8736 15.8853 32.1502 15.904 31.3849 15.904H30.3629V14.924ZM35.7389 17.094C36.6069 17.094 37.3582 17.192 37.9929 17.388C38.6276 17.584 39.1176 17.8687 39.4629 18.242C39.8082 18.606 39.9809 19.054 39.9809 19.586C39.9809 20.0993 39.8082 20.5427 39.4629 20.916C39.1176 21.2893 38.6276 21.574 37.9929 21.77C37.3582 21.966 36.6069 22.064 35.7389 22.064C34.8616 22.064 34.1056 21.966 33.4709 21.77C32.8362 21.574 32.3462 21.2893 32.0009 20.916C31.6556 20.5427 31.4829 20.0993 31.4829 19.586C31.4829 19.054 31.6556 18.606 32.0009 18.242C32.3462 17.8687 32.8362 17.584 33.4709 17.388C34.1056 17.192 34.8616 17.094 35.7389 17.094ZM35.7389 18.046C35.0949 18.046 34.5396 18.1067 34.0729 18.228C33.6156 18.3493 33.2609 18.522 33.0089 18.746C32.7662 18.97 32.6449 19.25 32.6449 19.586C32.6449 19.9127 32.7662 20.188 33.0089 20.412C33.2609 20.636 33.6156 20.8133 34.0729 20.944C34.5396 21.0653 35.0949 21.126 35.7389 21.126C36.3736 21.126 36.9196 21.0653 37.3769 20.944C37.8436 20.8133 38.1982 20.636 38.4409 20.412C38.6929 20.188 38.8189 19.9127 38.8189 19.586C38.8189 19.25 38.6929 18.97 38.4409 18.746C38.1982 18.522 37.8436 18.3493 37.3769 18.228C36.9196 18.1067 36.3736 18.046 35.7389 18.046Z" fill="black"/>
</g>
<defs>
<filter id="filter0_d_108_1107" x="0" y="0" width="61" height="39" filterUnits="userSpaceOnUse" color-interpolation-filters="sRGB">
<feFlood flood-opacity="0" result="BackgroundImageFix"/>
<feColorMatrix in="SourceAlpha" type="matrix" values="0 0 0 0 0 0 0 0 0 0 0 0 0 0 0 0 0 0 127 0" result="hardAlpha"/>
<feOffset dy="4"/>
<feGaussianBlur stdDeviation="2"/>
<feComposite in2="hardAlpha" operator="out"/>
<feColorMatrix type="matrix" values="0 0 0 0 0 0 0 0 0 0 0 0 0 0 0 0 0 0 0.25 0"/>
<feBlend mode="normal" in2="BackgroundImageFix" result="effect1_dropShadow_108_1107"/>
<feBlend mode="normal" in="SourceGraphic" in2="effect1_dropShadow_108_1107" result="shape"/>
</filter>
</defs>
</svg>
