<svg width="88" height="39" viewBox="0 0 88 39" fill="none" xmlns="http://www.w3.org/2000/svg">
<g filter="url(#filter0_d_141_106)">
<rect x="4" width="80" height="31" rx="15.5" fill="white"/>
<path d="M19.794 10.514H20.746V12.782C20.746 13.482 20.6573 14.168 20.48 14.84C20.312 15.512 20.0693 16.142 19.752 16.73C19.4347 17.318 19.0613 17.8407 18.632 18.298C18.2027 18.7553 17.736 19.1193 17.232 19.39L16.518 18.452C16.9847 18.2187 17.414 17.906 17.806 17.514C18.2073 17.1127 18.5573 16.6553 18.856 16.142C19.1547 15.6287 19.3833 15.0873 19.542 14.518C19.71 13.9393 19.794 13.3607 19.794 12.782V10.514ZM20.004 10.514H20.942V12.782C20.942 13.342 21.0213 13.8973 21.18 14.448C21.348 14.9987 21.5813 15.5167 21.88 16.002C22.1787 16.4873 22.5193 16.9213 22.902 17.304C23.294 17.6867 23.714 17.99 24.162 18.214L23.448 19.138C22.9533 18.886 22.496 18.5407 22.076 18.102C21.6653 17.6633 21.3013 17.164 20.984 16.604C20.676 16.0347 20.4333 15.428 20.256 14.784C20.088 14.1307 20.004 13.4633 20.004 12.782V10.514ZM25.268 9.422H26.43V22.092H25.268V9.422ZM26.164 14.546H28.502V15.54H26.164V14.546ZM32.9529 10.808H33.9189V12.11C33.9189 12.8847 33.7696 13.6033 33.4709 14.266C33.1722 14.9287 32.7522 15.512 32.2109 16.016C31.6789 16.5107 31.0582 16.884 30.3489 17.136L29.7469 16.226C30.3816 15.9927 30.9369 15.6707 31.4129 15.26C31.8982 14.8493 32.2762 14.3733 32.5469 13.832C32.8176 13.2813 32.9529 12.7073 32.9529 12.11V10.808ZM33.1769 10.808H34.1289V12.11C34.1289 12.5393 34.2036 12.9547 34.3529 13.356C34.5116 13.748 34.7356 14.1167 35.0249 14.462C35.3142 14.798 35.6502 15.0967 36.0329 15.358C36.4249 15.6193 36.8542 15.8247 37.3209 15.974L36.7329 16.884C36.0329 16.6413 35.4169 16.2867 34.8849 15.82C34.3529 15.3533 33.9329 14.8027 33.6249 14.168C33.3262 13.5333 33.1769 12.8473 33.1769 12.11V10.808ZM30.0549 10.472H36.9849V11.424H30.0549V10.472ZM38.7909 9.436H39.9529V18.704H38.7909V9.436ZM31.8189 20.86H40.3449V21.812H31.8189V20.86ZM31.8189 17.836H32.9809V21.28H31.8189V17.836ZM48.2713 17.654H56.9093V22.092H55.7473V18.592H48.2713V17.654ZM55.7473 9.422H56.9093V16.996H55.7473V9.422ZM48.3273 10.85H49.1813V11.97C49.1813 12.362 49.1393 12.7773 49.0553 13.216C48.9713 13.6453 48.8406 14.0653 48.6633 14.476C48.486 14.8867 48.2526 15.2647 47.9633 15.61C47.6833 15.946 47.338 16.226 46.9273 16.45L46.3113 15.61C46.6753 15.414 46.9833 15.176 47.2353 14.896C47.4873 14.6067 47.6926 14.294 47.8513 13.958C48.01 13.622 48.1266 13.286 48.2013 12.95C48.2853 12.6047 48.3273 12.278 48.3273 11.97V10.85ZM48.5933 10.85H49.4193V11.97C49.4193 12.2407 49.4473 12.544 49.5033 12.88C49.5593 13.216 49.6526 13.5613 49.7833 13.916C49.914 14.2613 50.096 14.5927 50.3293 14.91C50.5626 15.218 50.8566 15.484 51.2113 15.708L50.6793 16.576C50.2593 16.324 49.914 16.0113 49.6433 15.638C49.3726 15.2647 49.1626 14.8633 49.0133 14.434C48.864 14.0047 48.7566 13.5753 48.6913 13.146C48.626 12.7167 48.5933 12.3247 48.5933 11.97V10.85ZM51.9253 10.85H52.7653V11.97C52.7653 12.3433 52.7326 12.7493 52.6673 13.188C52.602 13.6173 52.4946 14.0467 52.3453 14.476C52.196 14.9053 51.9813 15.302 51.7013 15.666C51.4306 16.03 51.09 16.3333 50.6793 16.576L50.1473 15.708C50.502 15.484 50.7913 15.2227 51.0153 14.924C51.2486 14.616 51.4306 14.2893 51.5613 13.944C51.692 13.5987 51.7853 13.2533 51.8413 12.908C51.8973 12.5627 51.9253 12.25 51.9253 11.97V10.85ZM52.1913 10.85H53.0453V11.97C53.0453 12.39 53.1106 12.8333 53.2413 13.3C53.3813 13.7573 53.596 14.196 53.8853 14.616C54.184 15.0267 54.5713 15.358 55.0473 15.61L54.4453 16.45C53.8946 16.1607 53.4513 15.7687 53.1153 15.274C52.7886 14.77 52.5506 14.2287 52.4013 13.65C52.2613 13.0713 52.1913 12.5113 52.1913 11.97V10.85ZM46.7453 10.374H50.3713V11.326H46.7453V10.374ZM50.9873 10.374H54.5573V11.326H50.9873V10.374ZM68.5002 9.422H69.6622V22.092H68.5002V9.422ZM64.7902 10.794H65.9382C65.9382 11.7087 65.8262 12.5907 65.6022 13.44C65.3876 14.2893 65.0469 15.0967 64.5802 15.862C64.1136 16.618 63.5069 17.3227 62.7602 17.976C62.0136 18.6293 61.1082 19.2127 60.0442 19.726L59.4282 18.788C60.6509 18.2 61.6589 17.514 62.4522 16.73C63.2456 15.946 63.8336 15.0733 64.2162 14.112C64.5989 13.1413 64.7902 12.096 64.7902 10.976V10.794ZM60.0162 10.794H65.2802V11.732H60.0162V10.794Z" fill="black"/>
</g>
<defs>
<filter id="filter0_d_141_106" x="0" y="0" width="88" height="39" filterUnits="userSpaceOnUse" color-interpolation-filters="sRGB">
<feFlood flood-opacity="0" result="BackgroundImageFix"/>
<feColorMatrix in="SourceAlpha" type="matrix" values="0 0 0 0 0 0 0 0 0 0 0 0 0 0 0 0 0 0 127 0" result="hardAlpha"/>
<feOffset dy="4"/>
<feGaussianBlur stdDeviation="2"/>
<feComposite in2="hardAlpha" operator="out"/>
<feColorMatrix type="matrix" values="0 0 0 0 0 0 0 0 0 0 0 0 0 0 0 0 0 0 0.25 0"/>
<feBlend mode="normal" in2="BackgroundImageFix" result="effect1_dropShadow_141_106"/>
<feBlend mode="normal" in="SourceGraphic" in2="effect1_dropShadow_141_106" result="shape"/>
</filter>
</defs>
</svg>
