<svg width="158" height="58" viewBox="0 0 158 58" fill="none" xmlns="http://www.w3.org/2000/svg">
<g filter="url(#filter0_d_108_1282)">
<rect x="4" width="150" height="50" rx="25" fill="white"/>
<path d="M73.2195 13.3274H76.4115V35.6234H73.2195V13.3274ZM69.3315 21.1034H73.9635V23.6714H69.3315V21.1034ZM62.8755 16.8554H65.4195V18.8474C65.4195 20.1914 65.2915 21.5114 65.0355 22.8074C64.7795 24.1034 64.3955 25.3114 63.8835 26.4314C63.3875 27.5514 62.7555 28.5434 61.9875 29.4074C61.2195 30.2714 60.3235 30.9674 59.2995 31.4954L57.4275 28.9754C58.3555 28.5434 59.1635 27.9674 59.8515 27.2474C60.5395 26.5114 61.1075 25.6954 61.5555 24.7994C62.0035 23.8874 62.3315 22.9274 62.5395 21.9194C62.7635 20.8954 62.8755 19.8714 62.8755 18.8474V16.8554ZM63.6195 16.8554H66.1155V18.8474C66.1155 19.8234 66.2195 20.7994 66.4275 21.7754C66.6515 22.7354 66.9875 23.6554 67.4355 24.5354C67.8995 25.3994 68.4755 26.1754 69.1635 26.8634C69.8515 27.5514 70.6595 28.1114 71.5875 28.5434L69.7395 31.0394C68.6835 30.5434 67.7715 29.8794 67.0035 29.0474C66.2355 28.2154 65.6035 27.2634 65.1075 26.1914C64.6115 25.1034 64.2355 23.9354 63.9795 22.6874C63.7395 21.4394 63.6195 20.1594 63.6195 18.8474V16.8554ZM58.3155 15.4874H70.6755V18.0554H58.3155V15.4874ZM84.7856 15.8474H87.4016V17.2394C87.4016 18.6474 87.1696 19.9834 86.7056 21.2474C86.2576 22.5114 85.5696 23.6234 84.6416 24.5834C83.7136 25.5274 82.5376 26.2314 81.1136 26.6954L79.5296 24.1754C80.7456 23.7754 81.7376 23.2154 82.5056 22.4954C83.2896 21.7594 83.8656 20.9354 84.2336 20.0234C84.6016 19.0954 84.7856 18.1674 84.7856 17.2394V15.8474ZM85.4336 15.8474H88.0016V17.2394C88.0016 18.1034 88.1776 18.9434 88.5296 19.7594C88.8816 20.5594 89.4256 21.2794 90.1616 21.9194C90.9136 22.5594 91.8896 23.0634 93.0896 23.4314L91.5536 25.9274C90.1456 25.5114 88.9856 24.8714 88.0736 24.0074C87.1776 23.1274 86.5136 22.1114 86.0816 20.9594C85.6496 19.7914 85.4336 18.5514 85.4336 17.2394V15.8474ZM80.3456 14.8394H92.3696V17.3834H80.3456V14.8394ZM94.1216 13.3754H97.3136V26.5514H94.1216V13.3754ZM96.4496 18.4634H100.266V21.0794H96.4496V18.4634ZM90.0656 26.9354C91.6176 26.9354 92.9536 27.1114 94.0736 27.4634C95.1936 27.7994 96.0576 28.2874 96.6656 28.9274C97.2736 29.5674 97.5776 30.3434 97.5776 31.2554C97.5776 32.1674 97.2736 32.9434 96.6656 33.5834C96.0576 34.2394 95.1936 34.7354 94.0736 35.0714C92.9536 35.4234 91.6176 35.5994 90.0656 35.5994C88.5296 35.5994 87.1936 35.4234 86.0576 35.0714C84.9376 34.7354 84.0656 34.2394 83.4416 33.5834C82.8336 32.9434 82.5296 32.1674 82.5296 31.2554C82.5296 30.3434 82.8336 29.5674 83.4416 28.9274C84.0656 28.2874 84.9376 27.7994 86.0576 27.4634C87.1936 27.1114 88.5296 26.9354 90.0656 26.9354ZM90.0656 29.4314C89.1216 29.4314 88.3296 29.4954 87.6896 29.6234C87.0496 29.7514 86.5616 29.9514 86.2256 30.2234C85.8896 30.4954 85.7216 30.8394 85.7216 31.2554C85.7216 31.6874 85.8896 32.0394 86.2256 32.3114C86.5616 32.5834 87.0496 32.7914 87.6896 32.9354C88.3296 33.0634 89.1216 33.1274 90.0656 33.1274C91.0096 33.1274 91.8016 33.0634 92.4416 32.9354C93.0976 32.7914 93.5856 32.5834 93.9056 32.3114C94.2416 32.0394 94.4096 31.6874 94.4096 31.2554C94.4096 30.8394 94.2416 30.4954 93.9056 30.2234C93.5856 29.9514 93.0976 29.7514 92.4416 29.6234C91.8016 29.4954 91.0096 29.4314 90.0656 29.4314Z" fill="#465054"/>
</g>
<defs>
<filter id="filter0_d_108_1282" x="0" y="0" width="158" height="58" filterUnits="userSpaceOnUse" color-interpolation-filters="sRGB">
<feFlood flood-opacity="0" result="BackgroundImageFix"/>
<feColorMatrix in="SourceAlpha" type="matrix" values="0 0 0 0 0 0 0 0 0 0 0 0 0 0 0 0 0 0 127 0" result="hardAlpha"/>
<feOffset dy="4"/>
<feGaussianBlur stdDeviation="2"/>
<feComposite in2="hardAlpha" operator="out"/>
<feColorMatrix type="matrix" values="0 0 0 0 0 0 0 0 0 0 0 0 0 0 0 0 0 0 0.25 0"/>
<feBlend mode="normal" in2="BackgroundImageFix" result="effect1_dropShadow_108_1282"/>
<feBlend mode="normal" in="SourceGraphic" in2="effect1_dropShadow_108_1282" result="shape"/>
</filter>
</defs>
</svg>
