<svg width="102" height="39" viewBox="0 0 102 39" fill="none" xmlns="http://www.w3.org/2000/svg">
<g filter="url(#filter0_d_141_118)">
<rect x="4" width="94" height="31" rx="15.5" fill="white"/>
<path d="M25.912 9.436H27.074V18.788H25.912V9.436ZM18.94 20.86H27.466V21.812H18.94V20.86ZM18.94 17.92H20.102V21.364H18.94V17.92ZM20.13 11.844H21.082V12.376C21.082 13.132 20.9327 13.8367 20.634 14.49C20.3353 15.134 19.92 15.6987 19.388 16.184C18.856 16.66 18.2353 17.0193 17.526 17.262L16.952 16.352C17.428 16.1933 17.8573 15.9833 18.24 15.722C18.632 15.4513 18.968 15.1433 19.248 14.798C19.5373 14.4433 19.7567 14.0653 19.906 13.664C20.0553 13.2533 20.13 12.824 20.13 12.376V11.844ZM20.326 11.844H21.278V12.376C21.278 12.796 21.3573 13.1973 21.516 13.58C21.6747 13.9627 21.894 14.322 22.174 14.658C22.4633 14.9847 22.804 15.274 23.196 15.526C23.588 15.7687 24.0173 15.9647 24.484 16.114L23.924 17.038C23.2147 16.8047 22.5893 16.4593 22.048 16.002C21.5067 15.5447 21.082 15.008 20.774 14.392C20.4753 13.776 20.326 13.104 20.326 12.376V11.844ZM17.26 11.116H24.134V12.054H17.26V11.116ZM20.13 9.492H21.292V11.578H20.13V9.492ZM31.0069 10.248H38.9309V11.186H31.0069V10.248ZM29.5789 15.68H41.0169V16.646H29.5789V15.68ZM34.6889 16.324H35.8509V22.106H34.6889V16.324ZM38.3709 10.248H39.5189V11.354C39.5189 11.7927 39.5096 12.2547 39.4909 12.74C39.4816 13.2253 39.4442 13.762 39.3789 14.35C39.3136 14.9287 39.2016 15.5727 39.0429 16.282L37.8809 16.128C38.1329 15.1107 38.2776 14.2193 38.3149 13.454C38.3522 12.6887 38.3709 11.9887 38.3709 11.354V10.248ZM46.9133 10.57H52.7373V16.422H46.9133V10.57ZM51.6033 11.508H48.0473V15.484H51.6033V11.508ZM55.0613 9.422H56.2233V18.704H55.0613V9.422ZM55.8593 13.272H58.0853V14.238H55.8593V13.272ZM48.3413 20.86H56.7833V21.812H48.3413V20.86ZM48.3413 17.822H49.4893V21.266H48.3413V17.822ZM68.6962 14.476H71.0202V15.442H68.6962V14.476ZM67.8422 9.422H69.0042V22.078H67.8422V9.422ZM59.7782 10.668H60.9262V18.508H59.7782V10.668ZM59.7782 17.906H60.7862C61.7102 17.906 62.6576 17.864 63.6282 17.78C64.6082 17.696 65.6209 17.5467 66.6662 17.332L66.8062 18.312C65.7236 18.5267 64.6876 18.676 63.6982 18.76C62.7182 18.8347 61.7476 18.872 60.7862 18.872H59.7782V17.906ZM81.3791 9.422H82.5411V22.092H81.3791V9.422ZM77.6691 10.794H78.8171C78.8171 11.7087 78.7051 12.5907 78.4811 13.44C78.2665 14.2893 77.9258 15.0967 77.4591 15.862C76.9925 16.618 76.3858 17.3227 75.6391 17.976C74.8925 18.6293 73.9871 19.2127 72.9231 19.726L72.3071 18.788C73.5298 18.2 74.5378 17.514 75.3311 16.73C76.1245 15.946 76.7125 15.0733 77.0951 14.112C77.4778 13.1413 77.6691 12.096 77.6691 10.976V10.794ZM72.8951 10.794H78.1591V11.732H72.8951V10.794Z" fill="black"/>
</g>
<defs>
<filter id="filter0_d_141_118" x="0" y="0" width="102" height="39" filterUnits="userSpaceOnUse" color-interpolation-filters="sRGB">
<feFlood flood-opacity="0" result="BackgroundImageFix"/>
<feColorMatrix in="SourceAlpha" type="matrix" values="0 0 0 0 0 0 0 0 0 0 0 0 0 0 0 0 0 0 127 0" result="hardAlpha"/>
<feOffset dy="4"/>
<feGaussianBlur stdDeviation="2"/>
<feComposite in2="hardAlpha" operator="out"/>
<feColorMatrix type="matrix" values="0 0 0 0 0 0 0 0 0 0 0 0 0 0 0 0 0 0 0.25 0"/>
<feBlend mode="normal" in2="BackgroundImageFix" result="effect1_dropShadow_141_118"/>
<feBlend mode="normal" in="SourceGraphic" in2="effect1_dropShadow_141_118" result="shape"/>
</filter>
</defs>
</svg>
