<svg width="102" height="39" viewBox="0 0 102 39" fill="none" xmlns="http://www.w3.org/2000/svg">
<g filter="url(#filter0_d_108_1108)">
<rect x="4" width="94" height="31" rx="15.5" fill="white"/>
<path d="M25.268 9.422H26.43V22.078H25.268V9.422ZM26.122 14.56H28.446V15.526H26.122V14.56ZM22.034 10.78H23.168C23.168 11.984 22.972 13.1367 22.58 14.238C22.188 15.33 21.572 16.3427 20.732 17.276C19.892 18.2 18.786 19.0027 17.414 19.684L16.77 18.788C17.946 18.2 18.9213 17.514 19.696 16.73C20.48 15.9367 21.0633 15.0593 21.446 14.098C21.838 13.1273 22.034 12.082 22.034 10.962V10.78ZM17.358 10.78H22.622V11.746H17.358V10.78ZM35.6269 12.586H39.3089V13.538H35.6269V12.586ZM35.6269 16.002H39.3089V16.968H35.6269V16.002ZM38.8469 9.422H39.9949V22.106H38.8469V9.422ZM30.0829 10.416H31.2449V13.706H34.7589V10.416H35.8929V18.914H30.0829V10.416ZM31.2449 14.63V17.962H34.7589V14.63H31.2449ZM42.4438 15.848H53.9238V16.8H42.4438V15.848ZM47.6938 16.45H48.8698V19.362H47.6938V16.45ZM43.9138 20.846H52.6498V21.812H43.9138V20.846ZM43.9138 18.116H45.0758V21.112H43.9138V18.116ZM48.1698 9.744C49.0658 9.744 49.8451 9.84667 50.5078 10.052C51.1705 10.2573 51.6838 10.5513 52.0478 10.934C52.4211 11.3073 52.6078 11.76 52.6078 12.292C52.6078 12.8053 52.4211 13.2533 52.0478 13.636C51.6838 14.0187 51.1705 14.3127 50.5078 14.518C49.8451 14.7233 49.0658 14.826 48.1698 14.826C47.2831 14.826 46.5038 14.7233 45.8318 14.518C45.1691 14.3127 44.6511 14.0187 44.2778 13.636C43.9138 13.2533 43.7318 12.8053 43.7318 12.292C43.7318 11.76 43.9138 11.3073 44.2778 10.934C44.6511 10.5513 45.1691 10.2573 45.8318 10.052C46.5038 9.84667 47.2831 9.744 48.1698 9.744ZM48.1698 10.682C47.5351 10.682 46.9751 10.7473 46.4898 10.878C46.0045 11.0087 45.6265 11.1953 45.3558 11.438C45.0945 11.6713 44.9638 11.956 44.9638 12.292C44.9638 12.6187 45.0945 12.9033 45.3558 13.146C45.6265 13.3793 46.0045 13.5613 46.4898 13.692C46.9751 13.8133 47.5351 13.874 48.1698 13.874C48.8231 13.874 49.3878 13.8133 49.8638 13.692C50.3398 13.5613 50.7085 13.3793 50.9698 13.146C51.2405 12.9033 51.3758 12.6187 51.3758 12.292C51.3758 11.956 51.2405 11.6713 50.9698 11.438C50.7085 11.1953 50.3398 11.0087 49.8638 10.878C49.3878 10.7473 48.8231 10.682 48.1698 10.682ZM62.3822 10.192H63.3482V11.746C63.3482 12.5767 63.2036 13.342 62.9142 14.042C62.6249 14.7327 62.2189 15.3347 61.6962 15.848C61.1736 16.3613 60.5576 16.7533 59.8482 17.024L59.2182 16.1C59.8622 15.876 60.4222 15.5493 60.8982 15.12C61.3742 14.6813 61.7382 14.1727 61.9902 13.594C62.2516 13.0153 62.3822 12.3993 62.3822 11.746V10.192ZM62.5922 10.192H63.5302V11.788C63.5302 12.2173 63.6049 12.6373 63.7542 13.048C63.9129 13.4587 64.1276 13.846 64.3982 14.21C64.6782 14.5647 65.0049 14.8773 65.3782 15.148C65.7609 15.4093 66.1856 15.624 66.6522 15.792L66.0642 16.716C65.3736 16.4547 64.7669 16.0813 64.2442 15.596C63.7216 15.1107 63.3156 14.5413 63.0262 13.888C62.7369 13.2347 62.5922 12.5347 62.5922 11.788V10.192ZM67.9402 9.422H69.1022V18.774H67.9402V9.422ZM68.7382 13.3H70.9642V14.28H68.7382V13.3ZM61.2342 20.86H69.6622V21.812H61.2342V20.86ZM61.2342 17.878H62.4102V21.322H61.2342V17.878ZM74.7851 11.746H75.6811V12.166C75.6811 12.838 75.5691 13.482 75.3451 14.098C75.1211 14.7047 74.7945 15.246 74.3651 15.722C73.9451 16.1887 73.4271 16.5527 72.8111 16.814L72.2511 15.946C72.7831 15.722 73.2358 15.4187 73.6091 15.036C73.9918 14.644 74.2811 14.2007 74.4771 13.706C74.6825 13.2113 74.7851 12.698 74.7851 12.166V11.746ZM75.0091 11.746H75.8911V12.166C75.8911 12.6607 75.9938 13.1413 76.1991 13.608C76.4045 14.0747 76.6985 14.49 77.0811 14.854C77.4638 15.218 77.9165 15.5027 78.4391 15.708L77.8931 16.59C77.2771 16.338 76.7545 15.988 76.3251 15.54C75.8958 15.092 75.5691 14.5787 75.3451 14C75.1211 13.4213 75.0091 12.81 75.0091 12.166V11.746ZM72.5031 11.088H78.1311V12.026H72.5031V11.088ZM74.7851 9.576H75.8911V11.48H74.7851V9.576ZM81.7151 9.436H82.8211V17.192H81.7151V9.436ZM79.6711 12.81H82.0511V13.762H79.6711V12.81ZM79.0131 9.66H80.1191V17.122H79.0131V9.66ZM74.3371 17.864H82.8211V22.092H81.6731V18.816H74.3371V17.864Z" fill="black"/>
</g>
<defs>
<filter id="filter0_d_108_1108" x="0" y="0" width="102" height="39" filterUnits="userSpaceOnUse" color-interpolation-filters="sRGB">
<feFlood flood-opacity="0" result="BackgroundImageFix"/>
<feColorMatrix in="SourceAlpha" type="matrix" values="0 0 0 0 0 0 0 0 0 0 0 0 0 0 0 0 0 0 127 0" result="hardAlpha"/>
<feOffset dy="4"/>
<feGaussianBlur stdDeviation="2"/>
<feComposite in2="hardAlpha" operator="out"/>
<feColorMatrix type="matrix" values="0 0 0 0 0 0 0 0 0 0 0 0 0 0 0 0 0 0 0.25 0"/>
<feBlend mode="normal" in2="BackgroundImageFix" result="effect1_dropShadow_108_1108"/>
<feBlend mode="normal" in="SourceGraphic" in2="effect1_dropShadow_108_1108" result="shape"/>
</filter>
</defs>
</svg>
