<svg width="103" height="39" viewBox="0 0 103 39" fill="none" xmlns="http://www.w3.org/2000/svg">
<g filter="url(#filter0_d_141_122)">
<rect x="4" width="95" height="31" rx="15.5" fill="white"/>
<path d="M18.156 15.498H26.85V16.45H18.156V15.498ZM16.7 19.404H28.18V20.37H16.7V19.404ZM18.156 10.598H26.724V11.55H19.304V15.918H18.156V10.598ZM38.1609 9.422H39.3089V22.106H38.1609V9.422ZM39.0429 14.448H41.3809V15.428H39.0429V14.448ZM30.0969 18.074H31.1049C31.8889 18.074 32.6076 18.0647 33.2609 18.046C33.9236 18.018 34.5629 17.976 35.1789 17.92C35.7949 17.8547 36.4202 17.7613 37.0549 17.64L37.1669 18.592C36.5136 18.7133 35.8742 18.8067 35.2489 18.872C34.6329 18.9373 33.9889 18.984 33.3169 19.012C32.6449 19.04 31.9076 19.054 31.1049 19.054H30.0969V18.074ZM30.0689 10.598H35.7809V15.148H31.2449V18.466H30.0969V14.182H34.6329V11.55H30.0689V10.598ZM42.9618 10.696H48.7718V18.872H42.9618V10.696ZM47.6238 11.62H44.0958V17.934H47.6238V11.62ZM51.0258 9.422H52.1878V22.092H51.0258V9.422ZM51.9218 14.476H54.2598V15.456H51.9218V14.476ZM59.2742 19.516H70.7542V20.482H59.2742V19.516ZM64.4122 16.478H65.5602V19.796H64.4122V16.478ZM60.6182 10.318H61.7802V12.572H68.2202V10.318H69.3682V16.8H60.6182V10.318ZM61.7802 13.524V15.848H68.2202V13.524H61.7802ZM81.3791 9.422H82.5411V22.092H81.3791V9.422ZM77.6691 10.794H78.8171C78.8171 11.7087 78.7051 12.5907 78.4811 13.44C78.2665 14.2893 77.9258 15.0967 77.4591 15.862C76.9925 16.618 76.3858 17.3227 75.6391 17.976C74.8925 18.6293 73.9871 19.2127 72.9231 19.726L72.3071 18.788C73.5298 18.2 74.5378 17.514 75.3311 16.73C76.1245 15.946 76.7125 15.0733 77.0951 14.112C77.4778 13.1413 77.6691 12.096 77.6691 10.976V10.794ZM72.8951 10.794H78.1591V11.732H72.8951V10.794Z" fill="black"/>
</g>
<defs>
<filter id="filter0_d_141_122" x="0" y="0" width="103" height="39" filterUnits="userSpaceOnUse" color-interpolation-filters="sRGB">
<feFlood flood-opacity="0" result="BackgroundImageFix"/>
<feColorMatrix in="SourceAlpha" type="matrix" values="0 0 0 0 0 0 0 0 0 0 0 0 0 0 0 0 0 0 127 0" result="hardAlpha"/>
<feOffset dy="4"/>
<feGaussianBlur stdDeviation="2"/>
<feComposite in2="hardAlpha" operator="out"/>
<feColorMatrix type="matrix" values="0 0 0 0 0 0 0 0 0 0 0 0 0 0 0 0 0 0 0.25 0"/>
<feBlend mode="normal" in2="BackgroundImageFix" result="effect1_dropShadow_141_122"/>
<feBlend mode="normal" in="SourceGraphic" in2="effect1_dropShadow_141_122" result="shape"/>
</filter>
</defs>
</svg>
