<svg width="85" height="39" viewBox="0 0 85 39" fill="none" xmlns="http://www.w3.org/2000/svg">
<g filter="url(#filter0_d_108_1111)">
<rect x="4" width="77" height="31" rx="15.5" fill="white"/>
<path d="M17.218 10.388H22.916V16.016H17.218V10.388ZM21.768 11.326H18.352V15.078H21.768V11.326ZM25.366 9.422H26.528V17.836H25.366V9.422ZM26.206 12.88H28.39V13.846H26.206V12.88ZM22.118 17.234H23.126V17.612C23.126 18.2093 22.9953 18.7507 22.734 19.236C22.482 19.7213 22.132 20.1553 21.684 20.538C21.2453 20.9113 20.7413 21.224 20.172 21.476C19.6027 21.7373 19.0007 21.924 18.366 22.036L17.904 21.112C18.464 21.0187 18.996 20.8693 19.5 20.664C20.0133 20.4587 20.466 20.202 20.858 19.894C21.25 19.586 21.558 19.2407 21.782 18.858C22.006 18.4753 22.118 18.06 22.118 17.612V17.234ZM22.286 17.234H23.266V17.612C23.266 18.06 23.378 18.4753 23.602 18.858C23.8353 19.2407 24.148 19.586 24.54 19.894C24.932 20.202 25.38 20.4587 25.884 20.664C26.3973 20.8693 26.934 21.0187 27.494 21.112L27.032 22.036C26.3973 21.924 25.7953 21.7373 25.226 21.476C24.6567 21.224 24.148 20.9113 23.7 20.538C23.2613 20.1553 22.916 19.7213 22.664 19.236C22.412 18.7507 22.286 18.2093 22.286 17.612V17.234ZM32.9529 10.514H33.9049V11.494C33.9049 12.2313 33.7556 12.922 33.4569 13.566C33.1582 14.21 32.7382 14.77 32.1969 15.246C31.6556 15.7127 31.0302 16.0673 30.3209 16.31L29.7329 15.386C30.2089 15.2367 30.6429 15.0313 31.0349 14.77C31.4269 14.5087 31.7629 14.2053 32.0429 13.86C32.3322 13.5147 32.5562 13.1413 32.7149 12.74C32.8736 12.3293 32.9529 11.914 32.9529 11.494V10.514ZM33.1769 10.514H34.1289V11.494C34.1289 11.8953 34.2036 12.2873 34.3529 12.67C34.5116 13.0527 34.7356 13.4073 35.0249 13.734C35.3142 14.0607 35.6549 14.35 36.0469 14.602C36.4389 14.8447 36.8682 15.036 37.3349 15.176L36.7609 16.086C36.0609 15.862 35.4402 15.526 34.8989 15.078C34.3576 14.63 33.9329 14.098 33.6249 13.482C33.3262 12.866 33.1769 12.2033 33.1769 11.494V10.514ZM30.0549 10.262H36.9849V11.2H30.0549V10.262ZM38.7909 9.422H39.9529V16.282H38.7909V9.422ZM31.8049 16.898H32.9389V18.41H38.8049V16.898H39.9529V21.924H31.8049V16.898ZM32.9389 19.334V20.972H38.8049V19.334H32.9389ZM43.0318 15.316H43.9978C44.8471 15.316 45.5891 15.3113 46.2238 15.302C46.8678 15.2833 47.4558 15.246 47.9878 15.19C48.5291 15.134 49.0798 15.0547 49.6398 14.952L49.7658 15.89C49.1965 15.9927 48.6318 16.072 48.0718 16.128C47.5211 16.1747 46.9191 16.2073 46.2658 16.226C45.6125 16.2447 44.8565 16.254 43.9978 16.254H43.0318V15.316ZM43.0318 10.206H48.8138V11.158H44.1938V15.764H43.0318V10.206ZM43.8158 12.726H48.5898V13.664H43.8158V12.726ZM44.3338 17.542H52.2858V21.924H44.3338V17.542ZM51.1378 18.466H45.4678V20.972H51.1378V18.466ZM51.1238 9.422H52.2858V16.87H51.1238V9.422ZM51.9638 12.558H54.1478V13.538H51.9638V12.558ZM61.1327 17.374C61.9914 17.374 62.7287 17.4673 63.3447 17.654C63.9701 17.8407 64.4507 18.1067 64.7867 18.452C65.1227 18.7973 65.2907 19.2173 65.2907 19.712C65.2907 20.2067 65.1227 20.6313 64.7867 20.986C64.4507 21.3407 63.9701 21.6113 63.3447 21.798C62.7287 21.9847 61.9914 22.078 61.1327 22.078C60.2741 22.078 59.5321 21.9847 58.9067 21.798C58.2814 21.6113 57.8007 21.3407 57.4647 20.986C57.1287 20.6313 56.9607 20.2067 56.9607 19.712C56.9607 19.2173 57.1287 18.7973 57.4647 18.452C57.8007 18.1067 58.2814 17.8407 58.9067 17.654C59.5321 17.4673 60.2741 17.374 61.1327 17.374ZM61.1327 18.298C60.5074 18.298 59.9661 18.354 59.5087 18.466C59.0607 18.578 58.7154 18.7413 58.4727 18.956C58.2301 19.1613 58.1087 19.4133 58.1087 19.712C58.1087 20.02 58.2301 20.2813 58.4727 20.496C58.7154 20.7107 59.0607 20.874 59.5087 20.986C59.9661 21.098 60.5074 21.154 61.1327 21.154C61.7581 21.154 62.2947 21.098 62.7427 20.986C63.1907 20.874 63.5361 20.7107 63.7787 20.496C64.0214 20.2813 64.1427 20.02 64.1427 19.712C64.1427 19.4133 64.0214 19.1613 63.7787 18.956C63.5361 18.7413 63.1907 18.578 62.7427 18.466C62.2947 18.354 61.7581 18.298 61.1327 18.298ZM64.0027 9.422H65.1647V17.024H64.0027V9.422ZM64.8427 12.6H67.0267V13.58H64.8427V12.6ZM55.8547 10.22H57.0027V12.124H60.5727V10.22H61.7207V16.058H55.8547V10.22ZM57.0027 13.048V15.12H60.5727V13.048H57.0027Z" fill="black"/>
</g>
<defs>
<filter id="filter0_d_108_1111" x="0" y="0" width="85" height="39" filterUnits="userSpaceOnUse" color-interpolation-filters="sRGB">
<feFlood flood-opacity="0" result="BackgroundImageFix"/>
<feColorMatrix in="SourceAlpha" type="matrix" values="0 0 0 0 0 0 0 0 0 0 0 0 0 0 0 0 0 0 127 0" result="hardAlpha"/>
<feOffset dy="4"/>
<feGaussianBlur stdDeviation="2"/>
<feComposite in2="hardAlpha" operator="out"/>
<feColorMatrix type="matrix" values="0 0 0 0 0 0 0 0 0 0 0 0 0 0 0 0 0 0 0.25 0"/>
<feBlend mode="normal" in2="BackgroundImageFix" result="effect1_dropShadow_108_1111"/>
<feBlend mode="normal" in="SourceGraphic" in2="effect1_dropShadow_108_1111" result="shape"/>
</filter>
</defs>
</svg>
