<svg width="219" height="22" viewBox="0 0 219 22" fill="none" xmlns="http://www.w3.org/2000/svg">
<path d="M1.566 4.23H9.054V11.196H1.566V4.23ZM7.596 5.436H3.024V9.99H7.596V5.436ZM12.042 3.114H13.536V12.402H12.042V3.114ZM13.122 7.02H15.93V8.262H13.122V7.02ZM7.704 13.914H8.964V14.346C8.964 14.982 8.808 15.576 8.496 16.128C8.196 16.68 7.77 17.172 7.218 17.604C6.678 18.036 6.054 18.396 5.346 18.684C4.638 18.984 3.882 19.2 3.078 19.332L2.52 18.18C3.216 18.084 3.876 17.916 4.5 17.676C5.124 17.436 5.676 17.148 6.156 16.812C6.636 16.464 7.014 16.08 7.29 15.66C7.566 15.24 7.704 14.802 7.704 14.346V13.914ZM7.974 13.914H9.252V14.346C9.252 14.802 9.39 15.234 9.666 15.642C9.954 16.05 10.338 16.428 10.818 16.776C11.298 17.124 11.844 17.424 12.456 17.676C13.08 17.916 13.74 18.09 14.436 18.198L13.878 19.35C13.074 19.206 12.318 18.984 11.61 18.684C10.902 18.396 10.272 18.036 9.72 17.604C9.18 17.16 8.754 16.662 8.442 16.11C8.13 15.558 7.974 14.97 7.974 14.346V13.914ZM3.15 13.356H13.806V14.562H3.15V13.356ZM24.0646 12.096H25.5406V14.652H24.0646V12.096ZM17.4586 11.16H32.1646V12.366H17.4586V11.16ZM24.0646 3.024H25.5406V5.292H24.0646V3.024ZM23.9926 5.436H25.3066V5.688C25.3066 6.348 25.1326 6.942 24.7846 7.47C24.4486 7.986 23.9746 8.436 23.3626 8.82C22.7626 9.192 22.0666 9.492 21.2746 9.72C20.4826 9.948 19.6426 10.11 18.7546 10.206L18.3046 9.072C19.0966 9.012 19.8346 8.886 20.5186 8.694C21.2146 8.502 21.8206 8.262 22.3366 7.974C22.8526 7.686 23.2546 7.35 23.5426 6.966C23.8426 6.57 23.9926 6.144 23.9926 5.688V5.436ZM24.3166 5.436H25.6126V5.688C25.6126 6.144 25.7566 6.57 26.0446 6.966C26.3446 7.35 26.7526 7.686 27.2686 7.974C27.7966 8.262 28.4026 8.502 29.0866 8.694C29.7706 8.886 30.5086 9.012 31.3006 9.072L30.8686 10.206C29.9686 10.11 29.1226 9.948 28.3306 9.72C27.5506 9.492 26.8546 9.192 26.2426 8.82C25.6426 8.436 25.1686 7.986 24.8206 7.47C24.4846 6.942 24.3166 6.348 24.3166 5.688V5.436ZM18.9706 4.644H30.6706V5.832H18.9706V4.644ZM19.2586 14.13H30.3646V19.188H19.2586V14.13ZM28.9066 15.336H20.7166V17.964H28.9066V15.336ZM43.1612 7.02H46.4912V8.244H43.1612V7.02ZM43.1432 10.188H46.4552V11.412H43.1432V10.188ZM34.0352 4.914H43.1612V6.12H34.0352V4.914ZM38.6432 6.948C39.3752 6.948 40.0172 7.074 40.5692 7.326C41.1212 7.578 41.5532 7.932 41.8652 8.388C42.1772 8.832 42.3332 9.36 42.3332 9.972C42.3332 10.572 42.1772 11.1 41.8652 11.556C41.5532 12 41.1212 12.348 40.5692 12.6C40.0172 12.852 39.3752 12.978 38.6432 12.978C37.9232 12.978 37.2872 12.852 36.7352 12.6C36.1832 12.348 35.7512 12 35.4392 11.556C35.1272 11.1 34.9712 10.572 34.9712 9.972C34.9712 9.36 35.1272 8.832 35.4392 8.388C35.7512 7.932 36.1832 7.578 36.7352 7.326C37.2872 7.074 37.9232 6.948 38.6432 6.948ZM38.6432 8.1C37.9592 8.1 37.4072 8.268 36.9872 8.604C36.5792 8.94 36.3752 9.396 36.3752 9.972C36.3752 10.536 36.5792 10.992 36.9872 11.34C37.4072 11.676 37.9592 11.844 38.6432 11.844C39.3272 11.844 39.8792 11.676 40.2992 11.34C40.7312 10.992 40.9472 10.536 40.9472 9.972C40.9472 9.396 40.7312 8.94 40.2992 8.604C39.8792 8.268 39.3272 8.1 38.6432 8.1ZM37.9232 2.97H39.3992V5.742H37.9232V2.97ZM45.9152 3.114H47.4092V13.626H45.9152V3.114ZM42.0812 13.806C43.2092 13.806 44.1752 13.914 44.9792 14.13C45.7832 14.346 46.4012 14.664 46.8332 15.084C47.2772 15.504 47.4992 16.008 47.4992 16.596C47.4992 17.172 47.2772 17.67 46.8332 18.09C46.4012 18.51 45.7832 18.828 44.9792 19.044C44.1752 19.26 43.2092 19.368 42.0812 19.368C40.9532 19.368 39.9812 19.26 39.1652 19.044C38.3612 18.828 37.7372 18.51 37.2932 18.09C36.8612 17.67 36.6452 17.172 36.6452 16.596C36.6452 16.008 36.8612 15.504 37.2932 15.084C37.7372 14.664 38.3612 14.346 39.1652 14.13C39.9812 13.914 40.9532 13.806 42.0812 13.806ZM42.0812 14.976C40.8812 14.976 39.9332 15.114 39.2372 15.39C38.5412 15.666 38.1932 16.068 38.1932 16.596C38.1932 17.1 38.5412 17.496 39.2372 17.784C39.9332 18.072 40.8812 18.216 42.0812 18.216C43.2692 18.216 44.2052 18.072 44.8892 17.784C45.5852 17.496 45.9332 17.1 45.9332 16.596C45.9332 16.068 45.5852 15.666 44.8892 15.39C44.2052 15.114 43.2692 14.976 42.0812 14.976ZM62.2443 13.464H63.7203V19.422H62.2443V13.464ZM55.6383 12.96H70.3443V14.202H55.6383V12.96ZM62.2443 5.922H63.5583V6.336C63.5583 6.888 63.4443 7.416 63.2163 7.92C62.9883 8.412 62.6703 8.868 62.2623 9.288C61.8543 9.708 61.3743 10.086 60.8223 10.422C60.2823 10.746 59.6943 11.022 59.0583 11.25C58.4343 11.466 57.7803 11.622 57.0963 11.718L56.5563 10.53C57.1443 10.446 57.7143 10.314 58.2663 10.134C58.8303 9.954 59.3463 9.732 59.8143 9.468C60.2943 9.204 60.7143 8.91 61.0743 8.586C61.4463 8.25 61.7343 7.896 61.9383 7.524C62.1423 7.14 62.2443 6.744 62.2443 6.336V5.922ZM62.4243 5.922H63.7383V6.336C63.7383 6.732 63.8403 7.122 64.0443 7.506C64.2483 7.878 64.5303 8.232 64.8903 8.568C65.2503 8.892 65.6643 9.192 66.1323 9.468C66.6123 9.732 67.1283 9.954 67.6803 10.134C68.2443 10.314 68.8203 10.446 69.4083 10.53L68.8683 11.718C68.1843 11.622 67.5243 11.466 66.8883 11.25C66.2643 11.022 65.6763 10.746 65.1243 10.422C64.5843 10.086 64.1103 9.708 63.7023 9.288C63.3063 8.868 62.9943 8.412 62.7663 7.92C62.5383 7.416 62.4243 6.888 62.4243 6.336V5.922ZM57.0603 5.13H68.9223V6.336H57.0603V5.13ZM62.2443 3.114H63.7203V5.544H62.2443V3.114ZM76.2649 6.192H77.4889V7.002C77.4889 7.974 77.3029 8.88 76.9309 9.72C76.5589 10.548 76.0309 11.268 75.3469 11.88C74.6749 12.492 73.8829 12.96 72.9709 13.284L72.2329 12.114C73.0369 11.85 73.7389 11.46 74.3389 10.944C74.9509 10.428 75.4249 9.834 75.7609 9.162C76.0969 8.478 76.2649 7.758 76.2649 7.002V6.192ZM76.5169 6.192H77.7409V7.002C77.7409 7.71 77.9089 8.388 78.2449 9.036C78.5929 9.672 79.0729 10.23 79.6849 10.71C80.2969 11.19 81.0049 11.562 81.8089 11.826L81.0709 12.996C80.1709 12.696 79.3789 12.258 78.6949 11.682C78.0109 11.094 77.4769 10.404 77.0929 9.612C76.7089 8.808 76.5169 7.938 76.5169 7.002V6.192ZM72.6469 5.292H81.3409V6.498H72.6469V5.292ZM76.2649 3.222H77.7589V5.742H76.2649V3.222ZM80.7829 8.118H84.8869V9.378H80.7829V8.118ZM84.0949 3.132H85.5889V15.282H84.0949V3.132ZM75.2029 17.82H86.0389V19.044H75.2029V17.82ZM75.2029 14.202H76.6789V18.468H75.2029V14.202ZM96.0995 3.402C97.8995 3.402 99.3035 3.648 100.311 4.14C101.319 4.62 101.823 5.31 101.823 6.21C101.823 7.122 101.319 7.824 100.311 8.316C99.3035 8.796 97.8995 9.036 96.0995 9.036C94.3115 9.036 92.9075 8.796 91.8875 8.316C90.8795 7.824 90.3755 7.122 90.3755 6.21C90.3755 5.31 90.8795 4.62 91.8875 4.14C92.9075 3.648 94.3115 3.402 96.0995 3.402ZM96.0995 4.518C95.2235 4.518 94.4735 4.584 93.8495 4.716C93.2255 4.848 92.7455 5.04 92.4095 5.292C92.0855 5.544 91.9235 5.85 91.9235 6.21C91.9235 6.57 92.0855 6.882 92.4095 7.146C92.7455 7.398 93.2255 7.59 93.8495 7.722C94.4735 7.842 95.2235 7.902 96.0995 7.902C96.9875 7.902 97.7435 7.842 98.3675 7.722C98.9915 7.59 99.4655 7.398 99.7895 7.146C100.125 6.882 100.293 6.57 100.293 6.21C100.293 5.85 100.125 5.544 99.7895 5.292C99.4655 5.04 98.9915 4.848 98.3675 4.716C97.7435 4.584 96.9875 4.518 96.0995 4.518ZM88.7555 10.134H103.461V11.34H88.7555V10.134ZM90.5375 12.726H101.571V16.398H92.0315V18.36H90.5735V15.3H100.113V13.878H90.5375V12.726ZM90.5735 18.054H102.057V19.224H90.5735V18.054ZM115.687 3.888C116.503 3.888 117.223 4.032 117.847 4.32C118.471 4.596 118.957 4.986 119.305 5.49C119.665 5.982 119.845 6.564 119.845 7.236C119.845 7.884 119.665 8.466 119.305 8.982C118.957 9.486 118.471 9.882 117.847 10.17C117.223 10.446 116.503 10.584 115.687 10.584C114.895 10.584 114.187 10.446 113.563 10.17C112.939 9.882 112.447 9.486 112.087 8.982C111.727 8.466 111.547 7.884 111.547 7.236C111.547 6.564 111.727 5.982 112.087 5.49C112.447 4.986 112.939 4.596 113.563 4.32C114.187 4.032 114.895 3.888 115.687 3.888ZM115.687 5.112C115.171 5.112 114.709 5.202 114.301 5.382C113.893 5.562 113.569 5.814 113.329 6.138C113.101 6.45 112.987 6.816 112.987 7.236C112.987 7.644 113.101 8.01 113.329 8.334C113.569 8.646 113.893 8.892 114.301 9.072C114.709 9.252 115.171 9.342 115.687 9.342C116.227 9.342 116.701 9.252 117.109 9.072C117.517 8.892 117.835 8.646 118.063 8.334C118.303 8.01 118.423 7.644 118.423 7.236C118.423 6.816 118.303 6.45 118.063 6.138C117.835 5.814 117.517 5.562 117.109 5.382C116.701 5.202 116.227 5.112 115.687 5.112ZM115.039 12.402H116.533V18.9H115.039V12.402ZM122.239 3.132H123.715V19.404H122.239V3.132ZM110.539 13.212L110.341 11.952C111.349 11.952 112.453 11.94 113.653 11.916C114.865 11.892 116.107 11.838 117.379 11.754C118.663 11.67 119.893 11.538 121.069 11.358L121.177 12.474C119.965 12.702 118.729 12.87 117.469 12.978C116.209 13.074 114.985 13.134 113.797 13.158C112.621 13.182 111.535 13.2 110.539 13.212ZM138.077 3.132H139.571V15.336H138.077V3.132ZM139.103 8.478H141.965V9.72H139.103V8.478ZM126.971 5.112H136.583V6.318H126.971V5.112ZM131.777 7.2C132.545 7.2 133.223 7.332 133.811 7.596C134.399 7.848 134.855 8.202 135.179 8.658C135.503 9.102 135.665 9.63 135.665 10.242C135.665 10.854 135.503 11.388 135.179 11.844C134.855 12.288 134.399 12.636 133.811 12.888C133.223 13.14 132.545 13.266 131.777 13.266C131.009 13.266 130.331 13.14 129.743 12.888C129.155 12.636 128.693 12.288 128.357 11.844C128.033 11.388 127.871 10.854 127.871 10.242C127.871 9.63 128.033 9.102 128.357 8.658C128.693 8.202 129.155 7.848 129.743 7.596C130.331 7.332 131.009 7.2 131.777 7.2ZM131.777 8.37C131.045 8.37 130.451 8.544 129.995 8.892C129.539 9.228 129.311 9.678 129.311 10.242C129.311 10.806 129.539 11.256 129.995 11.592C130.451 11.928 131.045 12.096 131.777 12.096C132.521 12.096 133.115 11.928 133.559 11.592C134.015 11.256 134.243 10.806 134.243 10.242C134.243 9.678 134.015 9.228 133.559 8.892C133.115 8.544 132.521 8.37 131.777 8.37ZM131.039 3.132H132.533V5.724H131.039V3.132ZM129.437 17.82H140.291V19.044H129.437V17.82ZM129.437 14.364H130.913V18.324H129.437V14.364ZM155.162 13.464H156.638V19.422H155.162V13.464ZM148.556 12.96H163.262V14.202H148.556V12.96ZM155.162 5.922H156.476V6.336C156.476 6.888 156.362 7.416 156.134 7.92C155.906 8.412 155.588 8.868 155.18 9.288C154.772 9.708 154.292 10.086 153.74 10.422C153.2 10.746 152.612 11.022 151.976 11.25C151.352 11.466 150.698 11.622 150.014 11.718L149.474 10.53C150.062 10.446 150.632 10.314 151.184 10.134C151.748 9.954 152.264 9.732 152.732 9.468C153.212 9.204 153.632 8.91 153.992 8.586C154.364 8.25 154.652 7.896 154.856 7.524C155.06 7.14 155.162 6.744 155.162 6.336V5.922ZM155.342 5.922H156.656V6.336C156.656 6.732 156.758 7.122 156.962 7.506C157.166 7.878 157.448 8.232 157.808 8.568C158.168 8.892 158.582 9.192 159.05 9.468C159.53 9.732 160.046 9.954 160.598 10.134C161.162 10.314 161.738 10.446 162.326 10.53L161.786 11.718C161.102 11.622 160.442 11.466 159.806 11.25C159.182 11.022 158.594 10.746 158.042 10.422C157.502 10.086 157.028 9.708 156.62 9.288C156.224 8.868 155.912 8.412 155.684 7.92C155.456 7.416 155.342 6.888 155.342 6.336V5.922ZM149.978 5.13H161.84V6.336H149.978V5.13ZM155.162 3.114H156.638V5.544H155.162V3.114ZM176.131 3.114H177.625V19.386H176.131V3.114ZM177.229 9.72H180.217V10.962H177.229V9.72ZM171.973 4.86H173.431C173.431 6.408 173.179 7.89 172.675 9.306C172.171 10.71 171.379 12.012 170.299 13.212C169.219 14.4 167.797 15.432 166.033 16.308L165.205 15.156C166.717 14.4 167.971 13.518 168.967 12.51C169.975 11.49 170.725 10.362 171.217 9.126C171.721 7.878 171.973 6.534 171.973 5.094V4.86ZM165.961 4.86H172.729V6.102H165.961V4.86ZM195.43 7.344H199.084V8.586H195.43V7.344ZM198.634 3.114H200.128V12.816H198.634V3.114ZM194.764 13.32C195.892 13.32 196.858 13.44 197.662 13.68C198.478 13.92 199.102 14.268 199.534 14.724C199.966 15.168 200.182 15.714 200.182 16.362C200.182 17.322 199.696 18.066 198.724 18.594C197.764 19.122 196.444 19.386 194.764 19.386C193.084 19.386 191.758 19.122 190.786 18.594C189.826 18.066 189.346 17.322 189.346 16.362C189.346 15.714 189.562 15.168 189.994 14.724C190.438 14.268 191.062 13.92 191.866 13.68C192.682 13.44 193.648 13.32 194.764 13.32ZM194.764 14.49C193.948 14.49 193.246 14.562 192.658 14.706C192.07 14.85 191.614 15.06 191.29 15.336C190.978 15.612 190.822 15.954 190.822 16.362C190.822 16.746 190.978 17.076 191.29 17.352C191.614 17.628 192.07 17.844 192.658 18C193.246 18.144 193.948 18.216 194.764 18.216C195.592 18.216 196.294 18.144 196.87 18C197.458 17.844 197.908 17.628 198.22 17.352C198.544 17.076 198.706 16.746 198.706 16.362C198.706 15.954 198.544 15.612 198.22 15.336C197.908 15.06 197.458 14.85 196.87 14.706C196.294 14.562 195.592 14.49 194.764 14.49ZM190.876 4.77H192.1V6.084C192.1 7.08 191.908 8.016 191.524 8.892C191.152 9.756 190.624 10.518 189.94 11.178C189.256 11.826 188.464 12.324 187.564 12.672L186.79 11.484C187.402 11.268 187.954 10.974 188.446 10.602C188.95 10.23 189.382 9.804 189.742 9.324C190.114 8.844 190.396 8.328 190.588 7.776C190.78 7.224 190.876 6.66 190.876 6.084V4.77ZM191.164 4.77H192.388V6.066C192.388 6.762 192.55 7.44 192.874 8.1C193.198 8.76 193.66 9.342 194.26 9.846C194.86 10.35 195.55 10.746 196.33 11.034L195.574 12.222C194.686 11.898 193.912 11.43 193.252 10.818C192.592 10.194 192.076 9.474 191.704 8.658C191.344 7.842 191.164 6.978 191.164 6.066V4.77ZM187.258 4.302H195.952V5.526H187.258V4.302ZM203.295 16.092H218.055V17.334H203.295V16.092ZM209.901 12.186H211.377V16.452H209.901V12.186ZM205.023 4.266H206.517V7.164H214.797V4.266H216.273V12.6H205.023V4.266ZM206.517 8.388V11.376H214.797V8.388H206.517Z" fill="black"/>
</svg>
