<svg width="118" height="37" viewBox="0 0 118 37" fill="none" xmlns="http://www.w3.org/2000/svg">
<path d="M25.3353 12.432H26.1633C26.8433 12.432 27.4513 12.424 27.9873 12.408C28.5233 12.384 29.0313 12.348 29.5113 12.3C29.9993 12.252 30.4913 12.18 30.9873 12.084L31.1073 12.9C30.5873 13.004 30.0793 13.08 29.5833 13.128C29.0873 13.176 28.5673 13.212 28.0233 13.236C27.4793 13.26 26.8593 13.272 26.1633 13.272H25.3353V12.432ZM25.3353 6.108H30.2673V6.936H26.3313V12.732H25.3353V6.108ZM32.7393 5.076H33.7353V15.948H32.7393V5.076ZM29.6313 9.012H33.1593V9.84H29.6313V9.012ZM39.3744 5.592C39.9184 5.592 40.3984 5.688 40.8144 5.88C41.2304 6.064 41.5544 6.324 41.7864 6.66C42.0264 6.988 42.1464 7.376 42.1464 7.824C42.1464 8.256 42.0264 8.644 41.7864 8.988C41.5544 9.324 41.2304 9.588 40.8144 9.78C40.3984 9.964 39.9184 10.056 39.3744 10.056C38.8464 10.056 38.3744 9.964 37.9584 9.78C37.5424 9.588 37.2144 9.324 36.9744 8.988C36.7344 8.644 36.6144 8.256 36.6144 7.824C36.6144 7.376 36.7344 6.988 36.9744 6.66C37.2144 6.324 37.5424 6.064 37.9584 5.88C38.3744 5.688 38.8464 5.592 39.3744 5.592ZM39.3744 6.408C39.0304 6.408 38.7224 6.468 38.4504 6.588C38.1784 6.708 37.9624 6.876 37.8024 7.092C37.6504 7.3 37.5744 7.544 37.5744 7.824C37.5744 8.096 37.6504 8.34 37.8024 8.556C37.9624 8.764 38.1784 8.928 38.4504 9.048C38.7224 9.168 39.0304 9.228 39.3744 9.228C39.7344 9.228 40.0504 9.168 40.3224 9.048C40.5944 8.928 40.8064 8.764 40.9584 8.556C41.1184 8.34 41.1984 8.096 41.1984 7.824C41.1984 7.544 41.1184 7.3 40.9584 7.092C40.8064 6.876 40.5944 6.708 40.3224 6.588C40.0504 6.468 39.7344 6.408 39.3744 6.408ZM38.9424 11.268H39.9384V15.6H38.9424V11.268ZM43.7424 5.088H44.7264V15.936H43.7424V5.088ZM35.9424 11.808L35.8104 10.968C36.4824 10.968 37.2184 10.96 38.0184 10.944C38.8264 10.928 39.6544 10.892 40.5024 10.836C41.3584 10.78 42.1784 10.692 42.9624 10.572L43.0344 11.316C42.2264 11.468 41.4024 11.58 40.5624 11.652C39.7224 11.716 38.9064 11.756 38.1144 11.772C37.3304 11.788 36.6064 11.8 35.9424 11.808ZM54.9494 9.408H56.9414V10.236H54.9494V9.408ZM54.2174 5.076H55.2134V15.924H54.2174V5.076ZM47.3054 6.144H48.2894V12.864H47.3054V6.144ZM47.3054 12.348H48.1694C48.9614 12.348 49.7734 12.312 50.6054 12.24C51.4454 12.168 52.3134 12.04 53.2094 11.856L53.3294 12.696C52.4014 12.88 51.5134 13.008 50.6654 13.08C49.8254 13.144 48.9934 13.176 48.1694 13.176H47.3054V12.348ZM65.6915 11.976H66.6755V15.948H65.6915V11.976ZM61.2875 11.64H71.0915V12.468H61.2875V11.64ZM65.6915 6.948H66.5675V7.224C66.5675 7.592 66.4915 7.944 66.3395 8.28C66.1875 8.608 65.9755 8.912 65.7035 9.192C65.4315 9.472 65.1115 9.724 64.7435 9.948C64.3835 10.164 63.9915 10.348 63.5675 10.5C63.1515 10.644 62.7155 10.748 62.2595 10.812L61.8995 10.02C62.2915 9.964 62.6715 9.876 63.0395 9.756C63.4155 9.636 63.7595 9.488 64.0715 9.312C64.3915 9.136 64.6715 8.94 64.9115 8.724C65.1595 8.5 65.3515 8.264 65.4875 8.016C65.6235 7.76 65.6915 7.496 65.6915 7.224V6.948ZM65.8115 6.948H66.6875V7.224C66.6875 7.488 66.7555 7.748 66.8915 8.004C67.0275 8.252 67.2155 8.488 67.4555 8.712C67.6955 8.928 67.9715 9.128 68.2835 9.312C68.6035 9.488 68.9475 9.636 69.3155 9.756C69.6915 9.876 70.0755 9.964 70.4675 10.02L70.1075 10.812C69.6515 10.748 69.2115 10.644 68.7875 10.5C68.3715 10.348 67.9795 10.164 67.6115 9.948C67.2515 9.724 66.9355 9.472 66.6635 9.192C66.3995 8.912 66.1915 8.608 66.0395 8.28C65.8875 7.944 65.8115 7.592 65.8115 7.224V6.948ZM62.2355 6.42H70.1435V7.224H62.2355V6.42ZM65.6915 5.076H66.6755V6.696H65.6915V5.076ZM75.8666 5.592C76.4106 5.592 76.8906 5.688 77.3066 5.88C77.7226 6.064 78.0466 6.324 78.2786 6.66C78.5186 6.988 78.6386 7.376 78.6386 7.824C78.6386 8.256 78.5186 8.644 78.2786 8.988C78.0466 9.324 77.7226 9.588 77.3066 9.78C76.8906 9.964 76.4106 10.056 75.8666 10.056C75.3386 10.056 74.8666 9.964 74.4506 9.78C74.0346 9.588 73.7066 9.324 73.4666 8.988C73.2266 8.644 73.1066 8.256 73.1066 7.824C73.1066 7.376 73.2266 6.988 73.4666 6.66C73.7066 6.324 74.0346 6.064 74.4506 5.88C74.8666 5.688 75.3386 5.592 75.8666 5.592ZM75.8666 6.408C75.5226 6.408 75.2146 6.468 74.9426 6.588C74.6706 6.708 74.4546 6.876 74.2946 7.092C74.1426 7.3 74.0666 7.544 74.0666 7.824C74.0666 8.096 74.1426 8.34 74.2946 8.556C74.4546 8.764 74.6706 8.928 74.9426 9.048C75.2146 9.168 75.5226 9.228 75.8666 9.228C76.2266 9.228 76.5426 9.168 76.8146 9.048C77.0866 8.928 77.2986 8.764 77.4506 8.556C77.6106 8.34 77.6906 8.096 77.6906 7.824C77.6906 7.544 77.6106 7.3 77.4506 7.092C77.2986 6.876 77.0866 6.708 76.8146 6.588C76.5426 6.468 76.2266 6.408 75.8666 6.408ZM75.4346 11.268H76.4306V15.6H75.4346V11.268ZM80.2346 5.088H81.2186V15.936H80.2346V5.088ZM72.4346 11.808L72.3026 10.968C72.9746 10.968 73.7106 10.96 74.5106 10.944C75.3186 10.928 76.1466 10.892 76.9946 10.836C77.8506 10.78 78.6706 10.692 79.4546 10.572L79.5266 11.316C78.7186 11.468 77.8946 11.58 77.0546 11.652C76.2146 11.716 75.3986 11.756 74.6066 11.772C73.8226 11.788 73.0986 11.8 72.4346 11.808ZM83.3536 10.116H93.1936V10.884H83.3536V10.116ZM84.5296 11.748H91.9696V14.064H85.5376V15.336H84.5536V13.38H90.9856V12.468H84.5296V11.748ZM84.5536 15.072H92.3176V15.792H84.5536V15.072ZM84.6016 5.4H91.9336V7.656H85.6096V8.832H84.6256V6.984H90.9496V6.108H84.6016V5.4ZM84.6256 8.592H92.1256V9.312H84.6256V8.592ZM24.2074 20.928H25.0114V21.792C25.0114 22.416 24.8834 22.992 24.6274 23.52C24.3714 24.048 24.0114 24.508 23.5474 24.9C23.0914 25.284 22.5554 25.572 21.9394 25.764L21.4474 24.984C21.9994 24.816 22.4794 24.572 22.8874 24.252C23.3034 23.932 23.6274 23.56 23.8594 23.136C24.0914 22.712 24.2074 22.264 24.2074 21.792V20.928ZM24.3874 20.928H25.2034V21.78C25.2034 22.204 25.3154 22.612 25.5394 23.004C25.7634 23.388 26.0754 23.728 26.4754 24.024C26.8754 24.32 27.3434 24.548 27.8794 24.708L27.4114 25.488C26.8034 25.312 26.2714 25.044 25.8154 24.684C25.3674 24.316 25.0154 23.884 24.7594 23.388C24.5114 22.892 24.3874 22.356 24.3874 21.78V20.928ZM21.7834 20.676H27.5914V21.492H21.7834V20.676ZM28.9714 20.076H29.9674V25.668H28.9714V20.076ZM29.5234 22.44H31.5634V23.256H29.5234V22.44ZM23.0674 26.184H29.9674V28.812H24.0754V30.48H23.1034V28.068H28.9834V26.964H23.0674V26.184ZM23.1034 30.048H30.3514V30.828H23.1034V30.048ZM36.4254 27.492H37.2774C37.9414 27.492 38.5494 27.484 39.1014 27.468C39.6534 27.452 40.1854 27.42 40.6974 27.372C41.2174 27.324 41.7494 27.252 42.2934 27.156L42.3894 27.972C41.8374 28.068 41.2974 28.144 40.7694 28.2C40.2414 28.248 39.6934 28.28 39.1254 28.296C38.5654 28.312 37.9494 28.32 37.2774 28.32H36.4254V27.492ZM36.4254 21.06H41.4774V21.888H37.4214V27.78H36.4254V21.06ZM37.1694 24.108H41.2374V24.912H37.1694V24.108ZM43.3014 20.076H44.2974V30.936H43.3014V20.076ZM44.0694 24.432H46.0734V25.272H44.0694V24.432ZM48.3165 23.34H55.6965V24.144H48.3165V23.34ZM46.9845 25.596H56.8245V26.412H46.9845V25.596ZM48.3165 20.472H49.3005V23.748H48.3165V20.472ZM48.2445 29.856H55.7565V30.672H48.2445V29.856ZM48.2445 27.504H49.2405V30.072H48.2445V27.504ZM69.3425 20.076H70.3385V28.152H69.3425V20.076ZM61.7345 20.952H67.4465V21.768H61.7345V20.952ZM61.5545 26.52L61.4345 25.68C62.0345 25.68 62.6945 25.676 63.4145 25.668C64.1425 25.652 64.8825 25.624 65.6345 25.584C66.3865 25.544 67.1025 25.488 67.7825 25.416L67.8305 26.16C67.1425 26.272 66.4225 26.352 65.6705 26.4C64.9265 26.448 64.1985 26.48 63.4865 26.496C62.7825 26.512 62.1385 26.52 61.5545 26.52ZM62.8025 21.66H63.7745V25.824H62.8025V21.66ZM65.4065 21.66H66.3665V25.824H65.4065V21.66ZM67.5305 22.14H69.8585V22.956H67.5305V22.14ZM67.5305 24.204H69.8585V25.032H67.5305V24.204ZM63.3905 29.88H70.6265V30.696H63.3905V29.88ZM63.3905 27.492H64.3865V30.396H63.3905V27.492ZM80.3336 20.076H81.3296V30.948H80.3336V20.076ZM75.6056 20.916C76.1416 20.916 76.6136 21.072 77.0216 21.384C77.4376 21.688 77.7616 22.124 77.9936 22.692C78.2336 23.26 78.3536 23.928 78.3536 24.696C78.3536 25.464 78.2336 26.132 77.9936 26.7C77.7616 27.268 77.4376 27.708 77.0216 28.02C76.6136 28.332 76.1416 28.488 75.6056 28.488C75.0696 28.488 74.5936 28.332 74.1776 28.02C73.7616 27.708 73.4336 27.268 73.1936 26.7C72.9616 26.132 72.8456 25.464 72.8456 24.696C72.8456 23.928 72.9616 23.26 73.1936 22.692C73.4336 22.124 73.7616 21.688 74.1776 21.384C74.5936 21.072 75.0696 20.916 75.6056 20.916ZM75.6056 21.804C75.2456 21.804 74.9296 21.924 74.6576 22.164C74.3936 22.396 74.1856 22.732 74.0336 23.172C73.8816 23.604 73.8056 24.112 73.8056 24.696C73.8056 25.28 73.8816 25.792 74.0336 26.232C74.1856 26.664 74.3936 27 74.6576 27.24C74.9296 27.48 75.2456 27.6 75.6056 27.6C75.9576 27.6 76.2656 27.48 76.5296 27.24C76.8016 27 77.0136 26.664 77.1656 26.232C77.3176 25.792 77.3936 25.28 77.3936 24.696C77.3936 24.112 77.3176 23.604 77.1656 23.172C77.0136 22.732 76.8016 22.396 76.5296 22.164C76.2656 21.924 75.9576 21.804 75.6056 21.804ZM90.8327 20.076H91.8287V30.948H90.8327V20.076ZM91.6007 24.36H93.6047V25.188H91.6007V24.36ZM83.9567 27.396H84.8087C85.4727 27.396 86.0807 27.388 86.6327 27.372C87.1927 27.348 87.7287 27.308 88.2407 27.252C88.7607 27.196 89.2887 27.12 89.8247 27.024L89.9447 27.876C89.3847 27.972 88.8407 28.048 88.3127 28.104C87.7927 28.16 87.2487 28.196 86.6807 28.212C86.1127 28.228 85.4887 28.236 84.8087 28.236H83.9567V27.396ZM83.9567 21.132H88.9847V21.948H84.9407V27.78H83.9567V21.132ZM95.4917 30.0554C95.3638 30.0554 95.2544 30.0114 95.1635 29.9233C95.0755 29.8324 95.0314 29.723 95.0314 29.5952C95.0314 29.4702 95.0755 29.3622 95.1635 29.2713C95.2544 29.1804 95.3638 29.1349 95.4917 29.1349C95.6167 29.1349 95.7246 29.1804 95.8155 29.2713C95.9064 29.3622 95.9519 29.4702 95.9519 29.5952C95.9519 29.6804 95.9306 29.7585 95.888 29.8295C95.8482 29.8977 95.7928 29.9531 95.7218 29.9957C95.6536 30.0355 95.5769 30.0554 95.4917 30.0554Z" fill="#465054"/>
</svg>
