<svg width="118" height="37" viewBox="0 0 118 37" fill="none" xmlns="http://www.w3.org/2000/svg">
<g clip-path="url(#clip0_108_1075)">
<path d="M36.2233 5.076H37.2193V10.548H36.2233V5.076ZM36.9433 7.32H38.8153V8.16H36.9433V7.32ZM29.3113 5.556H30.3073V9.72H29.3113V5.556ZM29.3113 9.192H30.1753C30.9513 9.192 31.7473 9.16 32.5633 9.096C33.3793 9.024 34.2273 8.9 35.1073 8.724L35.2273 9.552C34.3153 9.736 33.4473 9.864 32.6233 9.936C31.7993 10 30.9833 10.032 30.1753 10.032H29.3113V9.192ZM30.3193 11.076H37.2193V13.74H31.3393V15.384H30.3553V12.972H36.2233V11.868H30.3193V11.076ZM30.3553 14.976H37.6033V15.792H30.3553V14.976ZM47.8624 5.076H48.8584V15.936H47.8624V5.076ZM41.3824 6.036H42.1144V8.472C42.1144 8.904 42.0824 9.356 42.0184 9.828C41.9624 10.3 41.8664 10.764 41.7304 11.22C41.6024 11.668 41.4224 12.088 41.1904 12.48C40.9664 12.864 40.6784 13.184 40.3264 13.44L39.6904 12.732C40.0184 12.492 40.2904 12.204 40.5064 11.868C40.7304 11.524 40.9024 11.16 41.0224 10.776C41.1504 10.384 41.2424 9.992 41.2984 9.6C41.3544 9.2 41.3824 8.824 41.3824 8.472V6.036ZM41.5864 6.036H42.3184V8.472C42.3184 8.8 42.3384 9.16 42.3784 9.552C42.4264 9.944 42.5064 10.344 42.6184 10.752C42.7384 11.152 42.9024 11.532 43.1104 11.892C43.3264 12.252 43.6024 12.56 43.9384 12.816L43.3864 13.56C43.0184 13.296 42.7144 12.96 42.4744 12.552C42.2424 12.144 42.0624 11.704 41.9344 11.232C41.8064 10.752 41.7144 10.276 41.6584 9.804C41.6104 9.324 41.5864 8.88 41.5864 8.472V6.036ZM44.4424 6.036H45.1744V8.472C45.1744 8.896 45.1464 9.348 45.0904 9.828C45.0424 10.308 44.9544 10.784 44.8264 11.256C44.6984 11.728 44.5144 12.164 44.2744 12.564C44.0424 12.964 43.7464 13.296 43.3864 13.56L42.8224 12.816C43.1584 12.56 43.4304 12.26 43.6384 11.916C43.8544 11.564 44.0184 11.188 44.1304 10.788C44.2504 10.388 44.3304 9.992 44.3704 9.6C44.4184 9.2 44.4424 8.824 44.4424 8.472V6.036ZM44.6584 6.036H45.4024V8.472C45.4024 8.832 45.4264 9.212 45.4744 9.612C45.5304 10.012 45.6224 10.408 45.7504 10.8C45.8784 11.184 46.0504 11.544 46.2664 11.88C46.4824 12.216 46.7584 12.5 47.0944 12.732L46.4824 13.476C46.1304 13.22 45.8344 12.9 45.5944 12.516C45.3544 12.132 45.1664 11.712 45.0304 11.256C44.9024 10.8 44.8064 10.336 44.7424 9.864C44.6864 9.384 44.6584 8.92 44.6584 8.472V6.036ZM54.3894 5.868C54.9574 5.868 55.4574 5.976 55.8894 6.192C56.3294 6.4 56.6734 6.696 56.9214 7.08C57.1694 7.464 57.2934 7.912 57.2934 8.424C57.2934 8.928 57.1694 9.376 56.9214 9.768C56.6734 10.152 56.3294 10.452 55.8894 10.668C55.4574 10.876 54.9574 10.98 54.3894 10.98C53.8294 10.98 53.3294 10.876 52.8894 10.668C52.4494 10.452 52.1014 10.152 51.8454 9.768C51.5974 9.376 51.4734 8.928 51.4734 8.424C51.4734 7.912 51.5974 7.464 51.8454 7.08C52.1014 6.696 52.4494 6.4 52.8894 6.192C53.3294 5.976 53.8294 5.868 54.3894 5.868ZM54.3894 6.732C54.0214 6.732 53.6894 6.804 53.3934 6.948C53.1054 7.084 52.8774 7.28 52.7094 7.536C52.5414 7.792 52.4574 8.088 52.4574 8.424C52.4574 8.76 52.5414 9.056 52.7094 9.312C52.8774 9.568 53.1054 9.768 53.3934 9.912C53.6894 10.048 54.0214 10.116 54.3894 10.116C54.7654 10.116 55.0974 10.048 55.3854 9.912C55.6734 9.768 55.9014 9.568 56.0694 9.312C56.2374 9.056 56.3214 8.76 56.3214 8.424C56.3214 8.088 56.2374 7.792 56.0694 7.536C55.9014 7.28 55.6734 7.084 55.3854 6.948C55.0974 6.804 54.7654 6.732 54.3894 6.732ZM58.7214 5.076H59.7174V15.948H58.7214V5.076ZM51.0654 13.572L50.9334 12.732C51.5974 12.732 52.3254 12.728 53.1174 12.72C53.9094 12.704 54.7254 12.672 55.5654 12.624C56.4134 12.568 57.2294 12.48 58.0134 12.36L58.0974 13.092C57.2814 13.244 56.4534 13.356 55.6134 13.428C54.7814 13.492 53.9774 13.532 53.2014 13.548C52.4254 13.564 51.7134 13.572 51.0654 13.572ZM70.2315 6.648H73.5315V7.452H70.2315V6.648ZM70.2315 9.144H73.5315V9.96H70.2315V9.144ZM68.2515 5.724C68.7795 5.724 69.2515 5.836 69.6675 6.06C70.0915 6.276 70.4235 6.58 70.6635 6.972C70.9115 7.356 71.0355 7.8 71.0355 8.304C71.0355 8.808 70.9115 9.256 70.6635 9.648C70.4235 10.032 70.0915 10.336 69.6675 10.56C69.2515 10.776 68.7795 10.884 68.2515 10.884C67.7155 10.884 67.2355 10.776 66.8115 10.56C66.3955 10.336 66.0635 10.032 65.8155 9.648C65.5755 9.256 65.4555 8.808 65.4555 8.304C65.4555 7.8 65.5755 7.356 65.8155 6.972C66.0635 6.58 66.3955 6.276 66.8115 6.06C67.2355 5.836 67.7155 5.724 68.2515 5.724ZM68.2515 6.576C67.8995 6.576 67.5835 6.648 67.3035 6.792C67.0235 6.936 66.8035 7.14 66.6435 7.404C66.4835 7.66 66.4035 7.96 66.4035 8.304C66.4035 8.64 66.4835 8.94 66.6435 9.204C66.8035 9.46 67.0235 9.664 67.3035 9.816C67.5835 9.96 67.8995 10.032 68.2515 10.032C68.6035 10.032 68.9155 9.96 69.1875 9.816C69.4675 9.664 69.6875 9.46 69.8475 9.204C70.0075 8.94 70.0875 8.64 70.0875 8.304C70.0875 7.96 70.0075 7.66 69.8475 7.404C69.6875 7.14 69.4675 6.936 69.1875 6.792C68.9155 6.648 68.6035 6.576 68.2515 6.576ZM73.2195 5.076H74.2155V11.496H73.2195V5.076ZM70.6395 11.76C71.3915 11.76 72.0355 11.844 72.5715 12.012C73.1075 12.172 73.5195 12.408 73.8075 12.72C74.1035 13.024 74.2515 13.396 74.2515 13.836C74.2515 14.268 74.1035 14.64 73.8075 14.952C73.5195 15.264 73.1075 15.5 72.5715 15.66C72.0355 15.828 71.3915 15.912 70.6395 15.912C69.8955 15.912 69.2515 15.828 68.7075 15.66C68.1715 15.5 67.7555 15.264 67.4595 14.952C67.1715 14.64 67.0275 14.268 67.0275 13.836C67.0275 13.396 67.1715 13.024 67.4595 12.72C67.7555 12.408 68.1715 12.172 68.7075 12.012C69.2515 11.844 69.8955 11.76 70.6395 11.76ZM70.6395 12.54C70.0955 12.54 69.6235 12.592 69.2235 12.696C68.8315 12.8 68.5275 12.948 68.3115 13.14C68.1035 13.332 67.9995 13.564 67.9995 13.836C67.9995 14.1 68.1035 14.328 68.3115 14.52C68.5275 14.712 68.8315 14.86 69.2235 14.964C69.6235 15.068 70.0955 15.12 70.6395 15.12C71.1915 15.12 71.6635 15.068 72.0555 14.964C72.4475 14.86 72.7475 14.712 72.9555 14.52C73.1715 14.328 73.2795 14.1 73.2795 13.836C73.2795 13.564 73.1715 13.332 72.9555 13.14C72.7475 12.948 72.4475 12.8 72.0555 12.696C71.6635 12.592 71.1915 12.54 70.6395 12.54ZM84.4506 6.948H86.3226V7.776H84.4506V6.948ZM84.4506 9.264H86.3226V10.092H84.4506V9.264ZM83.7546 5.076H84.7506V12.072H83.7546V5.076ZM81.3426 12.156C82.0706 12.156 82.6986 12.232 83.2266 12.384C83.7546 12.528 84.1586 12.74 84.4386 13.02C84.7266 13.3 84.8706 13.64 84.8706 14.04C84.8706 14.432 84.7266 14.768 84.4386 15.048C84.1586 15.328 83.7546 15.54 83.2266 15.684C82.6986 15.836 82.0706 15.912 81.3426 15.912C80.6066 15.912 79.9746 15.836 79.4466 15.684C78.9266 15.54 78.5226 15.328 78.2346 15.048C77.9466 14.768 77.8026 14.432 77.8026 14.04C77.8026 13.64 77.9466 13.3 78.2346 13.02C78.5226 12.74 78.9266 12.528 79.4466 12.384C79.9746 12.232 80.6066 12.156 81.3426 12.156ZM81.3426 12.936C80.5426 12.936 79.9146 13.032 79.4586 13.224C79.0106 13.416 78.7866 13.688 78.7866 14.04C78.7866 14.392 79.0106 14.664 79.4586 14.856C79.9146 15.048 80.5426 15.144 81.3426 15.144C82.1346 15.144 82.7546 15.048 83.2026 14.856C83.6586 14.664 83.8866 14.392 83.8866 14.04C83.8866 13.688 83.6586 13.416 83.2026 13.224C82.7546 13.032 82.1346 12.936 81.3426 12.936ZM76.3506 6.3H82.7586V7.092H76.3506V6.3ZM79.5546 7.644C80.0746 7.644 80.5266 7.724 80.9106 7.884C81.3026 8.044 81.6066 8.268 81.8226 8.556C82.0386 8.836 82.1466 9.172 82.1466 9.564C82.1466 9.948 82.0386 10.284 81.8226 10.572C81.6066 10.86 81.3026 11.084 80.9106 11.244C80.5266 11.396 80.0746 11.472 79.5546 11.472C79.0346 11.472 78.5786 11.396 78.1866 11.244C77.8026 11.084 77.4986 10.86 77.2746 10.572C77.0586 10.284 76.9506 9.948 76.9506 9.564C76.9506 9.172 77.0586 8.836 77.2746 8.556C77.4986 8.268 77.8026 8.044 78.1866 7.884C78.5786 7.724 79.0346 7.644 79.5546 7.644ZM79.5546 8.4C79.0586 8.4 78.6586 8.508 78.3546 8.724C78.0586 8.932 77.9106 9.212 77.9106 9.564C77.9106 9.916 78.0586 10.196 78.3546 10.404C78.6586 10.612 79.0586 10.716 79.5546 10.716C80.0426 10.716 80.4386 10.612 80.7426 10.404C81.0466 10.196 81.1986 9.916 81.1986 9.564C81.1986 9.212 81.0466 8.932 80.7426 8.724C80.4386 8.508 80.0426 8.4 79.5546 8.4ZM79.0626 4.992H80.0586V6.744H79.0626V4.992ZM92.2616 5.268C93.4616 5.268 94.3976 5.432 95.0696 5.76C95.7416 6.08 96.0776 6.54 96.0776 7.14C96.0776 7.748 95.7416 8.216 95.0696 8.544C94.3976 8.864 93.4616 9.024 92.2616 9.024C91.0696 9.024 90.1336 8.864 89.4536 8.544C88.7816 8.216 88.4456 7.748 88.4456 7.14C88.4456 6.54 88.7816 6.08 89.4536 5.76C90.1336 5.432 91.0696 5.268 92.2616 5.268ZM92.2616 6.012C91.6776 6.012 91.1776 6.056 90.7616 6.144C90.3456 6.232 90.0256 6.36 89.8016 6.528C89.5856 6.696 89.4776 6.9 89.4776 7.14C89.4776 7.38 89.5856 7.588 89.8016 7.764C90.0256 7.932 90.3456 8.06 90.7616 8.148C91.1776 8.228 91.6776 8.268 92.2616 8.268C92.8536 8.268 93.3576 8.228 93.7736 8.148C94.1896 8.06 94.5056 7.932 94.7216 7.764C94.9456 7.588 95.0576 7.38 95.0576 7.14C95.0576 6.9 94.9456 6.696 94.7216 6.528C94.5056 6.36 94.1896 6.232 93.7736 6.144C93.3576 6.056 92.8536 6.012 92.2616 6.012ZM87.3656 9.756H97.1696V10.56H87.3656V9.756ZM88.5536 11.484H95.9096V13.932H89.5496V15.24H88.5776V13.2H94.9376V12.252H88.5536V11.484ZM88.5776 15.036H96.2336V15.816H88.5776V15.036ZM15.2293 20.076H16.2133V30.936H15.2293V20.076ZM12.6973 24.432H15.6733V25.26H12.6973V24.432ZM11.7493 21.252H12.7213C12.7213 22.02 12.6333 22.768 12.4573 23.496C12.2893 24.216 12.0133 24.9 11.6293 25.548C11.2533 26.196 10.7533 26.8 10.1293 27.36C9.50527 27.92 8.74127 28.424 7.83727 28.872L7.28527 28.092C8.07727 27.708 8.75327 27.276 9.31327 26.796C9.88127 26.316 10.3453 25.796 10.7053 25.236C11.0653 24.668 11.3293 24.068 11.4973 23.436C11.6653 22.796 11.7493 22.12 11.7493 21.408V21.252ZM7.76527 21.252H12.2653V22.056H7.76527V21.252ZM21.8523 20.868C22.4203 20.868 22.9203 20.976 23.3523 21.192C23.7923 21.4 24.1363 21.696 24.3843 22.08C24.6323 22.464 24.7563 22.912 24.7563 23.424C24.7563 23.928 24.6323 24.376 24.3843 24.768C24.1363 25.152 23.7923 25.452 23.3523 25.668C22.9203 25.876 22.4203 25.98 21.8523 25.98C21.2923 25.98 20.7923 25.876 20.3523 25.668C19.9123 25.452 19.5643 25.152 19.3083 24.768C19.0603 24.376 18.9363 23.928 18.9363 23.424C18.9363 22.912 19.0603 22.464 19.3083 22.08C19.5643 21.696 19.9123 21.4 20.3523 21.192C20.7923 20.976 21.2923 20.868 21.8523 20.868ZM21.8523 21.732C21.4843 21.732 21.1523 21.804 20.8563 21.948C20.5683 22.084 20.3403 22.28 20.1723 22.536C20.0043 22.792 19.9203 23.088 19.9203 23.424C19.9203 23.76 20.0043 24.056 20.1723 24.312C20.3403 24.568 20.5683 24.768 20.8563 24.912C21.1523 25.048 21.4843 25.116 21.8523 25.116C22.2283 25.116 22.5603 25.048 22.8483 24.912C23.1363 24.768 23.3643 24.568 23.5323 24.312C23.7003 24.056 23.7843 23.76 23.7843 23.424C23.7843 23.088 23.7003 22.792 23.5323 22.536C23.3643 22.28 23.1363 22.084 22.8483 21.948C22.5603 21.804 22.2283 21.732 21.8523 21.732ZM26.1843 20.076H27.1803V30.948H26.1843V20.076ZM18.5283 28.572L18.3963 27.732C19.0603 27.732 19.7883 27.728 20.5803 27.72C21.3723 27.704 22.1883 27.672 23.0283 27.624C23.8763 27.568 24.6923 27.48 25.4763 27.36L25.5603 28.092C24.7443 28.244 23.9163 28.356 23.0763 28.428C22.2443 28.492 21.4403 28.532 20.6643 28.548C19.8883 28.564 19.1763 28.572 18.5283 28.572ZM40.1784 20.076H41.1744V26.424H40.1784V20.076ZM40.8984 22.692H42.7704V23.52H40.8984V22.692ZM33.1944 20.688H34.1784V22.344H37.2384V20.688H38.2224V25.752H33.1944V20.688ZM34.1784 23.136V24.948H37.2384V23.136H34.1784ZM34.3824 27.024H41.2584V27.828H35.3784V30.552H34.3824V27.024ZM34.3824 29.976H41.4624V30.78H34.3824V29.976ZM46.6575 21.636H47.4735V23.388C47.4735 23.964 47.3935 24.532 47.2335 25.092C47.0735 25.644 46.8495 26.168 46.5615 26.664C46.2815 27.152 45.9535 27.584 45.5775 27.96C45.2015 28.336 44.7975 28.632 44.3655 28.848L43.7895 28.056C44.1815 27.864 44.5495 27.604 44.8935 27.276C45.2455 26.948 45.5535 26.572 45.8175 26.148C46.0815 25.724 46.2855 25.276 46.4295 24.804C46.5815 24.332 46.6575 23.86 46.6575 23.388V21.636ZM46.8615 21.636H47.6655V23.388C47.6655 23.844 47.7375 24.3 47.8815 24.756C48.0335 25.204 48.2415 25.628 48.5055 26.028C48.7775 26.42 49.0855 26.768 49.4295 27.072C49.7815 27.376 50.1575 27.616 50.5575 27.792L50.0055 28.584C49.5655 28.376 49.1535 28.096 48.7695 27.744C48.3855 27.392 48.0495 26.988 47.7615 26.532C47.4815 26.068 47.2615 25.572 47.1015 25.044C46.9415 24.508 46.8615 23.956 46.8615 23.388V21.636ZM44.1375 21.192H50.1975V22.02H44.1375V21.192ZM51.6735 20.076H52.6695V30.936H51.6735V20.076ZM61.2035 20.688C61.7395 20.688 62.2195 20.796 62.6435 21.012C63.0675 21.228 63.3995 21.524 63.6395 21.9C63.8795 22.276 63.9995 22.708 63.9995 23.196C63.9995 23.684 63.8795 24.12 63.6395 24.504C63.3995 24.88 63.0675 25.176 62.6435 25.392C62.2195 25.6 61.7395 25.704 61.2035 25.704C60.6675 25.704 60.1875 25.6 59.7635 25.392C59.3395 25.176 59.0035 24.88 58.7555 24.504C58.5155 24.12 58.3955 23.684 58.3955 23.196C58.3955 22.708 58.5155 22.276 58.7555 21.9C59.0035 21.524 59.3395 21.228 59.7635 21.012C60.1875 20.796 60.6675 20.688 61.2035 20.688ZM61.2035 21.516C60.8595 21.516 60.5475 21.588 60.2675 21.732C59.9875 21.876 59.7675 22.076 59.6075 22.332C59.4475 22.58 59.3675 22.868 59.3675 23.196C59.3675 23.524 59.4475 23.816 59.6075 24.072C59.7675 24.328 59.9875 24.528 60.2675 24.672C60.5475 24.816 60.8595 24.888 61.2035 24.888C61.5555 24.888 61.8675 24.816 62.1395 24.672C62.4195 24.528 62.6395 24.328 62.7995 24.072C62.9595 23.816 63.0395 23.524 63.0395 23.196C63.0395 22.868 62.9595 22.58 62.7995 22.332C62.6395 22.076 62.4195 21.876 62.1395 21.732C61.8675 21.588 61.5555 21.516 61.2035 21.516ZM65.6315 20.076H66.6275V25.488H65.6315V20.076ZM66.1955 22.512H68.2235V23.34H66.1955V22.512ZM59.3315 29.832H59.8595C60.0755 29.832 60.3275 29.824 60.6155 29.808C60.9035 29.784 61.2075 29.748 61.5275 29.7C61.8475 29.644 62.1635 29.564 62.4755 29.46L62.6315 30.252C62.2875 30.364 61.9475 30.448 61.6115 30.504C61.2835 30.56 60.9715 30.596 60.6755 30.612C60.3795 30.636 60.1075 30.648 59.8595 30.648H59.3315V29.832ZM59.3315 26.664H60.3035V30.12H59.3315V26.664ZM62.2475 26.724H67.6835V27.48H62.2475V26.724ZM64.9715 27.852C65.5635 27.852 66.0435 27.992 66.4115 28.272C66.7875 28.544 66.9755 28.916 66.9755 29.388C66.9755 29.86 66.7875 30.232 66.4115 30.504C66.0435 30.776 65.5635 30.912 64.9715 30.912C64.3795 30.912 63.8955 30.776 63.5195 30.504C63.1435 30.232 62.9555 29.86 62.9555 29.388C62.9555 28.916 63.1435 28.544 63.5195 28.272C63.8955 27.992 64.3795 27.852 64.9715 27.852ZM64.9715 28.572C64.6435 28.572 64.3715 28.648 64.1555 28.8C63.9475 28.944 63.8435 29.14 63.8435 29.388C63.8435 29.636 63.9475 29.836 64.1555 29.988C64.3715 30.132 64.6435 30.204 64.9715 30.204C65.2995 30.204 65.5675 30.132 65.7755 29.988C65.9835 29.836 66.0875 29.636 66.0875 29.388C66.0875 29.14 65.9835 28.944 65.7755 28.8C65.5675 28.648 65.2995 28.572 64.9715 28.572ZM64.4915 25.764H65.4635V27.312H64.4915V25.764ZM70.5626 23.34H77.9426V24.144H70.5626V23.34ZM69.2306 25.596H79.0706V26.412H69.2306V25.596ZM70.5626 20.472H71.5466V23.748H70.5626V20.472ZM70.4906 29.856H78.0026V30.672H70.4906V29.856ZM70.4906 27.504H71.4866V30.072H70.4906V27.504ZM91.5886 20.076H92.5846V28.152H91.5886V20.076ZM83.9806 20.952H89.6926V21.768H83.9806V20.952ZM83.8006 26.52L83.6806 25.68C84.2806 25.68 84.9406 25.676 85.6606 25.668C86.3886 25.652 87.1286 25.624 87.8806 25.584C88.6326 25.544 89.3486 25.488 90.0286 25.416L90.0766 26.16C89.3886 26.272 88.6686 26.352 87.9166 26.4C87.1726 26.448 86.4446 26.48 85.7326 26.496C85.0286 26.512 84.3846 26.52 83.8006 26.52ZM85.0486 21.66H86.0206V25.824H85.0486V21.66ZM87.6526 21.66H88.6126V25.824H87.6526V21.66ZM89.7766 22.14H92.1046V22.956H89.7766V22.14ZM89.7766 24.204H92.1046V25.032H89.7766V24.204ZM85.6366 29.88H92.8726V30.696H85.6366V29.88ZM85.6366 27.492H86.6326V30.396H85.6366V27.492ZM102.58 20.076H103.576V30.948H102.58V20.076ZM97.8517 20.916C98.3877 20.916 98.8597 21.072 99.2677 21.384C99.6837 21.688 100.008 22.124 100.24 22.692C100.48 23.26 100.6 23.928 100.6 24.696C100.6 25.464 100.48 26.132 100.24 26.7C100.008 27.268 99.6837 27.708 99.2677 28.02C98.8597 28.332 98.3877 28.488 97.8517 28.488C97.3157 28.488 96.8397 28.332 96.4237 28.02C96.0077 27.708 95.6797 27.268 95.4397 26.7C95.2077 26.132 95.0917 25.464 95.0917 24.696C95.0917 23.928 95.2077 23.26 95.4397 22.692C95.6797 22.124 96.0077 21.688 96.4237 21.384C96.8397 21.072 97.3157 20.916 97.8517 20.916ZM97.8517 21.804C97.4917 21.804 97.1757 21.924 96.9037 22.164C96.6397 22.396 96.4317 22.732 96.2797 23.172C96.1277 23.604 96.0517 24.112 96.0517 24.696C96.0517 25.28 96.1277 25.792 96.2797 26.232C96.4317 26.664 96.6397 27 96.9037 27.24C97.1757 27.48 97.4917 27.6 97.8517 27.6C98.2037 27.6 98.5117 27.48 98.7757 27.24C99.0477 27 99.2597 26.664 99.4117 26.232C99.5637 25.792 99.6397 25.28 99.6397 24.696C99.6397 24.112 99.5637 23.604 99.4117 23.172C99.2597 22.732 99.0477 22.396 98.7757 22.164C98.5117 21.924 98.2037 21.804 97.8517 21.804ZM113.079 20.076H114.075V30.948H113.079V20.076ZM113.847 24.36H115.851V25.188H113.847V24.36ZM106.203 27.396H107.055C107.719 27.396 108.327 27.388 108.879 27.372C109.439 27.348 109.975 27.308 110.487 27.252C111.007 27.196 111.535 27.12 112.071 27.024L112.191 27.876C111.631 27.972 111.087 28.048 110.559 28.104C110.039 28.16 109.495 28.196 108.927 28.212C108.359 28.228 107.735 28.236 107.055 28.236H106.203V27.396ZM106.203 21.132H111.231V21.948H107.187V27.78H106.203V21.132ZM117.738 30.0554C117.61 30.0554 117.501 30.0114 117.41 29.9233C117.322 29.8324 117.278 29.723 117.278 29.5952C117.278 29.4702 117.322 29.3622 117.41 29.2713C117.501 29.1804 117.61 29.1349 117.738 29.1349C117.863 29.1349 117.971 29.1804 118.062 29.2713C118.153 29.3622 118.198 29.4702 118.198 29.5952C118.198 29.6804 118.177 29.7585 118.134 29.8295C118.094 29.8977 118.039 29.9531 117.968 29.9957C117.9 30.0355 117.823 30.0554 117.738 30.0554Z" fill="#465054"/>
</g>
<defs>
<clipPath id="clip0_108_1075">
<rect width="118" height="37" fill="white"/>
</clipPath>
</defs>
</svg>
