<svg width="379" height="26" viewBox="0 0 379 26" fill="none" xmlns="http://www.w3.org/2000/svg">
<path d="M39.838 10.188H40.986V12.12H39.838V10.188ZM39.67 7.206H40.678V7.584C40.678 7.96667 40.5893 8.32133 40.412 8.648C40.244 8.97467 40.0013 9.26867 39.684 9.53C39.3667 9.79133 38.998 10.02 38.578 10.216C38.1673 10.412 37.7147 10.5753 37.22 10.706C36.7253 10.8273 36.212 10.9113 35.68 10.958L35.302 10.076C35.7593 10.0387 36.198 9.97333 36.618 9.88C37.0473 9.77733 37.4487 9.65133 37.822 9.502C38.1953 9.35267 38.5173 9.18 38.788 8.984C39.068 8.788 39.2827 8.57333 39.432 8.34C39.5907 8.10667 39.67 7.85467 39.67 7.584V7.206ZM40.174 7.206H41.168V7.584C41.168 7.85467 41.2473 8.10667 41.406 8.34C41.5647 8.57333 41.7793 8.788 42.05 8.984C42.3207 9.18 42.6427 9.35267 43.016 9.502C43.3893 9.65133 43.786 9.77733 44.206 9.88C44.6353 9.97333 45.0787 10.0387 45.536 10.076L45.158 10.958C44.6353 10.9113 44.1267 10.8273 43.632 10.706C43.1373 10.5753 42.68 10.412 42.26 10.216C41.84 10.02 41.4713 9.79133 41.154 9.53C40.846 9.26867 40.6033 8.97933 40.426 8.662C40.258 8.33533 40.174 7.976 40.174 7.584V7.206ZM35.75 6.814H45.102V7.738H35.75V6.814ZM35.764 14.29H45.074V15.2H35.764V14.29ZM34.686 11.672H46.166V12.624H34.686V11.672ZM40.412 15.816C41.6347 15.816 42.5727 15.956 43.226 16.236C43.8887 16.516 44.22 16.9313 44.22 17.482C44.22 18.0327 43.8887 18.448 43.226 18.728C42.5727 19.0173 41.6347 19.162 40.412 19.162C39.1987 19.162 38.2607 19.0173 37.598 18.728C36.9447 18.448 36.618 18.0327 36.618 17.482C36.618 16.9313 36.9447 16.516 37.598 16.236C38.2607 15.956 39.1987 15.816 40.412 15.816ZM40.412 16.628C39.5813 16.628 38.9373 16.7027 38.48 16.852C38.0227 16.992 37.794 17.202 37.794 17.482C37.794 17.7713 38.0227 17.9907 38.48 18.14C38.9373 18.2893 39.5813 18.364 40.412 18.364C41.252 18.364 41.896 18.2893 42.344 18.14C42.8013 17.9907 43.03 17.7713 43.03 17.482C43.03 17.202 42.8013 16.992 42.344 16.852C41.896 16.7027 41.252 16.628 40.412 16.628ZM39.838 13.114H41V14.878H39.838V13.114ZM50.2389 7.402C50.8642 7.402 51.4149 7.584 51.8909 7.948C52.3669 8.30267 52.7402 8.81133 53.0109 9.474C53.2816 10.1367 53.4169 10.916 53.4169 11.812C53.4169 12.708 53.2816 13.4873 53.0109 14.15C52.7402 14.8127 52.3669 15.326 51.8909 15.69C51.4149 16.054 50.8642 16.236 50.2389 16.236C49.6229 16.236 49.0722 16.054 48.5869 15.69C48.1109 15.326 47.7376 14.8127 47.4669 14.15C47.1962 13.4873 47.0609 12.708 47.0609 11.812C47.0609 10.916 47.1962 10.1367 47.4669 9.474C47.7376 8.81133 48.1109 8.30267 48.5869 7.948C49.0722 7.584 49.6229 7.402 50.2389 7.402ZM50.2389 8.438C49.8376 8.438 49.4782 8.578 49.1609 8.858C48.8529 9.12867 48.6102 9.52067 48.4329 10.034C48.2556 10.538 48.1669 11.1307 48.1669 11.812C48.1669 12.4933 48.2556 13.0907 48.4329 13.604C48.6102 14.108 48.8529 14.5 49.1609 14.78C49.4782 15.06 49.8422 15.2 50.2529 15.2C50.6542 15.2 51.0089 15.06 51.3169 14.78C51.6342 14.5 51.8769 14.108 52.0449 13.604C52.2222 13.0907 52.3109 12.4933 52.3109 11.812C52.3109 11.1307 52.2222 10.538 52.0449 10.034C51.8769 9.52067 51.6342 9.12867 51.3169 8.858C51.0089 8.578 50.6496 8.438 50.2389 8.438ZM55.4469 6.422H56.6089V19.092H55.4469V6.422ZM56.3429 11.476H58.6809V12.456H56.3429V11.476ZM67.6398 6.422H68.7878V19.092H67.6398V6.422ZM68.5218 11.63H70.8598V12.61H68.5218V11.63ZM58.9878 8.452H66.4498V9.404H58.9878V8.452ZM62.7818 10.44C63.3791 10.44 63.9065 10.566 64.3638 10.818C64.8305 11.07 65.1945 11.4153 65.4558 11.854C65.7265 12.2833 65.8618 12.7827 65.8618 13.352C65.8618 13.9213 65.7265 14.4253 65.4558 14.864C65.1945 15.3027 64.8305 15.648 64.3638 15.9C63.9065 16.1427 63.3791 16.264 62.7818 16.264C62.1845 16.264 61.6525 16.1427 61.1858 15.9C60.7285 15.648 60.3645 15.3027 60.0938 14.864C59.8231 14.4253 59.6878 13.9213 59.6878 13.352C59.6878 12.7827 59.8231 12.2833 60.0938 11.854C60.3645 11.4153 60.7285 11.07 61.1858 10.818C61.6525 10.566 62.1845 10.44 62.7818 10.44ZM62.7818 11.406C62.3991 11.406 62.0585 11.49 61.7598 11.658C61.4611 11.826 61.2231 12.0547 61.0458 12.344C60.8778 12.6333 60.7938 12.9693 60.7938 13.352C60.7938 13.7347 60.8778 14.0753 61.0458 14.374C61.2231 14.6633 61.4611 14.892 61.7598 15.06C62.0585 15.2187 62.3991 15.298 62.7818 15.298C63.1551 15.298 63.4911 15.2187 63.7898 15.06C64.0885 14.892 64.3218 14.6633 64.4898 14.374C64.6671 14.0753 64.7558 13.7347 64.7558 13.352C64.7558 12.9693 64.6671 12.6333 64.4898 12.344C64.3218 12.0547 64.0885 11.826 63.7898 11.658C63.4911 11.49 63.1551 11.406 62.7818 11.406ZM62.1798 6.576H63.3418V8.872H62.1798V6.576ZM72.7767 10.23H81.3867V11.168H72.7767V10.23ZM71.2227 12.862H82.7027V13.814H71.2227V12.862ZM72.7767 6.884H73.9247V10.706H72.7767V6.884ZM72.6927 17.832H81.4567V18.784H72.6927V17.832ZM72.6927 15.088H73.8547V18.084H72.6927V15.088ZM95.3051 6.422H96.4671V13.898H95.3051V6.422ZM95.9771 9.656H98.3151V10.636H95.9771V9.656ZM88.2631 14.472H96.4671V17.034H89.4391V18.364H88.2911V16.264H95.3191V15.284H88.2631V14.472ZM88.2911 18.126H96.9431V18.952H88.2911V18.126ZM89.9711 11.616H91.1191V13.226H89.9711V11.616ZM86.7231 13.604L86.5831 12.75C87.3298 12.75 88.1558 12.7453 89.0611 12.736C89.9665 12.7173 90.8905 12.6847 91.8331 12.638C92.7758 12.582 93.6811 12.4933 94.5491 12.372L94.6331 13.128C93.7371 13.2773 92.8178 13.3893 91.8751 13.464C90.9418 13.5293 90.0318 13.5713 89.1451 13.59C88.2678 13.5993 87.4605 13.604 86.7231 13.604ZM86.9051 7.388H94.1711V8.214H86.9051V7.388ZM90.5311 8.62C91.4271 8.62 92.1411 8.76467 92.6731 9.054C93.2145 9.34333 93.4851 9.74933 93.4851 10.272C93.4851 10.804 93.2145 11.2193 92.6731 11.518C92.1411 11.8073 91.4271 11.952 90.5311 11.952C89.6351 11.952 88.9165 11.8073 88.3751 11.518C87.8431 11.2193 87.5771 10.804 87.5771 10.272C87.5771 9.74933 87.8431 9.34333 88.3751 9.054C88.9165 8.76467 89.6351 8.62 90.5311 8.62ZM90.5311 9.39C89.9618 9.39 89.5091 9.46933 89.1731 9.628C88.8465 9.78667 88.6831 10.0013 88.6831 10.272C88.6831 10.552 88.8465 10.776 89.1731 10.944C89.5091 11.1027 89.9618 11.182 90.5311 11.182C91.1005 11.182 91.5485 11.1027 91.8751 10.944C92.2111 10.776 92.3791 10.552 92.3791 10.272C92.3791 10.0013 92.2111 9.78667 91.8751 9.628C91.5485 9.46933 91.1005 9.39 90.5311 9.39ZM89.9711 6.31H91.1191V7.822H89.9711V6.31ZM98.832 12.666H110.284V13.604H98.832V12.666ZM103.984 10.636H105.118V13.058H103.984V10.636ZM100.274 10.272H108.94V11.21H100.274V10.272ZM100.274 7.01H108.856V7.934H101.422V10.832H100.274V7.01ZM104.544 14.514C105.897 14.514 106.957 14.7147 107.722 15.116C108.487 15.508 108.87 16.068 108.87 16.796C108.87 17.524 108.487 18.084 107.722 18.476C106.957 18.8773 105.897 19.078 104.544 19.078C103.191 19.078 102.127 18.8773 101.352 18.476C100.587 18.084 100.204 17.524 100.204 16.796C100.204 16.068 100.587 15.508 101.352 15.116C102.127 14.7147 103.191 14.514 104.544 14.514ZM104.53 15.424C103.877 15.424 103.312 15.48 102.836 15.592C102.369 15.6947 102.01 15.8487 101.758 16.054C101.506 16.25 101.38 16.4973 101.38 16.796C101.38 17.0853 101.506 17.3327 101.758 17.538C102.01 17.7433 102.369 17.8973 102.836 18C103.312 18.112 103.877 18.168 104.53 18.168C105.202 18.168 105.771 18.112 106.238 18C106.714 17.8973 107.078 17.7433 107.33 17.538C107.582 17.3327 107.708 17.0853 107.708 16.796C107.708 16.4973 107.582 16.25 107.33 16.054C107.078 15.8487 106.714 15.6947 106.238 15.592C105.771 15.48 105.202 15.424 104.53 15.424ZM116.723 6.646C118.123 6.646 119.215 6.83733 119.999 7.22C120.783 7.59333 121.175 8.13 121.175 8.83C121.175 9.53933 120.783 10.0853 119.999 10.468C119.215 10.8413 118.123 11.028 116.723 11.028C115.332 11.028 114.24 10.8413 113.447 10.468C112.663 10.0853 112.271 9.53933 112.271 8.83C112.271 8.13 112.663 7.59333 113.447 7.22C114.24 6.83733 115.332 6.646 116.723 6.646ZM116.723 7.514C116.042 7.514 115.458 7.56533 114.973 7.668C114.488 7.77067 114.114 7.92 113.853 8.116C113.601 8.312 113.475 8.55 113.475 8.83C113.475 9.11 113.601 9.35267 113.853 9.558C114.114 9.754 114.488 9.90333 114.973 10.006C115.458 10.0993 116.042 10.146 116.723 10.146C117.414 10.146 118.002 10.0993 118.487 10.006C118.972 9.90333 119.341 9.754 119.593 9.558C119.854 9.35267 119.985 9.11 119.985 8.83C119.985 8.55 119.854 8.312 119.593 8.116C119.341 7.92 118.972 7.77067 118.487 7.668C118.002 7.56533 117.414 7.514 116.723 7.514ZM111.011 11.882H122.449V12.82H111.011V11.882ZM112.397 13.898H120.979V16.754H113.559V18.28H112.425V15.9H119.845V14.794H112.397V13.898ZM112.425 18.042H121.357V18.952H112.425V18.042ZM132.923 9.404H136.101V10.37H132.923V9.404ZM129.605 7.192H130.543V8.746C130.543 9.558 130.399 10.3187 130.109 11.028C129.82 11.7373 129.414 12.358 128.891 12.89C128.369 13.4127 127.757 13.814 127.057 14.094L126.441 13.17C126.917 12.9927 127.347 12.7547 127.729 12.456C128.121 12.1573 128.453 11.812 128.723 11.42C129.003 11.028 129.218 10.608 129.367 10.16C129.526 9.70267 129.605 9.23133 129.605 8.746V7.192ZM129.815 7.192H130.753V8.788C130.753 9.22667 130.828 9.656 130.977 10.076C131.127 10.496 131.337 10.888 131.607 11.252C131.878 11.616 132.2 11.938 132.573 12.218C132.956 12.498 133.376 12.722 133.833 12.89L133.203 13.8C132.531 13.5293 131.939 13.1467 131.425 12.652C130.921 12.1573 130.525 11.5787 130.235 10.916C129.955 10.2533 129.815 9.544 129.815 8.788V7.192ZM135.681 6.436H136.843V15.9H135.681V6.436ZM128.709 17.86H137.137V18.812H128.709V17.86ZM128.709 14.85H129.871V18.294H128.709V14.85ZM139.152 12.484H139.95C140.622 12.484 141.21 12.4793 141.714 12.47C142.228 12.4513 142.708 12.4187 143.156 12.372C143.604 12.316 144.062 12.2413 144.528 12.148L144.654 13.1C144.169 13.1933 143.693 13.268 143.226 13.324C142.769 13.3707 142.279 13.4033 141.756 13.422C141.234 13.4407 140.632 13.45 139.95 13.45H139.152V12.484ZM139.152 7.346H144.038V8.298H140.272V13.002H139.152V7.346ZM139.922 9.866H143.898V10.776H139.922V9.866ZM148.168 6.436H149.274V14.108H148.168V6.436ZM146.124 9.726H148.504V10.678H146.124V9.726ZM145.368 6.674H146.46V14.024H145.368V6.674ZM140.79 14.766H149.274V19.092H148.126V15.718H140.79V14.766ZM150.757 8.592H157.043V9.544H150.757V8.592ZM153.907 10.384C154.439 10.384 154.906 10.5053 155.307 10.748C155.718 10.9907 156.04 11.3313 156.273 11.77C156.506 12.1993 156.623 12.6987 156.623 13.268C156.623 13.8373 156.506 14.3413 156.273 14.78C156.04 15.2093 155.718 15.55 155.307 15.802C154.906 16.0447 154.439 16.166 153.907 16.166C153.384 16.166 152.918 16.0447 152.507 15.802C152.096 15.55 151.774 15.2093 151.541 14.78C151.308 14.3413 151.191 13.8373 151.191 13.268C151.191 12.6987 151.308 12.1993 151.541 11.77C151.774 11.3407 152.096 11.0047 152.507 10.762C152.918 10.51 153.384 10.384 153.907 10.384ZM153.907 11.364C153.59 11.364 153.3 11.448 153.039 11.616C152.787 11.7747 152.586 11.9987 152.437 12.288C152.297 12.568 152.227 12.8947 152.227 13.268C152.227 13.6413 152.297 13.9727 152.437 14.262C152.586 14.5513 152.787 14.7753 153.039 14.934C153.3 15.0927 153.59 15.172 153.907 15.172C154.234 15.172 154.523 15.0927 154.775 14.934C155.027 14.7753 155.223 14.5513 155.363 14.262C155.512 13.9727 155.587 13.6413 155.587 13.268C155.587 12.8947 155.512 12.568 155.363 12.288C155.223 11.9987 155.027 11.7747 154.775 11.616C154.523 11.448 154.234 11.364 153.907 11.364ZM160.389 6.422H161.495V19.092H160.389V6.422ZM158.359 11.756H160.753V12.708H158.359V11.756ZM157.673 6.716H158.765V18.476H157.673V6.716ZM153.333 6.8H154.481V9.166H153.333V6.8ZM171.27 7.682H172.278V8.214C172.278 8.662 172.189 9.08667 172.012 9.488C171.834 9.88933 171.587 10.2627 171.27 10.608C170.952 10.944 170.584 11.2427 170.164 11.504C169.744 11.7653 169.291 11.9893 168.806 12.176C168.33 12.3533 167.835 12.484 167.322 12.568L166.874 11.644C167.322 11.588 167.756 11.4853 168.176 11.336C168.605 11.1773 169.006 10.9907 169.38 10.776C169.753 10.5613 170.08 10.3187 170.36 10.048C170.649 9.77733 170.873 9.488 171.032 9.18C171.19 8.86267 171.27 8.54067 171.27 8.214V7.682ZM171.564 7.682H172.572V8.214C172.572 8.54067 172.651 8.86267 172.81 9.18C172.968 9.488 173.188 9.77733 173.468 10.048C173.757 10.3187 174.088 10.5613 174.462 10.776C174.835 10.9907 175.232 11.1773 175.652 11.336C176.081 11.4853 176.52 11.588 176.968 11.644L176.534 12.568C176.02 12.484 175.521 12.3533 175.036 12.176C174.55 11.9893 174.098 11.7653 173.678 11.504C173.258 11.2427 172.889 10.944 172.572 10.608C172.254 10.2627 172.007 9.88933 171.83 9.488C171.652 9.08667 171.564 8.662 171.564 8.214V7.682ZM171.326 14.262H172.474V19.078H171.326V14.262ZM166.202 13.632H177.64V14.584H166.202V13.632ZM167.28 7.206H176.548V8.144H167.28V7.206ZM183.364 10.958H185.8V11.924H183.364V10.958ZM181.012 7.612H181.922V10.034C181.922 10.6873 181.852 11.3313 181.712 11.966C181.582 12.6007 181.386 13.198 181.124 13.758C180.872 14.318 180.564 14.822 180.2 15.27C179.836 15.718 179.426 16.082 178.968 16.362L178.24 15.494C178.67 15.2327 179.057 14.906 179.402 14.514C179.748 14.122 180.037 13.6833 180.27 13.198C180.513 12.7033 180.695 12.19 180.816 11.658C180.947 11.1167 181.012 10.5753 181.012 10.034V7.612ZM181.236 7.612H182.132V9.992C182.132 10.496 182.188 11.0047 182.3 11.518C182.422 12.022 182.59 12.5073 182.804 12.974C183.028 13.4313 183.304 13.8513 183.63 14.234C183.957 14.6167 184.326 14.934 184.736 15.186L184.078 16.082C183.621 15.802 183.215 15.4473 182.86 15.018C182.506 14.5793 182.207 14.0893 181.964 13.548C181.722 12.9973 181.54 12.4187 181.418 11.812C181.297 11.2053 181.236 10.5987 181.236 9.992V7.612ZM188.026 6.422H189.146V19.092H188.026V6.422ZM185.45 6.688H186.542V18.448H185.45V6.688ZM193.373 12.946H194.521V16.726H193.373V12.946ZM198.049 12.946H199.211V16.726H198.049V12.946ZM190.559 16.502H202.039V17.468H190.559V16.502ZM196.271 7.22C197.167 7.22 197.961 7.35533 198.651 7.626C199.342 7.89667 199.883 8.27467 200.275 8.76C200.677 9.24533 200.877 9.81933 200.877 10.482C200.877 11.1353 200.677 11.7093 200.275 12.204C199.883 12.6893 199.342 13.0673 198.651 13.338C197.961 13.5993 197.167 13.73 196.271 13.73C195.385 13.73 194.591 13.5993 193.891 13.338C193.201 13.0673 192.659 12.6893 192.267 12.204C191.875 11.7093 191.679 11.1353 191.679 10.482C191.679 9.81933 191.875 9.24533 192.267 8.76C192.659 8.27467 193.201 7.89667 193.891 7.626C194.591 7.35533 195.385 7.22 196.271 7.22ZM196.271 8.144C195.599 8.144 195.002 8.242 194.479 8.438C193.957 8.634 193.546 8.90933 193.247 9.264C192.949 9.60933 192.799 10.0153 192.799 10.482C192.799 10.9487 192.949 11.3593 193.247 11.714C193.546 12.0593 193.957 12.33 194.479 12.526C195.002 12.722 195.599 12.82 196.271 12.82C196.953 12.82 197.555 12.722 198.077 12.526C198.6 12.33 199.011 12.0593 199.309 11.714C199.608 11.3593 199.757 10.9487 199.757 10.482C199.757 10.0153 199.608 9.60933 199.309 9.264C199.011 8.90933 198.6 8.634 198.077 8.438C197.555 8.242 196.953 8.144 196.271 8.144ZM203.863 18.0646C203.714 18.0646 203.586 18.0133 203.48 17.9105C203.377 17.8045 203.326 17.6768 203.326 17.5277C203.326 17.3819 203.377 17.2559 203.48 17.1499C203.586 17.0438 203.714 16.9908 203.863 16.9908C204.009 16.9908 204.135 17.0438 204.241 17.1499C204.347 17.2559 204.4 17.3819 204.4 17.5277C204.4 17.6271 204.375 17.7183 204.325 17.8011C204.279 17.8807 204.214 17.9453 204.131 17.995C204.052 18.0414 203.962 18.0646 203.863 18.0646ZM209.812 13.7045C209.812 12.571 209.95 11.4706 210.225 10.4034C210.503 9.33286 210.903 8.31203 211.423 7.34091H211.99C211.744 7.79167 211.526 8.27391 211.333 8.78764C211.141 9.29806 210.977 9.8267 210.841 10.3736C210.709 10.9205 210.606 11.474 210.533 12.0341C210.463 12.5942 210.429 13.151 210.429 13.7045C210.429 14.4437 210.492 15.1877 210.618 15.9368C210.743 16.6858 210.922 17.4117 211.154 18.1143C211.39 18.817 211.668 19.4683 211.99 20.0682H211.423C210.903 19.0904 210.503 18.0679 210.225 17.0007C209.95 15.9302 209.812 14.8314 209.812 13.7045ZM217.999 12.75H219.147V14.962H217.999V12.75ZM212.861 12.344H224.299V13.296H212.861V12.344ZM218.573 14.612C219.926 14.612 220.986 14.8033 221.751 15.186C222.516 15.5687 222.899 16.1193 222.899 16.838C222.899 17.5473 222.516 18.0933 221.751 18.476C220.986 18.868 219.926 19.064 218.573 19.064C217.22 19.064 216.156 18.868 215.381 18.476C214.616 18.0933 214.233 17.5473 214.233 16.838C214.233 16.1193 214.616 15.5687 215.381 15.186C216.156 14.8033 217.22 14.612 218.573 14.612ZM218.573 15.522C217.91 15.522 217.341 15.5733 216.865 15.676C216.398 15.7787 216.039 15.928 215.787 16.124C215.535 16.32 215.409 16.558 215.409 16.838C215.409 17.118 215.535 17.356 215.787 17.552C216.039 17.748 216.398 17.8973 216.865 18C217.341 18.112 217.91 18.168 218.573 18.168C219.236 18.168 219.8 18.112 220.267 18C220.743 17.8973 221.107 17.748 221.359 17.552C221.611 17.356 221.737 17.118 221.737 16.838C221.737 16.558 221.611 16.32 221.359 16.124C221.107 15.928 220.743 15.7787 220.267 15.676C219.8 15.5733 219.236 15.522 218.573 15.522ZM217.831 7.472H218.853V7.85C218.853 8.26067 218.764 8.63867 218.587 8.984C218.419 9.32933 218.181 9.65133 217.873 9.95C217.565 10.2393 217.201 10.496 216.781 10.72C216.37 10.944 215.922 11.1307 215.437 11.28C214.952 11.42 214.443 11.5227 213.911 11.588L213.491 10.664C213.948 10.6173 214.387 10.538 214.807 10.426C215.236 10.3047 215.633 10.16 215.997 9.992C216.37 9.81467 216.692 9.614 216.963 9.39C217.234 9.166 217.444 8.92333 217.593 8.662C217.752 8.40067 217.831 8.13 217.831 7.85V7.472ZM218.307 7.472H219.329V7.85C219.329 8.13933 219.404 8.41467 219.553 8.676C219.712 8.928 219.926 9.166 220.197 9.39C220.468 9.60467 220.785 9.80067 221.149 9.978C221.522 10.146 221.919 10.2907 222.339 10.412C222.768 10.5333 223.212 10.6173 223.669 10.664L223.249 11.588C222.717 11.5227 222.208 11.42 221.723 11.28C221.238 11.1307 220.785 10.944 220.365 10.72C219.954 10.496 219.595 10.2393 219.287 9.95C218.979 9.66067 218.736 9.33867 218.559 8.984C218.391 8.62933 218.307 8.25133 218.307 7.85V7.472ZM213.911 7.01H223.263V7.948H213.911V7.01ZM225.04 12.946H236.478V13.912H225.04V12.946ZM230.178 11.07H231.34V13.254H230.178V11.07ZM226.314 15.144H235.064V19.092H233.902V16.082H226.314V15.144ZM226.552 6.716H227.7V8.158H233.832V6.716H234.98V11.462H226.552V6.716ZM227.7 9.054V10.524H233.832V9.054H227.7ZM246.952 9.404H250.13V10.37H246.952V9.404ZM243.634 7.192H244.572V8.746C244.572 9.558 244.428 10.3187 244.138 11.028C243.849 11.7373 243.443 12.358 242.92 12.89C242.398 13.4127 241.786 13.814 241.086 14.094L240.47 13.17C240.946 12.9927 241.376 12.7547 241.758 12.456C242.15 12.1573 242.482 11.812 242.752 11.42C243.032 11.028 243.247 10.608 243.396 10.16C243.555 9.70267 243.634 9.23133 243.634 8.746V7.192ZM243.844 7.192H244.782V8.788C244.782 9.22667 244.857 9.656 245.006 10.076C245.156 10.496 245.366 10.888 245.636 11.252C245.907 11.616 246.229 11.938 246.602 12.218C246.985 12.498 247.405 12.722 247.862 12.89L247.232 13.8C246.56 13.5293 245.968 13.1467 245.454 12.652C244.95 12.1573 244.554 11.5787 244.264 10.916C243.984 10.2533 243.844 9.544 243.844 8.788V7.192ZM249.71 6.436H250.872V15.9H249.71V6.436ZM242.738 17.86H251.166V18.812H242.738V17.86ZM242.738 14.85H243.9V18.294H242.738V14.85ZM253.181 12.484H253.979C254.651 12.484 255.239 12.4793 255.743 12.47C256.256 12.4513 256.737 12.4187 257.185 12.372C257.633 12.316 258.09 12.2413 258.557 12.148L258.683 13.1C258.198 13.1933 257.722 13.268 257.255 13.324C256.798 13.3707 256.308 13.4033 255.785 13.422C255.262 13.4407 254.66 13.45 253.979 13.45H253.181V12.484ZM253.181 7.346H258.067V8.298H254.301V13.002H253.181V7.346ZM253.951 9.866H257.927V10.776H253.951V9.866ZM262.197 6.436H263.303V14.108H262.197V6.436ZM260.153 9.726H262.533V10.678H260.153V9.726ZM259.397 6.674H260.489V14.024H259.397V6.674ZM254.819 14.766H263.303V19.092H262.155V15.718H254.819V14.766ZM276.62 6.422H277.782V19.078H276.62V6.422ZM277.474 11.56H279.798V12.526H277.474V11.56ZM273.386 7.78H274.52C274.52 8.984 274.324 10.1367 273.932 11.238C273.54 12.33 272.924 13.3427 272.084 14.276C271.244 15.2 270.138 16.0027 268.766 16.684L268.122 15.788C269.298 15.2 270.273 14.514 271.048 13.73C271.832 12.9367 272.415 12.0593 272.798 11.098C273.19 10.1273 273.386 9.082 273.386 7.962V7.78ZM268.71 7.78H273.974V8.746H268.71V7.78ZM281.784 9.936H290.366V10.888H281.784V9.936ZM281.784 6.674H282.932V10.356H281.784V6.674ZM280.23 12.358H291.682V13.31H280.23V12.358ZM285.942 14.43C287.296 14.43 288.355 14.6307 289.12 15.032C289.886 15.4333 290.268 16.0027 290.268 16.74C290.268 17.468 289.886 18.0327 289.12 18.434C288.355 18.8353 287.296 19.036 285.942 19.036C284.589 19.036 283.525 18.8353 282.75 18.434C281.985 18.0327 281.602 17.468 281.602 16.74C281.602 16.0027 281.985 15.4333 282.75 15.032C283.525 14.6307 284.589 14.43 285.942 14.43ZM285.928 15.354C285.275 15.354 284.71 15.41 284.234 15.522C283.768 15.6247 283.408 15.7787 283.156 15.984C282.904 16.1893 282.778 16.4413 282.778 16.74C282.778 17.0293 282.904 17.2813 283.156 17.496C283.408 17.7013 283.768 17.86 284.234 17.972C284.71 18.0747 285.275 18.126 285.928 18.126C286.6 18.126 287.17 18.0747 287.636 17.972C288.112 17.86 288.476 17.7013 288.728 17.496C288.98 17.2813 289.106 17.0293 289.106 16.74C289.106 16.4413 288.98 16.1893 288.728 15.984C288.476 15.7787 288.112 15.6247 287.636 15.522C287.17 15.41 286.6 15.354 285.928 15.354ZM294.757 13.7045C294.757 14.8381 294.618 15.9401 294.339 17.0107C294.064 18.0779 293.667 19.0971 293.146 20.0682H292.579C292.825 19.6174 293.043 19.1352 293.236 18.6214C293.428 18.111 293.59 17.5824 293.723 17.0355C293.859 16.4886 293.962 15.9351 294.031 15.375C294.104 14.8149 294.14 14.258 294.14 13.7045C294.14 12.9654 294.078 12.2214 293.952 11.4723C293.826 10.7232 293.647 9.9974 293.415 9.29474C293.183 8.59209 292.904 7.94081 292.579 7.34091H293.146C293.667 8.31865 294.064 9.3428 294.339 10.4134C294.618 11.4806 294.757 12.5777 294.757 13.7045Z" fill="#465054"/>
</svg>
