<svg width="121" height="22" viewBox="0 0 121 22" fill="none" xmlns="http://www.w3.org/2000/svg">
<path d="M1.818 4.716H9.306V15.318H1.818V4.716ZM7.866 5.904H3.294V14.112H7.866V5.904ZM12.726 3.114H14.22V19.422H12.726V3.114ZM23.8666 8.946H26.9986V10.188H23.8666V8.946ZM20.8426 4.644H22.0126V7.758C22.0126 8.598 21.9226 9.426 21.7426 10.242C21.5746 11.058 21.3226 11.826 20.9866 12.546C20.6626 13.266 20.2666 13.914 19.7986 14.49C19.3306 15.066 18.8026 15.534 18.2146 15.894L17.2786 14.778C17.8306 14.442 18.3286 14.022 18.7726 13.518C19.2166 13.014 19.5886 12.45 19.8886 11.826C20.2006 11.19 20.4346 10.53 20.5906 9.846C20.7586 9.15 20.8426 8.454 20.8426 7.758V4.644ZM21.1306 4.644H22.2826V7.704C22.2826 8.352 22.3546 9.006 22.4986 9.666C22.6546 10.314 22.8706 10.938 23.1466 11.538C23.4346 12.126 23.7886 12.666 24.2086 13.158C24.6286 13.65 25.1026 14.058 25.6306 14.382L24.7846 15.534C24.1966 15.174 23.6746 14.718 23.2186 14.166C22.7626 13.602 22.3786 12.972 22.0666 12.276C21.7546 11.568 21.5206 10.824 21.3646 10.044C21.2086 9.264 21.1306 8.484 21.1306 7.704V4.644ZM29.8606 3.114H31.3006V19.404H29.8606V3.114ZM26.5486 3.456H27.9526V18.576H26.5486V3.456ZM34.7732 4.536H42.1892V12.114H34.7732V4.536ZM40.7312 5.742H36.2312V10.908H40.7312V5.742ZM45.9152 3.132H47.4092V15.012H45.9152V3.132ZM41.7572 7.65H46.3292V8.856H41.7572V7.65ZM37.0232 17.82H47.8592V19.044H37.0232V17.82ZM37.0232 13.932H38.4992V18.36H37.0232V13.932ZM54.8778 5.454H56.1018V8.082C56.1018 8.946 55.9818 9.798 55.7418 10.638C55.5018 11.466 55.1658 12.252 54.7338 12.996C54.3138 13.728 53.8218 14.376 53.2578 14.94C52.6938 15.504 52.0878 15.948 51.4398 16.272L50.5758 15.084C51.1638 14.796 51.7158 14.406 52.2318 13.914C52.7598 13.422 53.2218 12.858 53.6178 12.222C54.0138 11.586 54.3198 10.914 54.5358 10.206C54.7638 9.498 54.8778 8.79 54.8778 8.082V5.454ZM55.1838 5.454H56.3898V8.082C56.3898 8.766 56.4978 9.45 56.7138 10.134C56.9418 10.806 57.2538 11.442 57.6498 12.042C58.0578 12.63 58.5198 13.152 59.0358 13.608C59.5638 14.064 60.1278 14.424 60.7278 14.688L59.8998 15.876C59.2398 15.564 58.6218 15.144 58.0458 14.616C57.4698 14.088 56.9658 13.482 56.5338 12.798C56.1138 12.102 55.7838 11.358 55.5438 10.566C55.3038 9.762 55.1838 8.934 55.1838 8.082V5.454ZM51.0978 4.788H60.1878V6.03H51.0978V4.788ZM62.4018 3.114H63.8958V19.404H62.4018V3.114ZM73.0429 4.536H80.6389V12.114H73.0429V4.536ZM79.1809 5.742H74.5009V10.908H79.1809V5.742ZM84.0409 3.132H85.5349V14.832H84.0409V3.132ZM75.0769 17.64H86.0389V18.864H75.0769V17.64ZM75.0769 13.716H76.5709V18.144H75.0769V13.716ZM99.8975 3.114H101.391V12.348H99.8975V3.114ZM100.977 7.074H103.785V8.316H100.977V7.074ZM95.3795 4.176H96.9635C96.9635 5.544 96.6575 6.78 96.0455 7.884C95.4455 8.976 94.5755 9.912 93.4355 10.692C92.2955 11.472 90.9275 12.084 89.3315 12.528L88.7375 11.322C90.1535 10.95 91.3535 10.446 92.3375 9.81C93.3215 9.162 94.0715 8.418 94.5875 7.578C95.1155 6.738 95.3795 5.82 95.3795 4.824V4.176ZM89.4575 4.176H96.2255V5.382H89.4575V4.176ZM91.1315 13.104H101.391V19.17H91.1315V13.104ZM99.9155 14.328H92.6075V17.964H99.9155V14.328ZM107.186 10.728H118.364V11.934H107.186V10.728ZM105.314 16.11H120.074V17.352H105.314V16.11ZM111.92 11.25H113.396V16.596H111.92V11.25ZM107.186 4.41H118.202V5.652H108.68V11.268H107.186V4.41Z" fill="black"/>
</svg>
