<svg width="88" height="24" viewBox="0 0 88 24" fill="none" xmlns="http://www.w3.org/2000/svg">
<path d="M12.042 3.114H13.536V11.322H12.042V3.114ZM13.122 6.48H15.93V7.74H13.122V6.48ZM1.674 3.834H3.168V10.08H1.674V3.834ZM1.674 9.288H2.97C4.134 9.288 5.328 9.24 6.552 9.144C7.776 9.036 9.048 8.85 10.368 8.586L10.548 9.828C9.18 10.104 7.878 10.296 6.642 10.404C5.406 10.5 4.182 10.548 2.97 10.548H1.674V9.288ZM3.186 12.114H13.536V16.11H4.716V18.576H3.24V14.958H12.042V13.302H3.186V12.114ZM3.24 17.964H14.112V19.188H3.24V17.964ZM29.5006 3.114H30.9946V19.404H29.5006V3.114ZM19.7806 4.554H20.8786V8.208C20.8786 8.856 20.8306 9.534 20.7346 10.242C20.6506 10.95 20.5066 11.646 20.3026 12.33C20.1106 13.002 19.8406 13.632 19.4926 14.22C19.1566 14.796 18.7246 15.276 18.1966 15.66L17.2426 14.598C17.7346 14.238 18.1426 13.806 18.4666 13.302C18.8026 12.786 19.0606 12.24 19.2406 11.664C19.4326 11.076 19.5706 10.488 19.6546 9.9C19.7386 9.3 19.7806 8.736 19.7806 8.208V4.554ZM20.0866 4.554H21.1846V8.208C21.1846 8.7 21.2146 9.24 21.2746 9.828C21.3466 10.416 21.4666 11.016 21.6346 11.628C21.8146 12.228 22.0606 12.798 22.3726 13.338C22.6966 13.878 23.1106 14.34 23.6146 14.724L22.7866 15.84C22.2346 15.444 21.7786 14.94 21.4186 14.328C21.0706 13.716 20.8006 13.056 20.6086 12.348C20.4166 11.628 20.2786 10.914 20.1946 10.206C20.1226 9.486 20.0866 8.82 20.0866 8.208V4.554ZM24.3706 4.554H25.4686V8.208C25.4686 8.844 25.4266 9.522 25.3426 10.242C25.2706 10.962 25.1386 11.676 24.9466 12.384C24.7546 13.092 24.4786 13.746 24.1186 14.346C23.7706 14.946 23.3266 15.444 22.7866 15.84L21.9406 14.724C22.4446 14.34 22.8526 13.89 23.1646 13.374C23.4886 12.846 23.7346 12.282 23.9026 11.682C24.0826 11.082 24.2026 10.488 24.2626 9.9C24.3346 9.3 24.3706 8.736 24.3706 8.208V4.554ZM24.6946 4.554H25.8106V8.208C25.8106 8.748 25.8466 9.318 25.9186 9.918C26.0026 10.518 26.1406 11.112 26.3326 11.7C26.5246 12.276 26.7826 12.816 27.1066 13.32C27.4306 13.824 27.8446 14.25 28.3486 14.598L27.4306 15.714C26.9026 15.33 26.4586 14.85 26.0986 14.274C25.7386 13.698 25.4566 13.068 25.2526 12.384C25.0606 11.7 24.9166 11.004 24.8206 10.296C24.7366 9.576 24.6946 8.88 24.6946 8.208V4.554ZM39.9257 4.536H47.5217V12.114H39.9257V4.536ZM46.0637 5.742H41.3837V10.908H46.0637V5.742ZM50.9237 3.132H52.4177V14.832H50.9237V3.132ZM41.9597 17.64H52.9217V18.864H41.9597V17.64ZM41.9597 13.716H43.4537V18.144H41.9597V13.716ZM66.7803 3.114H68.2743V12.348H66.7803V3.114ZM67.8603 7.074H70.6683V8.316H67.8603V7.074ZM62.2623 4.176H63.8463C63.8463 5.544 63.5403 6.78 62.9283 7.884C62.3283 8.976 61.4583 9.912 60.3183 10.692C59.1783 11.472 57.8103 12.084 56.2143 12.528L55.6203 11.322C57.0363 10.95 58.2363 10.446 59.2203 9.81C60.2043 9.162 60.9543 8.418 61.4703 7.578C61.9983 6.738 62.2623 5.82 62.2623 4.824V4.176ZM56.3403 4.176H63.1083V5.382H56.3403V4.176ZM58.0143 13.104H68.2743V19.17H58.0143V13.104ZM66.7983 14.328H59.4903V17.964H66.7983V14.328ZM74.0689 10.728H85.2469V11.934H74.0689V10.728ZM72.1969 16.11H86.9569V17.352H72.1969V16.11ZM78.8029 11.25H80.2789V16.596H78.8029V11.25ZM74.0689 4.41H85.0849V5.652H75.5629V11.268H74.0689V4.41Z" fill="black"/>
</svg>
