<svg width="118" height="37" viewBox="0 0 118 37" fill="none" xmlns="http://www.w3.org/2000/svg">
<path d="M49.1249 6.024H54.1889V11.076H49.1249V6.024ZM53.2169 6.828H50.0969V10.272H53.2169V6.828ZM56.4569 5.088H57.4529V12.888H56.4569V5.088ZM50.4809 14.76H57.7889V15.576H50.4809V14.76ZM50.4809 12.144H51.4769V15.096H50.4809V12.144ZM67.028 5.076H68.024V11.232H67.028V5.076ZM67.748 7.716H69.62V8.544H67.748V7.716ZM64.016 5.784H65.072C65.072 6.696 64.868 7.52 64.46 8.256C64.06 8.984 63.48 9.608 62.72 10.128C61.96 10.648 61.048 11.056 59.984 11.352L59.588 10.548C60.532 10.3 61.332 9.964 61.988 9.54C62.644 9.108 63.144 8.612 63.488 8.052C63.84 7.492 64.016 6.88 64.016 6.216V5.784ZM60.068 5.784H64.58V6.588H60.068V5.784ZM61.184 11.736H68.024V15.78H61.184V11.736ZM67.04 12.552H62.168V14.976H67.04V12.552Z" fill="#465054"/>
</svg>
