<svg width="72" height="22" viewBox="0 0 72 22" fill="none" xmlns="http://www.w3.org/2000/svg">
<path d="M9.252 6.948H13.338V8.19H9.252V6.948ZM4.986 4.104H6.192V6.102C6.192 7.146 6.006 8.124 5.634 9.036C5.262 9.948 4.74 10.746 4.068 11.43C3.396 12.102 2.61 12.618 1.71 12.978L0.918 11.79C1.53 11.562 2.082 11.256 2.574 10.872C3.078 10.488 3.504 10.044 3.852 9.54C4.212 9.036 4.488 8.496 4.68 7.92C4.884 7.332 4.986 6.726 4.986 6.102V4.104ZM5.256 4.104H6.462V6.156C6.462 6.72 6.558 7.272 6.75 7.812C6.942 8.352 7.212 8.856 7.56 9.324C7.908 9.792 8.322 10.206 8.802 10.566C9.294 10.926 9.834 11.214 10.422 11.43L9.612 12.6C8.748 12.252 7.986 11.76 7.326 11.124C6.678 10.488 6.168 9.744 5.796 8.892C5.436 8.04 5.256 7.128 5.256 6.156V4.104ZM12.798 3.132H14.292V15.3H12.798V3.132ZM3.834 17.82H14.67V19.044H3.834V17.82ZM3.834 13.95H5.328V18.378H3.834V13.95ZM18.1786 5.508H31.4086V6.732H18.1786V5.508ZM17.4586 16.272H32.2186V17.496H17.4586V16.272ZM24.0646 13.68H25.5406V16.74H24.0646V13.68ZM24.8026 7.812C25.8946 7.812 26.8366 7.938 27.6286 8.19C28.4326 8.43 29.0506 8.778 29.4826 9.234C29.9146 9.69 30.1306 10.248 30.1306 10.908C30.1306 11.556 29.9146 12.114 29.4826 12.582C29.0506 13.05 28.4326 13.41 27.6286 13.662C26.8366 13.902 25.8946 14.022 24.8026 14.022C23.7106 14.022 22.7626 13.902 21.9586 13.662C21.1666 13.41 20.5546 13.05 20.1226 12.582C19.6906 12.114 19.4746 11.556 19.4746 10.908C19.4746 10.248 19.6906 9.69 20.1226 9.234C20.5546 8.778 21.1666 8.43 21.9586 8.19C22.7626 7.938 23.7106 7.812 24.8026 7.812ZM24.8026 9C24.0106 9 23.3266 9.078 22.7506 9.234C22.1866 9.378 21.7486 9.594 21.4366 9.882C21.1366 10.158 20.9866 10.5 20.9866 10.908C20.9866 11.304 21.1366 11.646 21.4366 11.934C21.7486 12.222 22.1866 12.444 22.7506 12.6C23.3266 12.744 24.0106 12.816 24.8026 12.816C25.5946 12.816 26.2726 12.744 26.8366 12.6C27.4006 12.444 27.8386 12.222 28.1506 11.934C28.4626 11.646 28.6186 11.304 28.6186 10.908C28.6186 10.5 28.4626 10.158 28.1506 9.882C27.8386 9.594 27.4006 9.378 26.8366 9.234C26.2726 9.078 25.5946 9 24.8026 9ZM24.0646 3.384H25.5406V6.246H24.0646V3.384ZM50.2037 3.114H51.6977V12.726H50.2037V3.114ZM51.0677 7.272H54.0737V8.532H51.0677V7.272ZM41.1497 13.464H51.6977V16.758H42.6617V18.468H41.1857V15.768H50.2217V14.508H41.1497V13.464ZM41.1857 18.162H52.3097V19.224H41.1857V18.162ZM43.3457 9.792H44.8217V11.862H43.3457V9.792ZM39.1697 12.348L38.9897 11.25C39.9497 11.25 41.0117 11.244 42.1757 11.232C43.3397 11.208 44.5277 11.166 45.7397 11.106C46.9517 11.034 48.1157 10.92 49.2317 10.764L49.3397 11.736C48.1877 11.928 47.0057 12.072 45.7937 12.168C44.5937 12.252 43.4237 12.306 42.2837 12.33C41.1557 12.342 40.1177 12.348 39.1697 12.348ZM39.4037 4.356H48.7457V5.418H39.4037V4.356ZM44.0657 5.94C45.2177 5.94 46.1357 6.126 46.8197 6.498C47.5157 6.87 47.8637 7.392 47.8637 8.064C47.8637 8.748 47.5157 9.282 46.8197 9.666C46.1357 10.038 45.2177 10.224 44.0657 10.224C42.9137 10.224 41.9897 10.038 41.2937 9.666C40.6097 9.282 40.2677 8.748 40.2677 8.064C40.2677 7.392 40.6097 6.87 41.2937 6.498C41.9897 6.126 42.9137 5.94 44.0657 5.94ZM44.0657 6.93C43.3337 6.93 42.7517 7.032 42.3197 7.236C41.8997 7.44 41.6897 7.716 41.6897 8.064C41.6897 8.424 41.8997 8.712 42.3197 8.928C42.7517 9.132 43.3337 9.234 44.0657 9.234C44.7977 9.234 45.3737 9.132 45.7937 8.928C46.2257 8.712 46.4417 8.424 46.4417 8.064C46.4417 7.716 46.2257 7.44 45.7937 7.236C45.3737 7.032 44.7977 6.93 44.0657 6.93ZM43.3457 2.97H44.8217V4.914H43.3457V2.97ZM55.6383 11.142H70.3623V12.348H55.6383V11.142ZM62.2623 8.532H63.7203V11.646H62.2623V8.532ZM57.4923 8.064H68.6343V9.27H57.4923V8.064ZM57.4923 3.87H68.5263V5.058H58.9683V8.784H57.4923V3.87ZM62.9823 13.518C64.7223 13.518 66.0843 13.776 67.0683 14.292C68.0523 14.796 68.5443 15.516 68.5443 16.452C68.5443 17.388 68.0523 18.108 67.0683 18.612C66.0843 19.128 64.7223 19.386 62.9823 19.386C61.2423 19.386 59.8743 19.128 58.8783 18.612C57.8943 18.108 57.4023 17.388 57.4023 16.452C57.4023 15.516 57.8943 14.796 58.8783 14.292C59.8743 13.776 61.2423 13.518 62.9823 13.518ZM62.9643 14.688C62.1243 14.688 61.3983 14.76 60.7863 14.904C60.1863 15.036 59.7243 15.234 59.4003 15.498C59.0763 15.75 58.9143 16.068 58.9143 16.452C58.9143 16.824 59.0763 17.142 59.4003 17.406C59.7243 17.67 60.1863 17.868 60.7863 18C61.3983 18.144 62.1243 18.216 62.9643 18.216C63.8283 18.216 64.5603 18.144 65.1603 18C65.7723 17.868 66.2403 17.67 66.5643 17.406C66.8883 17.142 67.0503 16.824 67.0503 16.452C67.0503 16.068 66.8883 15.75 66.5643 15.498C66.2403 15.234 65.7723 15.036 65.1603 14.904C64.5603 14.76 63.8283 14.688 62.9643 14.688Z" fill="black"/>
</svg>
