<svg width="379" height="60" viewBox="0 0 379 60" fill="none" xmlns="http://www.w3.org/2000/svg">
<path d="M20.5 22.5192C20.2083 22.5192 19.9432 22.4496 19.7045 22.3104C19.4659 22.1679 19.2753 21.9773 19.1328 21.7386C18.9936 21.4967 18.924 21.2315 18.924 20.9432C18.924 20.6515 18.9936 20.3864 19.1328 20.1477C19.2753 19.9091 19.4659 19.7202 19.7045 19.581C19.9432 19.4384 20.2083 19.3672 20.5 19.3672C20.7884 19.3672 21.0518 19.4384 21.2905 19.581C21.5324 19.7202 21.7247 19.9091 21.8672 20.1477C22.0097 20.3864 22.0793 20.6515 22.076 20.9432C22.076 21.2315 22.0047 21.4967 21.8622 21.7386C21.7197 21.9773 21.5291 22.1679 21.2905 22.3104C21.0518 22.4496 20.7884 22.5192 20.5 22.5192ZM40.912 13.422H42.074V20.226H40.912V13.422ZM33.926 20.856H35.06V22.382H40.926V20.856H42.074V25.924H33.926V20.856ZM35.06 23.306V24.972H40.926V23.306H35.06ZM35.284 14.024C35.928 14.024 36.4973 14.15 36.992 14.402C37.4867 14.6447 37.874 14.9853 38.154 15.424C38.4433 15.8627 38.588 16.3713 38.588 16.95C38.588 17.5193 38.4433 18.028 38.154 18.476C37.874 18.9147 37.4867 19.2553 36.992 19.498C36.4973 19.7407 35.928 19.862 35.284 19.862C34.6493 19.862 34.08 19.7407 33.576 19.498C33.0813 19.2553 32.6893 18.9147 32.4 18.476C32.12 18.028 31.98 17.5193 31.98 16.95C31.98 16.3713 32.12 15.8627 32.4 15.424C32.6893 14.9853 33.0813 14.6447 33.576 14.402C34.08 14.15 34.6493 14.024 35.284 14.024ZM35.284 15.004C34.864 15.004 34.4907 15.088 34.164 15.256C33.8373 15.4147 33.5807 15.6433 33.394 15.942C33.2073 16.2313 33.114 16.5673 33.114 16.95C33.114 17.3233 33.2073 17.6593 33.394 17.958C33.5807 18.2473 33.8373 18.476 34.164 18.644C34.4907 18.812 34.864 18.896 35.284 18.896C35.704 18.896 36.0773 18.812 36.404 18.644C36.7307 18.476 36.9873 18.2473 37.174 17.958C37.3607 17.6593 37.454 17.3233 37.454 16.95C37.454 16.5673 37.3607 16.2313 37.174 15.942C36.9873 15.6433 36.7307 15.4147 36.404 15.256C36.0773 15.088 35.704 15.004 35.284 15.004ZM44.4109 19.708H45.3069C46.1376 19.708 46.8469 19.7033 47.4349 19.694C48.0322 19.6753 48.5736 19.6427 49.0589 19.596C49.5536 19.5493 50.0529 19.4793 50.5569 19.386L50.6689 20.338C50.2862 20.4033 49.9082 20.4593 49.5349 20.506C49.1616 20.5433 48.7696 20.5713 48.3589 20.59C47.9482 20.6087 47.4956 20.6227 47.0009 20.632C46.5062 20.6413 45.9416 20.646 45.3069 20.646H44.4109V19.708ZM44.3829 14.192H49.8289V17.776H45.5589V20.268H44.4109V16.88H48.6809V15.13H44.3829V14.192ZM53.1329 13.436H54.2949V21.22H53.1329V13.436ZM50.6689 15.312H53.3989V16.25H50.6689V15.312ZM50.6689 17.93H53.3989V18.882H50.6689V17.93ZM45.8249 21.892H54.2949V26.106H53.1329V22.844H45.8249V21.892ZM64.7238 13.436H65.8858V22.928H64.7238V13.436ZM65.5218 17.594H67.7478V18.56H65.5218V17.594ZM56.0858 14.976H63.5618V15.914H56.0858V14.976ZM59.8238 16.6C60.4211 16.6 60.9485 16.7027 61.4058 16.908C61.8631 17.104 62.2178 17.3793 62.4698 17.734C62.7218 18.0793 62.8478 18.49 62.8478 18.966C62.8478 19.442 62.7218 19.8573 62.4698 20.212C62.2178 20.5573 61.8631 20.828 61.4058 21.024C60.9485 21.22 60.4211 21.318 59.8238 21.318C59.2265 21.318 58.6991 21.22 58.2418 21.024C57.7845 20.828 57.4251 20.5573 57.1638 20.212C56.9118 19.8573 56.7858 19.442 56.7858 18.966C56.7858 18.49 56.9118 18.0793 57.1638 17.734C57.4251 17.3793 57.7845 17.104 58.2418 16.908C58.6991 16.7027 59.2265 16.6 59.8238 16.6ZM59.8238 17.51C59.2545 17.51 58.7925 17.6453 58.4378 17.916C58.0831 18.1773 57.9058 18.5273 57.9058 18.966C57.9058 19.4047 58.0831 19.7547 58.4378 20.016C58.7925 20.2773 59.2545 20.408 59.8238 20.408C60.4025 20.408 60.8645 20.2773 61.2098 20.016C61.5645 19.7547 61.7418 19.4047 61.7418 18.966C61.7418 18.5273 61.5645 18.1773 61.2098 17.916C60.8645 17.6453 60.4025 17.51 59.8238 17.51ZM59.2498 13.436H60.4118V15.452H59.2498V13.436ZM58.0038 24.86H66.4458V25.812H58.0038V24.86ZM58.0038 22.172H59.1518V25.252H58.0038V22.172ZM78.2362 16.712H81.0782V17.678H78.2362V16.712ZM80.7282 13.422H81.8902V20.968H80.7282V13.422ZM77.7182 21.36C78.5956 21.36 79.3469 21.4533 79.9722 21.64C80.6069 21.8267 81.0922 22.0973 81.4282 22.452C81.7642 22.7973 81.9322 23.222 81.9322 23.726C81.9322 24.4727 81.5542 25.0513 80.7982 25.462C80.0516 25.8727 79.0249 26.078 77.7182 26.078C76.4116 26.078 75.3802 25.8727 74.6242 25.462C73.8776 25.0513 73.5042 24.4727 73.5042 23.726C73.5042 23.222 73.6722 22.7973 74.0082 22.452C74.3536 22.0973 74.8389 21.8267 75.4642 21.64C76.0989 21.4533 76.8502 21.36 77.7182 21.36ZM77.7182 22.27C77.0836 22.27 76.5376 22.326 76.0802 22.438C75.6229 22.55 75.2682 22.7133 75.0162 22.928C74.7736 23.1427 74.6522 23.4087 74.6522 23.726C74.6522 24.0247 74.7736 24.2813 75.0162 24.496C75.2682 24.7107 75.6229 24.8787 76.0802 25C76.5376 25.112 77.0836 25.168 77.7182 25.168C78.3622 25.168 78.9082 25.112 79.3562 25C79.8136 24.8787 80.1636 24.7107 80.4062 24.496C80.6582 24.2813 80.7842 24.0247 80.7842 23.726C80.7842 23.4087 80.6582 23.1427 80.4062 22.928C80.1636 22.7133 79.8136 22.55 79.3562 22.438C78.9082 22.326 78.3622 22.27 77.7182 22.27ZM74.6942 14.71H75.6462V15.732C75.6462 16.5067 75.4969 17.2347 75.1982 17.916C74.9089 18.588 74.4982 19.1807 73.9662 19.694C73.4342 20.198 72.8182 20.5853 72.1182 20.856L71.5162 19.932C71.9922 19.764 72.4216 19.5353 72.8042 19.246C73.1962 18.9567 73.5322 18.6253 73.8122 18.252C74.1016 17.8787 74.3209 17.4773 74.4702 17.048C74.6196 16.6187 74.6942 16.18 74.6942 15.732V14.71ZM74.9182 14.71H75.8702V15.718C75.8702 16.2593 75.9962 16.7867 76.2482 17.3C76.5002 17.8133 76.8596 18.266 77.3262 18.658C77.7929 19.05 78.3296 19.358 78.9362 19.582L78.3482 20.506C77.6576 20.254 77.0556 19.89 76.5422 19.414C76.0289 18.9287 75.6276 18.3687 75.3382 17.734C75.0582 17.0993 74.9182 16.4273 74.9182 15.718V14.71ZM71.8802 14.346H78.6422V15.298H71.8802V14.346ZM83.6531 23.516H95.1331V24.482H83.6531V23.516ZM88.7911 20.478H89.9391V23.796H88.7911V20.478ZM84.9971 14.318H86.1591V16.572H92.5991V14.318H93.7471V20.8H84.9971V14.318ZM86.1591 17.524V19.848H92.5991V17.524H86.1591ZM97.372 17.23H105.982V18.168H97.372V17.23ZM95.818 19.862H107.298V20.814H95.818V19.862ZM97.372 13.884H98.52V17.706H97.372V13.884ZM97.288 24.832H106.052V25.784H97.288V24.832ZM97.288 22.088H98.45V25.084H97.288V22.088ZM111.248 23.558H122.728V24.524H111.248V23.558ZM116.386 20.856H117.534V23.964H116.386V20.856ZM112.648 14.36H121.3V18.196H113.824V20.73H112.676V17.272H120.152V15.312H112.648V14.36ZM112.676 20.24H121.594V21.192H112.676V20.24ZM129.965 16.46H132.891V17.412H129.965V16.46ZM128.719 14.038H129.923C129.923 15.0927 129.718 16.0353 129.307 16.866C128.906 17.6967 128.281 18.406 127.431 18.994C126.591 19.582 125.518 20.0487 124.211 20.394L123.777 19.484C124.655 19.26 125.406 18.9847 126.031 18.658C126.657 18.3313 127.165 17.958 127.557 17.538C127.959 17.118 128.253 16.6607 128.439 16.166C128.626 15.662 128.719 15.1253 128.719 14.556V14.038ZM124.365 14.038H129.475V14.962H124.365V14.038ZM128.775 16.194V16.978L123.931 17.342L123.735 16.418L128.775 16.194ZM132.681 13.422H133.843V19.974H132.681V13.422ZM125.695 20.548H133.843V23.6H126.857V25.532H125.723V22.732H132.695V21.486H125.695V20.548ZM125.723 24.986H134.263V25.924H125.723V24.986ZM140.744 18.35H143.124V19.302H140.744V18.35ZM145.252 13.422H146.372V26.092H145.252V13.422ZM142.732 13.688H143.838V25.448H142.732V13.688ZM138.448 14.486C138.999 14.486 139.475 14.6633 139.876 15.018C140.287 15.3727 140.604 15.8813 140.828 16.544C141.052 17.2067 141.164 17.986 141.164 18.882C141.164 19.7873 141.052 20.5713 140.828 21.234C140.604 21.8967 140.287 22.41 139.876 22.774C139.475 23.1287 138.999 23.306 138.448 23.306C137.916 23.306 137.445 23.1287 137.034 22.774C136.633 22.41 136.32 21.8967 136.096 21.234C135.872 20.5713 135.76 19.7873 135.76 18.882C135.76 17.986 135.872 17.2067 136.096 16.544C136.32 15.8813 136.633 15.3727 137.034 15.018C137.445 14.6633 137.916 14.486 138.448 14.486ZM138.448 15.564C138.122 15.564 137.837 15.6993 137.594 15.97C137.352 16.2407 137.165 16.6233 137.034 17.118C136.904 17.6127 136.838 18.2007 136.838 18.882C136.838 19.5633 136.904 20.156 137.034 20.66C137.165 21.1547 137.352 21.5373 137.594 21.808C137.837 22.0787 138.122 22.214 138.448 22.214C138.784 22.214 139.074 22.0787 139.316 21.808C139.568 21.5373 139.76 21.1547 139.89 20.66C140.021 20.156 140.086 19.5633 140.086 18.882C140.086 18.2007 140.021 17.6127 139.89 17.118C139.76 16.6233 139.568 16.2407 139.316 15.97C139.074 15.6993 138.784 15.564 138.448 15.564ZM148.303 14.57H154.127V20.422H148.303V14.57ZM152.993 15.508H149.437V19.484H152.993V15.508ZM156.451 13.422H157.613V22.704H156.451V13.422ZM157.249 17.272H159.475V18.238H157.249V17.272ZM149.731 24.86H158.173V25.812H149.731V24.86ZM149.731 21.822H150.879V25.266H149.731V21.822ZM172.456 13.422H173.618V26.106H172.456V13.422ZM169.74 18.028H172.792V18.98H169.74V18.028ZM166.408 15.228H167.346V17.132C167.346 17.8133 167.252 18.4853 167.066 19.148C166.888 19.8013 166.636 20.4173 166.31 20.996C165.992 21.5747 165.614 22.088 165.176 22.536C164.746 22.984 164.284 23.3387 163.79 23.6L163.09 22.676C163.547 22.452 163.976 22.144 164.378 21.752C164.779 21.36 165.129 20.9167 165.428 20.422C165.736 19.918 165.974 19.386 166.142 18.826C166.319 18.2567 166.408 17.692 166.408 17.132V15.228ZM166.66 15.228H167.584V17.132C167.584 17.6547 167.668 18.1867 167.836 18.728C168.004 19.26 168.237 19.764 168.536 20.24C168.844 20.716 169.198 21.1453 169.6 21.528C170.001 21.9013 170.43 22.1953 170.888 22.41L170.202 23.334C169.698 23.082 169.231 22.7413 168.802 22.312C168.372 21.8827 167.994 21.3927 167.668 20.842C167.35 20.282 167.103 19.6847 166.926 19.05C166.748 18.4153 166.66 17.776 166.66 17.132V15.228ZM163.566 14.724H170.44V15.676H163.566V14.724ZM178.502 14.78H179.454V15.802C179.454 16.586 179.305 17.3093 179.006 17.972C178.717 18.6347 178.306 19.2133 177.774 19.708C177.252 20.2027 176.631 20.5807 175.912 20.842L175.324 19.918C175.959 19.694 176.514 19.3767 176.99 18.966C177.466 18.546 177.835 18.0653 178.096 17.524C178.367 16.9827 178.502 16.4087 178.502 15.802V14.78ZM178.712 14.78H179.664V15.802C179.664 16.3527 179.79 16.8753 180.042 17.37C180.294 17.8647 180.649 18.2987 181.106 18.672C181.564 19.0453 182.1 19.3393 182.716 19.554L182.17 20.464C181.461 20.2213 180.85 19.8713 180.336 19.414C179.823 18.9567 179.422 18.42 179.132 17.804C178.852 17.1787 178.712 16.5113 178.712 15.802V14.78ZM175.674 14.36H182.45V15.312H175.674V14.36ZM184.046 13.422H185.208V21.052H184.046V13.422ZM184.886 16.642H187.07V17.608H184.886V16.642ZM181.176 21.402C182.035 21.402 182.772 21.4953 183.388 21.682C184.014 21.8593 184.494 22.1207 184.83 22.466C185.166 22.8113 185.334 23.2313 185.334 23.726C185.334 24.2207 185.166 24.6407 184.83 24.986C184.494 25.3313 184.014 25.5973 183.388 25.784C182.772 25.9707 182.035 26.064 181.176 26.064C180.318 26.064 179.576 25.9707 178.95 25.784C178.325 25.5973 177.844 25.3313 177.508 24.986C177.172 24.6407 177.004 24.2207 177.004 23.726C177.004 23.2313 177.172 22.8113 177.508 22.466C177.844 22.1207 178.325 21.8593 178.95 21.682C179.576 21.4953 180.318 21.402 181.176 21.402ZM181.176 22.326C180.551 22.326 180.01 22.382 179.552 22.494C179.104 22.606 178.759 22.7647 178.516 22.97C178.274 23.1753 178.152 23.4273 178.152 23.726C178.152 24.0247 178.274 24.2813 178.516 24.496C178.759 24.7013 179.104 24.86 179.552 24.972C180.01 25.084 180.551 25.14 181.176 25.14C181.802 25.14 182.338 25.084 182.786 24.972C183.234 24.86 183.58 24.7013 183.822 24.496C184.065 24.2813 184.186 24.0247 184.186 23.726C184.186 23.4273 184.065 23.1753 183.822 22.97C183.58 22.7647 183.234 22.606 182.786 22.494C182.338 22.382 181.802 22.326 181.176 22.326ZM188.567 18.882H195.035V19.834H188.567V18.882ZM191.157 19.638H192.319V22.55H191.157V19.638ZM188.567 14.626H194.979V15.564H189.715V19.218H188.567V14.626ZM196.715 13.422H197.877V26.106H196.715V13.422ZM187.783 23.362L187.629 22.382C188.46 22.382 189.342 22.3773 190.275 22.368C191.209 22.3493 192.156 22.3167 193.117 22.27C194.079 22.214 195.003 22.1347 195.889 22.032L195.987 22.886C195.063 23.026 194.121 23.1333 193.159 23.208C192.207 23.2733 191.274 23.3153 190.359 23.334C189.454 23.3527 188.595 23.362 187.783 23.362ZM205.548 16.46H209.454V17.412H205.548V16.46ZM205.548 19.946H209.454V20.898H205.548V19.946ZM200.242 14.668H205.996V22.886H200.242V14.668ZM204.862 15.606H201.39V21.962H204.862V15.606ZM209.006 13.422H210.154V26.106H209.006V13.422ZM218.669 19.75H219.831V22.634H218.669V19.75ZM219.257 14.248C219.919 14.248 220.503 14.374 221.007 14.626C221.52 14.8687 221.921 15.214 222.211 15.662C222.5 16.11 222.645 16.6327 222.645 17.23C222.645 17.8087 222.5 18.3267 222.211 18.784C221.921 19.232 221.52 19.582 221.007 19.834C220.503 20.0767 219.919 20.198 219.257 20.198C218.603 20.198 218.02 20.0767 217.507 19.834C216.993 19.582 216.587 19.232 216.289 18.784C215.999 18.3267 215.855 17.8087 215.855 17.23C215.855 16.6327 215.999 16.11 216.289 15.662C216.587 15.214 216.993 14.8687 217.507 14.626C218.02 14.374 218.603 14.248 219.257 14.248ZM219.257 15.256C218.827 15.256 218.44 15.34 218.095 15.508C217.759 15.6667 217.493 15.8953 217.297 16.194C217.101 16.4833 217.003 16.8287 217.003 17.23C217.003 17.6127 217.101 17.958 217.297 18.266C217.493 18.5647 217.759 18.798 218.095 18.966C218.44 19.1247 218.827 19.204 219.257 19.204C219.695 19.204 220.083 19.1247 220.419 18.966C220.755 18.798 221.021 18.5647 221.217 18.266C221.413 17.958 221.511 17.6127 221.511 17.23C221.511 16.8287 221.413 16.4833 221.217 16.194C221.021 15.8953 220.755 15.6667 220.419 15.508C220.083 15.34 219.695 15.256 219.257 15.256ZM224.311 13.422H225.473V26.106H224.311V13.422ZM215.379 23.348L215.225 22.382C215.999 22.382 216.849 22.3773 217.773 22.368C218.697 22.3493 219.649 22.312 220.629 22.256C221.618 22.1907 222.57 22.088 223.485 21.948L223.583 22.802C222.631 22.9793 221.665 23.1053 220.685 23.18C219.714 23.2547 218.776 23.3013 217.871 23.32C216.965 23.3387 216.135 23.348 215.379 23.348ZM227.32 20.926H238.8V21.864H227.32V20.926ZM232.458 21.36H233.606V26.092H232.458V21.36ZM228.776 13.94H229.924V15.676H236.182V13.94H237.344V19.414H228.776V13.94ZM229.924 16.614V18.462H236.182V16.614H229.924ZM239.513 23.558H250.993V24.524H239.513V23.558ZM244.651 20.856H245.799V23.964H244.651V20.856ZM240.913 14.36H249.565V18.196H242.089V20.73H240.941V17.272H248.417V15.312H240.913V14.36ZM240.941 20.24H249.859V21.192H240.941V20.24ZM261.635 16.922H264.841V17.874H261.635V16.922ZM264.183 13.436H265.345V22.718H264.183V13.436ZM257.267 24.86H265.695V25.812H257.267V24.86ZM257.267 21.892H258.415V25.336H257.267V21.892ZM258.149 15.004H259.101V16.026C259.101 16.7913 258.952 17.5147 258.653 18.196C258.364 18.868 257.953 19.456 257.421 19.96C256.889 20.4547 256.273 20.8373 255.573 21.108L254.971 20.17C255.438 20.002 255.862 19.778 256.245 19.498C256.637 19.218 256.978 18.896 257.267 18.532C257.556 18.168 257.776 17.7713 257.925 17.342C258.074 16.9127 258.149 16.474 258.149 16.026V15.004ZM258.373 15.004H259.325V16.026C259.325 16.5673 259.451 17.0947 259.703 17.608C259.955 18.1213 260.314 18.5787 260.781 18.98C261.248 19.372 261.784 19.6753 262.391 19.89L261.803 20.814C261.112 20.562 260.51 20.198 259.997 19.722C259.484 19.2367 259.082 18.6767 258.793 18.042C258.513 17.4073 258.373 16.7353 258.373 16.026V15.004ZM255.335 14.458H262.097V15.41H255.335V14.458ZM272.246 17.86H273.394V20.212H272.246V17.86ZM272.232 13.618H273.226V14.192C273.226 14.64 273.137 15.0647 272.96 15.466C272.782 15.8673 272.53 16.236 272.204 16.572C271.886 16.908 271.518 17.2067 271.098 17.468C270.678 17.72 270.225 17.9393 269.74 18.126C269.254 18.3033 268.75 18.434 268.228 18.518L267.794 17.594C268.242 17.5287 268.68 17.426 269.11 17.286C269.548 17.1367 269.954 16.9593 270.328 16.754C270.701 16.5393 271.028 16.2967 271.308 16.026C271.597 15.7553 271.821 15.466 271.98 15.158C272.148 14.85 272.232 14.528 272.232 14.192V13.618ZM272.414 13.618H273.408V14.192C273.408 14.528 273.487 14.85 273.646 15.158C273.804 15.466 274.028 15.7553 274.318 16.026C274.607 16.2873 274.938 16.5253 275.312 16.74C275.685 16.9547 276.086 17.1367 276.516 17.286C276.954 17.426 277.398 17.5287 277.846 17.594L277.398 18.518C276.884 18.434 276.385 18.3033 275.9 18.126C275.424 17.9393 274.971 17.7153 274.542 17.454C274.122 17.1927 273.748 16.8987 273.422 16.572C273.104 16.236 272.857 15.872 272.68 15.48C272.502 15.0787 272.414 14.6493 272.414 14.192V13.618ZM267.108 19.708H278.546V20.646H267.108V19.708ZM272.82 21.682C274.173 21.682 275.232 21.8733 275.998 22.256C276.763 22.6387 277.146 23.18 277.146 23.88C277.146 24.58 276.763 25.1167 275.998 25.49C275.232 25.8727 274.173 26.064 272.82 26.064C271.457 26.064 270.393 25.8727 269.628 25.49C268.862 25.1167 268.48 24.58 268.48 23.88C268.48 23.18 268.862 22.6387 269.628 22.256C270.393 21.8733 271.457 21.682 272.82 21.682ZM272.82 22.592C271.821 22.592 271.042 22.704 270.482 22.928C269.931 23.1427 269.656 23.46 269.656 23.88C269.656 24.2907 269.931 24.608 270.482 24.832C271.042 25.056 271.821 25.168 272.82 25.168C273.809 25.168 274.584 25.056 275.144 24.832C275.704 24.608 275.984 24.2907 275.984 23.88C275.984 23.46 275.704 23.1427 275.144 22.928C274.584 22.704 273.809 22.592 272.82 22.592ZM280.295 18.882H286.763V19.834H280.295V18.882ZM282.885 19.638H284.047V22.55H282.885V19.638ZM280.295 14.626H286.707V15.564H281.443V19.218H280.295V14.626ZM288.443 13.422H289.605V26.106H288.443V13.422ZM279.511 23.362L279.357 22.382C280.187 22.382 281.069 22.3773 282.003 22.368C282.936 22.3493 283.883 22.3167 284.845 22.27C285.806 22.214 286.73 22.1347 287.617 22.032L287.715 22.886C286.791 23.026 285.848 23.1333 284.887 23.208C283.935 23.2733 283.001 23.3153 282.087 23.334C281.181 23.3527 280.323 23.362 279.511 23.362ZM294.812 15.242H295.764V17.286C295.764 17.958 295.67 18.6207 295.484 19.274C295.297 19.918 295.036 20.5293 294.7 21.108C294.373 21.6773 293.99 22.1813 293.552 22.62C293.113 23.0587 292.642 23.404 292.138 23.656L291.466 22.732C291.923 22.508 292.352 22.2047 292.754 21.822C293.164 21.4393 293.524 21.0007 293.832 20.506C294.14 20.0113 294.378 19.4887 294.546 18.938C294.723 18.3873 294.812 17.8367 294.812 17.286V15.242ZM295.05 15.242H295.988V17.286C295.988 17.818 296.072 18.35 296.24 18.882C296.417 19.4047 296.66 19.8993 296.968 20.366C297.285 20.8233 297.644 21.2293 298.046 21.584C298.456 21.9387 298.895 22.2187 299.362 22.424L298.718 23.348C298.204 23.1053 297.724 22.7787 297.276 22.368C296.828 21.9573 296.436 21.486 296.1 20.954C295.773 20.4127 295.516 19.834 295.33 19.218C295.143 18.5927 295.05 17.9487 295.05 17.286V15.242ZM291.872 14.724H298.942V15.69H291.872V14.724ZM300.664 13.422H301.826V26.092H300.664V13.422ZM310.382 14.136C311.007 14.136 311.567 14.262 312.062 14.514C312.557 14.766 312.944 15.1113 313.224 15.55C313.504 15.9887 313.644 16.4927 313.644 17.062C313.644 17.6313 313.504 18.14 313.224 18.588C312.944 19.0267 312.557 19.372 312.062 19.624C311.567 19.8667 311.007 19.988 310.382 19.988C309.757 19.988 309.197 19.8667 308.702 19.624C308.207 19.372 307.815 19.0267 307.526 18.588C307.246 18.14 307.106 17.6313 307.106 17.062C307.106 16.4927 307.246 15.9887 307.526 15.55C307.815 15.1113 308.207 14.766 308.702 14.514C309.197 14.262 309.757 14.136 310.382 14.136ZM310.382 15.102C309.981 15.102 309.617 15.186 309.29 15.354C308.963 15.522 308.707 15.7553 308.52 16.054C308.333 16.3433 308.24 16.6793 308.24 17.062C308.24 17.4447 308.333 17.7853 308.52 18.084C308.707 18.3827 308.963 18.616 309.29 18.784C309.617 18.952 309.981 19.036 310.382 19.036C310.793 19.036 311.157 18.952 311.474 18.784C311.801 18.616 312.057 18.3827 312.244 18.084C312.431 17.7853 312.524 17.4447 312.524 17.062C312.524 16.6793 312.431 16.3433 312.244 16.054C312.057 15.7553 311.801 15.522 311.474 15.354C311.157 15.186 310.793 15.102 310.382 15.102ZM315.548 13.422H316.71V19.736H315.548V13.422ZM316.206 16.264H318.572V17.23H316.206V16.264ZM308.198 24.804H308.814C309.066 24.804 309.36 24.7947 309.696 24.776C310.032 24.748 310.387 24.706 310.76 24.65C311.133 24.5847 311.502 24.4913 311.866 24.37L312.048 25.294C311.647 25.4247 311.25 25.5227 310.858 25.588C310.475 25.6533 310.111 25.6953 309.766 25.714C309.421 25.742 309.103 25.756 308.814 25.756H308.198V24.804ZM308.198 21.108H309.332V25.14H308.198V21.108ZM311.6 21.178H317.942V22.06H311.6V21.178ZM314.778 22.494C315.469 22.494 316.029 22.6573 316.458 22.984C316.897 23.3013 317.116 23.7353 317.116 24.286C317.116 24.8367 316.897 25.2707 316.458 25.588C316.029 25.9053 315.469 26.064 314.778 26.064C314.087 26.064 313.523 25.9053 313.084 25.588C312.645 25.2707 312.426 24.8367 312.426 24.286C312.426 23.7353 312.645 23.3013 313.084 22.984C313.523 22.6573 314.087 22.494 314.778 22.494ZM314.778 23.334C314.395 23.334 314.078 23.4227 313.826 23.6C313.583 23.768 313.462 23.9967 313.462 24.286C313.462 24.5753 313.583 24.8087 313.826 24.986C314.078 25.154 314.395 25.238 314.778 25.238C315.161 25.238 315.473 25.154 315.716 24.986C315.959 24.8087 316.08 24.5753 316.08 24.286C316.08 23.9967 315.959 23.768 315.716 23.6C315.473 23.4227 315.161 23.334 314.778 23.334ZM314.218 20.058H315.352V21.864H314.218V20.058ZM320.503 21.024H321.651V22.48H327.853V21.024H329.001V25.924H320.503V21.024ZM321.651 23.39V24.986H327.853V23.39H321.651ZM319.061 19.19H330.499V20.142H319.061V19.19ZM324.185 13.562H325.193V14.136C325.193 14.5747 325.1 14.99 324.913 15.382C324.726 15.7647 324.47 16.1193 324.143 16.446C323.826 16.7633 323.452 17.048 323.023 17.3C322.603 17.552 322.146 17.762 321.651 17.93C321.166 18.098 320.662 18.224 320.139 18.308L319.705 17.384C320.162 17.3187 320.606 17.216 321.035 17.076C321.474 16.936 321.884 16.768 322.267 16.572C322.65 16.3667 322.986 16.138 323.275 15.886C323.564 15.6247 323.788 15.3493 323.947 15.06C324.106 14.7613 324.185 14.4533 324.185 14.136V13.562ZM324.381 13.562H325.375V14.136C325.375 14.444 325.454 14.7473 325.613 15.046C325.781 15.3353 326.01 15.6107 326.299 15.872C326.588 16.124 326.92 16.3527 327.293 16.558C327.676 16.7633 328.082 16.9407 328.511 17.09C328.95 17.23 329.393 17.328 329.841 17.384L329.421 18.308C328.898 18.224 328.39 18.098 327.895 17.93C327.41 17.762 326.952 17.552 326.523 17.3C326.103 17.0387 325.73 16.7447 325.403 16.418C325.086 16.0913 324.834 15.7367 324.647 15.354C324.47 14.9713 324.381 14.5653 324.381 14.136V13.562ZM340.452 13.422H341.6V26.092H340.452V13.422ZM332.038 14.668H333.186V22.508H332.038V14.668ZM332.038 21.822H333.074C334.045 21.822 335.029 21.78 336.028 21.696C337.036 21.6027 338.072 21.4487 339.136 21.234L339.29 22.214C338.189 22.4473 337.129 22.6107 336.112 22.704C335.095 22.788 334.082 22.83 333.074 22.83H332.038V21.822ZM351.987 13.422H353.149V26.106H351.987V13.422ZM352.883 18.42H355.221V19.386H352.883V18.42ZM343.965 21.962H344.959C345.733 21.962 346.443 21.9527 347.087 21.934C347.74 21.906 348.365 21.8593 348.963 21.794C349.569 21.7287 350.185 21.64 350.811 21.528L350.951 22.522C350.297 22.634 349.663 22.7227 349.047 22.788C348.44 22.8533 347.805 22.8953 347.143 22.914C346.48 22.9327 345.752 22.942 344.959 22.942H343.965V21.962ZM343.965 14.654H349.831V15.606H345.113V22.41H343.965V14.654ZM356.722 25.0646C356.573 25.0646 356.445 25.0133 356.339 24.9105C356.237 24.8045 356.185 24.6768 356.185 24.5277C356.185 24.3819 356.237 24.2559 356.339 24.1499C356.445 24.0438 356.573 23.9908 356.722 23.9908C356.868 23.9908 356.994 24.0438 357.1 24.1499C357.206 24.2559 357.259 24.3819 357.259 24.5277C357.259 24.6271 357.234 24.7183 357.185 24.8011C357.138 24.8807 357.074 24.9453 356.991 24.995C356.911 25.0414 356.822 25.0646 356.722 25.0646ZM20.5 42.5192C20.2083 42.5192 19.9432 42.4496 19.7045 42.3104C19.4659 42.1679 19.2753 41.9773 19.1328 41.7386C18.9936 41.4967 18.924 41.2315 18.924 40.9432C18.924 40.6515 18.9936 40.3864 19.1328 40.1477C19.2753 39.9091 19.4659 39.7202 19.7045 39.581C19.9432 39.4384 20.2083 39.3672 20.5 39.3672C20.7884 39.3672 21.0518 39.4384 21.2905 39.581C21.5324 39.7202 21.7247 39.9091 21.8672 40.1477C22.0097 40.3864 22.0793 40.6515 22.076 40.9432C22.076 41.2315 22.0047 41.4967 21.8622 41.7386C21.7197 41.9773 21.5291 42.1679 21.2905 42.3104C21.0518 42.4496 20.7884 42.5192 20.5 42.5192ZM41.304 33.422H42.424V46.092H41.304V33.422ZM39.19 38.574H41.626V39.54H39.19V38.574ZM38.434 33.702H39.526V45.434H38.434V33.702ZM32.316 34.948H33.478V42.256H32.316V34.948ZM32.316 41.794H33.114C33.7767 41.794 34.472 41.7707 35.2 41.724C35.928 41.668 36.7027 41.556 37.524 41.388L37.664 42.41C36.8053 42.578 36.0027 42.69 35.256 42.746C34.5093 42.7927 33.7953 42.816 33.114 42.816H32.316V41.794ZM53.8784 36.712H56.7204V37.678H53.8784V36.712ZM56.3704 33.422H57.5324V40.968H56.3704V33.422ZM53.3604 41.36C54.2377 41.36 54.9891 41.4533 55.6144 41.64C56.2491 41.8267 56.7344 42.0973 57.0704 42.452C57.4064 42.7973 57.5744 43.222 57.5744 43.726C57.5744 44.4727 57.1964 45.0513 56.4404 45.462C55.6937 45.8727 54.6671 46.078 53.3604 46.078C52.0537 46.078 51.0224 45.8727 50.2664 45.462C49.5197 45.0513 49.1464 44.4727 49.1464 43.726C49.1464 43.222 49.3144 42.7973 49.6504 42.452C49.9957 42.0973 50.4811 41.8267 51.1064 41.64C51.7411 41.4533 52.4924 41.36 53.3604 41.36ZM53.3604 42.27C52.7257 42.27 52.1797 42.326 51.7224 42.438C51.2651 42.55 50.9104 42.7133 50.6584 42.928C50.4157 43.1427 50.2944 43.4087 50.2944 43.726C50.2944 44.0247 50.4157 44.2813 50.6584 44.496C50.9104 44.7107 51.2651 44.8787 51.7224 45C52.1797 45.112 52.7257 45.168 53.3604 45.168C54.0044 45.168 54.5504 45.112 54.9984 45C55.4557 44.8787 55.8057 44.7107 56.0484 44.496C56.3004 44.2813 56.4264 44.0247 56.4264 43.726C56.4264 43.4087 56.3004 43.1427 56.0484 42.928C55.8057 42.7133 55.4557 42.55 54.9984 42.438C54.5504 42.326 54.0044 42.27 53.3604 42.27ZM50.3364 34.71H51.2884V35.732C51.2884 36.5067 51.1391 37.2347 50.8404 37.916C50.5511 38.588 50.1404 39.1807 49.6084 39.694C49.0764 40.198 48.4604 40.5853 47.7604 40.856L47.1584 39.932C47.6344 39.764 48.0637 39.5353 48.4464 39.246C48.8384 38.9567 49.1744 38.6253 49.4544 38.252C49.7437 37.8787 49.9631 37.4773 50.1124 37.048C50.2617 36.6187 50.3364 36.18 50.3364 35.732V34.71ZM50.5604 34.71H51.5124V35.718C51.5124 36.2593 51.6384 36.7867 51.8904 37.3C52.1424 37.8133 52.5017 38.266 52.9684 38.658C53.4351 39.05 53.9717 39.358 54.5784 39.582L53.9904 40.506C53.2997 40.254 52.6977 39.89 52.1844 39.414C51.6711 38.9287 51.2697 38.3687 50.9804 37.734C50.7004 37.0993 50.5604 36.4273 50.5604 35.718V34.71ZM47.5224 34.346H54.2844V35.298H47.5224V34.346ZM59.2953 43.516H70.7753V44.482H59.2953V43.516ZM64.4333 40.478H65.5813V43.796H64.4333V40.478ZM60.6393 34.318H61.8013V36.572H68.2413V34.318H69.3893V40.8H60.6393V34.318ZM61.8013 37.524V39.848H68.2413V37.524H61.8013ZM73.0142 37.23H81.6242V38.168H73.0142V37.23ZM71.4602 39.862H82.9402V40.814H71.4602V39.862ZM73.0142 33.884H74.1622V37.706H73.0142V33.884ZM72.9302 44.832H81.6942V45.784H72.9302V44.832ZM72.9302 42.088H74.0922V45.084H72.9302V42.088ZM93.1906 36.936H96.6626V37.888H93.1906V36.936ZM96.1446 33.436H97.3066V42.76H96.1446V33.436ZM89.2286 44.86H97.6566V45.812H89.2286V44.86ZM89.2286 41.822H90.3766V45.266H89.2286V41.822ZM90.3486 34.248C90.9646 34.248 91.5153 34.3833 92.0006 34.654C92.4953 34.9153 92.8826 35.284 93.1626 35.76C93.452 36.2267 93.5966 36.7633 93.5966 37.37C93.5966 37.986 93.452 38.532 93.1626 39.008C92.8826 39.4747 92.4953 39.8433 92.0006 40.114C91.5153 40.3753 90.9646 40.506 90.3486 40.506C89.7233 40.506 89.1633 40.3753 88.6686 40.114C88.1833 39.8433 87.796 39.4747 87.5066 39.008C87.2266 38.532 87.0866 37.986 87.0866 37.37C87.0866 36.7633 87.2266 36.2267 87.5066 35.76C87.796 35.284 88.1833 34.9153 88.6686 34.654C89.1633 34.3833 89.7233 34.248 90.3486 34.248ZM90.3486 35.27C89.938 35.27 89.5693 35.3587 89.2426 35.536C88.9253 35.7133 88.6686 35.9607 88.4726 36.278C88.286 36.5953 88.1926 36.9593 88.1926 37.37C88.1926 37.79 88.286 38.1587 88.4726 38.476C88.6686 38.7933 88.9253 39.0453 89.2426 39.232C89.5693 39.4093 89.938 39.498 90.3486 39.498C90.75 39.498 91.114 39.4093 91.4406 39.232C91.7673 39.0453 92.024 38.7933 92.2106 38.476C92.3973 38.1587 92.4906 37.79 92.4906 37.37C92.4906 36.9593 92.3973 36.5953 92.2106 36.278C92.024 35.9607 91.7673 35.7133 91.4406 35.536C91.114 35.3587 90.75 35.27 90.3486 35.27ZM108.702 33.422H109.808V46.092H108.702V33.422ZM104.082 37.972H106.518V38.924H104.082V37.972ZM106.168 33.716H107.26V45.434H106.168V33.716ZM101.66 35.396H102.556V37.006C102.556 37.6967 102.49 38.3733 102.36 39.036C102.229 39.6893 102.038 40.3053 101.786 40.884C101.534 41.4533 101.226 41.9713 100.862 42.438C100.498 42.8953 100.087 43.2687 99.6295 43.558L98.9155 42.69C99.5035 42.3353 99.9982 41.8593 100.4 41.262C100.81 40.6647 101.123 39.9973 101.338 39.26C101.552 38.5227 101.66 37.7713 101.66 37.006V35.396ZM101.898 35.396H102.78V37.006C102.78 37.734 102.882 38.448 103.088 39.148C103.302 39.848 103.606 40.4827 103.998 41.052C104.399 41.612 104.889 42.06 105.468 42.396L104.768 43.264C104.152 42.8813 103.629 42.3727 103.2 41.738C102.78 41.094 102.458 40.366 102.234 39.554C102.01 38.7327 101.898 37.8833 101.898 37.006V35.396ZM99.2655 34.906H105.048V35.858H99.2655V34.906ZM111.248 39.82H122.7V40.758H111.248V39.82ZM112.69 37.482H121.384V38.434H112.69V37.482ZM112.69 33.968H121.272V34.906H113.852V37.79H112.69V33.968ZM112.718 44.846H121.482V45.798H112.718V44.846ZM112.718 42.102H113.866V45.098H112.718V42.102ZM126.773 35.242H127.725V37.286C127.725 37.958 127.632 38.6207 127.445 39.274C127.259 39.918 126.997 40.5293 126.661 41.108C126.335 41.6773 125.952 42.1813 125.513 42.62C125.075 43.0587 124.603 43.404 124.099 43.656L123.427 42.732C123.885 42.508 124.314 42.2047 124.715 41.822C125.126 41.4393 125.485 41.0007 125.793 40.506C126.101 40.0113 126.339 39.4887 126.507 38.938C126.685 38.3873 126.773 37.8367 126.773 37.286V35.242ZM127.011 35.242H127.949V37.286C127.949 37.818 128.033 38.35 128.201 38.882C128.379 39.4047 128.621 39.8993 128.929 40.366C129.247 40.8233 129.606 41.2293 130.007 41.584C130.418 41.9387 130.857 42.2187 131.323 42.424L130.679 43.348C130.166 43.1053 129.685 42.7787 129.237 42.368C128.789 41.9573 128.397 41.486 128.061 40.954C127.735 40.4127 127.478 39.834 127.291 39.218C127.105 38.5927 127.011 37.9487 127.011 37.286V35.242ZM123.833 34.724H130.903V35.69H123.833V34.724ZM132.625 33.422H133.787V46.092H132.625V33.422ZM144.892 35.746H148.532V36.698H144.892V35.746ZM144.892 38.476H148.56V39.428H144.892V38.476ZM148.098 33.436H149.26V42.802H148.098V33.436ZM141.126 44.86H149.554V45.812H141.126V44.86ZM141.126 41.892H142.288V45.336H141.126V41.892ZM139.46 34.276H140.622V36.502H144.038V34.276H145.186V40.646H139.46V34.276ZM140.622 37.412V39.708H144.038V37.412H140.622ZM157.085 35.76H160.473V36.698H157.085V35.76ZM156.973 38.392H160.389V39.344H156.973V38.392ZM160.277 33.436H161.439V41.01H160.277V33.436ZM156.315 34.374H157.547C157.547 35.4567 157.309 36.432 156.833 37.3C156.366 38.168 155.689 38.9147 154.803 39.54C153.925 40.156 152.88 40.646 151.667 41.01L151.191 40.086C152.264 39.7687 153.183 39.358 153.949 38.854C154.714 38.3407 155.297 37.7527 155.699 37.09C156.109 36.418 156.315 35.6807 156.315 34.878V34.374ZM151.835 34.374H157.099V35.326H151.835V34.374ZM157.323 41.15C158.181 41.15 158.919 41.248 159.535 41.444C160.16 41.64 160.645 41.92 160.991 42.284C161.336 42.648 161.509 43.082 161.509 43.586C161.509 44.0993 161.336 44.538 160.991 44.902C160.645 45.2567 160.16 45.532 159.535 45.728C158.919 45.9333 158.181 46.036 157.323 46.036C156.473 46.036 155.731 45.9333 155.097 45.728C154.471 45.532 153.986 45.2567 153.641 44.902C153.295 44.538 153.123 44.0993 153.123 43.586C153.123 43.082 153.295 42.648 153.641 42.284C153.986 41.92 154.471 41.64 155.097 41.444C155.731 41.248 156.473 41.15 157.323 41.15ZM157.323 42.074C156.707 42.074 156.17 42.1347 155.713 42.256C155.255 42.3773 154.901 42.55 154.649 42.774C154.397 42.998 154.271 43.2687 154.271 43.586C154.271 43.9033 154.397 44.174 154.649 44.398C154.901 44.622 155.255 44.7947 155.713 44.916C156.17 45.0373 156.707 45.098 157.323 45.098C157.948 45.098 158.485 45.0373 158.933 44.916C159.381 44.7947 159.731 44.622 159.983 44.398C160.235 44.174 160.361 43.9033 160.361 43.586C160.361 43.2687 160.235 42.998 159.983 42.774C159.731 42.55 159.381 42.3773 158.933 42.256C158.485 42.1347 157.948 42.074 157.323 42.074ZM175.007 33.422H176.169V46.078H175.007V33.422ZM175.861 38.56H178.185V39.526H175.861V38.56ZM171.773 34.78H172.907C172.907 35.984 172.711 37.1367 172.319 38.238C171.927 39.33 171.311 40.3427 170.471 41.276C169.631 42.2 168.525 43.0027 167.153 43.684L166.509 42.788C167.685 42.2 168.66 41.514 169.435 40.73C170.219 39.9367 170.802 39.0593 171.185 38.098C171.577 37.1273 171.773 36.082 171.773 34.962V34.78ZM167.097 34.78H172.361V35.746H167.097V34.78ZM180.172 36.936H188.754V37.888H180.172V36.936ZM180.172 33.674H181.32V37.356H180.172V33.674ZM178.618 39.358H190.07V40.31H178.618V39.358ZM184.33 41.43C185.683 41.43 186.743 41.6307 187.508 42.032C188.273 42.4333 188.656 43.0027 188.656 43.74C188.656 44.468 188.273 45.0327 187.508 45.434C186.743 45.8353 185.683 46.036 184.33 46.036C182.977 46.036 181.913 45.8353 181.138 45.434C180.373 45.0327 179.99 44.468 179.99 43.74C179.99 43.0027 180.373 42.4333 181.138 42.032C181.913 41.6307 182.977 41.43 184.33 41.43ZM184.316 42.354C183.663 42.354 183.098 42.41 182.622 42.522C182.155 42.6247 181.796 42.7787 181.544 42.984C181.292 43.1893 181.166 43.4413 181.166 43.74C181.166 44.0293 181.292 44.2813 181.544 44.496C181.796 44.7013 182.155 44.86 182.622 44.972C183.098 45.0747 183.663 45.126 184.316 45.126C184.988 45.126 185.557 45.0747 186.024 44.972C186.5 44.86 186.864 44.7013 187.116 44.496C187.368 44.2813 187.494 44.0293 187.494 43.74C187.494 43.4413 187.368 43.1893 187.116 42.984C186.864 42.7787 186.5 42.6247 186.024 42.522C185.557 42.41 184.988 42.354 184.316 42.354ZM199.463 33.422H200.625V40.786H199.463V33.422ZM200.121 36.656H202.487V37.636H200.121V36.656ZM192.659 41.346H193.807V42.676H199.463V41.346H200.625V45.924H192.659V41.346ZM193.807 43.586V44.986H199.463V43.586H193.807ZM190.825 34.724H198.301V35.662H190.825V34.724ZM194.563 36.25C195.17 36.25 195.697 36.3433 196.145 36.53C196.602 36.7073 196.957 36.964 197.209 37.3C197.461 37.6267 197.587 38.014 197.587 38.462C197.587 38.91 197.461 39.302 197.209 39.638C196.957 39.974 196.602 40.2353 196.145 40.422C195.697 40.5993 195.17 40.688 194.563 40.688C193.956 40.688 193.424 40.5993 192.967 40.422C192.519 40.2353 192.164 39.974 191.903 39.638C191.651 39.302 191.525 38.91 191.525 38.462C191.525 38.014 191.651 37.6267 191.903 37.3C192.164 36.964 192.519 36.7073 192.967 36.53C193.424 36.3433 193.956 36.25 194.563 36.25ZM194.563 37.132C193.984 37.132 193.518 37.2533 193.163 37.496C192.818 37.7387 192.645 38.0607 192.645 38.462C192.645 38.8727 192.818 39.1993 193.163 39.442C193.518 39.6847 193.984 39.806 194.563 39.806C195.132 39.806 195.594 39.6847 195.949 39.442C196.304 39.1993 196.481 38.8727 196.481 38.462C196.481 38.0607 196.304 37.7387 195.949 37.496C195.604 37.2533 195.142 37.132 194.563 37.132ZM193.989 33.31H195.151V35.228H193.989V33.31ZM212.188 33.422H213.336V46.092H212.188V33.422ZM203.774 34.668H204.922V42.508H203.774V34.668ZM203.774 41.822H204.81C205.78 41.822 206.765 41.78 207.764 41.696C208.772 41.6027 209.808 41.4487 210.872 41.234L211.026 42.214C209.924 42.4473 208.865 42.6107 207.848 42.704C206.83 42.788 205.818 42.83 204.81 42.83H203.774V41.822ZM223.723 33.422H224.885V46.106H223.723V33.422ZM224.619 38.42H226.957V39.386H224.619V38.42ZM215.701 41.962H216.695C217.469 41.962 218.179 41.9527 218.823 41.934C219.476 41.906 220.101 41.8593 220.699 41.794C221.305 41.7287 221.921 41.64 222.547 41.528L222.687 42.522C222.033 42.634 221.399 42.7227 220.783 42.788C220.176 42.8533 219.541 42.8953 218.879 42.914C218.216 42.9327 217.488 42.942 216.695 42.942H215.701V41.962ZM215.701 34.654H221.567V35.606H216.849V42.41H215.701V34.654ZM228.458 45.0646C228.309 45.0646 228.181 45.0133 228.075 44.9105C227.973 44.8045 227.921 44.6768 227.921 44.5277C227.921 44.3819 227.973 44.2559 228.075 44.1499C228.181 44.0438 228.309 43.9908 228.458 43.9908C228.604 43.9908 228.73 44.0438 228.836 44.1499C228.942 44.2559 228.995 44.3819 228.995 44.5277C228.995 44.6271 228.97 44.7183 228.921 44.8011C228.874 44.8807 228.809 44.9453 228.727 44.995C228.647 45.0414 228.558 45.0646 228.458 45.0646Z" fill="#465054"/>
</svg>
