<svg width="118" height="37" viewBox="0 0 118 37" fill="none" xmlns="http://www.w3.org/2000/svg">
<path d="M48.5609 13.728H58.4009V14.556H48.5609V13.728ZM52.9649 11.124H53.9489V13.968H52.9649V11.124ZM49.7129 5.844H50.7089V7.776H56.2289V5.844H57.2129V11.4H49.7129V5.844ZM50.7089 8.592V10.584H56.2289V8.592H50.7089ZM59.588 10.824H69.404V11.628H59.588V10.824ZM63.992 9.42H64.988V11.16H63.992V9.42ZM60.884 8.988H68.252V9.768H60.884V8.988ZM60.884 5.388H68.192V6.18H61.88V9.408H60.884V5.388ZM61.58 7.176H67.904V7.932H61.58V7.176ZM64.496 12.432C65.672 12.432 66.584 12.58 67.232 12.876C67.88 13.172 68.204 13.604 68.204 14.172C68.204 14.74 67.88 15.172 67.232 15.468C66.584 15.764 65.672 15.912 64.496 15.912C63.312 15.912 62.396 15.764 61.748 15.468C61.1 15.172 60.776 14.74 60.776 14.172C60.776 13.604 61.1 13.172 61.748 12.876C62.396 12.58 63.312 12.432 64.496 12.432ZM64.484 13.188C63.62 13.188 62.952 13.272 62.48 13.44C62.008 13.608 61.772 13.852 61.772 14.172C61.772 14.5 62.008 14.748 62.48 14.916C62.952 15.076 63.62 15.156 64.484 15.156C65.364 15.156 66.036 15.076 66.5 14.916C66.972 14.748 67.208 14.5 67.208 14.172C67.208 13.852 66.972 13.608 66.5 13.44C66.036 13.272 65.364 13.188 64.484 13.188Z" fill="#465054"/>
</svg>
