<svg width="240" height="29" viewBox="0 0 240 29" fill="none" xmlns="http://www.w3.org/2000/svg">
<path d="M19.21 0.859998H22.99V28.64H19.21V0.859998ZM15.58 11.57H20.2V14.78H15.58V11.57ZM13 1.34H16.72V27.35H13V1.34ZM0.31 3.95H4.3V20H0.31V3.95ZM0.31 18.47H2.23C3.57 18.47 5.01 18.43 6.55 18.35C8.11 18.25 9.75 18.03 11.47 17.69L11.83 21.11C10.03 21.43 8.33 21.64 6.73 21.74C5.13 21.84 3.63 21.89 2.23 21.89H0.31V18.47ZM48.831 7.58H54.111V10.82H48.831V7.58ZM53.001 0.89H57.021V17.39H53.001V0.89ZM47.601 17.99C49.561 17.99 51.251 18.2 52.671 18.62C54.091 19.04 55.181 19.65 55.941 20.45C56.721 21.25 57.111 22.21 57.111 23.33C57.111 25.05 56.261 26.37 54.561 27.29C52.861 28.23 50.541 28.7 47.601 28.7C44.661 28.7 42.341 28.23 40.641 27.29C38.941 26.37 38.091 25.05 38.091 23.33C38.091 22.21 38.471 21.25 39.231 20.45C40.011 19.65 41.111 19.04 42.531 18.62C43.951 18.2 45.641 17.99 47.601 17.99ZM47.601 21.02C46.401 21.02 45.391 21.11 44.571 21.29C43.751 21.45 43.121 21.7 42.681 22.04C42.261 22.38 42.051 22.81 42.051 23.33C42.051 23.85 42.261 24.29 42.681 24.65C43.121 24.99 43.751 25.25 44.571 25.43C45.391 25.59 46.401 25.67 47.601 25.67C48.801 25.67 49.811 25.59 50.631 25.43C51.451 25.25 52.071 24.99 52.491 24.65C52.911 24.29 53.121 23.85 53.121 23.33C53.121 22.81 52.911 22.38 52.491 22.04C52.071 21.7 51.451 21.45 50.631 21.29C49.811 21.11 48.801 21.02 47.601 21.02ZM40.191 3.65H43.431V5.42C43.431 7.18 43.151 8.86 42.591 10.46C42.031 12.06 41.171 13.47 40.011 14.69C38.871 15.89 37.411 16.79 35.631 17.39L33.621 14.24C34.761 13.86 35.741 13.35 36.561 12.71C37.401 12.07 38.081 11.36 38.601 10.58C39.141 9.78 39.541 8.94 39.801 8.06C40.061 7.18 40.191 6.3 40.191 5.42V3.65ZM41.031 3.65H44.211V5.39C44.211 6.49 44.431 7.57 44.871 8.63C45.311 9.69 45.991 10.65 46.911 11.51C47.851 12.37 49.051 13.05 50.511 13.55L48.561 16.67C46.841 16.09 45.421 15.24 44.301 14.12C43.201 12.98 42.381 11.66 41.841 10.16C41.301 8.64 41.031 7.05 41.031 5.39V3.65ZM34.701 2.57H49.641V5.72H34.701V2.57ZM61.3687 22.19H86.5387V25.43H61.3687V22.19ZM71.9287 16.25H75.8887V22.97H71.9287V16.25ZM64.0087 2.63H67.9987V6.92H79.8187V2.63H83.7787V17.09H64.0087V2.63ZM67.9987 10.04V13.91H79.8187V10.04H67.9987ZM88.9663 13.34H114.106V16.22H88.9663V13.34ZM91.7863 17.63H111.136V24.23H95.7763V26.6H91.8163V21.71H107.206V20.33H91.7863V17.63ZM91.8163 25.73H111.916V28.43H91.8163V25.73ZM92.0263 1.34H111.046V7.91H96.0163V10.16H92.0863V5.39H107.116V4.04H92.0263V1.34ZM92.0863 9.35H111.556V12.05H92.0863V9.35ZM142.827 0.829999H146.817V28.7H142.827V0.829999ZM137.967 10.55H143.757V13.76H137.967V10.55ZM129.897 5.24H133.077V7.73C133.077 9.41 132.917 11.06 132.597 12.68C132.277 14.3 131.797 15.81 131.157 17.21C130.537 18.61 129.747 19.85 128.787 20.93C127.827 22.01 126.707 22.88 125.427 23.54L123.087 20.39C124.247 19.85 125.257 19.13 126.117 18.23C126.977 17.31 127.687 16.29 128.247 15.17C128.807 14.03 129.217 12.83 129.477 11.57C129.757 10.29 129.897 9.01 129.897 7.73V5.24ZM130.827 5.24H133.947V7.73C133.947 8.95 134.077 10.17 134.337 11.39C134.617 12.59 135.037 13.74 135.597 14.84C136.177 15.92 136.897 16.89 137.757 17.75C138.617 18.61 139.627 19.31 140.787 19.85L138.477 22.97C137.157 22.35 136.017 21.52 135.057 20.48C134.097 19.44 133.307 18.25 132.687 16.91C132.067 15.55 131.597 14.09 131.277 12.53C130.977 10.97 130.827 9.37 130.827 7.73V5.24ZM124.197 3.53H139.647V6.74H124.197V3.53ZM157.285 3.98H160.555V5.72C160.555 7.48 160.265 9.15 159.685 10.73C159.125 12.31 158.265 13.7 157.105 14.9C155.945 16.08 154.475 16.96 152.695 17.54L150.715 14.39C152.235 13.89 153.475 13.19 154.435 12.29C155.415 11.37 156.135 10.34 156.595 9.2C157.055 8.04 157.285 6.88 157.285 5.72V3.98ZM158.095 3.98H161.305V5.72C161.305 6.8 161.525 7.85 161.965 8.87C162.405 9.87 163.085 10.77 164.005 11.57C164.945 12.37 166.165 13 167.665 13.46L165.745 16.58C163.985 16.06 162.535 15.26 161.395 14.18C160.275 13.08 159.445 11.81 158.905 10.37C158.365 8.91 158.095 7.36 158.095 5.72V3.98ZM151.735 2.72H166.765V5.9H151.735V2.72ZM168.955 0.89H172.945V17.36H168.955V0.89ZM171.865 7.25H176.635V10.52H171.865V7.25ZM163.885 17.84C165.825 17.84 167.495 18.06 168.895 18.5C170.295 18.92 171.375 19.53 172.135 20.33C172.895 21.13 173.275 22.1 173.275 23.24C173.275 24.38 172.895 25.35 172.135 26.15C171.375 26.97 170.295 27.59 168.895 28.01C167.495 28.45 165.825 28.67 163.885 28.67C161.965 28.67 160.295 28.45 158.875 28.01C157.475 27.59 156.385 26.97 155.605 26.15C154.845 25.35 154.465 24.38 154.465 23.24C154.465 22.1 154.845 21.13 155.605 20.33C156.385 19.53 157.475 18.92 158.875 18.5C160.295 18.06 161.965 17.84 163.885 17.84ZM163.885 20.96C162.705 20.96 161.715 21.04 160.915 21.2C160.115 21.36 159.505 21.61 159.085 21.95C158.665 22.29 158.455 22.72 158.455 23.24C158.455 23.78 158.665 24.22 159.085 24.56C159.505 24.9 160.115 25.16 160.915 25.34C161.715 25.5 162.705 25.58 163.885 25.58C165.065 25.58 166.055 25.5 166.855 25.34C167.675 25.16 168.285 24.9 168.685 24.56C169.105 24.22 169.315 23.78 169.315 23.24C169.315 22.72 169.105 22.29 168.685 21.95C168.285 21.61 167.675 21.36 166.855 21.2C166.055 21.04 165.065 20.96 163.885 20.96ZM178.673 5.06H191.963V8.21H178.673V5.06ZM185.363 9.47C186.543 9.47 187.583 9.75 188.483 10.31C189.403 10.87 190.123 11.65 190.643 12.65C191.183 13.63 191.453 14.77 191.453 16.07C191.453 17.37 191.183 18.52 190.643 19.52C190.123 20.5 189.403 21.27 188.483 21.83C187.583 22.39 186.543 22.67 185.363 22.67C184.183 22.67 183.133 22.39 182.213 21.83C181.293 21.27 180.573 20.5 180.053 19.52C179.533 18.52 179.273 17.37 179.273 16.07C179.273 14.77 179.533 13.63 180.053 12.65C180.573 11.65 181.293 10.87 182.213 10.31C183.153 9.75 184.203 9.47 185.363 9.47ZM185.363 12.77C184.883 12.77 184.443 12.9 184.043 13.16C183.643 13.42 183.333 13.8 183.113 14.3C182.893 14.78 182.783 15.37 182.783 16.07C182.783 16.77 182.893 17.37 183.113 17.87C183.333 18.37 183.643 18.75 184.043 19.01C184.443 19.25 184.883 19.37 185.363 19.37C185.863 19.37 186.303 19.25 186.683 19.01C187.063 18.75 187.363 18.37 187.583 17.87C187.803 17.37 187.913 16.77 187.913 16.07C187.913 15.37 187.803 14.78 187.583 14.3C187.363 13.8 187.063 13.42 186.683 13.16C186.303 12.9 185.863 12.77 185.363 12.77ZM198.773 0.859998H202.553V28.64H198.773V0.859998ZM195.443 12.17H200.003V15.38H195.443V12.17ZM192.923 1.37H196.643V27.47H192.923V1.37ZM183.413 1.61H187.343V7.04H183.413V1.61ZM211.82 14.99H215.81V22.76H211.82V14.99ZM221.9 14.99H225.89V22.76H221.9V14.99ZM206.3 22.19H231.47V25.43H206.3V22.19ZM218.84 2.24C220.84 2.24 222.62 2.55 224.18 3.17C225.76 3.79 226.99 4.66 227.87 5.78C228.77 6.88 229.22 8.19 229.22 9.71C229.22 11.21 228.77 12.52 227.87 13.64C226.99 14.74 225.76 15.6 224.18 16.22C222.62 16.84 220.84 17.15 218.84 17.15C216.86 17.15 215.08 16.84 213.5 16.22C211.94 15.6 210.71 14.74 209.81 13.64C208.91 12.52 208.46 11.21 208.46 9.71C208.46 8.19 208.91 6.88 209.81 5.78C210.71 4.66 211.94 3.79 213.5 3.17C215.08 2.55 216.86 2.24 218.84 2.24ZM218.84 5.33C217.56 5.33 216.43 5.51 215.45 5.87C214.49 6.21 213.74 6.7 213.2 7.34C212.66 7.98 212.39 8.77 212.39 9.71C212.39 10.61 212.66 11.39 213.2 12.05C213.74 12.69 214.49 13.19 215.45 13.55C216.43 13.89 217.56 14.06 218.84 14.06C220.14 14.06 221.27 13.89 222.23 13.55C223.21 13.19 223.96 12.69 224.48 12.05C225.02 11.39 225.29 10.61 225.29 9.71C225.29 8.77 225.02 7.98 224.48 7.34C223.96 6.7 223.21 6.21 222.23 5.87C221.27 5.51 220.14 5.33 218.84 5.33ZM237.132 26.277C236.429 26.277 235.825 26.0284 235.321 25.5312C234.824 25.027 234.575 24.4233 234.575 23.7202C234.575 23.0241 234.824 22.4276 235.321 21.9304C235.825 21.4332 236.429 21.1847 237.132 21.1847C237.814 21.1847 238.41 21.4332 238.922 21.9304C239.433 22.4276 239.689 23.0241 239.689 23.7202C239.689 24.1889 239.568 24.6186 239.326 25.0092C239.092 25.3928 238.783 25.7017 238.4 25.9361C238.016 26.1634 237.593 26.277 237.132 26.277Z" fill="#333333"/>
</svg>
