<svg width="118" height="37" viewBox="0 0 118 37" fill="none" xmlns="http://www.w3.org/2000/svg">
<g clip-path="url(#clip0_108_1087)">
<path d="M53.7969 8.652H61.2489V9.456H53.7969V8.652ZM53.7969 5.616H61.1529V6.432H54.7929V9.048H53.7969V5.616ZM52.5609 10.62H62.3769V11.436H52.5609V10.62ZM57.0849 11.052H58.0809V13.572H57.0849V11.052ZM53.8089 14.88H61.3329V15.696H53.8089V14.88ZM53.8089 12.624H54.8049V15.348H53.8089V12.624ZM71.028 5.076H72.024V11.232H71.028V5.076ZM71.748 7.716H73.62V8.544H71.748V7.716ZM68.016 5.784H69.072C69.072 6.696 68.868 7.52 68.46 8.256C68.06 8.984 67.48 9.608 66.72 10.128C65.96 10.648 65.048 11.056 63.984 11.352L63.588 10.548C64.532 10.3 65.332 9.964 65.988 9.54C66.644 9.108 67.144 8.612 67.488 8.052C67.84 7.492 68.016 6.88 68.016 6.216V5.784ZM64.068 5.784H68.58V6.588H64.068V5.784ZM65.184 11.736H72.024V15.78H65.184V11.736ZM71.04 12.552H66.168V14.976H71.04V12.552Z" fill="#465054"/>
</g>
<defs>
<clipPath id="clip0_108_1087">
<rect width="118" height="37" fill="white"/>
</clipPath>
</defs>
</svg>
