<svg width="32" height="32" viewBox="0 0 32 32" fill="none" xmlns="http://www.w3.org/2000/svg">
<g filter="url(#filter0_d_108_1279)">
<path d="M16 15.75C17.9087 15.75 20.8137 16.2352 23.2227 17.2002C24.4266 17.6825 25.4599 18.2663 26.1797 18.9307C26.8943 19.5902 27.25 20.278 27.25 21C27.25 22.2426 26.2426 23.25 25 23.25H7C5.75736 23.25 4.75 22.2426 4.75 21C4.75 20.278 5.10575 19.5902 5.82031 18.9307C6.54013 18.2663 7.57343 17.6825 8.77734 17.2002C11.1863 16.2352 14.0913 15.75 16 15.75ZM16 0.75C18.9008 0.75 21.25 3.09921 21.25 6C21.25 8.90079 18.9008 11.25 16 11.25C13.0992 11.25 10.75 8.90079 10.75 6C10.75 3.09921 13.0992 0.75 16 0.75Z" stroke="#626262" stroke-width="1.5"/>
</g>
<defs>
<filter id="filter0_d_108_1279" x="0" y="0" width="32" height="32" filterUnits="userSpaceOnUse" color-interpolation-filters="sRGB">
<feFlood flood-opacity="0" result="BackgroundImageFix"/>
<feColorMatrix in="SourceAlpha" type="matrix" values="0 0 0 0 0 0 0 0 0 0 0 0 0 0 0 0 0 0 127 0" result="hardAlpha"/>
<feOffset dy="4"/>
<feGaussianBlur stdDeviation="2"/>
<feComposite in2="hardAlpha" operator="out"/>
<feColorMatrix type="matrix" values="0 0 0 0 0 0 0 0 0 0 0 0 0 0 0 0 0 0 0.25 0"/>
<feBlend mode="normal" in2="BackgroundImageFix" result="effect1_dropShadow_108_1279"/>
<feBlend mode="normal" in="SourceGraphic" in2="effect1_dropShadow_108_1279" result="shape"/>
</filter>
</defs>
</svg>
