<svg width="310" height="90" viewBox="0 0 310 90" fill="none" xmlns="http://www.w3.org/2000/svg">
<g filter="url(#filter0_d_96_146)">
<rect x="4" width="302" height="82" rx="40" fill="white"/>
<path d="M56.7484 42.392H59.9164V47.456H56.7484V42.392ZM58.3324 31.04C59.9164 31.04 61.3324 31.296 62.5804 31.808C63.8444 32.304 64.8364 33.008 65.5564 33.92C66.2764 34.832 66.6364 35.912 66.6364 37.16C66.6364 38.392 66.2764 39.472 65.5564 40.4C64.8364 41.328 63.8444 42.048 62.5804 42.56C61.3324 43.056 59.9164 43.304 58.3324 43.304C56.7644 43.304 55.3484 43.056 54.0844 42.56C52.8364 42.048 51.8444 41.328 51.1084 40.4C50.3884 39.472 50.0284 38.392 50.0284 37.16C50.0284 35.912 50.3884 34.832 51.1084 33.92C51.8444 33.008 52.8364 32.304 54.0844 31.808C55.3484 31.296 56.7644 31.04 58.3324 31.04ZM58.3324 33.56C57.3244 33.56 56.4284 33.704 55.6444 33.992C54.8764 34.28 54.2684 34.688 53.8204 35.216C53.3884 35.744 53.1724 36.392 53.1724 37.16C53.1724 37.912 53.3884 38.56 53.8204 39.104C54.2684 39.632 54.8764 40.04 55.6444 40.328C56.4284 40.616 57.3244 40.76 58.3324 40.76C59.3564 40.76 60.2524 40.616 61.0204 40.328C61.8044 40.04 62.4124 39.632 62.8444 39.104C63.2764 38.56 63.4924 37.912 63.4924 37.16C63.4924 36.392 63.2764 35.744 62.8444 35.216C62.4124 34.688 61.8044 34.28 61.0204 33.992C60.2524 33.704 59.3564 33.56 58.3324 33.56ZM48.3004 46.952H68.4364V49.544H48.3004V46.952ZM72.8505 34.328H88.1865V36.848H72.8505V34.328ZM70.3785 38.312H90.4905V40.832H70.3785V38.312ZM72.8505 30.128H76.0185V35.672H72.8505V30.128ZM72.6345 42.176H88.1145V48.08H75.8745V50.024H72.6585V45.824H84.9225V44.576H72.6345V42.176ZM72.6585 49.472H88.7625V51.896H72.6585V49.472ZM99.6087 31.376C100.761 31.376 101.801 31.608 102.729 32.072C103.657 32.536 104.385 33.184 104.913 34.016C105.441 34.832 105.705 35.776 105.705 36.848C105.705 37.904 105.441 38.848 104.913 39.68C104.385 40.512 103.657 41.16 102.729 41.624C101.801 42.088 100.761 42.32 99.6087 42.32C98.4407 42.32 97.3927 42.088 96.4647 41.624C95.5367 41.16 94.8007 40.512 94.2567 39.68C93.7287 38.848 93.4647 37.904 93.4647 36.848C93.4647 35.776 93.7287 34.832 94.2567 34.016C94.8007 33.184 95.5367 32.536 96.4647 32.072C97.3927 31.608 98.4407 31.376 99.6087 31.376ZM99.6087 34.112C99.0327 34.112 98.5127 34.224 98.0487 34.448C97.6007 34.656 97.2407 34.968 96.9687 35.384C96.7127 35.784 96.5847 36.272 96.5847 36.848C96.5847 37.424 96.7127 37.92 96.9687 38.336C97.2407 38.752 97.6007 39.072 98.0487 39.296C98.5127 39.504 99.0327 39.608 99.6087 39.608C100.169 39.608 100.673 39.504 101.121 39.296C101.569 39.072 101.921 38.752 102.177 38.336C102.449 37.92 102.585 37.424 102.585 36.848C102.585 36.272 102.449 35.784 102.177 35.384C101.921 34.968 101.569 34.656 101.121 34.448C100.673 34.224 100.169 34.112 99.6087 34.112ZM107.793 29.864H110.985V52.16H107.793V29.864ZM92.9127 47.672L92.5527 45.08C93.8487 45.08 95.2807 45.072 96.8487 45.056C98.4327 45.024 100.057 44.96 101.721 44.864C103.401 44.752 105.025 44.584 106.593 44.36L106.809 46.664C105.209 46.984 103.585 47.216 101.937 47.36C100.289 47.488 98.6967 47.576 97.1607 47.624C95.6247 47.656 94.2087 47.672 92.9127 47.672ZM128.513 44.12H131.705V52.16H128.513V44.12ZM120.089 43.208H140.201V45.8H120.089V43.208ZM128.489 33.896H131.297V34.424C131.297 35.16 131.169 35.88 130.913 36.584C130.673 37.272 130.305 37.92 129.809 38.528C129.313 39.12 128.697 39.664 127.961 40.16C127.225 40.64 126.377 41.048 125.417 41.384C124.457 41.704 123.393 41.936 122.225 42.08L121.097 39.56C122.105 39.448 123.001 39.264 123.785 39.008C124.585 38.752 125.281 38.448 125.873 38.096C126.465 37.744 126.953 37.368 127.337 36.968C127.737 36.552 128.025 36.128 128.201 35.696C128.393 35.248 128.489 34.824 128.489 34.424V33.896ZM128.921 33.896H131.705V34.424C131.705 34.808 131.801 35.224 131.993 35.672C132.201 36.104 132.497 36.528 132.881 36.944C133.265 37.344 133.753 37.728 134.345 38.096C134.937 38.448 135.625 38.752 136.409 39.008C137.209 39.264 138.105 39.448 139.097 39.56L137.993 42.08C136.809 41.952 135.737 41.72 134.777 41.384C133.833 41.032 132.993 40.616 132.257 40.136C131.521 39.656 130.905 39.112 130.409 38.504C129.913 37.88 129.537 37.224 129.281 36.536C129.041 35.848 128.921 35.144 128.921 34.424V33.896ZM121.889 32.432H138.353V34.952H121.889V32.432ZM128.513 29.96H131.705V33.296H128.513V29.96ZM147.136 34.256H149.752V35.096C149.752 36.456 149.528 37.736 149.08 38.936C148.632 40.136 147.952 41.184 147.04 42.08C146.128 42.976 144.968 43.656 143.56 44.12L142 41.624C143.2 41.24 144.176 40.712 144.928 40.04C145.696 39.352 146.256 38.584 146.608 37.736C146.96 36.872 147.136 35.992 147.136 35.096V34.256ZM147.736 34.256H150.328V35.096C150.328 35.928 150.504 36.752 150.856 37.568C151.224 38.368 151.792 39.096 152.56 39.752C153.328 40.392 154.304 40.888 155.488 41.24L153.976 43.736C152.568 43.32 151.4 42.688 150.472 41.84C149.56 40.976 148.872 39.968 148.408 38.816C147.96 37.648 147.736 36.408 147.736 35.096V34.256ZM142.768 32.528H154.72V35.024H142.768V32.528ZM147.136 30.056H150.328V33.464H147.136V30.056ZM154 36.368H159.16V38.96H154V36.368ZM157.552 29.912H160.768V46.352H157.552V29.912ZM146.08 49.184H161.272V51.752H146.08V49.184ZM146.08 44.984H149.272V50.864H146.08V44.984ZM184.224 29.888H187.416V42.968H184.224V29.888ZM186.312 35.12H190.224V37.76H186.312V35.12ZM172.464 43.76H187.416V48.8H175.656V50.576H172.512V46.832H184.272V45.872H172.464V43.76ZM172.512 49.856H188.184V51.992H172.512V49.856ZM174.816 38.792H178.008V41.96H174.816V38.792ZM169.848 42.776L169.536 40.592C170.848 40.592 172.28 40.584 173.832 40.568C175.384 40.536 176.968 40.48 178.584 40.4C180.2 40.32 181.76 40.184 183.264 39.992L183.48 41.912C181.928 42.184 180.344 42.384 178.728 42.512C177.128 42.624 175.568 42.696 174.048 42.728C172.544 42.76 171.144 42.776 169.848 42.776ZM170.088 31.28H182.712V33.392H170.088V31.28ZM176.4 33.8C178.048 33.8 179.36 34.056 180.336 34.568C181.328 35.08 181.824 35.8 181.824 36.728C181.824 37.64 181.328 38.36 180.336 38.888C179.36 39.4 178.048 39.656 176.4 39.656C174.752 39.656 173.44 39.4 172.464 38.888C171.488 38.36 171 37.64 171 36.728C171 35.816 171.488 35.104 172.464 34.592C173.44 34.064 174.752 33.8 176.4 33.8ZM176.4 35.768C175.648 35.768 175.064 35.848 174.648 36.008C174.232 36.168 174.024 36.408 174.024 36.728C174.024 37.048 174.232 37.288 174.648 37.448C175.064 37.608 175.648 37.688 176.4 37.688C177.168 37.688 177.76 37.608 178.176 37.448C178.592 37.288 178.8 37.048 178.8 36.728C178.8 36.408 178.592 36.168 178.176 36.008C177.76 35.848 177.168 35.768 176.4 35.768ZM174.816 29.72H178.008V32.456H174.816V29.72ZM191.903 40.352H211.991V42.872H191.903V40.352ZM200.351 37.016H203.543V41.336H200.351V37.016ZM194.327 36.008H209.711V38.504H194.327V36.008ZM194.327 30.848H209.591V33.368H197.495V37.592H194.327V30.848ZM201.863 43.976C204.263 43.976 206.151 44.336 207.527 45.056C208.903 45.76 209.591 46.768 209.591 48.08C209.591 49.376 208.903 50.376 207.527 51.08C206.151 51.8 204.263 52.16 201.863 52.16C199.463 52.16 197.575 51.8 196.199 51.08C194.839 50.376 194.159 49.376 194.159 48.08C194.159 46.768 194.839 45.76 196.199 45.056C197.575 44.336 199.463 43.976 201.863 43.976ZM201.863 46.4C200.871 46.4 200.039 46.464 199.367 46.592C198.711 46.704 198.215 46.888 197.879 47.144C197.543 47.384 197.375 47.688 197.375 48.056C197.375 48.44 197.543 48.76 197.879 49.016C198.215 49.256 198.711 49.44 199.367 49.568C200.039 49.68 200.871 49.736 201.863 49.736C202.855 49.736 203.679 49.68 204.335 49.568C205.007 49.44 205.511 49.256 205.847 49.016C206.183 48.76 206.351 48.44 206.351 48.056C206.351 47.688 206.183 47.384 205.847 47.144C205.511 46.888 205.007 46.704 204.335 46.592C203.679 46.464 202.855 46.4 201.863 46.4ZM219.511 46.952H239.647V49.544H219.511V46.952ZM227.959 42.2H231.127V47.576H227.959V42.2ZM221.623 31.304H224.815V34.736H234.271V31.304H237.439V42.872H221.623V31.304ZM224.815 37.232V40.328H234.271V37.232H224.815ZM256.901 29.888H260.093V52.112H256.901V29.888ZM250.349 32.192H253.493C253.493 33.888 253.325 35.512 252.989 37.064C252.669 38.6 252.125 40.048 251.357 41.408C250.605 42.768 249.565 44.032 248.237 45.2C246.925 46.352 245.285 47.408 243.317 48.368L241.637 45.848C243.781 44.808 245.485 43.664 246.749 42.416C248.029 41.152 248.949 39.728 249.509 38.144C250.069 36.544 250.349 34.752 250.349 32.768V32.192ZM242.837 32.192H251.837V34.736H242.837V32.192Z" fill="#465054"/>
</g>
<defs>
<filter id="filter0_d_96_146" x="0" y="0" width="310" height="90" filterUnits="userSpaceOnUse" color-interpolation-filters="sRGB">
<feFlood flood-opacity="0" result="BackgroundImageFix"/>
<feColorMatrix in="SourceAlpha" type="matrix" values="0 0 0 0 0 0 0 0 0 0 0 0 0 0 0 0 0 0 127 0" result="hardAlpha"/>
<feOffset dy="4"/>
<feGaussianBlur stdDeviation="2"/>
<feComposite in2="hardAlpha" operator="out"/>
<feColorMatrix type="matrix" values="0 0 0 0 0 0 0 0 0 0 0 0 0 0 0 0 0 0 0.25 0"/>
<feBlend mode="normal" in2="BackgroundImageFix" result="effect1_dropShadow_96_146"/>
<feBlend mode="normal" in="SourceGraphic" in2="effect1_dropShadow_96_146" result="shape"/>
</filter>
</defs>
</svg>
