<svg width="310" height="63" viewBox="0 0 310 63" fill="none" xmlns="http://www.w3.org/2000/svg">
<g filter="url(#filter0_d_96_189)">
<rect x="4" width="302" height="55" rx="27.5" fill="white"/>
<path d="M92.6189 30.12H95.8109V38.16H92.6189V30.12ZM84.1949 29.208H104.307V31.8H84.1949V29.208ZM92.5949 19.896H95.4029V20.424C95.4029 21.16 95.2749 21.88 95.0189 22.584C94.7789 23.272 94.4109 23.92 93.9149 24.528C93.4189 25.12 92.8029 25.664 92.0669 26.16C91.3309 26.64 90.4829 27.048 89.5229 27.384C88.5629 27.704 87.4989 27.936 86.3309 28.08L85.2029 25.56C86.2109 25.448 87.1069 25.264 87.8909 25.008C88.6909 24.752 89.3869 24.448 89.9789 24.096C90.5709 23.744 91.0589 23.368 91.4429 22.968C91.8429 22.552 92.1309 22.128 92.3069 21.696C92.4989 21.248 92.5949 20.824 92.5949 20.424V19.896ZM93.0269 19.896H95.8109V20.424C95.8109 20.808 95.9069 21.224 96.0989 21.672C96.3069 22.104 96.6029 22.528 96.9869 22.944C97.3709 23.344 97.8589 23.728 98.4509 24.096C99.0429 24.448 99.7309 24.752 100.515 25.008C101.315 25.264 102.211 25.448 103.203 25.56L102.099 28.08C100.915 27.952 99.8429 27.72 98.8829 27.384C97.9389 27.032 97.0989 26.616 96.3629 26.136C95.6269 25.656 95.0109 25.112 94.5149 24.504C94.0189 23.88 93.6429 23.224 93.3869 22.536C93.1469 21.848 93.0269 21.144 93.0269 20.424V19.896ZM85.9949 18.432H102.459V20.952H85.9949V18.432ZM92.6189 15.96H95.8109V19.296H92.6189V15.96ZM111.241 20.256H113.857V21.096C113.857 22.456 113.633 23.736 113.185 24.936C112.737 26.136 112.057 27.184 111.145 28.08C110.233 28.976 109.073 29.656 107.665 30.12L106.105 27.624C107.305 27.24 108.281 26.712 109.033 26.04C109.801 25.352 110.361 24.584 110.713 23.736C111.065 22.872 111.241 21.992 111.241 21.096V20.256ZM111.841 20.256H114.433V21.096C114.433 21.928 114.609 22.752 114.961 23.568C115.329 24.368 115.897 25.096 116.665 25.752C117.433 26.392 118.409 26.888 119.593 27.24L118.081 29.736C116.673 29.32 115.505 28.688 114.577 27.84C113.665 26.976 112.977 25.968 112.513 24.816C112.065 23.648 111.841 22.408 111.841 21.096V20.256ZM106.873 18.528H118.825V21.024H106.873V18.528ZM111.241 16.056H114.433V19.464H111.241V16.056ZM118.105 22.368H123.265V24.96H118.105V22.368ZM121.657 15.912H124.873V32.352H121.657V15.912ZM110.185 35.184H125.377V37.752H110.185V35.184ZM110.185 30.984H113.377V36.864H110.185V30.984ZM148.09 15.864H151.306V38.16H148.09V15.864ZM150.61 24.096H154.522V26.736H150.61V24.096ZM134.746 30.192H136.618C137.882 30.192 139.066 30.176 140.17 30.144C141.274 30.096 142.346 30.024 143.386 29.928C144.426 29.816 145.49 29.664 146.578 29.472L146.89 32.112C145.77 32.304 144.666 32.456 143.578 32.568C142.506 32.68 141.402 32.752 140.266 32.784C139.13 32.816 137.914 32.832 136.618 32.832H134.746V30.192ZM134.746 17.928H145.114V20.496H137.938V31.44H134.746V17.928ZM161.384 17.616H164V20.832C164 22.272 163.872 23.656 163.616 24.984C163.36 26.296 162.968 27.528 162.44 28.68C161.928 29.816 161.264 30.824 160.448 31.704C159.648 32.568 158.696 33.256 157.592 33.768L155.696 31.128C156.672 30.696 157.512 30.128 158.216 29.424C158.936 28.704 159.528 27.888 159.992 26.976C160.456 26.048 160.8 25.064 161.024 24.024C161.264 22.984 161.384 21.92 161.384 20.832V17.616ZM162.008 17.616H164.6V20.832C164.6 21.872 164.712 22.888 164.936 23.88C165.16 24.872 165.496 25.808 165.944 26.688C166.408 27.568 166.984 28.352 167.672 29.04C168.376 29.712 169.2 30.248 170.144 30.648L168.296 33.24C167.224 32.744 166.288 32.08 165.488 31.248C164.704 30.416 164.056 29.456 163.544 28.368C163.032 27.264 162.648 26.08 162.392 24.816C162.136 23.536 162.008 22.208 162.008 20.832V17.616ZM171.224 15.864H174.416V38.16H171.224V15.864ZM197.897 15.912H201.089V28.872H197.897V15.912ZM200.225 20.928H204.041V23.568H200.225V20.928ZM184.241 17.184H187.409V19.992H191.777V17.184H194.921V27.768H184.241V17.184ZM187.409 22.464V25.272H191.777V22.464H187.409ZM186.665 29.856H201.233V32.352H189.833V37.128H186.665V29.856ZM186.665 35.328H201.665V37.872H186.665V35.328ZM221.007 15.888H224.199V38.112H221.007V15.888ZM214.455 18.192H217.599C217.599 19.888 217.431 21.512 217.095 23.064C216.775 24.6 216.231 26.048 215.463 27.408C214.711 28.768 213.671 30.032 212.343 31.2C211.031 32.352 209.391 33.408 207.423 34.368L205.743 31.848C207.887 30.808 209.591 29.664 210.855 28.416C212.135 27.152 213.055 25.728 213.615 24.144C214.175 22.544 214.455 20.752 214.455 18.768V18.192ZM206.943 18.192H215.943V20.736H206.943V18.192Z" fill="#465054"/>
</g>
<defs>
<filter id="filter0_d_96_189" x="0" y="0" width="310" height="63" filterUnits="userSpaceOnUse" color-interpolation-filters="sRGB">
<feFlood flood-opacity="0" result="BackgroundImageFix"/>
<feColorMatrix in="SourceAlpha" type="matrix" values="0 0 0 0 0 0 0 0 0 0 0 0 0 0 0 0 0 0 127 0" result="hardAlpha"/>
<feOffset dy="4"/>
<feGaussianBlur stdDeviation="2"/>
<feComposite in2="hardAlpha" operator="out"/>
<feColorMatrix type="matrix" values="0 0 0 0 0 0 0 0 0 0 0 0 0 0 0 0 0 0 0.25 0"/>
<feBlend mode="normal" in2="BackgroundImageFix" result="effect1_dropShadow_96_189"/>
<feBlend mode="normal" in="SourceGraphic" in2="effect1_dropShadow_96_189" result="shape"/>
</filter>
</defs>
</svg>
