<svg width="169" height="34" viewBox="0 0 169 34" fill="none" xmlns="http://www.w3.org/2000/svg">
<path d="M56.825 20.075H60.125V25.35H56.825V20.075ZM58.475 8.25C60.125 8.25 61.6 8.51667 62.9 9.05C64.2167 9.56667 65.25 10.3 66 11.25C66.75 12.2 67.125 13.325 67.125 14.625C67.125 15.9083 66.75 17.0333 66 18C65.25 18.9667 64.2167 19.7167 62.9 20.25C61.6 20.7667 60.125 21.025 58.475 21.025C56.8417 21.025 55.3667 20.7667 54.05 20.25C52.75 19.7167 51.7167 18.9667 50.95 18C50.2 17.0333 49.825 15.9083 49.825 14.625C49.825 13.325 50.2 12.2 50.95 11.25C51.7167 10.3 52.75 9.56667 54.05 9.05C55.3667 8.51667 56.8417 8.25 58.475 8.25ZM58.475 10.875C57.425 10.875 56.4917 11.025 55.675 11.325C54.875 11.625 54.2417 12.05 53.775 12.6C53.325 13.15 53.1 13.825 53.1 14.625C53.1 15.4083 53.325 16.0833 53.775 16.65C54.2417 17.2 54.875 17.625 55.675 17.925C56.4917 18.225 57.425 18.375 58.475 18.375C59.5417 18.375 60.475 18.225 61.275 17.925C62.0917 17.625 62.725 17.2 63.175 16.65C63.625 16.0833 63.85 15.4083 63.85 14.625C63.85 13.825 63.625 13.15 63.175 12.6C62.725 12.05 62.0917 11.625 61.275 11.325C60.475 11.025 59.5417 10.875 58.475 10.875ZM48.025 24.825H69V27.525H48.025V24.825ZM73.598 11.675H89.573V14.3H73.598V11.675ZM71.023 15.825H91.973V18.45H71.023V15.825ZM73.598 7.3H76.898V13.075H73.598V7.3ZM73.373 19.85H89.498V26H76.748V28.025H73.398V23.65H86.173V22.35H73.373V19.85ZM73.398 27.45H90.173V29.975H73.398V27.45ZM101.471 8.6C102.671 8.6 103.754 8.84167 104.721 9.325C105.688 9.80833 106.446 10.4833 106.996 11.35C107.546 12.2 107.821 13.1833 107.821 14.3C107.821 15.4 107.546 16.3833 106.996 17.25C106.446 18.1167 105.688 18.7917 104.721 19.275C103.754 19.7583 102.671 20 101.471 20C100.254 20 99.1628 19.7583 98.1961 19.275C97.2294 18.7917 96.4628 18.1167 95.8961 17.25C95.3461 16.3833 95.0711 15.4 95.0711 14.3C95.0711 13.1833 95.3461 12.2 95.8961 11.35C96.4628 10.4833 97.2294 9.80833 98.1961 9.325C99.1628 8.84167 100.254 8.6 101.471 8.6ZM101.471 11.45C100.871 11.45 100.329 11.5667 99.8461 11.8C99.3794 12.0167 99.0044 12.3417 98.7211 12.775C98.4544 13.1917 98.3211 13.7 98.3211 14.3C98.3211 14.9 98.4544 15.4167 98.7211 15.85C99.0044 16.2833 99.3794 16.6167 99.8461 16.85C100.329 17.0667 100.871 17.175 101.471 17.175C102.054 17.175 102.579 17.0667 103.046 16.85C103.513 16.6167 103.879 16.2833 104.146 15.85C104.429 15.4167 104.571 14.9 104.571 14.3C104.571 13.7 104.429 13.1917 104.146 12.775C103.879 12.3417 103.513 12.0167 103.046 11.8C102.579 11.5667 102.054 11.45 101.471 11.45ZM109.996 7.025H113.321V30.25H109.996V7.025ZM94.4961 25.575L94.1211 22.875C95.4711 22.875 96.9628 22.8667 98.5961 22.85C100.246 22.8167 101.938 22.75 103.671 22.65C105.421 22.5333 107.113 22.3583 108.746 22.125L108.971 24.525C107.304 24.8583 105.613 25.1 103.896 25.25C102.179 25.3833 100.521 25.475 98.9211 25.525C97.3211 25.5583 95.8461 25.575 94.4961 25.575ZM129.72 7.725C130.92 7.725 131.979 7.95833 132.895 8.425C133.829 8.875 134.562 9.5 135.095 10.3C135.645 11.0833 135.92 11.9917 135.92 13.025C135.92 14.0583 135.645 14.975 135.095 15.775C134.562 16.5583 133.829 17.175 132.895 17.625C131.979 18.075 130.92 18.3 129.72 18.3C128.554 18.3 127.504 18.075 126.57 17.625C125.637 17.175 124.895 16.5583 124.345 15.775C123.812 14.975 123.545 14.0583 123.545 13.025C123.545 11.9917 123.812 11.075 124.345 10.275C124.895 9.475 125.637 8.85 126.57 8.4C127.504 7.95 128.554 7.725 129.72 7.725ZM129.745 10.425C129.179 10.425 128.67 10.5333 128.22 10.75C127.77 10.95 127.412 11.2417 127.145 11.625C126.895 12.0083 126.77 12.475 126.77 13.025C126.77 13.575 126.895 14.05 127.145 14.45C127.412 14.8333 127.762 15.125 128.195 15.325C128.645 15.525 129.162 15.625 129.745 15.625C130.312 15.625 130.812 15.525 131.245 15.325C131.695 15.125 132.045 14.8333 132.295 14.45C132.562 14.05 132.695 13.575 132.695 13.025C132.695 12.475 132.562 12.0083 132.295 11.625C132.045 11.2417 131.695 10.95 131.245 10.75C130.795 10.5333 130.295 10.425 129.745 10.425ZM139.12 7.075H142.445V18.65H139.12V7.075ZM127.02 19.6H142.445V25.925H130.32V28.75H127.045V23.525H139.145V22.15H127.02V19.6ZM127.045 27.375H143.02V29.975H127.045V27.375ZM158.768 12.65H163.168V15.35H158.768V12.65ZM162.243 7.075H165.593V20.825H162.243V7.075ZM157.743 21.325C159.377 21.325 160.785 21.5 161.968 21.85C163.152 22.2 164.06 22.7083 164.693 23.375C165.343 24.0417 165.668 24.8417 165.668 25.775C165.668 27.2083 164.96 28.3083 163.543 29.075C162.127 29.8583 160.193 30.25 157.743 30.25C155.293 30.25 153.36 29.8583 151.943 29.075C150.527 28.3083 149.818 27.2083 149.818 25.775C149.818 24.8417 150.135 24.0417 150.768 23.375C151.418 22.7083 152.335 22.2 153.518 21.85C154.702 21.5 156.11 21.325 157.743 21.325ZM157.743 23.85C156.743 23.85 155.902 23.925 155.218 24.075C154.535 24.2083 154.01 24.4167 153.643 24.7C153.293 24.9833 153.118 25.3417 153.118 25.775C153.118 26.2083 153.293 26.575 153.643 26.875C154.01 27.1583 154.535 27.375 155.218 27.525C155.902 27.6583 156.743 27.725 157.743 27.725C158.743 27.725 159.585 27.6583 160.268 27.525C160.952 27.375 161.468 27.1583 161.818 26.875C162.168 26.575 162.343 26.2083 162.343 25.775C162.343 25.3417 162.168 24.9833 161.818 24.7C161.468 24.4167 160.952 24.2083 160.268 24.075C159.585 23.925 158.743 23.85 157.743 23.85ZM151.568 9.375H154.268V10.85C154.268 12.3167 154.035 13.7167 153.568 15.05C153.102 16.3833 152.385 17.5583 151.418 18.575C150.468 19.575 149.252 20.325 147.768 20.825L146.093 18.2C147.043 17.8833 147.86 17.4583 148.543 16.925C149.243 16.3917 149.81 15.8 150.243 15.15C150.693 14.4833 151.027 13.7833 151.243 13.05C151.46 12.3167 151.568 11.5833 151.568 10.85V9.375ZM152.268 9.375H154.918V10.825C154.918 11.7417 155.102 12.6417 155.468 13.525C155.835 14.4083 156.402 15.2083 157.168 15.925C157.952 16.6417 158.952 17.2083 160.168 17.625L158.543 20.225C157.11 19.7417 155.927 19.0333 154.993 18.1C154.077 17.15 153.393 16.05 152.943 14.8C152.493 13.5333 152.268 12.2083 152.268 10.825V9.375ZM146.993 8.475H159.443V11.1H146.993V8.475Z" fill="#202020"/>
<path d="M25.5 5.66666H24.0833V4.24999C24.0833 3.87427 23.9341 3.51394 23.6684 3.24826C23.4027 2.98258 23.0424 2.83333 22.6667 2.83333C22.2909 2.83333 21.9306 2.98258 21.6649 3.24826C21.3993 3.51394 21.25 3.87427 21.25 4.24999V5.66666H12.75V4.24999C12.75 3.87427 12.6007 3.51394 12.3351 3.24826C12.0694 2.98258 11.7091 2.83333 11.3333 2.83333C10.9576 2.83333 10.5973 2.98258 10.3316 3.24826C10.0659 3.51394 9.91667 3.87427 9.91667 4.24999V5.66666H8.5C7.37283 5.66666 6.29183 6.11443 5.4948 6.91146C4.69777 7.70849 4.25 8.78949 4.25 9.91666V26.9167C4.25 28.0438 4.69777 29.1248 5.4948 29.9219C6.29183 30.7189 7.37283 31.1667 8.5 31.1667H25.5C26.6272 31.1667 27.7082 30.7189 28.5052 29.9219C29.3022 29.1248 29.75 28.0438 29.75 26.9167V9.91666C29.75 8.78949 29.3022 7.70849 28.5052 6.91146C27.7082 6.11443 26.6272 5.66666 25.5 5.66666ZM11.3333 24.0833C11.0531 24.0833 10.7792 24.0002 10.5463 23.8446C10.3133 23.6889 10.1317 23.4677 10.0245 23.2088C9.91728 22.9499 9.88923 22.6651 9.94389 22.3903C9.99855 22.1155 10.1335 21.8631 10.3316 21.6649C10.5297 21.4668 10.7821 21.3319 11.057 21.2772C11.3318 21.2226 11.6166 21.2506 11.8755 21.3578C12.1343 21.4651 12.3556 21.6466 12.5112 21.8796C12.6669 22.1126 12.75 22.3865 12.75 22.6667C12.75 23.0424 12.6007 23.4027 12.3351 23.6684C12.0694 23.9341 11.7091 24.0833 11.3333 24.0833ZM22.6667 24.0833H17C16.6243 24.0833 16.2639 23.9341 15.9983 23.6684C15.7326 23.4027 15.5833 23.0424 15.5833 22.6667C15.5833 22.2909 15.7326 21.9306 15.9983 21.6649C16.2639 21.3993 16.6243 21.25 17 21.25H22.6667C23.0424 21.25 23.4027 21.3993 23.6684 21.6649C23.9341 21.9306 24.0833 22.2909 24.0833 22.6667C24.0833 23.0424 23.9341 23.4027 23.6684 23.6684C23.4027 23.9341 23.0424 24.0833 22.6667 24.0833ZM26.9167 15.5833H7.08333V9.91666C7.08333 9.54094 7.23259 9.1806 7.49827 8.91493C7.76394 8.64925 8.12428 8.49999 8.5 8.49999H9.91667V9.91666C9.91667 10.2924 10.0659 10.6527 10.3316 10.9184C10.5973 11.1841 10.9576 11.3333 11.3333 11.3333C11.7091 11.3333 12.0694 11.1841 12.3351 10.9184C12.6007 10.6527 12.75 10.2924 12.75 9.91666V8.49999H21.25V9.91666C21.25 10.2924 21.3993 10.6527 21.6649 10.9184C21.9306 11.1841 22.2909 11.3333 22.6667 11.3333C23.0424 11.3333 23.4027 11.1841 23.6684 10.9184C23.9341 10.6527 24.0833 10.2924 24.0833 9.91666V8.49999H25.5C25.8757 8.49999 26.2361 8.64925 26.5017 8.91493C26.7674 9.1806 26.9167 9.54094 26.9167 9.91666V15.5833Z" fill="#454545"/>
</svg>
